<?xml version="1.0" encoding="utf-8"?>
<!-- Generator: Adobe Illustrator 18.1.1, SVG Export Plug-In . SVG Version: 6.00 Build 0)  -->
<svg version="1.0"
	 id="canada" xmlns:cc="http://creativecommons.org/ns#" xmlns:rdf="http://www.w3.org/1999/02/22-rdf-syntax-ns#" xmlns:dc="http://purl.org/dc/elements/1.1/"
	 xmlns="http://www.w3.org/2000/svg" xmlns:xlink="http://www.w3.org/1999/xlink" x="0px" y="0px" viewBox="-79 61 640 480"
	 enable-background="new -79 61 640 480" xml:space="preserve">
<rect x="-79" y="61" fill="#FF7D00" width="640" height="480"/>
<path fill="#FFFFFF" d="M0,277.7V303l68.2-7.5v-27.4L0,277.7 M21.7,304.6v86.7h25V302L21.7,304.6 M77.4,266.9v124.4h26.3V263.2
	L77.4,266.9 M108.7,262.5v28.6l38-4.2v-29.8L108.7,262.5 M108.7,312.4v29.1l25-1.4v-29.9L108.7,312.4 M108.7,362.5v28.7h38v-29.9
	L108.7,362.5 M245,243.3v148h34.5V238.4L245,243.3 M285.9,237.5v34l50.3-5.5v-35.6L285.9,237.5 M285.9,297.2v34.7l33-1.8v-35.7
	L285.9,297.2 M285.9,357.2v34.1h50.3v-35.6L285.9,357.2 M156.7,255.7v135.6h30V251.5L156.7,255.7 M192.3,360v31.3h43.5v-32.6
	L192.3,360 M449,228.8c-10.9-10.3-26.9-14.5-44.4-12v37.8c7.1-0.4,12.8,2.2,15.4,7.5c4,8.3-0.1,20.9-10,32.5
	c-15.2,17.9-55.5,54.5-55.5,54.5l57.9-1.9c35.4-34.6,48.1-55.5,50.4-81.7C464,251.5,459,238.2,449,228.8 M464.8,391.3v-39.5
	l-117.5,3.5 M347.4,355.3v36h117.4 M397.8,217.6c-34.1,7.3-50.9,32.4-48.9,73.3l36.4-3.2c-1.7-23.1,5.4-28.6,12.6-31.6L397.8,217.6"
	/>
</svg>
