<?xml version="1.0" standalone="no"?>
<!DOCTYPE svg PUBLIC "-//W3C//DTD SVG 1.1//EN" "http://www.w3.org/Graphics/SVG/1.1/DTD/svg11.dtd" >
<svg xmlns="http://www.w3.org/2000/svg">
<metadata>
This is a custom SVG webfont generated by Font Squirrel.
Designer    : Albert Boton
Foundry     : Berthold
Foundry URL : httpwwwbertholdtypescom
</metadata>
<defs>
<font id="webfont2ELBIQBQ" horiz-adv-x="521" >
<font-face units-per-em="1000" ascent="750" descent="-250" />
<missing-glyph horiz-adv-x="292" />
<glyph unicode=" "  horiz-adv-x="292" />
<glyph unicode="&#x09;" horiz-adv-x="292" />
<glyph unicode="&#xa0;" horiz-adv-x="292" />
<glyph unicode="!" horiz-adv-x="292" d="M218 706l-7 -525h-86q-9 449 -10 525h103zM218 0h-103v105h103v-105z" />
<glyph unicode="&#x22;" horiz-adv-x="277" d="M36 742h72l-21 -294h-30zM169 742h72l-21 -294h-30z" />
<glyph unicode="#" horiz-adv-x="586" d="M338 242h-121l-33 -242h-64l33 242h-125v64h134l15 110h-127v64h136l31 226h64l-31 -226h121l31 226h63l-30 -226h122v-64h-132l-14 -110h126v-64h-135l-33 -242h-64zM362 416h-122l-14 -110h121z" />
<glyph unicode="$" horiz-adv-x="542" d="M306 -12v-98h-62v102q-80 24 -123 85l-3 -77h-69v236h74q6 -64 35.5 -113.5t85.5 -65.5v272q-184 64 -184 202q0 77 51 128.5t133 53.5v97h62v-102q70 -16 108 -78l1 75h68v-222h-74q-11 129 -103 162v-253q46 -18 74.5 -33t58.5 -39t44.5 -58.5t14.5 -80.5 q0 -82 -51 -135.5t-141 -57.5zM244 414v234q-50 -4 -79 -33t-29 -77q0 -49 26.5 -75t81.5 -49zM418 175q0 52 -28.5 81t-83.5 50v-254q51 5 81.5 39t30.5 84z" />
<glyph unicode="%" horiz-adv-x="884" d="M608 706l-272 -706h-58l273 706h57zM24 487q0 43 9 81.5t28 72.5t54 54.5t83 20.5q50 0 86 -21.5t54 -58t25.5 -72.5t7.5 -76q0 -98 -42 -165t-133 -67q-50 0 -85.5 22t-53.5 58.5t-25.5 73.5t-7.5 77zM88 487q0 -179 109 -179q110 0 110 188q0 42 -8 77t-33.5 63.5 t-66.5 28.5q-111 0 -111 -178zM513 220q0 43 9 81.5t28 72.5t54 54.5t83 20.5q50 0 86 -21.5t54 -58t25.5 -72.5t7.5 -76q0 -98 -42 -165t-133 -67q-50 0 -85.5 22t-53.5 58.5t-25.5 73.5t-7.5 77zM577 220q0 -179 109 -179q110 0 110 188q0 42 -8 77t-33.5 63.5t-66.5 28.5 q-111 0 -111 -178z" />
<glyph unicode="&#x26;" horiz-adv-x="688" d="M686 0h-119l-68 65q-82 -76 -204 -76q-105 0 -178 62.5t-73 165.5q0 125 124 193q-54 81 -54 144q0 82 58 124.5t143 42.5q71 0 124 -37t53 -105q0 -24 -6.5 -44.5t-21 -37.5t-28 -29t-37.5 -25t-39 -19l-42 -19l-38 -16q101 -106 209 -206q18 43 23 130h80 q-3 -63 -11 -101t-32 -85zM410 580q0 38 -28.5 58t-68.5 20q-51 0 -84.5 -25t-33.5 -74q0 -45 44 -114q52 22 78 34q20 9 33 17t28.5 20t23.5 28t8 36zM449 113l-239 243q-83 -44 -83 -134q0 -74 51 -121.5t125 -47.5q92 0 146 60z" />
<glyph unicode="'" horiz-adv-x="144" d="M36 742h72l-21 -294h-30z" />
<glyph unicode="(" horiz-adv-x="292" d="M238 -193h-74q-82 221 -82 458q0 265 82 458h74q-58 -178 -58 -436q0 -254 58 -480z" />
<glyph unicode=")" horiz-adv-x="292" d="M209 265q0 -117 -20.5 -240t-61.5 -218h-74q18 65 23 86q35 152 35 352q0 283 -58 477h74q82 -224 82 -457z" />
<glyph unicode="*" horiz-adv-x="396" d="M372 471l-33 -60l-110 65v-124h-67v122l-103 -63l-35 55l111 65l-111 61l31 58l107 -63v119h67v-121l109 66l33 -58l-108 -63z" />
<glyph unicode="+" horiz-adv-x="724" d="M403 35h-83v235h-227v68h227v233h83v-233h228v-68h-228v-235z" />
<glyph unicode="," horiz-adv-x="250" d="M211 99l-111 -206h-69l55 206h125z" />
<glyph unicode="-" horiz-adv-x="436" d="M402 245h-368v79h368v-79z" />
<glyph unicode="." horiz-adv-x="250" d="M178 0h-107v106h107v-106z" />
<glyph unicode="/" horiz-adv-x="375" d="M379 814l-305 -918h-80l307 918h78z" />
<glyph unicode="0" horiz-adv-x="583" d="M553 354q0 -71 -12.5 -132t-41 -117t-83.5 -88.5t-131 -32.5q-126 0 -191 99.5t-65 271.5t69.5 269.5t191.5 97.5q59 0 106 -22.5t76 -58t47.5 -85t26 -99t7.5 -103.5zM468 350q0 51 -7.5 99t-25.5 97t-56 79t-91 30q-52 0 -89 -31t-54.5 -80.5t-24.5 -94t-7 -89.5 q0 -141 44.5 -225.5t133.5 -84.5q53 0 90 29.5t55 78.5t25 95.5t7 96.5z" />
<glyph unicode="1" horiz-adv-x="583" d="M422 0h-232v63h73v568l-91 -32v68l119 39h56v-643h75v-63z" />
<glyph unicode="2" horiz-adv-x="583" d="M495 0h-445v63l203 229q3 3 27 31l31 37l27 33q20 25 28 39l18 34q12 21 16.5 38t4.5 34q0 54 -37 86t-92 32q-116 0 -132 -135h-80q8 104 66.5 152.5t147.5 48.5q90 0 148 -46t58 -134q0 -22 -3.5 -43t-14.5 -43l-16 -36q-6 -13 -25 -38l-25 -32l-30 -34.5t-27 -31.5 q-63 -74 -199 -220h273v130h78v-194z" />
<glyph unicode="3" horiz-adv-x="583" d="M519 194q0 -99 -68 -154t-169 -55q-83 0 -145.5 32.5t-88.5 102.5q-9 25 -15 72h86q4 -68 49.5 -104.5t115.5 -36.5q66 0 105.5 38.5t39.5 103.5q0 72 -46.5 106t-118.5 34h-39v67h36q69 0 111 32.5t42 100.5q0 57 -38.5 89.5t-96.5 32.5q-127 0 -145 -125h-83 q8 95 68 143.5t157 48.5t160.5 -46t63.5 -139q0 -67 -38.5 -109.5t-104.5 -57.5q69 -11 115.5 -59.5t46.5 -116.5z" />
<glyph unicode="4" horiz-adv-x="583" d="M555 197h-139v-134h74v-63h-232v63h77v134h-300v64l253 448h128v-448h139v-64zM337 654l-218 -393h216q0 262 2 393z" />
<glyph unicode="5" horiz-adv-x="583" d="M519 222q0 -109 -61.5 -173.5t-169.5 -64.5q-100 0 -161.5 54.5t-68.5 154.5h86q5 -67 44.5 -105.5t105.5 -38.5q68 0 106 44t38 112q0 37 -8 70t-24.5 61.5t-46.5 45.5t-70 17q-72 0 -124 -76l-82 12l30 371h378v-164h-74v101h-233l-20 -236q58 55 145 55 q101 0 155.5 -68.5t54.5 -171.5z" />
<glyph unicode="6" horiz-adv-x="583" d="M540 231q0 -109 -67 -178t-175 -69q-242 0 -242 341q0 57 5.5 107t22 105t43 94.5t73 65t108.5 25.5q177 0 211 -177h-84q-3 50 -40.5 82t-88.5 32q-48 0 -82.5 -28.5t-51.5 -75.5t-25 -89.5t-10 -89.5q62 84 177 84q100 0 163 -64t63 -165zM459 222q0 70 -42.5 121.5 t-113.5 51.5t-115 -50t-44 -120q0 -73 43.5 -122.5t115.5 -49.5q70 0 113 49t43 120z" />
<glyph unicode="7" horiz-adv-x="583" d="M507 643l-194 -580h75v-63h-234v63h75l194 578h-276v-113h-75v178h435v-63z" />
<glyph unicode="8" horiz-adv-x="583" d="M535 188q0 -85 -61.5 -144.5t-180.5 -59.5q-122 0 -184.5 56.5t-62.5 144.5q0 76 47 125.5t122 57.5q-145 36 -145 164q0 94 63 142.5t161 48.5q94 0 158 -49t64 -141q0 -66 -38.5 -108t-105.5 -57q163 -36 163 -180zM433 527q0 58 -39.5 95t-98.5 37q-60 0 -101 -35.5 t-41 -95.5q0 -59 39.5 -92.5t100.5 -33.5q62 0 101 32t39 93zM445 191q0 65 -44.5 102.5t-111.5 37.5t-111 -37.5t-44 -103.5t44 -104t112 -38q67 0 111 38.5t44 104.5z" />
<glyph unicode="9" horiz-adv-x="583" d="M530 379q0 -394 -257 -394q-104 0 -163.5 52t-69.5 155h86q9 -65 46 -104.5t100 -39.5q51 0 88 28.5t55 74.5t26 91.5t8 93.5q-69 -90 -181 -90q-102 0 -164.5 65t-62.5 169q0 106 67 174t173 68q72 0 123 -29.5t77 -81t37.5 -108t11.5 -124.5zM439 483q0 74 -43 123.5 t-117 49.5q-71 0 -114 -50.5t-43 -123.5q0 -70 43.5 -119t112.5 -49q72 0 116.5 48.5t44.5 120.5z" />
<glyph unicode=":" horiz-adv-x="292" d="M219 416h-105v105h105v-105zM219 0h-105v105h105v-105z" />
<glyph unicode=";" horiz-adv-x="292" d="M231 416h-105v105h105v-105zM252 99l-110 -206h-71l55 206h126z" />
<glyph unicode="&#x3c;" horiz-adv-x="724" d="M581 37l-466 232v75l466 233v-82l-378 -184l378 -187v-87z" />
<glyph unicode="=" horiz-adv-x="724" d="M625 355h-526v72h526v-72zM625 169h-526v72h526v-72z" />
<glyph unicode="&#x3e;" horiz-adv-x="724" d="M143 577l466 -232v-75l-466 -233v82l378 184l-378 187v87z" />
<glyph unicode="?" horiz-adv-x="479" d="M440 553q0 -50 -23.5 -90.5t-67.5 -90.5l-27 -31q-17 -18 -23 -25t-14.5 -18t-11 -18.5t-4.5 -18t-2 -23.5v-63h-83v62q0 43 17 72q15 27 57.5 72t70.5 87t28 84q0 46 -33 73.5t-80 27.5q-76 0 -111.5 -46.5t-35.5 -125.5h-84q3 240 227 240q82 0 141 -44.5t59 -123.5z M277 0h-103v103h103v-103z" />
<glyph unicode="@" horiz-adv-x="781" d="M525 476l12 51h57l-49 -229q-11 -53 -11 -78q0 -40 30 -40q17 0 38 16q44 35 69.5 97t25.5 134q0 107 -71.5 174.5t-184.5 67.5q-148 0 -246 -104.5t-98 -261.5q0 -139 85 -222.5t228 -83.5q86 0 159.5 32t151.5 102l35 -40q-65 -57 -107 -82q-111 -66 -242 -66 q-166 0 -268.5 100t-102.5 261q0 175 117 296.5t287 121.5q137 0 225.5 -84t88.5 -214q0 -113 -65.5 -205.5t-142.5 -92.5q-35 0 -54.5 21t-19.5 59q-51 -79 -131 -79q-55 0 -89 42t-34 111q0 107 61 187t143 80q77 0 103 -71zM358 180q56 0 100 69.5t44 159.5 q0 40 -20.5 63t-56.5 23q-58 0 -100 -62.5t-42 -147.5q0 -49 20 -77t55 -28z" />
<glyph unicode="A" horiz-adv-x="625" d="M620 0h-210v63h68l-48 162h-243l-46 -162h62v-63h-200v63h56l181 580h-53v63h257v-63h-56l176 -580h56v-63zM414 285l-103 348l-105 -348h208z" />
<glyph unicode="B" horiz-adv-x="583" d="M19 706h297q66 0 109 -18t70 -69q21 -39 21 -91q0 -119 -102 -160q58 -19 87.5 -64.5t29.5 -109.5t-31 -113q-31 -48 -76 -64.5t-111 -16.5h-294v63h74v580h-74v63zM178 646v-251h89q32 0 57 4.5t51.5 17t41 40t14.5 68.5q0 121 -143 121h-110zM178 330v-267h134 q134 0 134 134q0 66 -40 99.5t-107 33.5h-121z" />
<glyph unicode="C" horiz-adv-x="583" d="M544 236q-5 -65 -20 -106q-24 -70 -81 -106.5t-132 -36.5q-61 0 -108.5 20.5t-76.5 53.5t-48 80t-26 96t-7 106q0 51 5.5 98.5t23 100.5t44.5 91t74.5 63.5t109.5 25.5q118 0 167 -80q1 42 2 64h66v-223h-73q-23 176 -153 176q-44 0 -78 -22t-52.5 -55t-30.5 -78.5 t-15.5 -83.5t-3.5 -78q0 -38 4 -74t15.5 -77t29.5 -71t50 -50t74 -20q145 0 160 186h80z" />
<glyph unicode="D" horiz-adv-x="625" d="M580 364q0 -51 -7.5 -98t-24 -95.5t-49 -87t-76.5 -59.5q-50 -24 -134 -24h-271v63h74v580h-74v63h239q111 0 161 -20q87 -35 124.5 -124.5t37.5 -197.5zM494 356q0 88 -26.5 163.5t-91.5 105.5q-40 18 -106 18h-95v-580h83q82 0 120 19q64 32 90 108.5t26 165.5z" />
<glyph unicode="E" horiz-adv-x="562" d="M505 0h-484v63h73v580h-73v63h484v-221h-75v158h-253v-234h229v-66h-229v-280h253v175h75v-238z" />
<glyph unicode="F" horiz-adv-x="500" d="M473 485h-77v158h-219v-235h203v-68h-203v-277h74v-63h-229v63h71v580h-71v63h451v-221z" />
<glyph unicode="G" horiz-adv-x="646" d="M565 0h-67l-2 70q-62 -84 -188 -84q-73 0 -127 34t-82 89.5t-40.5 113.5t-12.5 120q0 57 7.5 108t26.5 101.5t48.5 87t78 59t110.5 22.5q103 0 171 -84q2 43 2 69h67v-227h-76q-6 78 -44 126.5t-113 48.5q-46 0 -81.5 -21t-56 -52.5t-33 -74.5t-16.5 -80t-4 -76 q0 -49 8 -95.5t27.5 -94t58 -76.5t92.5 -29q169 0 169 232h-168v65h245v-352z" />
<glyph unicode="H" horiz-adv-x="646" d="M625 0h-233v63h75v279h-290v-279h74v-63h-233v63h75v580h-75v63h233v-63h-74v-236h290v236h-75v63h233v-63h-74v-580h74v-63z" />
<glyph unicode="I" horiz-adv-x="271" d="M251 0h-233v63h74v580h-74v63h233v-63h-74v-580h74v-63z" />
<glyph unicode="J" horiz-adv-x="396" d="M384 643h-74v-478q0 -178 -172 -178q-66 0 -138 23v78q83 -36 133 -36q54 0 73.5 30t19.5 88v473h-75v63h233v-63z" />
<glyph unicode="K" horiz-adv-x="604" d="M594 0h-230v63h70l-176 301l-82 -80v-221h76v-63h-234v63h74v580h-74v63h234v-63h-76v-265l258 265h-70v63h222v-63h-51l-219 -222l219 -358h59v-63z" />
<glyph unicode="L" horiz-adv-x="479" d="M462 0h-442v63h74v580h-74v63h232v-63h-75v-580h210v176h75v-239z" />
<glyph unicode="M" horiz-adv-x="792" d="M768 0h-217v63h68v580l-180 -643h-89l-187 643v-580h60v-63h-202v63h73v580h-73v63h202l172 -605l169 605h204v-63h-71v-580h71v-63z" />
<glyph unicode="N" horiz-adv-x="625" d="M612 643h-76v-643h-133l-233 643v-580h72v-63h-222v63h73v580h-73v63h209l231 -637v574h-72v63h224v-63z" />
<glyph unicode="O" horiz-adv-x="625" d="M579 363q0 -57 -7.5 -107.5t-26.5 -101t-48.5 -87t-77.5 -59t-110 -22.5q-72 0 -125 30.5t-82.5 83.5t-43 113t-13.5 128q0 73 12 135.5t40.5 120t83 91t131.5 33.5q73 0 127 -31t83.5 -84t43 -113.5t13.5 -129.5zM495 359q0 50 -8.5 97t-28 93.5t-58 75t-91.5 28.5 t-90.5 -31t-56 -81t-26 -98t-7.5 -97q0 -50 8 -96.5t27.5 -93t58 -74.5t92.5 -28q52 0 89.5 31t56 80.5t26.5 97.5t8 96z" />
<glyph unicode="P" horiz-adv-x="542" d="M507 495q0 -104 -56.5 -158t-164.5 -54h-108v-220h73v-63h-234v63h76v580h-76v63h254q41 0 70.5 -4t59.5 -16t52 -35.5t37 -60.5q17 -43 17 -95zM420 494q0 77 -37.5 113t-112.5 36h-92v-297h73q87 0 128 31.5t41 116.5z" />
<glyph unicode="Q" horiz-adv-x="625" d="M579 365q0 -98 -25.5 -188t-86.5 -139q-35 -28 -91 -45q88 -49 180 -93l-68 -59l-264 160q-51 17 -88 54.5t-56 87t-27 98.5t-8 102q0 56 7 106.5t26 101.5t48 88t76.5 60t108.5 23q73 0 127 -30.5t83.5 -83t43.5 -113t14 -130.5zM495 364q0 47 -8.5 93.5t-27.5 93 t-57 75t-89 28.5q-54 0 -92.5 -30.5t-57 -80t-26.5 -97.5t-8 -99q0 -48 8.5 -94.5t27.5 -93.5t56.5 -76t89.5 -29q54 0 92.5 31t57 81.5t26.5 98.5t8 99z" />
<glyph unicode="R" horiz-adv-x="604" d="M585 0h-143l-42 246q-9 52 -35.5 72t-84.5 20h-103v-275h76v-63h-233v63h72v580h-72v63h312q192 0 192 -173q0 -132 -130 -166q43 -17 60.5 -41t26.5 -71l36 -192h68v-63zM440 527q0 116 -111 116h-152v-240h134q129 0 129 124z" />
<glyph unicode="S" horiz-adv-x="542" d="M499 183q0 -88 -56 -142t-145 -54q-114 0 -180 90l-2 -77h-69v240h72q8 -82 52 -135.5t121 -53.5q55 0 90.5 36.5t35.5 91.5q0 46 -28 77.5t-62 45t-86.5 32t-79.5 33.5q-105 59 -105 166q0 81 54 134.5t135 53.5q111 0 168 -90q1 47 2 75h66v-223h-73q-7 73 -44 123 t-112 50q-51 0 -85 -32t-34 -82q0 -36 14.5 -60t43 -39t58.5 -25l72 -26q42 -16 73 -34q104 -60 104 -175z" />
<glyph unicode="T" horiz-adv-x="562" d="M538 483h-72v160h-145v-580h74v-63h-229v63h73v580h-146v-160h-74v223h519v-223z" />
<glyph unicode="U" horiz-adv-x="604" d="M9 706h231v-63h-74v-375q0 -108 21 -150q33 -67 116 -67q89 0 122 75q15 35 15 150v367h-76v63h229v-63h-72v-425q0 -94 -37 -147q-57 -84 -177 -84q-55 0 -102 20.5t-76 57.5q-21 27 -31.5 62.5t-12.5 61.5t-2 72v382h-74v63z" />
<glyph unicode="V" horiz-adv-x="625" d="M624 643h-58l-206 -643h-103l-200 643h-57v63h215v-63h-70l167 -565l175 565h-70v63h207v-63z" />
<glyph unicode="W" horiz-adv-x="917" d="M917 643h-56l-139 -643h-116l-150 632l-134 -632h-116l-146 643h-61v63h214v-63h-69l124 -556l131 619h118l147 -626l118 563h-68v63h203v-63z" />
<glyph unicode="X" horiz-adv-x="583" d="M573 0h-230v63h76l-128 233l-137 -233h75v-63h-218v63h56l184 304l-160 276h-60v63h227v-63h-72l110 -200l117 200h-74v63h221v-63h-60l-161 -271l177 -309h57v-63z" />
<glyph unicode="Y" horiz-adv-x="542" d="M548 643h-51l-186 -394v-186h75v-63h-233v63h75v191l-180 389h-52v63h216v-63h-75l137 -314l140 314h-60v63h194v-63z" />
<glyph unicode="Z" horiz-adv-x="542" d="M496 0h-447v63l352 580h-258v-159h-76v222h429v-63l-353 -580h276v178h77v-241z" />
<glyph unicode="[" horiz-adv-x="292" d="M267 -196h-178v919h178v-66h-94v-787h94v-66z" />
<glyph unicode="\" horiz-adv-x="375" d="M379 -104h-78l-307 918h80z" />
<glyph unicode="]" horiz-adv-x="292" d="M202 -196h-179v66h95v787h-95v66h179v-919z" />
<glyph unicode="^" horiz-adv-x="724" d="M605 286h-84l-157 340l-157 -340h-88l204 420h78z" />
<glyph unicode="_" horiz-adv-x="500" d="M510 -206h-520v59h520v-59z" />
<glyph unicode="`" horiz-adv-x="292" d="M165 606l-101 154h100l65 -154h-64z" />
<glyph unicode="a" d="M502 0h-149l-5 61q-56 -74 -140 -74q-71 0 -119 42.5t-48 112.5q0 175 247 175q24 0 60 -2v48q0 104 -94 104q-43 0 -70.5 -23t-31.5 -66h-86q8 56 23 81q45 74 163 74q177 0 177 -181v-289h73v-63zM348 254q-37 5 -73 5q-63 0 -106 -27.5t-43 -85.5q0 -43 26 -69t69 -26 q54 0 87 35q10 10 17 23t11 21.5t6.5 29t3 26.5t1.5 34t1 34z" />
<glyph unicode="b" horiz-adv-x="562" d="M525 265q0 -48 -10 -93.5t-32.5 -88.5t-65 -69t-99.5 -26q-100 0 -151 89l-2 -77h-145v63h74v580h-74v63h156v-243q21 34 59 52t80 18q55 0 97 -22.5t66 -61.5t35.5 -85t11.5 -99zM176 256q0 -34 5.5 -66t19 -63.5t40 -50.5t63.5 -19t64.5 19t42 50t21 64t6.5 68t-6.5 69 t-20.5 67t-42.5 53.5t-67.5 20.5q-37 0 -63 -21t-38.5 -55.5t-18 -67.5t-5.5 -68z" />
<glyph unicode="c" horiz-adv-x="458" d="M441 175q-6 -86 -57 -137t-134 -51q-111 0 -161 73.5t-50 191.5q0 51 9.5 97.5t30 89.5t59.5 68.5t93 25.5q44 0 75 -17t59 -53l5 54h63v-179h-71q-5 49 -36 89.5t-77 40.5q-37 0 -63 -21.5t-38.5 -57.5t-18 -69.5t-5.5 -69.5q0 -34 5 -65.5t18 -63t38.5 -50.5t62.5 -19 q51 0 79.5 34.5t34.5 88.5h79z" />
<glyph unicode="d" horiz-adv-x="562" d="M544 0h-148v71q-54 -83 -153 -83q-53 0 -94 24t-64 64.5t-34.5 87t-11.5 96.5t12 97t36 87t66 64.5t95 24.5q45 0 76.5 -17.5t61.5 -54.5v182h-78v63h161v-643h75v-63zM387 260q0 38 -6 71t-19.5 64t-40 49t-62.5 18q-38 0 -65.5 -20.5t-41.5 -53t-20 -64t-6 -61.5 q0 -51 11 -95t42 -79t79 -35q36 0 63 21t40.5 54t19.5 66t6 65z" />
<glyph unicode="e" d="M484 257h-360v-22q0 -75 35 -128t107 -53q49 0 82 30t42 80h82q-13 -86 -68 -131t-142 -45q-114 0 -169.5 75.5t-55.5 193.5q0 119 55.5 197.5t167.5 78.5q117 0 170.5 -76.5t53.5 -199.5zM261 468q-62 0 -96 -42.5t-39 -106.5h271q-6 64 -40 106.5t-96 42.5z" />
<glyph unicode="f" horiz-adv-x="292" d="M308 648q-34 8 -52 8q-74 0 -74 -80v-55h99v-63h-99v-395h76v-63h-234v63h74v395h-74v63h74v47q0 78 31.5 115t109.5 37q23 0 69 -6v-66z" />
<glyph unicode="g" horiz-adv-x="542" d="M545 458h-76v-450q0 -96 -25 -141t-73.5 -67.5t-104.5 -22.5q-85 0 -144.5 41.5t-68.5 122.5h87q4 -46 39.5 -71.5t84.5 -25.5q123 0 123 136v98q-56 -78 -145 -78q-91 0 -147.5 72t-56.5 203q0 67 20 123.5t67.5 95.5t115.5 39q105 0 152 -83l4 71h148v-63zM388 266 q0 96 -36 148t-96 52q-61 0 -97 -55t-36 -138q0 -98 38.5 -151t94.5 -53q48 0 79 33.5t42 75t11 88.5z" />
<glyph unicode="h" horiz-adv-x="583" d="M564 0h-227v63h72v288q0 51 -22.5 84t-73.5 33q-52 0 -84 -31.5t-41.5 -71.5t-9.5 -91v-211h74v-63h-231v63h73v580h-73v63h157v-259q28 46 64 66t91 20q78 0 119 -41t41 -117v-312h71v-63z" />
<glyph unicode="i" horiz-adv-x="271" d="M182 625h-97v81h97v-81zM256 0h-234v63h77v395h-77v63h160v-458h74v-63z" />
<glyph unicode="j" horiz-adv-x="250" d="M171 626h-97v80h97v-80zM172 521v-588q0 -156 -148 -156q-36 0 -83 10v68q36 -12 63 -12q84 0 84 90v525h-77v63h161z" />
<glyph unicode="k" d="M519 0h-205v63h60l-120 213l-77 -70v-143h65v-63h-221v63h73v580h-73v63h156v-421l182 173h-69v63h212v-63h-53l-135 -125l157 -270h48v-63z" />
<glyph unicode="l" horiz-adv-x="271" d="M253 0h-231v63h74v580h-74v63h158v-643h73v-63z" />
<glyph unicode="m" horiz-adv-x="812" d="M797 0h-231v63h73v272q0 23 -0.5 35.5t-4.5 33t-11 31.5t-21.5 20t-35.5 9q-112 0 -112 -198v-203h58v-63h-202v63h63v278q0 23 -0.5 35t-4.5 31.5t-11.5 30t-22.5 18.5t-37 8q-34 0 -57.5 -18t-34.5 -48t-15.5 -59t-4.5 -62v-214h74v-63h-231v63h73v395h-73v63h149 l3 -72q15 38 51 60.5t78 22.5q110 0 138 -93q30 93 133 93q143 0 143 -166v-303h74v-63z" />
<glyph unicode="n" horiz-adv-x="583" d="M567 0h-233v63h73v285q0 119 -93 119q-40 0 -68 -20t-41 -54t-18 -66t-5 -68v-196h75v-63h-231v63h72v395h-72v63h153l3 -82q17 46 59 70.5t94 24.5q46 0 78.5 -15t48.5 -41t22.5 -52.5t6.5 -57.5v-305h76v-63z" />
<glyph unicode="o" d="M482 265q0 -68 -22 -135t-68 -103q-51 -40 -131 -40q-61 0 -105.5 21.5t-69.5 61t-36.5 87t-11.5 105.5q0 68 23 132.5t70 100.5q50 38 132 38q62 0 106.5 -24t68 -64.5t34 -85t10.5 -94.5zM397 262q0 38 -6 71t-20 65t-41.5 50.5t-66.5 18.5q-40 0 -69 -18.5t-44 -50.5 t-21.5 -66t-6.5 -72t5.5 -70.5t19.5 -65t42 -51.5t68 -19q53 0 86 34.5t43.5 78t10.5 95.5z" />
<glyph unicode="p" horiz-adv-x="562" d="M20 521h147l3 -73q34 43 66 64t80 21q56 0 98 -25.5t64.5 -67t33.5 -86.5t11 -92q0 -50 -11.5 -96.5t-34 -87.5t-63 -66t-93.5 -25q-88 0 -143 69v-196h75v-64h-233v64h74v598h-74v63zM307 461q-66 0 -98.5 -59t-32.5 -148q0 -46 11 -88.5t41.5 -76.5t77.5 -34 q38 0 65.5 20t41.5 53t20 66.5t6 69.5q0 85 -34 141t-98 56z" />
<glyph unicode="q" horiz-adv-x="562" d="M543 -204h-233v64h75v196q-58 -69 -146 -69q-54 0 -95 26t-62.5 68t-32 87t-10.5 92q0 48 11 93t33.5 87t65 67.5t98.5 25.5q47 0 79.5 -21t66.5 -64l3 73h147v-63h-74v-598h74v-64zM386 254q0 89 -32 148t-99 59q-64 0 -98 -56t-34 -141q0 -37 6 -71t20 -66.5t42 -52 t66 -19.5q67 0 98 61t31 138z" />
<glyph unicode="r" horiz-adv-x="354" d="M351 439q-23 5 -41 5q-36 0 -62.5 -15t-40 -39.5t-19.5 -50t-6 -51.5v-225h76v-63h-233v63h74v395h-74v63h147v-85q18 44 52.5 69t80.5 25q16 0 46 -6v-85z" />
<glyph unicode="s" horiz-adv-x="437" d="M37 180h68q5 -46 36 -86.5t87 -40.5q40 0 66 23t26 57q0 14 -3.5 25.5t-12.5 21t-15.5 15.5t-22.5 13l-24 11q-7 3 -27.5 10.5t-25.5 9.5q-42 16 -60 24t-43.5 25.5t-35.5 41t-10 56.5q0 68 45 107.5t106 39.5q82 0 132 -68l3 56h64v-175h-67q-6 53 -37 87.5t-82 34.5 q-39 0 -61 -21.5t-22 -51.5q0 -19 6.5 -32.5t24 -23.5t29 -14.5t41.5 -14.5q34 -12 52 -19t46.5 -22t43 -31t26 -42t11.5 -58q0 -65 -43 -108t-120 -43q-37 0 -66.5 13.5t-41.5 26.5t-25 32l-4 -59h-64v180z" />
<glyph unicode="t" horiz-adv-x="313" d="M296 -3q-54 -7 -70 -7q-75 0 -105.5 28.5t-30.5 100.5v339h-76v63h76v112l85 18v-130h114v-63h-114v-334q0 -37 14.5 -52t52.5 -15q12 0 54 7v-67z" />
<glyph unicode="u" horiz-adv-x="542" d="M526 0h-145l-5 73q-40 -85 -145 -85q-58 0 -95 29q-34 27 -45.5 62t-11.5 87v292h-74v63h157v-351q0 -114 96 -114q26 0 46 11t32 32.5t19.5 42.5t10 52t3.5 49t1 45v170h-74v63h157v-458h73v-63z" />
<glyph unicode="v" horiz-adv-x="500" d="M502 458h-53l-146 -458h-102l-148 458h-54v63h209v-63h-69l118 -377l115 377h-73v63h203v-63z" />
<glyph unicode="w" horiz-adv-x="833" d="M830 458h-51l-132 -458h-105l-126 439l-127 -439h-103l-130 458h-55v63h212v-63h-74l104 -371l126 434h105l124 -434l104 371h-72v63h200v-63z" />
<glyph unicode="x" horiz-adv-x="479" d="M473 0h-210v63h65l-93 149l-96 -149h61v-63h-196v63h51l139 205l-125 190h-53v63h196v-63h-47l77 -125l75 125h-48v63h189v-63h-56l-118 -182l139 -213h50v-63z" />
<glyph unicode="y" d="M518 458h-52l-183 -520q-15 -42 -24.5 -63.5t-28.5 -48t-46.5 -38t-65.5 -11.5q-34 0 -84 13v73q40 -19 69 -19q27 0 47 11t33 33t20 39.5t16 46.5l5 17l-169 467h-53v63h209v-63h-67l122 -362l120 362h-68v63h200v-63z" />
<glyph unicode="z" horiz-adv-x="437" d="M409 0h-393v63l289 394h-205v-109h-75v173h384v-63l-291 -395h217v116h74v-179z" />
<glyph unicode="{" horiz-adv-x="281" d="M93 265q46 -16 63 -44t17 -89v-180q0 -54 15 -75.5t61 -21.5h20v-51h-50q-75 0 -102 34.5t-27 106.5v184q0 62 -14.5 80t-67.5 32v50q52 12 67 31.5t15 81.5v181q0 72 26.5 107t103.5 35h49v-51h-26q-20 0 -33.5 -6t-21 -14t-11 -24.5t-4 -29t-0.5 -37.5v-165 q0 -61 -16.5 -88.5t-63.5 -46.5z" />
<glyph unicode="|" horiz-adv-x="256" d="M89 723h78v-919h-78v919z" />
<glyph unicode="}" horiz-adv-x="281" d="M187 266q-46 16 -63 44t-17 89v180q0 54 -15 75.5t-61 21.5h-20v51h50q75 0 102 -34.5t27 -106.5v-184q0 -62 14.5 -80t67.5 -32v-50q-52 -12 -67 -31.5t-15 -81.5v-181q0 -72 -26.5 -107t-103.5 -35h-49v51h26q20 0 33.5 6t21 14t11 24.5t4 29t0.5 37.5v165 q0 61 16.5 88.5t63.5 46.5z" />
<glyph unicode="~" horiz-adv-x="724" d="M657 319q-46 -58 -83 -81t-83 -23q-26 0 -46 7t-70 30l-52 25q-59 29 -97 29q-28 0 -50 -14.5t-50 -49.5l-10 -13l-42 56q41 53 76 76t79 23q43 0 114 -34l62 -30q56 -27 87 -27q33 0 58.5 17t64.5 64z" />
<glyph unicode="&#xa1;" horiz-adv-x="292" d="M72 0l7 525h86q9 -449 10 -525h-103zM72 706h103v-105h-103v105z" />
<glyph unicode="&#xa2;" horiz-adv-x="479" d="M444 177q-18 -168 -162 -185v-103h-63v103q-64 8 -105.5 50t-56.5 93t-15 111q0 50 8.5 95t27 88.5t55 71.5t86.5 33v103h63v-104q56 -11 86 -66l4 54h64v-179h-70q-7 43 -28.5 80t-55.5 44v-407q37 8 58 41.5t25 76.5h79zM219 59v405q-92 -36 -92 -212q0 -40 6 -76 t28 -72t58 -45z" />
<glyph unicode="&#xa3;" horiz-adv-x="562" d="M535 0h-515v63h72l41 287h-76v60h84q2 13 7 49t8 52.5t9.5 46.5t15 46.5t21 37t30.5 33.5t41 20q32 11 97 11h98v-66h-74q-51 0 -72 -7q-20 -7 -35 -23t-24 -30.5t-16.5 -43.5t-9.5 -41.5t-6 -46.5t-5 -38h152v-60h-161l-40 -287h283v189h75v-252z" />
<glyph unicode="&#xa4;" horiz-adv-x="676" d="M125 504l-66 66l49 50l67 -67q75 56 163 56q92 0 164 -55l66 66l49 -50l-66 -66q55 -73 55 -166q0 -80 -56 -163l67 -67l-50 -49l-66 67q-73 -57 -165 -57q-86 0 -162 57l-64 -65l-50 49l64 65q-56 72 -56 165q0 88 57 164zM533 337q0 87 -55.5 145t-139.5 58 q-83 0 -139.5 -57.5t-56.5 -142.5q0 -86 57 -144t142 -58q80 0 136 58t56 141z" />
<glyph unicode="&#xa5;" horiz-adv-x="567" d="M558 643h-51l-125 -264h131v-61h-161l-31 -65v-6h192v-61h-192v-123h75v-63h-233v63h75v123h-190v61h190v7l-29 64h-161v61h132l-122 264h-52v63h216v-63h-75l137 -315l140 315h-60v63h194v-63z" />
<glyph unicode="&#xa6;" horiz-adv-x="256" d="M89 723h78v-387h-78v387zM89 191h78v-387h-78v387z" />
<glyph unicode="&#xa7;" horiz-adv-x="479" d="M449 218q0 -47 -25 -79t-71 -61q33 -35 49.5 -65t16.5 -71q0 -73 -51.5 -116.5t-124.5 -43.5q-95 0 -138.5 52.5t-46.5 132.5h80q2 -50 29.5 -85t76.5 -35q41 0 68.5 27.5t27.5 68.5q0 39 -31 71.5t-75 57.5l-88 54q-43 27 -74 67.5t-31 90.5q0 46 26 82t68 51 q-39 33 -56.5 64.5t-17.5 78.5q0 78 49.5 120t129.5 42q78 0 130 -47q28 -26 39.5 -59t13.5 -84h-81q-1 55 -30 90.5t-78 35.5q-43 0 -67 -26.5t-24 -69.5q0 -14 2.5 -26.5t9 -24.5t12 -20.5t19.5 -19.5l21 -18q8 -7 27 -19l30 -16l34 -20l35 -20q57 -33 86.5 -68t29.5 -92z M276 329l-92 54q-67 -38 -67 -96q0 -26 13.5 -47t29 -33t46.5 -31l92 -58q72 39 72 99q0 21 -7.5 38.5t-24.5 31.5t-27.5 21.5t-34.5 20.5z" />
<glyph unicode="&#xa8;" horiz-adv-x="292" d="M261 634h-90v81h90v-81zM120 634h-90v81h90v-81z" />
<glyph unicode="&#xa9;" horiz-adv-x="801" d="M757 354q0 -151 -103.5 -254t-253.5 -103q-148 0 -251.5 103.5t-103.5 252.5t103.5 252.5t252.5 103.5t252.5 -103t103.5 -252zM726 352q0 139 -94.5 235t-231.5 96q-134 0 -229.5 -97t-95.5 -234t94.5 -233t230.5 -96t231 96t95 233zM503 510v59h55v-150h-60 q-22 106 -103 106q-53 0 -84 -48t-31 -130q0 -80 31.5 -124.5t87.5 -44.5q88 0 101 104h66q-6 -77 -50 -118.5t-119 -41.5q-90 0 -139 60t-49 170q0 102 48 165t125 63q81 0 121 -70z" />
<glyph unicode="&#xaa;" horiz-adv-x="333" d="M318 392h-96l-2 33q-35 -41 -85 -41q-45 0 -75.5 26t-30.5 70q0 108 156 108l34 -1v21q0 35 -11.5 54t-44.5 19q-54 0 -61 -55h-58q3 48 35 72t85 24t81.5 -29t28.5 -82v-180h44v-39zM219 549q-27 3 -43 3q-42 0 -66 -18.5t-24 -51.5q0 -25 14.5 -41.5t41.5 -16.5 q34 0 54 22q22 24 23 103z" />
<glyph unicode="&#xab;" horiz-adv-x="354" d="M323 117h-68l-82 170l82 166h68l-63 -166zM173 117h-68l-85 170l85 171h68l-63 -171z" />
<glyph unicode="&#xac;" horiz-adv-x="724" d="M621 35h-83v260h-470v69h553v-329z" />
<glyph unicode="&#xad;" horiz-adv-x="437" d="M402 245h-368v79h368v-79z" />
<glyph unicode="&#xae;" horiz-adv-x="801" d="M757 354q0 -151 -103.5 -254t-253.5 -103q-148 0 -251.5 103.5t-103.5 252.5t103.5 252.5t252.5 103.5t252.5 -103t103.5 -252zM726 352q0 139 -94.5 235t-231.5 96q-134 0 -229.5 -97t-95.5 -234t94.5 -233t230.5 -96t231 96t95 233zM228 567h199q131 0 131 -110 q0 -81 -85 -101q31 -7 45 -24.5t21 -57.5l14 -84h44v-49h-99l-16 100q-10 63 -24.5 76.5t-67.5 13.5h-51v-141h47v-49h-158v49h48v328h-48v49zM339 518v-140h65q91 0 91 71q0 69 -81 69h-75z" />
<glyph unicode="&#xaf;" horiz-adv-x="292" d="M267 632h-242v65h242v-65z" />
<glyph unicode="&#xb0;" horiz-adv-x="354" d="M324 601q0 -61 -43 -104t-104 -43t-104 43t-43 104t43 104t104 43t104 -43.5t43 -103.5zM263 601q0 36 -25 61.5t-61 25.5t-61.5 -25.5t-25.5 -61.5t25.5 -61.5t61.5 -25.5t61 25.5t25 61.5z" />
<glyph unicode="&#xb1;" horiz-adv-x="724" d="M402 178h-83v225h-227v69h227v223h83v-223h228v-69h-228v-225zM630 0h-538v70h538v-70z" />
<glyph unicode="&#xb2;" horiz-adv-x="395" d="M334 396v-129h-299v48l62 60l65 62q23 23 40 42q61 68 61 121q0 27 -19.5 46.5t-55.5 19.5q-74 0 -81 -80h-63q5 64 43.5 97t102.5 33q62 0 100 -31.5t38 -82.5q0 -58 -43 -112q-40 -50 -172 -174h168v80h53z" />
<glyph unicode="&#xb3;" horiz-adv-x="395" d="M100 587h-58q6 64 46.5 96.5t106.5 32.5q65 0 105.5 -34.5t40.5 -86.5q0 -75 -76 -102q88 -24 88 -109q0 -58 -46 -93t-116 -35q-71 0 -113.5 37.5t-46.5 99.5h64q3 -34 25.5 -61.5t74.5 -27.5q40 0 67.5 23.5t27.5 59.5t-27.5 58.5t-76.5 22.5q-17 0 -33 -2v49 q10 -1 26 -1q48 0 73 21.5t25 59.5q0 33 -22.5 52.5t-64.5 19.5q-80 0 -90 -80z" />
<glyph unicode="&#xb4;" horiz-adv-x="292" d="M229 760l-101 -154h-64l65 154h100z" />
<glyph unicode="&#xb5;" horiz-adv-x="542" d="M526 0h-145l-5 73q-42 -85 -131 -85q-48 0 -90 39v-231h-76v662h-74v63h157v-351q0 -114 96 -114q26 0 46 11t32 32.5t19.5 42.5t10 52t3.5 49t1 45v170h-74v63h157v-458h73v-63z" />
<glyph unicode="&#xb6;" horiz-adv-x="603" d="M223 319q-73 12 -114 62t-41 126q0 92 57 145.5t165 53.5h212v-51h-36v-822h-54v822h-134v-822h-55v486z" />
<glyph unicode="&#xb7;" horiz-adv-x="250" d="M71 340h107v-106h-107v106z" />
<glyph unicode="&#xb8;" horiz-adv-x="292" d="M230 -144q0 -36 -23.5 -58t-61.5 -22q-79 0 -82 74h50q7 -31 32 -31q14 0 23.5 10t9.5 26t-9 26.5t-22 10.5q-17 0 -30 -12l-49 7l37 133h45l-27 -96q16 11 36 11q35 0 53 -22.5t18 -56.5zM230 -144q0 -36 -23.5 -58t-61.5 -22q-79 0 -82 74h50q7 -31 32 -31 q14 0 23.5 10t9.5 26t-9 26.5t-22 10.5q-17 0 -30 -12l-49 7l37 133h45l-27 -96q16 11 36 11q35 0 53 -22.5t18 -56.5z" />
<glyph unicode="&#xb9;" horiz-adv-x="395" d="M291 267h-166v48h49v339l-60 -19v50l75 21h49v-391h53v-48z" />
<glyph unicode="&#xba;" horiz-adv-x="333" d="M306 556q0 -75 -34.5 -123.5t-106.5 -48.5t-105 46.5t-33 119.5q0 75 33.5 123t107.5 48q70 0 104 -45.5t34 -119.5zM249 554q0 51 -18.5 88.5t-63.5 37.5q-46 0 -64.5 -39.5t-18.5 -91.5q0 -50 19 -86.5t65 -36.5q30 0 49.5 22.5t25.5 49t6 56.5z" />
<glyph unicode="&#xbb;" horiz-adv-x="354" d="M333 281l-85 -165h-68l63 165l-63 171h68zM185 281l-86 -165h-68l63 165l-63 171h68z" />
<glyph unicode="&#xbc;" horiz-adv-x="884" d="M600 706l-272 -706h-58l273 706h57zM293 267h-166v48h49v339l-60 -19v50l75 21h49v-391h53v-48zM836 118h-93v-70h51v-48h-164v48h51v70h-192v45l167 276h87v-274h93v-47zM550 164h134q0 148 1 222z" />
<glyph unicode="&#xbd;" horiz-adv-x="884" d="M589 706l-272 -706h-58l273 706h57zM285 267h-166v48h49v339l-60 -19v50l75 21h49v-391h53v-48zM806 129v-129h-299v48l62 60l65 62q23 23 40 42q61 68 61 121q0 27 -19.5 46.5t-55.5 19.5q-74 0 -81 -80h-63q5 64 43.5 97t102.5 33q62 0 100 -31.5t38 -82.5 q0 -58 -43 -112q-40 -50 -172 -174h168v80h53z" />
<glyph unicode="&#xbe;" horiz-adv-x="884" d="M632 706l-272 -706h-58l273 706h57zM124 587h-58q6 64 46.5 96.5t106.5 32.5q65 0 105.5 -34.5t40.5 -86.5q0 -75 -76 -102q88 -24 88 -109q0 -58 -46 -93t-116 -35q-71 0 -113.5 37.5t-46.5 99.5h64q3 -34 25.5 -61.5t74.5 -27.5q40 0 67.5 23.5t27.5 59.5t-27.5 58.5 t-76.5 22.5q-17 0 -33 -2v49q10 -1 26 -1q48 0 73 21.5t25 59.5q0 33 -22.5 52.5t-64.5 19.5q-80 0 -90 -80zM852 118h-93v-70h51v-48h-164v48h51v70h-192v45l167 276h87v-274h93v-47zM566 164h134q0 148 1 222z" />
<glyph unicode="&#xbf;" horiz-adv-x="479" d="M40 153q0 50 23.5 90.5t67.5 90.5l27 31q17 18 23 25t14.5 18t11 18.5t4.5 18t2 23.5v63h83v-62q0 -43 -17 -72q-15 -27 -57.5 -72t-70.5 -87t-28 -84q0 -46 33 -73.5t80 -27.5q76 0 111.5 46.5t35.5 125.5h84q-3 -240 -227 -240q-82 0 -141 44.5t-59 123.5zM203 706h103 v-103h-103v103z" />
<glyph unicode="&#xc0;" horiz-adv-x="625" d="M620 0h-210v63h68l-48 162h-243l-46 -162h62v-63h-200v63h56l181 580h-53v63h257v-63h-56l176 -580h56v-63zM414 285l-103 348l-105 -348h208zM326 775l-173 120h139l112 -120h-78z" />
<glyph unicode="&#xc1;" horiz-adv-x="625" d="M620 0h-210v63h68l-48 162h-243l-46 -162h62v-63h-200v63h56l181 580h-53v63h257v-63h-56l176 -580h56v-63zM414 285l-103 348l-105 -348h208zM472 895l-173 -120h-78l112 120h139z" />
<glyph unicode="&#xc2;" horiz-adv-x="625" d="M620 0h-210v63h68l-48 162h-243l-46 -162h62v-63h-200v63h56l181 580h-53v63h257v-63h-56l176 -580h56v-63zM414 285l-103 348l-105 -348h208zM446 775h-53l-82 58l-86 -58h-53l97 111h85z" />
<glyph unicode="&#xc3;" horiz-adv-x="625" d="M620 0h-210v63h68l-48 162h-243l-46 -162h62v-63h-200v63h56l181 580h-53v63h257v-63h-56l176 -580h56v-63zM414 285l-103 348l-105 -348h208zM208 788h-54q1 58 21.5 88.5t55.5 30.5q28 0 61 -19l61 -35q20 -11 32 -11q13 0 19.5 13.5t9.5 46.5h52q0 -121 -78 -121 q-31 0 -64 19l-55 31q-24 13 -34 13q-24 0 -27 -56z" />
<glyph unicode="&#xc4;" horiz-adv-x="625" d="M620 0h-210v63h68l-48 162h-243l-46 -162h62v-63h-200v63h56l181 580h-53v63h257v-63h-56l176 -580h56v-63zM414 285l-103 348l-105 -348h208zM432 803h-90v83h90v-83zM278 803h-90v83h90v-83z" />
<glyph unicode="&#xc5;" horiz-adv-x="625" d="M620 0h-210v63h68l-48 162h-243l-46 -162h62v-63h-200v63h56l181 580h-53v63h257v-63h-56l176 -580h56v-63zM414 285l-103 348l-105 -348h208zM394 830q0 -34 -24 -58t-58 -24t-58.5 24t-24.5 58t24 57.5t59 23.5q34 0 58 -24t24 -57zM359 830q0 20 -14 34.5t-33 14.5 q-20 0 -34 -14.5t-14 -34.5t13.5 -34t34.5 -14q19 0 33 14t14 34z" />
<glyph unicode="&#xc6;" horiz-adv-x="854" d="M794 0h-399v63h67l-25 162h-239l-67 -162h67v-63h-194v63h48l239 580h-63v63h566v-219h-74v156h-266l35 -234h204v-66h-194l44 -280h177v175h74v-238zM427 287l-55 361l-148 -361h203z" />
<glyph unicode="&#xc7;" horiz-adv-x="583" d="M544 236q-5 -65 -20 -106q-24 -69 -79.5 -105t-129.5 -38l-18 -66q16 11 38 11q37 0 56 -23.5t19 -57.5q0 -37 -24.5 -60t-65.5 -23q-84 0 -87 77h53q6 -32 34 -32q15 0 25 10.5t10 26.5t-9.5 27t-23.5 11q-17 0 -32 -12l-51 7l30 107q-224 27 -224 353q0 51 5.5 98.5 t23 100.5t44.5 91t74.5 63.5t109.5 25.5q118 0 167 -80q1 42 2 64h66v-223h-73q-23 176 -153 176q-44 0 -78 -22t-52.5 -55t-30.5 -78.5t-15.5 -83.5t-3.5 -78q0 -38 4 -74t15.5 -77t29.5 -71t50 -50t74 -20q145 0 160 186h80z" />
<glyph unicode="&#xc8;" horiz-adv-x="562" d="M505 0h-484v63h73v580h-73v63h484v-221h-75v158h-253v-234h229v-66h-229v-280h253v175h75v-238zM294 775l-173 120h139l112 -120h-78z" />
<glyph unicode="&#xc9;" horiz-adv-x="562" d="M505 0h-484v63h73v580h-73v63h484v-221h-75v158h-253v-234h229v-66h-229v-280h253v175h75v-238zM441 895l-173 -120h-78l112 120h139z" />
<glyph unicode="&#xca;" horiz-adv-x="562" d="M505 0h-484v63h73v580h-73v63h484v-221h-75v158h-253v-234h229v-66h-229v-280h253v175h75v-238zM414 775h-53l-82 58l-86 -58h-53l97 111h85z" />
<glyph unicode="&#xcb;" horiz-adv-x="562" d="M505 0h-484v63h73v580h-73v63h484v-221h-75v158h-253v-234h229v-66h-229v-280h253v175h75v-238zM402 803h-90v83h90v-83zM248 803h-90v83h90v-83z" />
<glyph unicode="&#xcc;" horiz-adv-x="271" d="M251 0h-233v63h74v580h-74v63h233v-63h-74v-580h74v-63zM149 775l-173 120h139l112 -120h-78z" />
<glyph unicode="&#xcd;" horiz-adv-x="271" d="M251 0h-233v63h74v580h-74v63h233v-63h-74v-580h74v-63zM294 895l-173 -120h-78l112 120h139z" />
<glyph unicode="&#xce;" horiz-adv-x="271" d="M251 0h-233v63h74v580h-74v63h233v-63h-74v-580h74v-63zM269 775h-53l-82 58l-86 -58h-53l97 111h85z" />
<glyph unicode="&#xcf;" horiz-adv-x="271" d="M251 0h-233v63h74v580h-74v63h233v-63h-74v-580h74v-63zM255 803h-90v83h90v-83zM101 803h-90v83h90v-83z" />
<glyph unicode="&#xd0;" horiz-adv-x="625" d="M580 364q0 -51 -7.5 -98t-24 -95.5t-49 -87t-76.5 -59.5q-50 -24 -134 -24h-271v63h74v281h-72v63h72v236h-74v63h256q91 0 146 -22q60 -24 97.5 -79t50 -113.5t12.5 -127.5zM494 356q0 88 -26.5 163.5t-91.5 105.5q-40 18 -106 18h-95v-236h179v-63h-179v-281h83 q82 0 120 19q64 32 90 108.5t26 165.5z" />
<glyph unicode="&#xd1;" horiz-adv-x="625" d="M612 643h-76v-643h-133l-233 643v-580h72v-63h-222v63h73v580h-73v63h209l231 -637v574h-72v63h224v-63zM208 788h-54q1 58 21.5 88.5t55.5 30.5q28 0 61 -19l61 -35q20 -11 32 -11q13 0 19.5 13.5t9.5 46.5h52q0 -121 -78 -121q-31 0 -64 19l-55 31q-24 13 -34 13 q-24 0 -27 -56z" />
<glyph unicode="&#xd2;" horiz-adv-x="625" d="M579 363q0 -57 -7.5 -107.5t-26.5 -101t-48.5 -87t-77.5 -59t-110 -22.5q-72 0 -125 30.5t-82.5 83.5t-43 113t-13.5 128q0 73 12 135.5t40.5 120t83 91t131.5 33.5q73 0 127 -31t83.5 -84t43 -113.5t13.5 -129.5zM495 359q0 50 -8.5 97t-28 93.5t-58 75t-91.5 28.5 t-90.5 -31t-56 -81t-26 -98t-7.5 -97q0 -50 8 -96.5t27.5 -93t58 -74.5t92.5 -28q52 0 89.5 31t56 80.5t26.5 97.5t8 96zM325 775l-173 120h139l112 -120h-78z" />
<glyph unicode="&#xd3;" horiz-adv-x="625" d="M579 363q0 -57 -7.5 -107.5t-26.5 -101t-48.5 -87t-77.5 -59t-110 -22.5q-72 0 -125 30.5t-82.5 83.5t-43 113t-13.5 128q0 73 12 135.5t40.5 120t83 91t131.5 33.5q73 0 127 -31t83.5 -84t43 -113.5t13.5 -129.5zM495 359q0 50 -8.5 97t-28 93.5t-58 75t-91.5 28.5 t-90.5 -31t-56 -81t-26 -98t-7.5 -97q0 -50 8 -96.5t27.5 -93t58 -74.5t92.5 -28q52 0 89.5 31t56 80.5t26.5 97.5t8 96zM471 895l-173 -120h-78l112 120h139z" />
<glyph unicode="&#xd4;" horiz-adv-x="625" d="M579 363q0 -57 -7.5 -107.5t-26.5 -101t-48.5 -87t-77.5 -59t-110 -22.5q-72 0 -125 30.5t-82.5 83.5t-43 113t-13.5 128q0 73 12 135.5t40.5 120t83 91t131.5 33.5q73 0 127 -31t83.5 -84t43 -113.5t13.5 -129.5zM495 359q0 50 -8.5 97t-28 93.5t-58 75t-91.5 28.5 t-90.5 -31t-56 -81t-26 -98t-7.5 -97q0 -50 8 -96.5t27.5 -93t58 -74.5t92.5 -28q52 0 89.5 31t56 80.5t26.5 97.5t8 96zM446 775h-53l-82 58l-86 -58h-53l97 111h85z" />
<glyph unicode="&#xd5;" horiz-adv-x="625" d="M579 363q0 -57 -7.5 -107.5t-26.5 -101t-48.5 -87t-77.5 -59t-110 -22.5q-72 0 -125 30.5t-82.5 83.5t-43 113t-13.5 128q0 73 12 135.5t40.5 120t83 91t131.5 33.5q73 0 127 -31t83.5 -84t43 -113.5t13.5 -129.5zM495 359q0 50 -8.5 97t-28 93.5t-58 75t-91.5 28.5 t-90.5 -31t-56 -81t-26 -98t-7.5 -97q0 -50 8 -96.5t27.5 -93t58 -74.5t92.5 -28q52 0 89.5 31t56 80.5t26.5 97.5t8 96zM219 788h-54q1 58 21.5 88.5t55.5 30.5q28 0 61 -19l61 -35q20 -11 32 -11q13 0 19.5 13.5t9.5 46.5h52q0 -121 -78 -121q-31 0 -64 19l-55 31 q-24 13 -34 13q-24 0 -27 -56z" />
<glyph unicode="&#xd6;" horiz-adv-x="625" d="M579 363q0 -57 -7.5 -107.5t-26.5 -101t-48.5 -87t-77.5 -59t-110 -22.5q-72 0 -125 30.5t-82.5 83.5t-43 113t-13.5 128q0 73 12 135.5t40.5 120t83 91t131.5 33.5q73 0 127 -31t83.5 -84t43 -113.5t13.5 -129.5zM495 359q0 50 -8.5 97t-28 93.5t-58 75t-91.5 28.5 t-90.5 -31t-56 -81t-26 -98t-7.5 -97q0 -50 8 -96.5t27.5 -93t58 -74.5t92.5 -28q52 0 89.5 31t56 80.5t26.5 97.5t8 96zM433 803h-90v83h90v-83zM279 803h-90v83h90v-83z" />
<glyph unicode="&#xd7;" horiz-adv-x="724" d="M581 147l-56 -58l-164 161l-161 -162l-52 50l160 163l-163 160l55 59l164 -161l160 163l52 -51l-160 -162z" />
<glyph unicode="&#xd8;" horiz-adv-x="625" d="M598 787l-89 -155q70 -94 70 -250q0 -55 -7 -107t-26 -106t-48.5 -93.5t-78 -64.5t-110.5 -25q-83 0 -138 37l-67 -125h-81l97 169q-76 95 -76 261q0 56 7.5 108.5t26.5 105.5t48.5 91.5t78 63t110.5 24.5q76 0 144 -40l57 106h82zM422 613q-27 22 -49 31t-55 9 q-55 0 -95 -33t-59 -86t-27.5 -104t-8.5 -103q0 -106 36 -181zM495 381q0 103 -33 169l-256 -461q40 -36 100 -36q55 0 94.5 33.5t58.5 87.5t27.5 105t8.5 102z" />
<glyph unicode="&#xd9;" horiz-adv-x="604" d="M9 706h231v-63h-74v-375q0 -108 21 -150q33 -67 116 -67q89 0 122 75q15 35 15 150v367h-76v63h229v-63h-72v-425q0 -94 -37 -147q-57 -84 -177 -84q-55 0 -102 20.5t-76 57.5q-21 27 -31.5 62.5t-12.5 61.5t-2 72v382h-74v63zM315 775l-173 120h139l112 -120h-78z" />
<glyph unicode="&#xda;" horiz-adv-x="604" d="M9 706h231v-63h-74v-375q0 -108 21 -150q33 -67 116 -67q89 0 122 75q15 35 15 150v367h-76v63h229v-63h-72v-425q0 -94 -37 -147q-57 -84 -177 -84q-55 0 -102 20.5t-76 57.5q-21 27 -31.5 62.5t-12.5 61.5t-2 72v382h-74v63zM461 895l-173 -120h-78l112 120h139z" />
<glyph unicode="&#xdb;" horiz-adv-x="604" d="M9 706h231v-63h-74v-375q0 -108 21 -150q33 -67 116 -67q89 0 122 75q15 35 15 150v367h-76v63h229v-63h-72v-425q0 -94 -37 -147q-57 -84 -177 -84q-55 0 -102 20.5t-76 57.5q-21 27 -31.5 62.5t-12.5 61.5t-2 72v382h-74v63zM436 775h-53l-82 58l-86 -58h-53l97 111h85 z" />
<glyph unicode="&#xdc;" horiz-adv-x="604" d="M9 706h231v-63h-74v-375q0 -108 21 -150q33 -67 116 -67q89 0 122 75q15 35 15 150v367h-76v63h229v-63h-72v-425q0 -94 -37 -147q-57 -84 -177 -84q-55 0 -102 20.5t-76 57.5q-21 27 -31.5 62.5t-12.5 61.5t-2 72v382h-74v63zM422 803h-90v83h90v-83zM268 803h-90v83h90 v-83z" />
<glyph unicode="&#xdd;" horiz-adv-x="542" d="M548 643h-51l-186 -394v-186h75v-63h-233v63h75v191l-180 389h-52v63h216v-63h-75l137 -314l140 314h-60v63h194v-63zM353 945l-101 -154h-64l65 154h100z" />
<glyph unicode="&#xde;" horiz-adv-x="542" d="M178 574h103q226 0 226 -212q0 -61 -20 -105t-52.5 -66t-66.5 -31.5t-70 -9.5h-120v-87h73v-63h-234v63h76v580h-76v63h234v-63h-73v-69zM178 511v-298h73q88 0 128.5 31.5t40.5 117.5q0 78 -39 113.5t-117 35.5h-86z" />
<glyph unicode="&#xdf;" horiz-adv-x="542" d="M502 197q0 -92 -54.5 -149t-144.5 -57q-14 0 -63 7v71q18 -6 49 -6q61 0 93 43t32 106q0 60 -27.5 101.5t-93.5 41.5h-24v65q110 5 110 113q0 50 -25 86t-73 36q-49 0 -76.5 -37t-27.5 -101v-517h-159v63h75v437q0 105 50 162.5t141 57.5q83 0 132 -47.5t49 -131.5 q0 -113 -101 -147q71 -18 104.5 -71.5t33.5 -125.5z" />
<glyph unicode="&#xe0;" d="M502 0h-149l-5 61q-56 -74 -140 -74q-71 0 -119 42.5t-48 112.5q0 175 247 175q24 0 60 -2v48q0 104 -94 104q-43 0 -70.5 -23t-31.5 -66h-86q8 56 23 81q45 74 163 74q177 0 177 -181v-289h73v-63zM348 254q-37 5 -73 5q-63 0 -106 -27.5t-43 -85.5q0 -43 26 -69t69 -26 q54 0 87 35q10 10 17 23t11 21.5t6.5 29t3 26.5t1.5 34t1 34zM246 606l-101 154h100l65 -154h-64z" />
<glyph unicode="&#xe1;" d="M502 0h-149l-5 61q-56 -74 -140 -74q-71 0 -119 42.5t-48 112.5q0 175 247 175q24 0 60 -2v48q0 104 -94 104q-43 0 -70.5 -23t-31.5 -66h-86q8 56 23 81q45 74 163 74q177 0 177 -181v-289h73v-63zM348 254q-37 5 -73 5q-63 0 -106 -27.5t-43 -85.5q0 -43 26 -69t69 -26 q54 0 87 35q10 10 17 23t11 21.5t6.5 29t3 26.5t1.5 34t1 34zM378 760l-101 -154h-64l65 154h100z" />
<glyph unicode="&#xe2;" d="M502 0h-149l-5 61q-56 -74 -140 -74q-71 0 -119 42.5t-48 112.5q0 175 247 175q24 0 60 -2v48q0 104 -94 104q-43 0 -70.5 -23t-31.5 -66h-86q8 56 23 81q45 74 163 74q177 0 177 -181v-289h73v-63zM348 254q-37 5 -73 5q-63 0 -106 -27.5t-43 -85.5q0 -43 26 -69t69 -26 q54 0 87 35q10 10 17 23t11 21.5t6.5 29t3 26.5t1.5 34t1 34zM382 606h-57l-66 91l-66 -91h-59l80 142h90z" />
<glyph unicode="&#xe3;" d="M502 0h-149l-5 61q-56 -74 -140 -74q-71 0 -119 42.5t-48 112.5q0 175 247 175q24 0 60 -2v48q0 104 -94 104q-43 0 -70.5 -23t-31.5 -66h-86q8 56 23 81q45 74 163 74q177 0 177 -181v-289h73v-63zM348 254q-37 5 -73 5q-63 0 -106 -27.5t-43 -85.5q0 -43 26 -69t69 -26 q54 0 87 35q10 10 17 23t11 21.5t6.5 29t3 26.5t1.5 34t1 34zM165 615h-49q1 60 19.5 91t50.5 31q28 0 54 -17l57 -37q19 -12 30 -12q21 0 25 63h50q0 -124 -72 -124q-30 0 -57 17l-52 33q-19 13 -31 13q-22 0 -25 -58z" />
<glyph unicode="&#xe4;" d="M502 0h-149l-5 61q-56 -74 -140 -74q-71 0 -119 42.5t-48 112.5q0 175 247 175q24 0 60 -2v48q0 104 -94 104q-43 0 -70.5 -23t-31.5 -66h-86q8 56 23 81q45 74 163 74q177 0 177 -181v-289h73v-63zM348 254q-37 5 -73 5q-63 0 -106 -27.5t-43 -85.5q0 -43 26 -69t69 -26 q54 0 87 35q10 10 17 23t11 21.5t6.5 29t3 26.5t1.5 34t1 34zM372 634h-90v81h90v-81zM231 634h-90v81h90v-81z" />
<glyph unicode="&#xe5;" d="M502 0h-149l-5 61q-56 -74 -140 -74q-71 0 -119 42.5t-48 112.5q0 175 247 175q24 0 60 -2v48q0 104 -94 104q-43 0 -70.5 -23t-31.5 -66h-86q8 56 23 81q45 74 163 74q177 0 177 -181v-289h73v-63zM348 254q-37 5 -73 5q-63 0 -106 -27.5t-43 -85.5q0 -43 26 -69t69 -26 q54 0 87 35q10 10 17 23t11 21.5t6.5 29t3 26.5t1.5 34t1 34zM356 680q0 -41 -29.5 -69t-71.5 -28q-43 0 -72 27t-29 70q0 41 29.5 69t71.5 28t71.5 -28t29.5 -69zM315 680q0 24 -18 41.5t-42 17.5q-25 0 -42 -17t-17 -42q0 -24 17.5 -42t41.5 -18t42 18t18 42z" />
<glyph unicode="&#xe6;" horiz-adv-x="812" d="M777 259h-336v-12q0 -46 12 -87.5t44 -73.5t78 -32q45 0 77 31.5t37 77.5h82q-10 -85 -60 -130.5t-134 -45.5q-72 0 -121 35.5t-69 103.5q-13 -67 -61 -103t-119 -36q-72 0 -119.5 42t-47.5 114q0 76 56 125.5t189 49.5h61v14q0 62 -20 98.5t-77 36.5q-42 0 -70 -24.5 t-28 -63.5h-86q6 45 18 70q44 84 167 84q56 0 101 -23.5t63 -74.5q20 47 63.5 72.5t97.5 25.5t94 -22t63 -59.5t34 -82t11 -95.5v-15zM691 318q0 59 -31 106t-88 47q-60 0 -92 -46.5t-32 -106.5h243zM344 259h-41q-178 0 -178 -115q0 -40 26.5 -66.5t66.5 -26.5 q65 0 95.5 42.5t30.5 106.5v59z" />
<glyph unicode="&#xe7;" horiz-adv-x="458" d="M441 175q-6 -84 -55 -135t-129 -53l-17 -63q16 11 36 11q35 0 53 -22.5t18 -56.5q0 -36 -23.5 -58t-61.5 -22q-79 0 -82 74h50q7 -31 32 -31q14 0 23.5 10t9.5 26t-9 26.5t-22 10.5q-16 0 -30 -12l-49 7l28 103q-92 12 -133 83t-41 179q0 51 9.5 97.5t30 89.5t59.5 68.5 t93 25.5q44 0 75 -17t59 -53l5 54h63v-179h-71q-5 49 -36 89.5t-77 40.5q-37 0 -63 -21.5t-38.5 -57.5t-18 -69.5t-5.5 -69.5q0 -34 5 -65.5t18 -63t38.5 -50.5t62.5 -19q51 0 79.5 34.5t34.5 88.5h79z" />
<glyph unicode="&#xe8;" d="M484 257h-360v-22q0 -75 35 -128t107 -53q49 0 82 30t42 80h82q-13 -86 -68 -131t-142 -45q-114 0 -169.5 75.5t-55.5 193.5q0 119 55.5 197.5t167.5 78.5q117 0 170.5 -76.5t53.5 -199.5zM261 468q-62 0 -96 -42.5t-39 -106.5h271q-6 64 -40 106.5t-96 42.5zM252 606 l-101 154h100l65 -154h-64z" />
<glyph unicode="&#xe9;" d="M484 257h-360v-22q0 -75 35 -128t107 -53q49 0 82 30t42 80h82q-13 -86 -68 -131t-142 -45q-114 0 -169.5 75.5t-55.5 193.5q0 119 55.5 197.5t167.5 78.5q117 0 170.5 -76.5t53.5 -199.5zM261 468q-62 0 -96 -42.5t-39 -106.5h271q-6 64 -40 106.5t-96 42.5zM384 760 l-101 -154h-64l65 154h100z" />
<glyph unicode="&#xea;" d="M484 257h-360v-22q0 -75 35 -128t107 -53q49 0 82 30t42 80h82q-13 -86 -68 -131t-142 -45q-114 0 -169.5 75.5t-55.5 193.5q0 119 55.5 197.5t167.5 78.5q117 0 170.5 -76.5t53.5 -199.5zM261 468q-62 0 -96 -42.5t-39 -106.5h271q-6 64 -40 106.5t-96 42.5zM388 606 h-57l-66 91l-66 -91h-59l80 142h90z" />
<glyph unicode="&#xeb;" d="M484 257h-360v-22q0 -75 35 -128t107 -53q49 0 82 30t42 80h82q-13 -86 -68 -131t-142 -45q-114 0 -169.5 75.5t-55.5 193.5q0 119 55.5 197.5t167.5 78.5q117 0 170.5 -76.5t53.5 -199.5zM261 468q-62 0 -96 -42.5t-39 -106.5h271q-6 64 -40 106.5t-96 42.5zM383 634 h-90v81h90v-81zM242 634h-90v81h90v-81z" />
<glyph unicode="&#xec;" horiz-adv-x="271" d="M256 0h-234v63h76v395h-76v63h160v-458h74v-63zM120 606l-101 154h100l65 -154h-64z" />
<glyph unicode="&#xed;" horiz-adv-x="271" d="M256 0h-234v63h76v395h-76v63h160v-458h74v-63zM252 760l-101 -154h-64l65 154h100z" />
<glyph unicode="&#xee;" horiz-adv-x="271" d="M256 0h-234v63h76v395h-76v63h160v-458h74v-63zM256 606h-57l-66 91l-66 -91h-59l80 142h90z" />
<glyph unicode="&#xef;" horiz-adv-x="271" d="M256 0h-234v63h76v395h-76v63h160v-458h74v-63zM251 634h-90v81h90v-81zM110 634h-90v81h90v-81z" />
<glyph unicode="&#xf0;" d="M482 263q0 -118 -53.5 -197t-167.5 -79q-51 0 -91 16t-64.5 42t-40 62.5t-21.5 72.5t-6 76q0 75 19.5 134.5t69.5 101t126 41.5q36 0 85 -17q-22 43 -54 76l-126 -39l-23 56l102 33q-2 1 -23 20l-32 29l79 32q51 -48 57 -55l91 29l24 -58l-71 -22q62 -92 91 -167.5 t29 -186.5zM397 262q0 36 -6 69t-20 65t-41.5 51.5t-65.5 19.5q-41 0 -70.5 -19t-44 -52t-21 -67.5t-6.5 -74.5q0 -36 6.5 -68.5t20.5 -63.5t42 -49.5t66 -18.5q40 0 69 19t43.5 51t21 66t6.5 72z" />
<glyph unicode="&#xf1;" horiz-adv-x="583" d="M567 0h-233v63h73v285q0 119 -93 119q-40 0 -68 -20t-41 -54t-18 -66t-5 -68v-196h75v-63h-231v63h72v395h-72v63h153l3 -82q17 46 59 70.5t94 24.5q46 0 78.5 -15t48.5 -41t22.5 -52.5t6.5 -57.5v-305h76v-63zM196 615h-49q1 60 19.5 91t50.5 31q28 0 54 -17l57 -37 q19 -12 30 -12q21 0 25 63h50q0 -124 -72 -124q-30 0 -57 17l-52 33q-20 13 -31 13q-22 0 -25 -58z" />
<glyph unicode="&#xf2;" d="M482 265q0 -68 -22 -135t-68 -103q-51 -40 -131 -40q-61 0 -105.5 21.5t-69.5 61t-36.5 87t-11.5 105.5q0 68 23 132.5t70 100.5q50 38 132 38q62 0 106.5 -24t68 -64.5t34 -85t10.5 -94.5zM397 262q0 38 -6 71t-20 65t-41.5 50.5t-66.5 18.5q-40 0 -69 -18.5t-44 -50.5 t-21.5 -66t-6.5 -72t5.5 -70.5t19.5 -65t42 -51.5t68 -19q53 0 86 34.5t43.5 78t10.5 95.5zM253 606l-101 154h100l65 -154h-64z" />
<glyph unicode="&#xf3;" d="M482 265q0 -68 -22 -135t-68 -103q-51 -40 -131 -40q-61 0 -105.5 21.5t-69.5 61t-36.5 87t-11.5 105.5q0 68 23 132.5t70 100.5q50 38 132 38q62 0 106.5 -24t68 -64.5t34 -85t10.5 -94.5zM397 262q0 38 -6 71t-20 65t-41.5 50.5t-66.5 18.5q-40 0 -69 -18.5t-44 -50.5 t-21.5 -66t-6.5 -72t5.5 -70.5t19.5 -65t42 -51.5t68 -19q53 0 86 34.5t43.5 78t10.5 95.5zM384 760l-101 -154h-64l65 154h100z" />
<glyph unicode="&#xf4;" d="M482 265q0 -68 -22 -135t-68 -103q-51 -40 -131 -40q-61 0 -105.5 21.5t-69.5 61t-36.5 87t-11.5 105.5q0 68 23 132.5t70 100.5q50 38 132 38q62 0 106.5 -24t68 -64.5t34 -85t10.5 -94.5zM397 262q0 38 -6 71t-20 65t-41.5 50.5t-66.5 18.5q-40 0 -69 -18.5t-44 -50.5 t-21.5 -66t-6.5 -72t5.5 -70.5t19.5 -65t42 -51.5t68 -19q53 0 86 34.5t43.5 78t10.5 95.5zM388 606h-57l-66 91l-66 -91h-59l80 142h90z" />
<glyph unicode="&#xf5;" d="M482 265q0 -68 -22 -135t-68 -103q-51 -40 -131 -40q-61 0 -105.5 21.5t-69.5 61t-36.5 87t-11.5 105.5q0 68 23 132.5t70 100.5q50 38 132 38q62 0 106.5 -24t68 -64.5t34 -85t10.5 -94.5zM397 262q0 38 -6 71t-20 65t-41.5 50.5t-66.5 18.5q-40 0 -69 -18.5t-44 -50.5 t-21.5 -66t-6.5 -72t5.5 -70.5t19.5 -65t42 -51.5t68 -19q53 0 86 34.5t43.5 78t10.5 95.5zM171 615h-49q1 60 19.5 91t50.5 31q28 0 54 -17l57 -37q19 -12 30 -12q21 0 25 63h50q0 -124 -72 -124q-30 0 -57 17l-52 33q-19 13 -31 13q-22 0 -25 -58z" />
<glyph unicode="&#xf6;" d="M482 265q0 -68 -22 -135t-68 -103q-51 -40 -131 -40q-61 0 -105.5 21.5t-69.5 61t-36.5 87t-11.5 105.5q0 68 23 132.5t70 100.5q50 38 132 38q62 0 106.5 -24t68 -64.5t34 -85t10.5 -94.5zM397 262q0 38 -6 71t-20 65t-41.5 50.5t-66.5 18.5q-40 0 -69 -18.5t-44 -50.5 t-21.5 -66t-6.5 -72t5.5 -70.5t19.5 -65t42 -51.5t68 -19q53 0 86 34.5t43.5 78t10.5 95.5zM373 634h-90v81h90v-81zM232 634h-90v81h90v-81z" />
<glyph unicode="&#xf7;" horiz-adv-x="694" d="M630 268h-566v73h566v-73zM303 518h88v-91h-88v91zM302 180h88v-91h-88v91z" />
<glyph unicode="&#xf8;" d="M493 605l-74 -133q36 -46 49.5 -91t13.5 -107q0 -74 -24 -145t-74 -108q-47 -35 -126 -35q-39 0 -97 18l-60 -107h-81l85 145q-68 76 -68 198q0 42 6 80.5t21.5 78.5t39.5 68.5t64 47t91 18.5q58 0 103 -21l52 93h79zM398 273q0 66 -24 125l-183 -329q37 -16 64 -16 q41 0 70.5 21t44.5 55.5t21.5 70t6.5 73.5zM333 445q-32 21 -67 21q-54 0 -88 -37.5t-45 -83.5t-11 -99q0 -82 28 -134z" />
<glyph unicode="&#xf9;" horiz-adv-x="542" d="M526 0h-145l-5 73q-40 -85 -145 -85q-58 0 -95 29q-34 27 -45.5 62t-11.5 87v292h-74v63h157v-351q0 -114 96 -114q26 0 46 11t32 32.5t19.5 42.5t10 52t3.5 49t1 45v170h-74v63h157v-458h73v-63zM256 606l-101 154h100l65 -154h-64z" />
<glyph unicode="&#xfa;" horiz-adv-x="542" d="M526 0h-145l-5 73q-40 -85 -145 -85q-58 0 -95 29q-34 27 -45.5 62t-11.5 87v292h-74v63h157v-351q0 -114 96 -114q26 0 46 11t32 32.5t19.5 42.5t10 52t3.5 49t1 45v170h-74v63h157v-458h73v-63zM388 760l-101 -154h-64l65 154h100z" />
<glyph unicode="&#xfb;" horiz-adv-x="542" d="M526 0h-145l-5 73q-40 -85 -145 -85q-58 0 -95 29q-34 27 -45.5 62t-11.5 87v292h-74v63h157v-351q0 -114 96 -114q26 0 46 11t32 32.5t19.5 42.5t10 52t3.5 49t1 45v170h-74v63h157v-458h73v-63zM392 606h-57l-66 91l-66 -91h-59l80 142h90z" />
<glyph unicode="&#xfc;" horiz-adv-x="542" d="M526 0h-145l-5 73q-40 -85 -145 -85q-58 0 -95 29q-34 27 -45.5 62t-11.5 87v292h-74v63h157v-351q0 -114 96 -114q26 0 46 11t32 32.5t19.5 42.5t10 52t3.5 49t1 45v170h-74v63h157v-458h73v-63zM378 634h-90v81h90v-81zM237 634h-90v81h90v-81z" />
<glyph unicode="&#xfd;" d="M518 458h-52l-183 -520q-15 -42 -24.5 -63.5t-28.5 -48t-46.5 -38t-65.5 -11.5q-34 0 -84 13v73q40 -19 69 -19q27 0 47 11t33 33t20 39.5t16 46.5l5 17l-169 467h-53v63h209v-63h-67l122 -362l120 362h-68v63h200v-63zM378 760l-101 -154h-64l65 154h100z" />
<glyph unicode="&#xfe;" horiz-adv-x="562" d="M523 260q0 -123 -56 -198t-144 -75q-42 0 -81 18t-64 51v-196h75v-64h-233v64h74v783h-74v63h153v-255q60 82 143 82q102 0 154.5 -81.5t52.5 -191.5zM307 461q-67 0 -99 -59.5t-32 -146.5q0 -63 15 -106.5t38 -62t41.5 -25t35.5 -6.5q64 0 98.5 58t34.5 151 q0 85 -34 141t-98 56z" />
<glyph unicode="&#xff;" d="M518 458h-52l-183 -520q-15 -42 -24.5 -63.5t-28.5 -48t-46.5 -38t-65.5 -11.5q-34 0 -84 13v73q40 -19 69 -19q27 0 47 11t33 33t20 39.5t16 46.5l5 17l-169 467h-53v63h209v-63h-67l122 -362l120 362h-68v63h200v-63zM377 634h-90v81h90v-81zM236 634h-90v81h90v-81z " />
<glyph unicode="&#x152;" horiz-adv-x="896" d="M839 0h-348q-26 0 -77.5 -2.5t-84.5 -2.5q-110 0 -159 28q-126 71 -126 328q0 276 144 340q53 23 161 23q52 0 111.5 -4t83.5 -4h295v-221h-75v158h-247v-233h234v-66h-234v-281h247v178h75v-241zM432 63v580q-60 2 -91 2q-94 0 -134 -31q-78 -62 -78 -263 q0 -204 86 -264q39 -27 118 -27z" />
<glyph unicode="&#x153;" horiz-adv-x="875" d="M840 257h-355v-20q0 -79 35.5 -131t105.5 -52q48 0 79.5 30.5t40.5 79.5h84q-13 -84 -66.5 -131t-137.5 -47q-125 0 -190 107q-57 -105 -183 -105q-110 0 -162.5 75t-52.5 191q0 56 12 104.5t37 88.5t69 63t103 23q123 0 177 -100q66 100 182 100q78 0 129.5 -39.5 t72 -99t20.5 -137.5zM753 318q-5 63 -40 106.5t-95 43.5q-58 0 -91.5 -44.5t-37.5 -105.5h264zM122 263q0 -22 1.5 -41.5t9 -52.5t20.5 -56t40.5 -41t65.5 -18q45 0 76 24t45 61.5t19 67.5t5 58q0 85 -38 143.5t-105 58.5q-68 0 -103.5 -59t-35.5 -145z" />
<glyph unicode="&#x178;" horiz-adv-x="542" d="M548 643h-51l-186 -394v-186h75v-63h-233v63h75v191l-180 389h-52v63h216v-63h-75l137 -314l140 314h-60v63h194v-63zM391 803h-90v83h90v-83zM237 803h-90v83h90v-83z" />
<glyph unicode="&#x2c6;" horiz-adv-x="292" d="M270 606h-57l-66 91l-66 -91h-59l80 142h90z" />
<glyph unicode="&#x2dc;" horiz-adv-x="292" d="M52 615h-49q1 60 19.5 91t50.5 31q28 0 54 -17l57 -37q19 -12 30 -12q21 0 25 63h50q0 -124 -72 -124q-30 0 -57 17l-52 33q-20 13 -31 13q-22 0 -25 -58z" />
<glyph unicode="&#x2000;" horiz-adv-x="472" />
<glyph unicode="&#x2001;" horiz-adv-x="945" />
<glyph unicode="&#x2002;" horiz-adv-x="472" />
<glyph unicode="&#x2003;" horiz-adv-x="945" />
<glyph unicode="&#x2004;" horiz-adv-x="315" />
<glyph unicode="&#x2005;" horiz-adv-x="236" />
<glyph unicode="&#x2006;" horiz-adv-x="157" />
<glyph unicode="&#x2007;" horiz-adv-x="157" />
<glyph unicode="&#x2008;" horiz-adv-x="118" />
<glyph unicode="&#x2009;" horiz-adv-x="189" />
<glyph unicode="&#x200a;" horiz-adv-x="52" />
<glyph unicode="&#x2010;" horiz-adv-x="436" d="M402 245h-368v79h368v-79z" />
<glyph unicode="&#x2011;" horiz-adv-x="436" d="M402 245h-368v79h368v-79z" />
<glyph unicode="&#x2013;" horiz-adv-x="583" d="M549 245h-515v79h515v-79z" />
<glyph unicode="&#x2014;" horiz-adv-x="758" d="M724 324v-79h-690v79h690z" />
<glyph unicode="&#x2018;" horiz-adv-x="231" d="M198 706l-67 -219h-121l116 219h72z" />
<glyph unicode="&#x2019;" horiz-adv-x="231" d="M203 706l-115 -220h-72l66 220h121z" />
<glyph unicode="&#x201a;" horiz-adv-x="250" d="M213 102l-116 -220h-71l68 220h119z" />
<glyph unicode="&#x201c;" horiz-adv-x="408" d="M198 706l-67 -219h-121l116 219h72zM375 706l-67 -219h-121l116 219h72z" />
<glyph unicode="&#x201d;" horiz-adv-x="409" d="M193 487l67 219h121l-116 -219h-72zM16 487l67 219h121l-116 -219h-72z" />
<glyph unicode="&#x201e;" horiz-adv-x="409" d="M193 -116l67 219h121l-116 -219h-72zM16 -116l67 219h121l-116 -219h-72z" />
<glyph unicode="&#x2022;" horiz-adv-x="424" d="M123 418h178v-188h-178v188z" />
<glyph unicode="&#x2026;" horiz-adv-x="1000" d="M125 81h83v-81h-83v81zM458 81h83v-81h-83v81zM791 81h84v-81h-84v81z" />
<glyph unicode="&#x202f;" horiz-adv-x="189" />
<glyph unicode="&#x2039;" horiz-adv-x="208" d="M173 117h-68l-85 170l85 171h68l-63 -171z" />
<glyph unicode="&#x203a;" horiz-adv-x="208" d="M185 281l-86 -165h-68l63 165l-63 171h68z" />
<glyph unicode="&#x205f;" horiz-adv-x="236" />
<glyph unicode="&#x20ac;" horiz-adv-x="622" d="M570 503h-69q-18 82 -54 119t-91 37q-130 0 -161 -199h239v-61h-245q-1 -20 -1 -71h246v-61h-242q10 -105 51 -161t108 -56q56 0 94.5 37t47.5 99h76q-11 -94 -68 -146.5t-146 -52.5q-111 0 -171.5 69t-75.5 211h-72v61h69q0 51 1 71h-70v61h77q20 127 80 194.5t154 67.5 q112 0 159 -80v64h64v-203z" />
<glyph unicode="&#x2122;" horiz-adv-x="723" d="M283 706v-101h-38v58h-69v-251h40v-38h-128v38h38v251h-70v-58h-39v101h266zM308 706h115l78 -241l78 241h114v-39h-35v-256h35v-37h-115v37h32v256l-96 -293h-29l-96 292v-255h32v-37h-113v37h38v256h-38v39z" />
</font>
</defs>
</svg>
