<?xml version="1.0" standalone="no"?>
<!DOCTYPE svg PUBLIC "-//W3C//DTD SVG 1.1//EN" "http://www.w3.org/Graphics/SVG/1.1/DTD/svg11.dtd" >
<svg xmlns="http://www.w3.org/2000/svg">
<metadata></metadata>
<defs>
<font id="boton_pro_regularitalic" horiz-adv-x="521" >
<font-face units-per-em="1000" ascent="750" descent="-250" />
<missing-glyph horiz-adv-x="292" />
<glyph unicode="&#xfb01;" horiz-adv-x="542" d="M5 0l13 65h74l74 391h-74l12 65h75l9 51q13 73 47 110t105 37q20 0 90 -14l-13 -62q-33 11 -58 11q-21 0 -36 -6.5t-23.5 -12.5t-15.5 -25t-9 -25t-6 -33t-5 -31h268l-74 -389q-6 -30 -6 -39q0 -34 35 -34q19 0 43 7l-13 -66q-29 -10 -61 -10q-91 0 -91 82q0 19 5 42 l66 342h-185l-74 -391h75l-12 -65h-235zM456 625l16 81h101l-16 -81h-101z" />
<glyph unicode="&#xfb02;" horiz-adv-x="542" d="M5 0l13 65h74l74 391h-74l12 65h75l9 51q13 73 47 110t105 37q26 0 63 -7l-12 -62q-16 4 -37 4q-42 0 -58 -21.5t-24 -67.5l-8 -44h98l-12 -65h-99l-74 -391h75l-12 -65h-235zM363 71q0 20 8 58l98 513h-41l12 64h125l-111 -581q-5 -27 -5 -35q0 -34 37 -34q14 0 40 6 l-12 -63q-43 -9 -71 -9q-38 0 -59 21.5t-21 59.5z" />
<glyph horiz-adv-x="1000" />
<glyph horiz-adv-x="1000" />
<glyph unicode="&#xd;" horiz-adv-x="1000" />
<glyph unicode=" "  horiz-adv-x="292" />
<glyph unicode="&#x09;" horiz-adv-x="292" />
<glyph unicode="&#xa0;" horiz-adv-x="292" />
<glyph unicode="!" horiz-adv-x="292" d="M93 0l19 103h107l-19 -103h-107zM135 165l100 541h99l-115 -541h-84z" />
<glyph unicode="&#x22;" horiz-adv-x="278" d="M122 448l34 294h74l-78 -294h-30zM256 448l34 294h74l-78 -294h-30z" />
<glyph unicode="#" horiz-adv-x="586" d="M64 242l8 64h133l24 110h-127l8 64h134l50 226h64l-51 -226h122l50 226h64l-50 -226h124l-8 -64h-132l-24 -110h128l-8 -64h-135l-54 -242h-64l55 242h-121l-54 -242h-64l53 242h-125zM268 306h122l24 110h-122z" />
<glyph unicode="$" d="M28 8l46 235h73q-3 -21 -3 -42q0 -95 76 -132l53 276q-67 42 -104 84.5t-37 104.5q0 79 58 129.5t140 50.5h14l17 88h60l-19 -99q54 -16 91 -79l17 77h70l-44 -218h-71q0 59 -16.5 98t-59.5 59l-48 -245q37 -24 57.5 -39t47 -41t38.5 -56.5t12 -66.5q0 -93 -57.5 -146 t-141.5 -53q-24 0 -35 2l-17 -92h-59l21 103q-60 20 -90 81l-16 -79h-73zM217 542q0 -66 71 -111l43 219q-52 -3 -83 -32t-31 -76zM275 55h12q68 0 100 37.5t32 83.5q0 42 -24.5 71.5t-70.5 61.5z" />
<glyph unicode="%" horiz-adv-x="884" d="M95 412q0 43 11.5 92t34.5 98.5t66.5 81.5t99.5 32q71 0 105.5 -45t34.5 -113q0 -33 -6.5 -71t-22.5 -79.5t-39.5 -74.5t-60.5 -55t-82 -22q-71 0 -106 43.5t-35 112.5zM158 409q0 -45 20.5 -74.5t60.5 -29.5t71 31.5t46 77t22 84t7 64.5q0 43 -19.5 73.5t-61.5 30.5 q-47 0 -82 -45t-49.5 -101.5t-14.5 -110.5zM269 0l391 706h59l-389 -706h-61zM540 145q0 43 11.5 92t34.5 98.5t66.5 81.5t99.5 32q71 0 105.5 -45t34.5 -113q0 -33 -6.5 -71t-22.5 -79.5t-39.5 -74.5t-60.5 -55t-82 -22q-71 0 -106 43.5t-35 112.5zM603 142 q0 -45 20.5 -74.5t60.5 -29.5t71 31.5t46 77t22 84t7 64.5q0 43 -19.5 73.5t-61.5 30.5q-47 0 -82 -45t-49.5 -101.5t-14.5 -110.5z" />
<glyph unicode="&#x26;" horiz-adv-x="667" d="M56 179q0 83 50.5 135t139.5 95q-16 29 -23.5 45.5t-14 41.5t-6.5 51q0 90 62 132t157 42q166 0 166 -116q0 -24 -8.5 -46.5t-19 -39t-33.5 -36t-36.5 -29.5t-45.5 -27.5t-43.5 -23t-45.5 -21.5q48 -76 146 -196q29 64 39 128h89q-20 -108 -74 -190l109 -124h-106l-54 64 q-82 -78 -215 -78q-99 0 -166 49t-67 144zM141 176q0 -62 45 -95t109 -33q104 0 162 73q-14 18 -75 100.5t-94 126.5q-67 -33 -107 -72.5t-40 -99.5zM284 548q0 -51 34 -107q7 4 33 16t41.5 20t39.5 23t38 28t24.5 31t10.5 36q0 34 -28.5 50t-64.5 16q-55 0 -91.5 -29.5 t-36.5 -83.5z" />
<glyph unicode="'" horiz-adv-x="144" d="M122 448l34 294h74l-78 -294h-30z" />
<glyph unicode="(" horiz-adv-x="271" d="M93 19q0 184 52 368.5t148 338.5h78q-84 -153 -138.5 -355t-54.5 -370q0 -85 17 -195h-77q-25 99 -25 213z" />
<glyph unicode=")" horiz-adv-x="271" d="M-33 -194q88 168 140.5 359.5t52.5 366.5q0 77 -18 194h78q25 -99 25 -213q0 -182 -52.5 -368t-147.5 -339h-78z" />
<glyph unicode="*" horiz-adv-x="375" d="M79 464l131 64l-103 62l41 51l99 -70l25 135h62l-28 -129l130 70l21 -62l-136 -63l102 -65l-40 -48l-96 71l-23 -133h-64l27 125l-127 -68z" />
<glyph unicode="+" horiz-adv-x="724" d="M129 270l14 71h225l44 231h86l-44 -231h226l-14 -71h-226l-44 -233h-86l45 233h-226z" />
<glyph unicode="," horiz-adv-x="250" d="M1 -98l93 203h131l-156 -203h-68z" />
<glyph unicode="-" horiz-adv-x="417" d="M50 242l15 83h376l-16 -83h-375z" />
<glyph unicode="." horiz-adv-x="250" d="M54 0l20 104h106l-20 -104h-106z" />
<glyph unicode="/" horiz-adv-x="375" d="M-57 -106l485 919h83l-485 -919h-83z" />
<glyph unicode="0" horiz-adv-x="583" d="M78 215q0 115 42 249t115 198q69 60 168 60q98 0 150 -60.5t52 -175.5q0 -164 -74 -319q-43 -89 -102.5 -135.5t-151.5 -46.5q-55 0 -95.5 20t-62 54t-31.5 72.5t-10 83.5zM161 214q0 -45 11.5 -78t27 -49.5t36 -26t32 -11t22.5 -1.5q80 0 134 79q38 54 68.5 165.5 t30.5 199.5q0 86 -36.5 127t-92.5 41q-108 0 -175 -166q-22 -53 -40 -133.5t-18 -146.5z" />
<glyph unicode="1" horiz-adv-x="583" d="M157 0l12 65h80l107 567l-103 -38l14 75l128 37h59l-121 -641h74l-13 -65h-237z" />
<glyph unicode="2" horiz-adv-x="583" d="M30 0l12 65q149 123 305 275q43 41 67.5 67.5t52.5 72.5t28 83q0 45 -30 69.5t-77 24.5q-112 0 -162 -131h-86q32 99 88.5 147.5t157.5 48.5q48 0 89.5 -12t74 -48t32.5 -91q0 -32 -15.5 -69t-32.5 -64t-53 -67t-52.5 -56t-54.5 -53q-79 -77 -220 -199h257l25 129h77 l-36 -192h-447z" />
<glyph unicode="3" horiz-adv-x="583" d="M54 164q0 11 2 31h81v-23q0 -61 37 -91.5t93 -30.5q82 0 130.5 44t48.5 124q0 57 -35.5 87t-92.5 30q-14 0 -46 -4l13 73q28 -2 43 -2q65 0 113.5 42t48.5 111q0 50 -31.5 77t-81.5 27q-115 0 -153 -132h-86q22 93 83 144t155 51q82 0 141 -42.5t59 -121.5 q0 -72 -41.5 -123t-114.5 -71q54 -16 83.5 -57.5t29.5 -98.5q0 -91 -68.5 -156.5t-190.5 -65.5q-114 0 -167 53t-53 125z" />
<glyph unicode="4" horiz-adv-x="583" d="M64 196l14 73l334 437h132l-88 -445h141l-12 -65h-141l-25 -131h73l-12 -65h-240l13 65h78l25 131h-292zM162 261h215l75 387z" />
<glyph unicode="5" horiz-adv-x="583" d="M77 165q0 10 2 28h84q0 -2 -0.5 -11.5t-0.5 -14.5q0 -58 34.5 -88.5t92.5 -30.5q83 0 131.5 72.5t48.5 159.5q0 54 -29.5 86.5t-82.5 32.5q-49 0 -81 -20t-61 -63l-88 20l105 370h378l-34 -176h-76l21 115h-223l-72 -241q57 61 146 61q85 0 131 -51t46 -136 q0 -54 -17 -105q-60 -187 -247 -187q-92 0 -150 45t-58 134z" />
<glyph unicode="6" horiz-adv-x="583" d="M94 220q0 113 48.5 250t124.5 198q67 54 167 54q91 0 144 -49t53 -128q0 -23 -1 -35h-79v8q0 63 -28 101t-90 38q-63 0 -106 -35q-74 -61 -122 -233q72 66 171 66q87 0 142.5 -54t55.5 -139q0 -116 -73 -196t-194 -80q-213 0 -213 234zM173 186q0 -64 38 -100.5 t102 -36.5q79 0 129 61t50 142q0 61 -37.5 99.5t-98.5 38.5q-80 0 -131.5 -61.5t-51.5 -142.5z" />
<glyph unicode="7" horiz-adv-x="583" d="M108 0l12 65h75l317 577h-274l-22 -113h-79l33 177h441l-11 -59l-309 -582h76l-13 -65h-246z" />
<glyph unicode="8" horiz-adv-x="583" d="M68 162q0 81 55.5 137t140.5 68q-107 31 -107 137q0 96 68 156.5t176 60.5q83 0 143 -41t60 -120q0 -75 -45 -130t-121 -68q57 -10 90.5 -51t33.5 -100q0 -71 -48 -132q-73 -94 -216 -94q-60 0 -109.5 16.5t-85 58t-35.5 102.5zM156 164q0 -60 37.5 -89t101.5 -29 q78 0 128.5 50t50.5 123q0 61 -42 88t-107 27q-71 0 -120 -49t-49 -121zM243 509q0 -56 33 -83.5t89 -27.5q68 0 112.5 45t44.5 113q0 51 -35.5 78t-87.5 27q-66 0 -111 -43.5t-45 -108.5z" />
<glyph unicode="9" horiz-adv-x="583" d="M55 161v36h82q0 -73 26.5 -110t94.5 -37q39 0 72.5 18.5t56 44.5t42 65t30.5 70.5t22 70.5q-71 -66 -169 -66q-88 0 -144 52t-56 140q0 121 74 198.5t193 77.5q106 0 160.5 -58t54.5 -162q0 -110 -44 -245.5t-114 -201.5q-72 -68 -191 -68q-81 0 -135.5 47.5t-54.5 127.5 zM195 456q0 -62 38.5 -101t100.5 -39q79 0 129.5 65t50.5 143q0 63 -39.5 98t-104.5 35q-77 0 -126 -60.5t-49 -140.5z" />
<glyph unicode=":" horiz-adv-x="292" d="M95 0l20 106h108l-20 -106h-108zM174 417l20 104h108l-20 -104h-108z" />
<glyph unicode=";" horiz-adv-x="292" d="M38 -99l98 203h132l-159 -203h-71zM181 416l20 105h107l-20 -105h-107z" />
<glyph unicode="&#x3c;" horiz-adv-x="724" d="M128 270l15 76l510 233l-18 -91l-411 -182l341 -185l-16 -83z" />
<glyph unicode="=" horiz-adv-x="724" d="M119 167l14 74h525l-14 -74h-525zM155 354l14 75h525l-14 -75h-525z" />
<glyph unicode="&#x3e;" horiz-adv-x="724" d="M144 38l18 90l411 183l-341 184l16 83l421 -232l-15 -76z" />
<glyph unicode="?" horiz-adv-x="479" d="M95 482q44 239 247 239q78 0 136.5 -39t58.5 -112q0 -52 -23 -89t-70 -78l-85 -75q-34 -30 -46.5 -48t-20.5 -58l-12 -57h-79l12 70q9 50 19.5 68.5t47.5 52.5l100 93q24 23 35.5 35t24 35.5t12.5 47.5q0 44 -30.5 67.5t-76.5 23.5q-70 0 -113.5 -51.5t-53.5 -124.5h-83z M154 0l19 104h108l-20 -104h-107z" />
<glyph unicode="@" horiz-adv-x="785" d="M68 281q0 182 125.5 311t302.5 129q133 0 216 -77t83 -202q0 -120 -72 -218t-154 -98q-33 0 -52 18.5t-19 51.5q0 6 1 10q-58 -80 -135 -80q-52 0 -83 38t-31 100q0 110 66.5 196t151.5 86q81 0 101 -70l15 51h57l-63 -230q-17 -66 -17 -81q0 -37 28 -37q17 0 38 15 q48 35 80 105.5t32 142.5q0 101 -68 163.5t-178 62.5q-154 0 -258.5 -112.5t-104.5 -276.5q0 -131 80 -207t217 -76q92 0 176 39q64 29 139 94l32 -40q-60 -50 -104 -77q-112 -69 -250 -69q-160 0 -256 92.5t-96 245.5zM315 271q0 -44 18 -68t50 -24q62 0 110.5 78t48.5 161 q0 36 -19.5 56t-54.5 20q-59 0 -106 -68.5t-47 -154.5z" />
<glyph unicode="A" horiz-adv-x="625" d="M-18 0l13 65h59l298 577h-56l12 64h267l-13 -64h-57l55 -577h59l-12 -65h-216l12 65h72l-14 161h-238l-81 -161h68l-13 -65h-215zM252 288h204l-30 354z" />
<glyph unicode="B" horiz-adv-x="583" d="M-2 0l12 65h77l110 577h-78l13 64h249q38 0 65.5 -2.5t57 -11.5t47.5 -24.5t30 -44t12 -68.5q0 -73 -35.5 -126.5t-108.5 -66.5q99 -40 99 -144q0 -74 -37 -129.5t-106 -77.5q-36 -11 -102 -11h-305zM170 65h138q45 0 68 10q41 17 63 58t22 88q0 109 -120 109h-120z M233 391h78q120 0 168 66q30 42 30 89q0 58 -31 77t-93 19h-107z" />
<glyph unicode="C" horiz-adv-x="583" d="M81 240q0 119 44 244t125 190q62 49 153 49q132 0 167 -95l19 82h67l-42 -226h-76q1 10 1 31q0 67 -33.5 104.5t-99.5 37.5q-59 0 -102 -35q-65 -52 -101.5 -170t-36.5 -219q0 -182 137 -182q79 0 125.5 55.5t62.5 134.5h85q-33 -120 -97 -187.5t-180 -67.5 q-63 0 -107.5 22t-67.5 60t-33 80t-10 92z" />
<glyph unicode="D" horiz-adv-x="625" d="M0 0l12 65h76l109 577h-75l12 64h252q79 0 131.5 -22.5t87.5 -84.5t35 -154q0 -55 -11.5 -115t-34 -118t-60.5 -107t-85 -74q-59 -31 -183 -31h-266zM175 65h115q74 0 114 24q72 42 111.5 149.5t39.5 206.5q0 160 -116 189q-33 8 -88 8h-67z" />
<glyph unicode="E" horiz-adv-x="562" d="M-1 0l12 65h77l110 577h-77l12 64h488l-43 -224h-76l30 160h-248l-44 -232h236l-12 -66h-236l-53 -279h248l32 173h77l-45 -238h-488z" />
<glyph unicode="F" horiz-adv-x="500" d="M-2 0l13 65h77l109 577h-77l12 64h464l-42 -221h-76l30 157h-224l-44 -233h208l-12 -66h-209l-52 -278h77l-13 -65h-241z" />
<glyph unicode="G" horiz-adv-x="625" d="M81 239q0 92 34 202q39 124 112 202t189 78t161 -87l16 72h67l-45 -226h-71q3 21 3 42q0 62 -35 97.5t-96 35.5q-77 0 -137 -71q-48 -56 -80.5 -161t-32.5 -186q0 -78 35.5 -132.5t109.5 -54.5q48 0 84 20t58.5 57t34.5 73t22 84h-169l12 67h251l-68 -351h-68l13 72 q-42 -47 -82 -67.5t-100 -20.5q-108 0 -163 71.5t-55 183.5z" />
<glyph unicode="H" horiz-adv-x="646" d="M-2 0l12 65h77l109 577h-76l12 64h238l-12 -64h-75l-44 -231h287l44 231h-76l12 64h238l-12 -64h-75l-109 -577h75l-13 -65h-238l12 65h76l53 279h-286l-53 -279h74l-12 -65h-238z" />
<glyph unicode="I" horiz-adv-x="271" d="M-2 0l13 65h75l109 577h-75l12 64h238l-12 -64h-76l-109 -577h75l-12 -65h-238z" />
<glyph unicode="J" horiz-adv-x="417" d="M2 13l15 76q80 -35 123 -35q27 0 47.5 11t32 24.5t21.5 39.5t13.5 42.5t9.5 46.5l82 424h-76l12 64h237l-12 -64h-75l-81 -421q-7 -37 -11 -54.5t-12.5 -48t-17 -45t-24 -34.5t-34 -29t-45 -16t-60.5 -7q-70 0 -145 26z" />
<glyph unicode="K" horiz-adv-x="604" d="M0 0l12 65h75l109 577h-74l12 64h234l-12 -64h-75l-51 -266l302 266h-68l12 64h229l-13 -64h-58l-258 -223l149 -354h69l-13 -65h-239l13 65h76l-119 299l-100 -87l-40 -212h74l-12 -65h-234z" />
<glyph unicode="L" horiz-adv-x="500" d="M1 0l13 65h75l110 577h-76l13 64h237l-12 -64h-75l-110 -577h207l33 174h75l-45 -239h-445z" />
<glyph unicode="M" horiz-adv-x="792" d="M0 0l12 65h76l109 577h-75l12 64h209l51 -603l277 603h221l-13 -64h-76l-109 -577h76l-13 -65h-220l13 65h63l113 595l-307 -660h-91l-61 674l-113 -609h74l-13 -65h-215z" />
<glyph unicode="N" horiz-adv-x="646" d="M-1 0l13 65h75l110 577h-76l12 64h212l124 -661l114 597h-76l12 64h229l-12 -64h-76l-122 -642h-139l-124 655l-109 -590h75l-12 -65h-230z" />
<glyph unicode="O" horiz-adv-x="625" d="M82 239q0 79 21.5 172.5t56.5 157.5q85 153 253 153q120 0 174.5 -72.5t54.5 -194.5q0 -118 -44.5 -242t-127.5 -183q-62 -45 -169 -45q-114 0 -166.5 69t-52.5 185zM167 236q0 -186 138 -186q94 0 156 77q46 57 72 158t26 187q0 82 -35 133.5t-113 51.5 q-62 0 -110.5 -40t-76.5 -104t-42.5 -135t-14.5 -142z" />
<glyph unicode="P" horiz-adv-x="542" d="M-2 0l12 65h78l109 577h-77l12 64h249q101 0 153 -37.5t52 -133.5q0 -101 -47 -164q-40 -54 -95.5 -70t-140.5 -16h-86l-42 -220h75l-13 -65h-239zM229 349h73q68 0 111 18.5t68 72.5q19 43 19 91q0 111 -122 111h-94z" />
<glyph unicode="Q" horiz-adv-x="625" d="M82 243q0 111 39.5 235.5t111.5 182.5q74 60 178 60q120 0 175 -71.5t55 -195.5q0 -54 -9.5 -112.5t-31.5 -120t-54 -111.5t-80.5 -83.5t-107.5 -38.5q80 -55 175 -107l-80 -46q-120 82 -220 158q-43 10 -74 36t-47 62.5t-23 73.5t-7 78zM166 239q0 -189 143 -189 q66 0 116.5 41t78 107t41 136.5t13.5 140.5q0 34 -6.5 63.5t-22 57t-45.5 44t-71 16.5q-103 0 -170 -105q-33 -52 -55 -147t-22 -165z" />
<glyph unicode="R" horiz-adv-x="583" d="M0 0l12 65h75l110 577h-75l12 64h304q31 0 59 -6.5t55.5 -21t44 -45t16.5 -72.5q0 -47 -23.5 -93t-62.5 -70q-28 -18 -85 -29q40 -11 52.5 -42t12.5 -101v-161h66l-12 -65h-137v228q0 57 -17 85.5t-76 28.5h-104l-52 -277h70l-12 -65h-233zM240 410h118q54 0 90 14.5 t58 56.5q20 37 20 81q0 80 -102 80h-140z" />
<glyph unicode="S" d="M26 0l46 240h74q-4 -21 -4 -37q0 -81 44 -118t101 -37q59 0 95.5 35.5t36.5 87.5q0 33 -15.5 60t-31 40t-45.5 34l-63 44q-34 24 -50.5 37t-39.5 37t-33 50.5t-10 59.5q0 81 58.5 134.5t145.5 53.5q113 0 158 -90l19 75h68l-42 -221h-73v19q0 79 -38 115t-91 36 q-50 0 -85.5 -30.5t-35.5 -81.5q0 -53 58 -100q18 -14 65.5 -45.5t50.5 -33.5q108 -75 108 -175q0 -82 -52.5 -143t-159.5 -61q-119 0 -171 94l-16 -79h-72z" />
<glyph unicode="T" horiz-adv-x="542" d="M85 482l43 224h515l-42 -224h-76l31 160h-139l-109 -577h73l-12 -65h-236l12 65h75l110 577h-138l-30 -160h-77z" />
<glyph unicode="U" horiz-adv-x="604" d="M103 148q0 28 10 82l79 412h-76l12 64h236l-12 -64h-74l-77 -396q-15 -75 -15 -93q0 -50 32.5 -77t83.5 -27q73 0 108 43t50 120l82 430h-75l12 64h232l-12 -64h-73l-83 -428q-23 -120 -77.5 -174t-172.5 -54q-85 0 -137.5 39.5t-52.5 122.5z" />
<glyph unicode="V" horiz-adv-x="625" d="M104 642l13 64h225l-13 -64h-78l43 -565l294 565h-62l12 64h204l-12 -64h-55l-347 -642h-105l-56 642h-63z" />
<glyph unicode="W" horiz-adv-x="917" d="M103 642l12 64h219l-12 -64h-75l7 -556l269 620h120l10 -620l231 556h-69l12 64h209l-13 -64h-57l-273 -642h-118q-7 518 -8 626l-271 -626h-120q-9 544 -11 642h-62z" />
<glyph unicode="X" horiz-adv-x="604" d="M-2 0l12 65h65l239 307l-97 270h-62l12 64h226l-12 -64h-73l67 -197l150 197h-69l13 64h223l-13 -64h-59l-210 -270l106 -307h68l-12 -65h-232l12 65h76l-80 235l-178 -235h71l-13 -65h-230z" />
<glyph unicode="Y" horiz-adv-x="542" d="M108 642l12 64h213l-12 -64h-67l65 -297l185 297h-67l13 64h207l-12 -64h-54l-249 -390l-35 -187h76l-12 -65h-239l13 65h77l36 187l-92 390h-58z" />
<glyph unicode="Z" d="M24 0l12 65l435 577h-241l-31 -160h-76l42 224h425l-10 -50l-443 -591h254l33 177h77l-46 -242h-431z" />
<glyph unicode="[" horiz-adv-x="271" d="M32 -192l175 920h173l-12 -64h-87l-151 -791h88l-12 -65h-174z" />
<glyph unicode="\" horiz-adv-x="375" d="M97 813h82l185 -919h-83z" />
<glyph unicode="]" horiz-adv-x="271" d="M-44 -191l13 64h88l151 791h-89l12 64h174l-174 -919h-175z" />
<glyph unicode="^" horiz-adv-x="724" d="M168 286l285 420h78l123 -420h-81l-92 341l-222 -341h-91z" />
<glyph unicode="_" horiz-adv-x="500" d="M37 -147h520v-59h-520v59z" />
<glyph unicode="`" horiz-adv-x="292" d="M88 760h100l17 -154h-59z" />
<glyph unicode="a" horiz-adv-x="562" d="M66 191q0 56 16.5 114.5t46.5 110.5t79.5 85.5t109.5 33.5q104 0 143 -87l14 73h78l-74 -391q-5 -28 -5 -34q0 -36 37 -36q16 0 37 7l-11 -64q-25 -8 -60 -8q-42 0 -61.5 16.5t-26.5 56.5q-56 -79 -156 -79q-84 0 -125.5 57.5t-41.5 144.5zM150 188q0 -56 24.5 -94.5 t78.5 -38.5q47 0 83.5 30.5t56 78t29 95t9.5 90.5q0 55 -25 88t-78 33q-44 0 -79.5 -29.5t-56 -74.5t-31.5 -91.5t-11 -86.5z" />
<glyph unicode="b" horiz-adv-x="542" d="M54 0l122 642h-76l12 64h161l-46 -236q74 66 154 66q81 0 121 -53t40 -137q0 -88 -36.5 -184t-99.5 -139q-52 -35 -119 -35q-104 0 -146 78l-15 -66h-72zM178 173q0 -54 24.5 -86t76.5 -32q58 0 100 50t59.5 114.5t17.5 129.5q0 122 -96 122q-48 0 -85.5 -30.5t-57 -78.5 t-29.5 -96.5t-10 -92.5z" />
<glyph unicode="c" horiz-adv-x="458" d="M65 188q0 45 9 92t29 92.5t48.5 81.5t70.5 58t92 22q80 0 115 -60l12 47h65l-34 -180h-68q1 12 1 35q0 42 -24 70t-65 28q-42 0 -75.5 -32t-52 -79.5t-28 -95t-9.5 -85.5q0 -31 6.5 -57.5t27.5 -49.5t55 -23q46 0 80.5 39t45.5 88h87q-22 -85 -75 -138.5t-137 -53.5 q-86 0 -131 56.5t-45 144.5z" />
<glyph unicode="d" horiz-adv-x="562" d="M64 182q0 59 16 119.5t46.5 113.5t81.5 86.5t115 33.5q98 0 136 -84l37 191h-79l12 64h159l-110 -579q-5 -25 -5 -40q0 -29 41 -29q17 0 33 7l-12 -64q-42 -6 -64 -6q-76 0 -84 69q-60 -76 -158 -76q-80 0 -122.5 55t-42.5 139zM149 196q0 -57 24.5 -99t77.5 -42 q56 0 99 51t62 113.5t19 116.5t-25.5 94t-76.5 40q-54 0 -97 -49.5t-63 -111t-20 -113.5z" />
<glyph unicode="e" d="M64 184q0 92 41.5 185t113.5 136q50 30 126 30q90 0 138.5 -48.5t48.5 -139.5q0 -47 -10 -88h-365q-8 -40 -8 -74q0 -134 113 -134q98 0 148 115h84q-33 -90 -89 -134.5t-149 -44.5q-94 0 -143 51.5t-49 145.5zM175 321h275q2 11 2 34q0 55 -29 86t-83 31 q-116 0 -165 -151z" />
<glyph unicode="f" horiz-adv-x="292" d="M5 0l13 65h74l74 391h-74l12 65h75l9 51q13 73 47 110t105 37q35 0 93 -15l-12 -62q-40 12 -62 12q-43 0 -61 -23t-26 -66l-8 -44h98l-12 -65h-99l-74 -391h75l-12 -65h-235z" />
<glyph unicode="g" horiz-adv-x="562" d="M29 -57h86q1 -49 32.5 -74.5t81.5 -25.5q29 0 51.5 7.5t38 26t25.5 33.5t17.5 45t10.5 45t8 49l4 25q-57 -79 -152 -79q-81 0 -124.5 53t-43.5 137q0 55 16 114.5t45.5 113t78.5 88t109 34.5q54 0 89.5 -22t58.5 -70l15 78h155l-13 -65h-75l-90 -462q-12 -65 -30 -106 t-59 -70q-56 -39 -142 -39q-80 0 -136.5 38t-56.5 115v11zM149 185q0 -55 24.5 -92.5t76.5 -37.5q46 0 83 30t58 76t31.5 93.5t10.5 89.5q0 52 -28 90t-78 38q-44 0 -80 -30.5t-56 -76t-31 -93t-11 -87.5z" />
<glyph unicode="h" horiz-adv-x="583" d="M0 0l12 65h77l109 577h-76l12 64h161l-49 -257q60 86 165 86q62 0 100.5 -31t38.5 -91q0 -23 -5 -48l-45 -235q-5 -28 -5 -35q0 -17 11 -27t28 -10q10 0 38 7l-12 -65q-48 -5 -56 -5q-42 0 -68.5 19t-26.5 59q0 17 6 49l42 213q6 29 6 57q0 35 -19.5 55t-54.5 20 q-39 0 -69.5 -18t-48.5 -41t-33.5 -64t-21.5 -66.5t-15 -68.5l-28 -144h75l-12 -65h-236z" />
<glyph unicode="i" horiz-adv-x="271" d="M89 456l13 65h159l-76 -396q-4 -20 -4 -32q0 -34 35 -34q9 0 42 6l-12 -65q-29 -10 -61 -10q-41 0 -66 21t-25 61q0 19 5 42l66 342h-76zM185 625l16 81h101l-15 -81h-102z" />
<glyph unicode="j" horiz-adv-x="271" d="M-101 -200l12 64q49 -17 72 -17q42 0 61 28.5t28 76.5l98 504h-77l12 65h163l-114 -581q-15 -77 -51.5 -118.5t-108.5 -41.5q-35 0 -95 20zM188 625l16 81h99l-15 -81h-100z" />
<glyph unicode="k" horiz-adv-x="542" d="M0 0l13 65h75l109 577h-75l13 64h159l-80 -423l214 173h-62l12 65h212l-13 -65h-45l-186 -148l84 -192q8 -19 13.5 -28t17.5 -19t28 -10q12 0 32 6l-12 -65q-26 -7 -46 -7q-51 0 -71.5 21t-42.5 76l-68 168l-85 -68l-24 -125h73l-13 -65h-232z" />
<glyph unicode="l" horiz-adv-x="250" d="M72 71q0 7 8 58l97 513h-75l12 64h159l-110 -581q-5 -28 -5 -35q0 -34 37 -34q14 0 40 6l-12 -63q-41 -9 -71 -9q-38 0 -59 21.5t-21 59.5z" />
<glyph unicode="m" horiz-adv-x="812" d="M2 0l13 65h78l74 391h-78l13 65h151l-11 -58q57 72 146 72q87 0 118 -80q53 80 150 80q53 0 89.5 -26.5t36.5 -77.5q0 -17 -3 -35l-51 -269q-5 -25 -5 -35q0 -33 34 -33q15 0 41 6l-12 -65q-48 -5 -60 -5q-42 0 -66 18.5t-24 54.5q0 7 5 39l51 266q4 19 4 41 q0 27 -17.5 42t-45.5 15q-108 0 -138 -156l-48 -250h66l-12 -65h-205l12 65h56l56 295q5 25 5 46q0 31 -19 48t-51 17q-45 0 -79 -34t-46 -94l-54 -278h65l-12 -65h-227z" />
<glyph unicode="n" horiz-adv-x="583" d="M4 0l12 65h74l75 391h-74l12 65h153l-16 -81q65 94 168 94q61 0 101 -29.5t40 -88.5q0 -28 -6 -55l-45 -233q-5 -28 -5 -34q0 -16 11.5 -24t27.5 -8q12 0 38 7l-12 -65q-34 -9 -55 -9q-42 0 -70 18.5t-28 58.5q0 18 12 76l35 181q9 47 9 64q0 72 -77 72q-132 0 -170 -197 l-39 -203h76l-12 -65h-235z" />
<glyph unicode="o" d="M64 183q0 88 28.5 166t92 132t149.5 54q91 0 138.5 -55t47.5 -147q0 -41 -8 -85.5t-28.5 -92t-50 -84t-76.5 -60.5t-105 -24q-91 0 -139.5 52.5t-48.5 143.5zM149 186q0 -56 25 -94.5t79 -38.5q55 0 98 47.5t63.5 111t20.5 126.5q0 56 -24.5 94.5t-77.5 38.5 q-44 0 -81 -30t-58.5 -75t-33 -92t-11.5 -88z" />
<glyph unicode="p" horiz-adv-x="562" d="M-42 -209l13 66h75l114 599h-76l13 65h160l-11 -56q58 70 144 70t130 -54.5t44 -142.5q0 -90 -39 -187.5t-107 -136.5q-47 -27 -109 -27q-52 0 -85 18.5t-53 64.5l-40 -213h78l-13 -66h-238zM197 182q0 -130 102 -130q60 0 103 52t60 115t17 122q0 56 -24 92.5t-76 36.5 q-43 0 -79 -29.5t-57.5 -74.5t-33.5 -93.5t-12 -90.5z" />
<glyph unicode="q" horiz-adv-x="562" d="M66 179q0 81 26.5 159.5t86.5 136.5t140 58q110 0 141 -96l17 84h156l-12 -65h-77l-116 -599h76l-12 -66h-239l12 66h78l38 199q-64 -70 -146 -70q-84 0 -126.5 53.5t-42.5 139.5zM150 192q0 -57 24 -98.5t77 -41.5q58 0 101 51t61.5 115.5t18.5 126.5q0 55 -25.5 89.5 t-77.5 34.5q-57 0 -99.5 -49.5t-61 -111t-18.5 -116.5z" />
<glyph unicode="r" horiz-adv-x="375" d="M3 0l12 65h76l74 391h-76l13 65h150l-10 -88q32 50 64.5 76t81.5 26q17 0 47 -6l-16 -85q-15 5 -38 5q-134 0 -173 -213l-32 -171h77l-13 -65h-237z" />
<glyph unicode="s" horiz-adv-x="437" d="M24 0l33 178h69q-1 -9 -1 -26q0 -42 24.5 -72.5t81.5 -30.5q43 0 69.5 22.5t26.5 59.5q0 32 -18.5 52t-53.5 42l-84 54q-20 13 -32.5 24t-24.5 35t-12 54q0 60 43.5 101.5t120.5 41.5q39 0 68.5 -12t40.5 -22.5t25 -29.5l12 50h65l-32 -169h-68v13q0 49 -26.5 78.5 t-73.5 29.5q-39 0 -64 -21.5t-25 -52.5q0 -37 51 -69l69 -44q51 -32 76.5 -65t25.5 -79q0 -67 -47.5 -110.5t-131.5 -43.5q-87 0 -129 65l-11 -53h-67z" />
<glyph unicode="t" horiz-adv-x="292" d="M77 456l12 65h78l21 112l88 15l-24 -127h116l-13 -65h-116l-59 -301q-8 -48 -8 -56q0 -42 56 -42q25 0 45 4l-13 -64q-30 -5 -55 -5q-119 0 -119 91q0 16 6 48l62 325h-77z" />
<glyph unicode="u" horiz-adv-x="542" d="M67 456l12 65h162l-66 -342q-7 -33 -7 -57q0 -33 20 -50t54 -17q38 0 66 16.5t45 47t26.5 59.5t16.5 67l40 211h-77l12 65h162l-73 -381q-5 -23 -5 -47q0 -34 37 -34q8 0 35 5l-13 -66q-32 -5 -57 -5q-43 0 -64 18t-22 59q-58 -82 -154 -82q-58 0 -98 28t-40 83 q0 14 13 87l50 270h-75z" />
<glyph unicode="v" horiz-adv-x="479" d="M62 456l12 65h193l-12 -65h-63l33 -380l191 380h-73l13 65h199l-13 -65h-43l-236 -456h-108l-47 456h-46z" />
<glyph unicode="w" horiz-adv-x="812" d="M66 456l12 65h187l-13 -65h-61l14 -380l237 445h107l15 -445l188 380h-60l13 65h188l-13 -65h-47l-233 -456h-107l-16 442l-236 -442h-109l-22 456h-44z" />
<glyph unicode="x" horiz-adv-x="500" d="M-18 0l12 65h52l187 215l-74 176h-54l12 65h196l-13 -65h-52l50 -123l103 123h-45l12 65h192l-13 -65h-55l-157 -181l88 -210h55l-12 -65h-213l12 65h69l-62 160l-134 -160h60l-12 -65h-204z" />
<glyph unicode="y" d="M-19 -206l12 67q41 -16 65 -16q23 0 41 12t27 25t22 37l42 77l-67 460h-54l12 65h204l-12 -65h-67l43 -360l201 360h-66l12 65h200l-12 -65h-54l-290 -521q-52 -93 -84.5 -125t-94.5 -32q-41 0 -80 16z" />
<glyph unicode="z" horiz-adv-x="458" d="M8 0l11 60l365 396h-197l-21 -106h-77l32 171h378l-12 -65l-355 -391h204l22 115h77l-34 -180h-393z" />
<glyph unicode="{" horiz-adv-x="292" d="M42 244l10 51q52 9 72.5 30t32.5 83l29 156q18 100 49.5 133t114.5 33h50l-9 -51h-24q-50 0 -67.5 -22.5t-30.5 -93.5l-31 -163q-12 -62 -33.5 -89.5t-72.5 -44.5q32 -14 46.5 -32.5t14.5 -48.5q0 -23 -6 -54l-30 -159q-9 -50 -9 -59q1 -31 13.5 -44t45.5 -13h27l-10 -51 h-52q-109 0 -109 92q0 24 10 74l31 161q7 35 7 50q0 26 -15.5 40t-53.5 22z" />
<glyph unicode="|" horiz-adv-x="230" d="M17 -192l175 920h80l-175 -920h-80z" />
<glyph unicode="}" horiz-adv-x="292" d="M-42 -195l9 51h24q50 0 67.5 22.5t30.5 93.5l31 163q12 62 33.5 89.5t72.5 44.5q-32 14 -46.5 32.5t-14.5 48.5q0 22 6 54l30 159q9 49 9 59q0 30 -13 43.5t-46 13.5h-27l10 51h52q109 0 109 -92q0 -24 -10 -74l-31 -161q-7 -35 -7 -50q0 -26 15.5 -40t53.5 -22l-10 -51 q-52 -9 -72.5 -30t-32.5 -83l-29 -156q-18 -100 -49.5 -133t-114.5 -33h-50z" />
<glyph unicode="~" horiz-adv-x="724" d="M96 284q52 54 91 76.5t81 22.5q46 0 110 -35l56 -30q52 -28 81 -28q34 0 62 17t78 66l37 -56q-97 -103 -183 -103q-40 0 -85 25l-72 39q-52 29 -90 29q-32 0 -53.5 -12.5t-73.5 -64.5z" />
<glyph unicode="&#xa1;" horiz-adv-x="292" d="M57 0l117 543h83l-99 -543h-101zM172 604l19 102h108l-19 -102h-108z" />
<glyph unicode="&#xa2;" horiz-adv-x="479" d="M76 185q0 55 13.5 112.5t40 110.5t72.5 88.5t103 40.5l19 101h60l-21 -104q51 -12 77 -56l13 47h64l-34 -180h-68q0 3 0.5 15.5t0.5 19.5q0 75 -64 95l-81 -417q76 21 107 125h87q-55 -187 -207 -192l-20 -101h-59l21 108q-60 16 -92 68t-32 119zM162 186q0 -88 51 -120 l79 405q-43 -17 -74 -70t-43.5 -109t-12.5 -106z" />
<glyph unicode="&#xa3;" horiz-adv-x="583" d="M0 0l12 65h74l99 285h-71l12 63h81l29 84q22 62 39.5 97t46 63t69.5 38.5t103 10.5h107l-14 -64h-67q-66 0 -94 -9q-22 -7 -39.5 -22t-30.5 -38.5t-19.5 -39.5t-16.5 -46l-26 -74h156l-12 -63h-166l-98 -285h282l36 192h79l-49 -257h-522z" />
<glyph unicode="&#xa4;" horiz-adv-x="676" d="M100 122l67 63q-52 71 -52 157q0 93 64 172l-65 68l52 48l64 -69q72 51 156 51q96 0 171 -61l68 64l48 -51l-69 -65q50 -67 50 -158q0 -47 -13.5 -85.5t-47.5 -84.5l64 -70l-51 -47l-65 69q-70 -51 -157 -51q-90 0 -170 62l-66 -63zM190 342q0 -86 57 -143.5t142 -57.5 q80 0 136 58t56 141q0 87 -55.5 145t-139.5 58q-83 0 -139.5 -58t-56.5 -143z" />
<glyph unicode="&#xa5;" horiz-adv-x="559" d="M74 190l13 61h181l-16 71h-154l12 61h128l-61 259h-58l12 64h213l-12 -64h-67l66 -296l184 296h-67l13 64h207l-12 -64h-54l-166 -259h139l-12 -61h-164l-46 -71h195l-13 -61h-193l-24 -125h76l-12 -65h-239l13 65h77l24 125h-183z" />
<glyph unicode="&#xa6;" horiz-adv-x="230" d="M17 -192l74 389h80l-74 -389h-80zM117 339l75 389h80l-74 -389h-81z" />
<glyph unicode="&#xa7;" horiz-adv-x="479" d="M24 -83q0 25 6 48h80q-3 -15 -3 -30q0 -45 24.5 -72t68.5 -27q49 0 81.5 32t32.5 81q0 26 -13.5 50.5t-26.5 38t-39 36.5l-90 78q-71 62 -71 122q0 94 123 152q-49 55 -49 114q0 79 53.5 130.5t140.5 51.5q76 0 123.5 -38t47.5 -112q0 -27 -3 -39h-77q0 3 0.5 14t0.5 16 q0 41 -25 67.5t-66 26.5q-46 0 -80 -34t-34 -81q0 -22 11 -43t22.5 -32.5t33.5 -30.5l77 -66q29 -25 46 -43t33.5 -48t16.5 -60q0 -85 -125 -146q48 -66 48 -120q0 -35 -17 -72q-51 -107 -181 -107q-72 0 -121 36.5t-49 106.5zM156 279q0 -42 59 -93l81 -69q35 16 63 45 t28 62q0 41 -78 105l-67 55q-25 -16 -40 -27.5t-30.5 -33t-15.5 -44.5z" />
<glyph unicode="&#xa8;" horiz-adv-x="292" d="M23 634l15 81h90l-15 -81h-90zM164 634l15 81h90l-15 -81h-90z" />
<glyph unicode="&#xa9;" horiz-adv-x="801" d="M93 353q0 149 103.5 252.5t252.5 103.5t252.5 -103t103.5 -252q0 -151 -103 -254t-254 -103q-148 0 -251.5 104t-103.5 252zM124 352q0 -137 94 -233t230 -96t231 96t95 233q0 139 -94 235t-231 96q-135 0 -230 -97t-95 -234zM252 297q0 108 61 194.5t157 86.5 q86 0 113 -70l12 58h53l-28 -151h-59q0 109 -88 109q-44 0 -79 -36.5t-52.5 -88.5t-17.5 -107t26 -85.5t72 -30.5q85 0 116 104h65q-19 -77 -66 -118.5t-120 -41.5q-76 0 -120.5 48t-44.5 129z" />
<glyph unicode="&#xaa;" horiz-adv-x="375" d="M125 512q0 77 43 143.5t116 66.5q68 0 87 -47l7 39h54l-46 -242q-3 -12 -3 -22q0 -21 20 -21q3 0 26 5l-7 -40q-17 -4 -40 -4q-50 0 -56 39q-31 -43 -93 -43q-55 0 -81.5 35t-26.5 91zM183 508q0 -34 14.5 -58t46.5 -24q28 0 49.5 19t33.5 48t17.5 58.5t5.5 55.5 q0 75 -58 75q-51 0 -80 -58.5t-29 -115.5z" />
<glyph unicode="&#xab;" horiz-adv-x="354" d="M55 284l122 166h69l-100 -166l33 -165h-65zM205 284l123 166h69l-100 -166l31 -165h-63z" />
<glyph unicode="&#xac;" horiz-adv-x="724" d="M102 284l13 69h554l-63 -329h-83l50 260h-471z" />
<glyph unicode="&#xad;" horiz-adv-x="417" d="M50 242l15 83h376l-16 -83h-375z" />
<glyph unicode="&#xae;" horiz-adv-x="801" d="M93 353q0 149 103.5 252.5t252.5 103.5t252.5 -103t103.5 -252q0 -151 -103 -254t-254 -103q-148 0 -251.5 104t-103.5 252zM124 352q0 -137 94 -233t230 -96t231 96t95 233q0 139 -94 235t-231 96q-135 0 -230 -97t-95 -234zM239 144l10 49h45l63 328h-48l9 49h174 q139 0 139 -98q0 -44 -29 -75.5t-79 -40.5q30 -7 41 -25t11 -56l1 -82h45l-9 -49h-100q1 92 1 132q0 36 -14 47t-58 11h-56l-27 -141h48l-9 -49h-158zM394 381h65q51 0 78.5 21t27.5 60q0 32 -19.5 45.5t-65.5 13.5h-60z" />
<glyph unicode="&#xaf;" horiz-adv-x="292" d="M18 632l14 64h242l-14 -64h-242z" />
<glyph unicode="&#xb0;" horiz-adv-x="354" d="M77 601q0 61 43 104t104 43t104 -43t43 -104t-43 -104t-104 -43t-104 43t-43 104zM137 601q0 -36 25.5 -61.5t61.5 -25.5t61.5 25.5t25.5 61.5t-25.5 61.5t-61.5 25.5t-61.5 -25.5t-25.5 -61.5z" />
<glyph unicode="&#xb1;" horiz-adv-x="724" d="M76 0l13 70h538l-14 -70h-537zM153 403l13 69h227l43 222h82l-42 -222h227l-13 -69h-227l-43 -225h-83l43 225h-227z" />
<glyph unicode="&#xb2;" horiz-adv-x="390" d="M88 443l8 43q135 104 197 164q92 88 92 134q0 28 -19 44t-50 16q-38 0 -61.5 -21.5t-29.5 -59.5h-65q10 62 52 95.5t106 33.5q54 0 92 -26.5t38 -75.5q0 -45 -29.5 -87t-90.5 -95q-54 -47 -149 -117h164l19 81h52l-27 -129h-299z" />
<glyph unicode="&#xb3;" horiz-adv-x="390" d="M114 549q0 11 1 19h60v-11q0 -43 28 -60.5t64 -17.5q48 0 77.5 28.5t29.5 68.5q0 30 -23.5 51t-71.5 21q-19 0 -30 -1l9 46q20 -2 37 -2q47 0 76.5 24.5t29.5 62.5q0 32 -23 49t-56 17q-40 0 -65.5 -21.5t-33.5 -58.5h-60q27 128 164 128q57 0 97.5 -27t40.5 -78 q0 -43 -25 -74.5t-68 -44.5q64 -23 64 -93q0 -59 -45 -101t-129 -42q-63 0 -105.5 30.5t-42.5 86.5z" />
<glyph unicode="&#xb4;" horiz-adv-x="292" d="M60 606l65 136h107l-109 -136h-63z" />
<glyph unicode="&#xb5;" horiz-adv-x="542" d="M15 -209l127 665h-75l12 65h162l-66 -342q-7 -33 -7 -57q0 -33 20 -50t54 -17q31 0 55.5 12t40 29.5t28 44.5t18.5 50.5t12 53.5l40 211h-77l12 65h162l-73 -381q-5 -23 -5 -44q0 -37 37 -37q8 0 35 5l-12 -65q-29 -6 -58 -6q-42 0 -62.5 18t-23.5 59q-58 -82 -144 -82 q-51 0 -80 37l-47 -234h-85z" />
<glyph unicode="&#xb6;" horiz-adv-x="603" d="M152 490q0 53 26 100.5t70 76.5q62 39 169 39h212l-10 -51h-35l-158 -822h-54l158 822h-135l-157 -822h-55l93 486q-60 21 -92 65t-32 106z" />
<glyph unicode="&#xb7;" horiz-adv-x="250" d="M99 236l20 104h106l-20 -104h-106z" />
<glyph unicode="&#xb8;" horiz-adv-x="292" d="M61 -149l50 2q0 -18 9.5 -27t21.5 -9q17 0 26.5 11.5t9.5 28.5q0 37 -29 37q-21 0 -32 -15l-42 15l61 126h46l-44 -88q12 4 24 4q32 0 50.5 -21t18.5 -52q0 -41 -25 -64t-70 -23q-32 0 -53.5 20t-21.5 55z" />
<glyph unicode="&#xb9;" horiz-adv-x="390" d="M171 443l9 47h53l68 336l-61 -17l9 50l82 23h45l-80 -392h53l-10 -47h-168z" />
<glyph unicode="&#xba;" horiz-adv-x="375" d="M128 506q0 52 17.5 100t57 82t93.5 34q57 0 88.5 -33.5t31.5 -90.5q0 -33 -9 -68.5t-27.5 -69t-53 -55t-78.5 -21.5q-58 0 -89 32t-31 90zM186 507q0 -34 14.5 -58.5t46.5 -24.5q50 0 80 58.5t30 114.5q0 85 -62 85q-49 0 -79 -60t-30 -115z" />
<glyph unicode="&#xbb;" horiz-adv-x="354" d="M29 119l100 165l-32 166h66l58 -166l-123 -165h-69zM179 119l100 165l-33 166h67l57 -166l-122 -165h-69z" />
<glyph unicode="&#xbc;" horiz-adv-x="884" d="M147 267l9 47h53l68 336l-61 -17l9 50l82 23h45l-80 -392h53l-10 -47h-168zM255 0l391 706h59l-389 -706h-61zM494 119l8 43l232 277h83l-55 -274h89l-10 -46h-89l-15 -73h52l-10 -46h-166l10 46h53l15 73h-197zM568 165h134q40 192 45 217z" />
<glyph unicode="&#xbd;" horiz-adv-x="884" d="M143 267l9 47h53l68 336l-61 -17l9 50l82 23h45l-80 -392h53l-10 -47h-168zM260 0l391 706h59l-389 -706h-61zM511 0l8 43q135 104 197 164q92 88 92 134q0 28 -19 44t-50 16q-38 0 -61.5 -21.5t-29.5 -59.5h-65q10 62 52 95.5t106 33.5q54 0 92 -26.5t38 -75.5 q0 -45 -29.5 -87t-90.5 -95q-54 -47 -149 -117h164l19 81h52l-27 -129h-299z" />
<glyph unicode="&#xbe;" horiz-adv-x="884" d="M92 373q0 11 1 19h60v-11q0 -43 28 -60.5t64 -17.5q48 0 77.5 28.5t29.5 68.5q0 30 -23.5 51t-71.5 21q-19 0 -30 -1l9 46q20 -2 37 -2q47 0 76.5 24.5t29.5 62.5q0 32 -23 49t-56 17q-40 0 -65.5 -21.5t-33.5 -58.5h-60q27 128 164 128q57 0 97.5 -27t40.5 -78 q0 -43 -25 -74.5t-68 -44.5q64 -23 64 -93q0 -59 -45 -101t-129 -42q-63 0 -105.5 30.5t-42.5 86.5zM284 0l391 706h59l-389 -706h-61zM523 119l8 43l232 277h83l-55 -274h89l-10 -46h-89l-15 -73h52l-10 -46h-166l10 46h53l15 73h-197zM597 165h134q40 192 45 217z" />
<glyph unicode="&#xbf;" horiz-adv-x="479" d="M41 136q0 52 23 89t70 78l85 75q34 30 46.5 48t20.5 58l12 57h79l-12 -70q-9 -50 -19.5 -68.5t-47.5 -52.5l-100 -93q-24 -23 -35.5 -35t-24 -35.5t-12.5 -47.5q0 -44 30.5 -67.5t76.5 -23.5q70 0 113.5 51.5t53.5 124.5h83q-44 -239 -247 -239q-78 0 -136.5 39 t-58.5 112zM297 603l20 104h107l-19 -104h-108z" />
<glyph unicode="&#xc0;" horiz-adv-x="625" d="M-18 0l13 65h59l298 577h-56l12 64h267l-13 -64h-57l55 -577h59l-12 -65h-216l12 65h72l-14 161h-238l-81 -161h68l-13 -65h-215zM252 288h204l-30 354zM316 895h122l86 -120h-66z" />
<glyph unicode="&#xc1;" horiz-adv-x="625" d="M-18 0l13 65h59l298 577h-56l12 64h267l-13 -64h-57l55 -577h59l-12 -65h-216l12 65h72l-14 161h-238l-81 -161h68l-13 -65h-215zM252 288h204l-30 354zM367 775l124 120h137l-184 -120h-77z" />
<glyph unicode="&#xc2;" horiz-adv-x="625" d="M-18 0l13 65h59l298 577h-56l12 64h267l-13 -64h-57l55 -577h59l-12 -65h-216l12 65h72l-14 161h-238l-81 -161h68l-13 -65h-215zM252 288h204l-30 354zM308 775l120 111h85l68 -111h-48l-69 57l-98 -57h-58z" />
<glyph unicode="&#xc3;" horiz-adv-x="625" d="M-18 0l13 65h59l298 577h-56l12 64h267l-13 -64h-57l55 -577h59l-12 -65h-216l12 65h72l-14 161h-238l-81 -161h68l-13 -65h-215zM252 288h204l-30 354zM296 787q11 58 36.5 88.5t59.5 30.5q25 0 58 -22l48 -33q15 -9 29 -9q27 0 42 60h54q-21 -121 -97 -121 q-26 0 -61 22l-46 30q-18 10 -31 10q-25 0 -37 -56h-55z" />
<glyph unicode="&#xc4;" horiz-adv-x="625" d="M-18 0l13 65h59l298 577h-56l12 64h267l-13 -64h-57l55 -577h59l-12 -65h-216l12 65h72l-14 161h-238l-81 -161h68l-13 -65h-215zM252 288h204l-30 354zM330 803l15 83h90l-15 -83h-90zM484 803l15 83h90l-15 -83h-90z" />
<glyph unicode="&#xc5;" horiz-adv-x="625" d="M-18 0l13 65h59l298 577h-56l12 64h267l-13 -64h-57l55 -577h59l-12 -65h-216l12 65h72l-14 161h-238l-81 -161h68l-13 -65h-215zM252 288h204l-30 354zM378 827q0 35 26 59.5t62 24.5q35 0 56 -22.5t21 -55.5q0 -35 -25 -60t-64 -25q-33 0 -54.5 22.5t-21.5 56.5z M413 829q0 -20 12.5 -33.5t31.5 -13.5q22 0 36.5 14.5t14.5 35.5q0 20 -12 33.5t-32 13.5q-21 0 -36 -14.5t-15 -35.5z" />
<glyph unicode="&#xc6;" horiz-adv-x="854" d="M-14 0l13 65h49l367 577h-61l12 64h546l-43 -221h-76l30 157h-247l-13 -233h186l-13 -67h-177l-16 -277h170l34 175h76l-45 -240h-402l12 65h74l9 165h-235l-101 -165h70l-13 -65h-206zM276 293h198l20 355z" />
<glyph unicode="&#xc7;" horiz-adv-x="583" d="M81 240q0 121 47 250.5t131 189.5q60 43 148 43q61 0 100.5 -21.5t63.5 -73.5l19 82h66l-42 -226h-76q1 10 1 31q0 67 -33.5 104.5t-99.5 37.5q-58 0 -97 -31q-66 -52 -104.5 -168.5t-38.5 -216.5q0 -40 5.5 -70.5t19.5 -59.5t42 -44.5t70 -15.5q77 0 126 56t62 134h85 q-14 -53 -33.5 -93.5t-49 -78t-74.5 -59t-103 -24.5l-29 -57q13 4 25 4q34 0 53 -21.5t19 -53.5q0 -42 -25.5 -66t-73.5 -24q-33 0 -55.5 21t-22.5 57l52 2q0 -19 10 -28t23 -9q37 0 37 41q0 38 -30 38q-22 0 -33 -16l-44 16l47 97q-95 5 -141.5 75.5t-46.5 177.5z" />
<glyph unicode="&#xc8;" horiz-adv-x="562" d="M-1 0l12 65h77l110 577h-77l12 64h488l-43 -224h-76l30 160h-248l-44 -232h236l-12 -66h-236l-53 -279h248l32 173h77l-45 -238h-488zM274 895h122l86 -120h-66z" />
<glyph unicode="&#xc9;" horiz-adv-x="562" d="M-1 0l12 65h77l110 577h-77l12 64h488l-43 -224h-76l30 160h-248l-44 -232h236l-12 -66h-236l-53 -279h248l32 173h77l-45 -238h-488zM325 775l124 120h137l-184 -120h-77z" />
<glyph unicode="&#xca;" horiz-adv-x="562" d="M-1 0l12 65h77l110 577h-77l12 64h488l-43 -224h-76l30 160h-248l-44 -232h236l-12 -66h-236l-53 -279h248l32 173h77l-45 -238h-488zM267 775l120 111h85l68 -111h-48l-69 57l-98 -57h-58z" />
<glyph unicode="&#xcb;" horiz-adv-x="562" d="M-1 0l12 65h77l110 577h-77l12 64h488l-43 -224h-76l30 160h-248l-44 -232h236l-12 -66h-236l-53 -279h248l32 173h77l-45 -238h-488zM290 803l15 83h90l-15 -83h-90zM444 803l15 83h90l-15 -83h-90z" />
<glyph unicode="&#xcc;" horiz-adv-x="271" d="M-2 0l13 65h75l109 577h-75l12 64h238l-12 -64h-76l-109 -577h75l-12 -65h-238zM129 895h122l86 -120h-66z" />
<glyph unicode="&#xcd;" horiz-adv-x="271" d="M-2 0l13 65h75l109 577h-75l12 64h238l-12 -64h-76l-109 -577h75l-12 -65h-238zM180 775l124 120h137l-184 -120h-77z" />
<glyph unicode="&#xce;" horiz-adv-x="271" d="M-2 0l13 65h75l109 577h-75l12 64h238l-12 -64h-76l-109 -577h75l-12 -65h-238zM121 775l120 111h85l68 -111h-48l-69 57l-98 -57h-58z" />
<glyph unicode="&#xcf;" horiz-adv-x="271" d="M-2 0l13 65h75l109 577h-75l12 64h238l-12 -64h-76l-109 -577h75l-12 -65h-238zM143 804l15 83h90l-15 -83h-90zM297 804l15 83h90l-15 -83h-90z" />
<glyph unicode="&#xd0;" horiz-adv-x="625" d="M0 0l12 65h76l52 274h-76l12 64h76l45 239h-75l12 64h251q82 0 135.5 -24t87.5 -89q32 -61 32 -148q0 -55 -11.5 -115t-34 -118t-60.5 -107t-85 -74q-59 -31 -183 -31h-266zM175 65h110q75 0 113 21q74 40 115.5 149.5t41.5 209.5q0 105 -46 151t-148 46h-77l-45 -239 h160l-11 -64h-161z" />
<glyph unicode="&#xd1;" horiz-adv-x="646" d="M-1 0l13 65h75l110 577h-76l12 64h212l124 -661l114 597h-76l12 64h229l-12 -64h-76l-122 -642h-139l-124 655l-109 -590h75l-12 -65h-230zM296 787q11 58 36.5 88.5t59.5 30.5q25 0 58 -22l48 -33q15 -9 29 -9q27 0 42 60h54q-21 -121 -97 -121q-26 0 -61 22l-46 30 q-18 10 -31 10q-25 0 -37 -56h-55z" />
<glyph unicode="&#xd2;" horiz-adv-x="625" d="M82 239q0 79 21.5 172.5t56.5 157.5q85 153 253 153q120 0 174.5 -72.5t54.5 -194.5q0 -118 -44.5 -242t-127.5 -183q-62 -45 -169 -45q-114 0 -166.5 69t-52.5 185zM167 236q0 -186 138 -186q94 0 156 77q46 57 72 158t26 187q0 82 -35 133.5t-113 51.5 q-62 0 -110.5 -40t-76.5 -104t-42.5 -135t-14.5 -142zM306 895h122l86 -120h-66z" />
<glyph unicode="&#xd3;" horiz-adv-x="625" d="M82 239q0 79 21.5 172.5t56.5 157.5q85 153 253 153q120 0 174.5 -72.5t54.5 -194.5q0 -118 -44.5 -242t-127.5 -183q-62 -45 -169 -45q-114 0 -166.5 69t-52.5 185zM167 236q0 -186 138 -186q94 0 156 77q46 57 72 158t26 187q0 82 -35 133.5t-113 51.5 q-62 0 -110.5 -40t-76.5 -104t-42.5 -135t-14.5 -142zM357 775l124 120h137l-184 -120h-77z" />
<glyph unicode="&#xd4;" horiz-adv-x="625" d="M82 239q0 79 21.5 172.5t56.5 157.5q85 153 253 153q120 0 174.5 -72.5t54.5 -194.5q0 -118 -44.5 -242t-127.5 -183q-62 -45 -169 -45q-114 0 -166.5 69t-52.5 185zM167 236q0 -186 138 -186q94 0 156 77q46 57 72 158t26 187q0 82 -35 133.5t-113 51.5 q-62 0 -110.5 -40t-76.5 -104t-42.5 -135t-14.5 -142zM298 775l120 111h85l68 -111h-48l-69 57l-98 -57h-58z" />
<glyph unicode="&#xd5;" horiz-adv-x="625" d="M82 239q0 79 21.5 172.5t56.5 157.5q85 153 253 153q120 0 174.5 -72.5t54.5 -194.5q0 -118 -44.5 -242t-127.5 -183q-62 -45 -169 -45q-114 0 -166.5 69t-52.5 185zM167 236q0 -186 138 -186q94 0 156 77q46 57 72 158t26 187q0 82 -35 133.5t-113 51.5 q-62 0 -110.5 -40t-76.5 -104t-42.5 -135t-14.5 -142zM285 787q11 58 36.5 88.5t59.5 30.5q25 0 58 -22l48 -33q15 -9 29 -9q27 0 42 60h54q-21 -121 -97 -121q-26 0 -61 22l-46 30q-18 10 -31 10q-25 0 -37 -56h-55z" />
<glyph unicode="&#xd6;" horiz-adv-x="625" d="M82 239q0 79 21.5 172.5t56.5 157.5q85 153 253 153q120 0 174.5 -72.5t54.5 -194.5q0 -118 -44.5 -242t-127.5 -183q-62 -45 -169 -45q-114 0 -166.5 69t-52.5 185zM167 236q0 -186 138 -186q94 0 156 77q46 57 72 158t26 187q0 82 -35 133.5t-113 51.5 q-62 0 -110.5 -40t-76.5 -104t-42.5 -135t-14.5 -142zM323 803l15 83h90l-15 -83h-90zM477 803l15 83h90l-15 -83h-90z" />
<glyph unicode="&#xd7;" horiz-adv-x="724" d="M163 167l180 145l-136 167l59 52l137 -167l180 144l48 -56l-180 -145l136 -168l-59 -51l-137 168l-180 -145z" />
<glyph unicode="&#xd8;" horiz-adv-x="625" d="M1 -113l124 183q-43 68 -43 175q0 110 40 233t112 183q73 60 179 60q80 0 132 -32l71 105h80l-102 -153q49 -64 49 -189q0 -81 -26 -177t-67 -160q-83 -131 -241 -131q-74 0 -138 36l-89 -133h-81zM167 230q0 -44 9 -86l328 485q-38 27 -91 27q-67 0 -118 -44.5t-77 -114 t-38.5 -137t-12.5 -130.5zM215 83q34 -33 91 -33q92 0 151 71q48 57 75.5 161.5t27.5 192.5q0 55 -15 95z" />
<glyph unicode="&#xd9;" horiz-adv-x="604" d="M103 148q0 28 10 82l79 412h-76l12 64h236l-12 -64h-74l-77 -396q-15 -75 -15 -93q0 -50 32.5 -77t83.5 -27q73 0 108 43t50 120l82 430h-75l12 64h232l-12 -64h-73l-83 -428q-23 -120 -77.5 -174t-172.5 -54q-85 0 -137.5 39.5t-52.5 122.5zM296 895h122l86 -120h-66z " />
<glyph unicode="&#xda;" horiz-adv-x="604" d="M103 148q0 28 10 82l79 412h-76l12 64h236l-12 -64h-74l-77 -396q-15 -75 -15 -93q0 -50 32.5 -77t83.5 -27q73 0 108 43t50 120l82 430h-75l12 64h232l-12 -64h-73l-83 -428q-23 -120 -77.5 -174t-172.5 -54q-85 0 -137.5 39.5t-52.5 122.5zM347 775l124 120h137 l-184 -120h-77z" />
<glyph unicode="&#xdb;" horiz-adv-x="604" d="M103 148q0 28 10 82l79 412h-76l12 64h236l-12 -64h-74l-77 -396q-15 -75 -15 -93q0 -50 32.5 -77t83.5 -27q73 0 108 43t50 120l82 430h-75l12 64h232l-12 -64h-73l-83 -428q-23 -120 -77.5 -174t-172.5 -54q-85 0 -137.5 39.5t-52.5 122.5zM288 775l120 111h85l68 -111 h-48l-69 57l-98 -57h-58z" />
<glyph unicode="&#xdc;" horiz-adv-x="604" d="M103 148q0 28 10 82l79 412h-76l12 64h236l-12 -64h-74l-77 -396q-15 -75 -15 -93q0 -50 32.5 -77t83.5 -27q73 0 108 43t50 120l82 430h-75l12 64h232l-12 -64h-73l-83 -428q-23 -120 -77.5 -174t-172.5 -54q-85 0 -137.5 39.5t-52.5 122.5zM316 803l15 83h90l-15 -83 h-90zM470 803l15 83h90l-15 -83h-90z" />
<glyph unicode="&#xdd;" horiz-adv-x="542" d="M108 642l12 64h213l-12 -64h-67l65 -297l185 297h-67l13 64h207l-12 -64h-54l-249 -390l-35 -187h76l-12 -65h-239l13 65h77l36 187l-92 390h-58zM361 758l63 137h107l-105 -137h-65z" />
<glyph unicode="&#xde;" horiz-adv-x="542" d="M-2 0l12 65h78l109 577h-78l13 64h237l-13 -64h-70l-14 -70h54q43 0 71 -2t62 -12t54 -27.5t33.5 -50t13.5 -79.5q0 -103 -52 -171q-38 -50 -93.5 -64.5t-137.5 -14.5h-87l-15 -86h75l-13 -65h-239zM203 215h73q68 0 111.5 18.5t67.5 72.5q19 43 19 91q0 66 -37.5 88.5 t-107.5 22.5h-71z" />
<glyph unicode="&#xdf;" horiz-adv-x="562" d="M-4 0l13 65h76l80 420q21 111 75 174.5t159 63.5q73 0 122 -40.5t49 -111.5q0 -69 -43 -120.5t-113 -61.5q63 -17 92 -56t29 -105q0 -103 -54 -170.5t-155 -67.5q-35 0 -93 15l13 69q46 -18 72 -18q64 0 98 56t34 125q0 119 -122 119l13 70h15q55 0 92 41t37 97 q0 43 -25.5 70t-68.5 27q-36 0 -62.5 -17t-42 -49t-23.5 -58.5t-15 -64.5l-90 -472h-162z" />
<glyph unicode="&#xe0;" horiz-adv-x="562" d="M66 191q0 56 16.5 114.5t46.5 110.5t79.5 85.5t109.5 33.5q104 0 143 -87l14 73h78l-74 -391q-5 -28 -5 -34q0 -36 37 -36q16 0 37 7l-11 -64q-25 -8 -60 -8q-42 0 -61.5 16.5t-26.5 56.5q-56 -79 -156 -79q-84 0 -125.5 57.5t-41.5 144.5zM150 188q0 -56 24.5 -94.5 t78.5 -38.5q47 0 83.5 30.5t56 78t29 95t9.5 90.5q0 55 -25 88t-78 33q-44 0 -79.5 -29.5t-56 -74.5t-31.5 -91.5t-11 -86.5zM290 760h100l17 -154h-59z" />
<glyph unicode="&#xe1;" horiz-adv-x="562" d="M66 191q0 56 16.5 114.5t46.5 110.5t79.5 85.5t109.5 33.5q104 0 143 -87l14 73h78l-74 -391q-5 -28 -5 -34q0 -36 37 -36q16 0 37 7l-11 -64q-25 -8 -60 -8q-42 0 -61.5 16.5t-26.5 56.5q-56 -79 -156 -79q-84 0 -125.5 57.5t-41.5 144.5zM150 188q0 -56 24.5 -94.5 t78.5 -38.5q47 0 83.5 30.5t56 78t29 95t9.5 90.5q0 55 -25 88t-78 33q-44 0 -79.5 -29.5t-56 -74.5t-31.5 -91.5t-11 -86.5zM341 606l65 136h107l-109 -136h-63z" />
<glyph unicode="&#xe2;" horiz-adv-x="562" d="M66 191q0 56 16.5 114.5t46.5 110.5t79.5 85.5t109.5 33.5q104 0 143 -87l14 73h78l-74 -391q-5 -28 -5 -34q0 -36 37 -36q16 0 37 7l-11 -64q-25 -8 -60 -8q-42 0 -61.5 16.5t-26.5 56.5q-56 -79 -156 -79q-84 0 -125.5 57.5t-41.5 144.5zM150 188q0 -56 24.5 -94.5 t78.5 -38.5q47 0 83.5 30.5t56 78t29 95t9.5 90.5q0 55 -25 88t-78 33q-44 0 -79.5 -29.5t-56 -74.5t-31.5 -91.5t-11 -86.5zM249 606l104 142h90l54 -142h-55l-51 91l-81 -91h-61z" />
<glyph unicode="&#xe3;" horiz-adv-x="562" d="M66 191q0 56 16.5 114.5t46.5 110.5t79.5 85.5t109.5 33.5q104 0 143 -87l14 73h78l-74 -391q-5 -28 -5 -34q0 -36 37 -36q16 0 37 7l-11 -64q-25 -8 -60 -8q-42 0 -61.5 16.5t-26.5 56.5q-56 -79 -156 -79q-84 0 -125.5 57.5t-41.5 144.5zM150 188q0 -56 24.5 -94.5 t78.5 -38.5q47 0 83.5 30.5t56 78t29 95t9.5 90.5q0 55 -25 88t-78 33q-44 0 -79.5 -29.5t-56 -74.5t-31.5 -91.5t-11 -86.5zM233 615q12 60 36.5 91t56.5 31q21 0 47 -20l49 -36q15 -11 29 -11q23 0 39 64h51q-24 -124 -96 -124q-23 0 -51 20l-46 33q-15 11 -25 11 q-14 0 -23 -13t-17 -46h-50z" />
<glyph unicode="&#xe4;" horiz-adv-x="562" d="M66 191q0 56 16.5 114.5t46.5 110.5t79.5 85.5t109.5 33.5q104 0 143 -87l14 73h78l-74 -391q-5 -28 -5 -34q0 -36 37 -36q16 0 37 7l-11 -64q-25 -8 -60 -8q-42 0 -61.5 16.5t-26.5 56.5q-56 -79 -156 -79q-84 0 -125.5 57.5t-41.5 144.5zM150 188q0 -56 24.5 -94.5 t78.5 -38.5q47 0 83.5 30.5t56 78t29 95t9.5 90.5q0 55 -25 88t-78 33q-44 0 -79.5 -29.5t-56 -74.5t-31.5 -91.5t-11 -86.5zM242 634l15 81h90l-15 -81h-90zM383 634l15 81h90l-15 -81h-90z" />
<glyph unicode="&#xe5;" horiz-adv-x="562" d="M66 191q0 56 16.5 114.5t46.5 110.5t79.5 85.5t109.5 33.5q104 0 143 -87l14 73h78l-74 -391q-5 -28 -5 -34q0 -36 37 -36q16 0 37 7l-11 -64q-25 -8 -60 -8q-42 0 -61.5 16.5t-26.5 56.5q-56 -79 -156 -79q-84 0 -125.5 57.5t-41.5 144.5zM150 188q0 -56 24.5 -94.5 t78.5 -38.5q47 0 83.5 30.5t56 78t29 95t9.5 90.5q0 55 -25 88t-78 33q-44 0 -79.5 -29.5t-56 -74.5t-31.5 -91.5t-11 -86.5zM263 669q0 47 30.5 77.5t77.5 30.5q40 0 66 -22.5t26 -62.5q0 -47 -30.5 -78t-77.5 -31q-40 0 -66 22.5t-26 63.5zM304 673q0 -24 14.5 -39 t37.5 -15q28 0 46.5 19.5t18.5 47.5q0 25 -14.5 40.5t-38.5 15.5q-28 0 -46 -20.5t-18 -48.5z" />
<glyph unicode="&#xe6;" horiz-adv-x="854" d="M66 190q0 57 16 116t46 111t80.5 85t111.5 33q98 0 140 -83l14 70h64l-12 -62q73 75 165 75q83 0 129 -51.5t46 -135.5q0 -34 -11 -89h-355q-8 -43 -8 -80q0 -129 110 -129q49 0 85 32.5t56 83.5h85q-3 -7 -11.5 -27t-13 -29t-13 -23t-19.5 -26q-64 -74 -179 -74 q-62 0 -108.5 31t-63.5 89q-32 -59 -73.5 -89t-104.5 -30q-89 0 -132.5 55.5t-43.5 146.5zM150 186q0 -55 25 -93.5t76 -38.5q48 0 85 31t56.5 79t29 96t9.5 92q0 54 -25 86t-78 32q-45 0 -80.5 -29.5t-56 -75t-31 -92t-10.5 -87.5zM520 321h263q2 13 2 38q0 47 -26.5 80 t-72.5 33q-54 0 -99 -46.5t-67 -104.5z" />
<glyph unicode="&#xe7;" horiz-adv-x="458" d="M65 180q0 58 14.5 117.5t43.5 114t78.5 88.5t112.5 34q82 0 115 -60l12 47h65l-34 -180h-69q2 20 2 35q0 42 -24 70t-65 28q-42 0 -75.5 -32t-52 -79.5t-28 -95t-9.5 -85.5q0 -32 6.5 -59t27.5 -49t55 -22q46 0 80 38.5t46 88.5h87q-21 -81 -70.5 -134t-129.5 -58 l-27 -55q12 4 24 4q32 0 50.5 -21t18.5 -52q0 -41 -25 -64t-70 -23q-32 0 -53.5 20t-21.5 55l50 2q0 -18 9.5 -27t21.5 -9q17 0 26.5 11.5t9.5 28.5q0 37 -29 37q-21 0 -32 -15l-42 15l46 95q-70 11 -107 65t-37 126z" />
<glyph unicode="&#xe8;" d="M64 184q0 92 41.5 185t113.5 136q50 30 126 30q90 0 138.5 -48.5t48.5 -139.5q0 -47 -10 -88h-365q-8 -40 -8 -74q0 -134 113 -134q98 0 148 115h84q-33 -90 -89 -134.5t-149 -44.5q-94 0 -143 51.5t-49 145.5zM175 321h275q2 11 2 34q0 55 -29 86t-83 31 q-116 0 -165 -151zM274 760h100l17 -154h-59z" />
<glyph unicode="&#xe9;" d="M64 184q0 92 41.5 185t113.5 136q50 30 126 30q90 0 138.5 -48.5t48.5 -139.5q0 -47 -10 -88h-365q-8 -40 -8 -74q0 -134 113 -134q98 0 148 115h84q-33 -90 -89 -134.5t-149 -44.5q-94 0 -143 51.5t-49 145.5zM175 321h275q2 11 2 34q0 55 -29 86t-83 31 q-116 0 -165 -151zM325 606l65 136h107l-109 -136h-63z" />
<glyph unicode="&#xea;" d="M64 184q0 92 41.5 185t113.5 136q50 30 126 30q90 0 138.5 -48.5t48.5 -139.5q0 -47 -10 -88h-365q-8 -40 -8 -74q0 -134 113 -134q98 0 148 115h84q-33 -90 -89 -134.5t-149 -44.5q-94 0 -143 51.5t-49 145.5zM175 321h275q2 11 2 34q0 55 -29 86t-83 31 q-116 0 -165 -151zM233 606l104 142h90l54 -142h-55l-51 91l-81 -91h-61z" />
<glyph unicode="&#xeb;" d="M64 184q0 92 41.5 185t113.5 136q50 30 126 30q90 0 138.5 -48.5t48.5 -139.5q0 -47 -10 -88h-365q-8 -40 -8 -74q0 -134 113 -134q98 0 148 115h84q-33 -90 -89 -134.5t-149 -44.5q-94 0 -143 51.5t-49 145.5zM175 321h275q2 11 2 34q0 55 -29 86t-83 31 q-116 0 -165 -151zM248 634l15 81h90l-15 -81h-90zM389 634l15 81h90l-15 -81h-90z" />
<glyph unicode="&#xec;" horiz-adv-x="271" d="M89 456l13 65h159l-76 -396q-4 -20 -4 -32q0 -34 35 -34q9 0 42 6l-12 -65q-29 -10 -61 -10q-41 0 -66 21t-25 61q0 19 5 42l66 342h-76zM144 760h100l17 -154h-59z" />
<glyph unicode="&#xed;" horiz-adv-x="271" d="M89 456l13 65h159l-76 -396q-4 -20 -4 -32q0 -34 35 -34q9 0 42 6l-12 -65q-29 -10 -61 -10q-41 0 -66 21t-25 61q0 19 5 42l66 342h-76zM194 606l65 136h107l-109 -136h-63z" />
<glyph unicode="&#xee;" horiz-adv-x="271" d="M89 456l13 65h159l-76 -396q-4 -20 -4 -32q0 -34 35 -34q9 0 42 6l-12 -65q-29 -10 -61 -10q-41 0 -66 21t-25 61q0 19 5 42l66 342h-76zM103 606l104 142h90l54 -142h-55l-51 91l-81 -91h-61z" />
<glyph unicode="&#xef;" horiz-adv-x="271" d="M89 456l13 65h159l-76 -396q-4 -20 -4 -32q0 -34 35 -34q9 0 42 6l-12 -65q-29 -10 -61 -10q-41 0 -66 21t-25 61q0 19 5 42l66 342h-76zM118 634l15 81h90l-15 -81h-90zM259 634l15 81h90l-15 -81h-90z" />
<glyph unicode="&#xf0;" d="M64 184q0 61 16.5 121.5t48.5 112.5t85 84.5t119 32.5q43 0 76 -20q-25 59 -35 77l-120 -32l-21 56l110 29q-10 17 -34 49l77 26q5 -8 17 -26.5t18 -27.5l87 24l21 -56l-78 -21q70 -144 70 -263q0 -65 -15.5 -127t-46 -116t-84.5 -87t-123 -33q-91 0 -139.5 53.5 t-48.5 143.5zM149 187q0 -56 25 -95.5t78 -39.5q57 0 100.5 48.5t63 112t19.5 124.5q0 56 -24.5 94.5t-77.5 38.5q-57 0 -101 -50.5t-63.5 -113.5t-19.5 -119z" />
<glyph unicode="&#xf1;" horiz-adv-x="583" d="M4 0l12 65h74l75 391h-74l12 65h153l-16 -81q65 94 168 94q61 0 101 -29.5t40 -88.5q0 -28 -6 -55l-45 -233q-5 -28 -5 -34q0 -16 11.5 -24t27.5 -8q12 0 38 7l-12 -65q-34 -9 -55 -9q-42 0 -70 18.5t-28 58.5q0 18 12 76l35 181q9 47 9 64q0 72 -77 72q-132 0 -170 -197 l-39 -203h76l-12 -65h-235zM245 615q12 60 36.5 91t56.5 31q21 0 47 -20l49 -36q15 -11 29 -11q23 0 39 64h51q-24 -124 -96 -124q-23 0 -51 20l-46 33q-15 11 -25 11q-14 0 -23 -13t-17 -46h-50z" />
<glyph unicode="&#xf2;" d="M64 183q0 88 28.5 166t92 132t149.5 54q91 0 138.5 -55t47.5 -147q0 -41 -8 -85.5t-28.5 -92t-50 -84t-76.5 -60.5t-105 -24q-91 0 -139.5 52.5t-48.5 143.5zM149 186q0 -56 25 -94.5t79 -38.5q55 0 98 47.5t63.5 111t20.5 126.5q0 56 -24.5 94.5t-77.5 38.5 q-44 0 -81 -30t-58.5 -75t-33 -92t-11.5 -88zM269 760h100l17 -154h-59z" />
<glyph unicode="&#xf3;" d="M64 183q0 88 28.5 166t92 132t149.5 54q91 0 138.5 -55t47.5 -147q0 -41 -8 -85.5t-28.5 -92t-50 -84t-76.5 -60.5t-105 -24q-91 0 -139.5 52.5t-48.5 143.5zM149 186q0 -56 25 -94.5t79 -38.5q55 0 98 47.5t63.5 111t20.5 126.5q0 56 -24.5 94.5t-77.5 38.5 q-44 0 -81 -30t-58.5 -75t-33 -92t-11.5 -88zM320 606l65 136h107l-109 -136h-63z" />
<glyph unicode="&#xf4;" d="M64 183q0 88 28.5 166t92 132t149.5 54q91 0 138.5 -55t47.5 -147q0 -41 -8 -85.5t-28.5 -92t-50 -84t-76.5 -60.5t-105 -24q-91 0 -139.5 52.5t-48.5 143.5zM149 186q0 -56 25 -94.5t79 -38.5q55 0 98 47.5t63.5 111t20.5 126.5q0 56 -24.5 94.5t-77.5 38.5 q-44 0 -81 -30t-58.5 -75t-33 -92t-11.5 -88zM228 606l104 142h90l54 -142h-55l-51 91l-81 -91h-61z" />
<glyph unicode="&#xf5;" d="M64 183q0 88 28.5 166t92 132t149.5 54q91 0 138.5 -55t47.5 -147q0 -41 -8 -85.5t-28.5 -92t-50 -84t-76.5 -60.5t-105 -24q-91 0 -139.5 52.5t-48.5 143.5zM149 186q0 -56 25 -94.5t79 -38.5q55 0 98 47.5t63.5 111t20.5 126.5q0 56 -24.5 94.5t-77.5 38.5 q-44 0 -81 -30t-58.5 -75t-33 -92t-11.5 -88zM213 615q12 60 36.5 91t56.5 31q21 0 47 -20l49 -36q15 -11 29 -11q23 0 39 64h51q-24 -124 -96 -124q-23 0 -51 20l-46 33q-15 11 -25 11q-14 0 -23 -13t-17 -46h-50z" />
<glyph unicode="&#xf6;" d="M64 183q0 88 28.5 166t92 132t149.5 54q91 0 138.5 -55t47.5 -147q0 -41 -8 -85.5t-28.5 -92t-50 -84t-76.5 -60.5t-105 -24q-91 0 -139.5 52.5t-48.5 143.5zM149 186q0 -56 25 -94.5t79 -38.5q55 0 98 47.5t63.5 111t20.5 126.5q0 56 -24.5 94.5t-77.5 38.5 q-44 0 -81 -30t-58.5 -75t-33 -92t-11.5 -88zM242 634l15 81h90l-15 -81h-90zM383 634l15 81h90l-15 -81h-90z" />
<glyph unicode="&#xf7;" horiz-adv-x="694" d="M95 268l14 73h566l-14 -73h-566zM299 89l18 91h88l-18 -91h-88zM364 427l17 91h88l-17 -91h-88z" />
<glyph unicode="&#xf8;" d="M-4 -95l105 147q-37 54 -37 133q0 73 28.5 155.5t76.5 128.5q68 66 163 66q52 0 98 -21l75 104h74l-101 -142q42 -58 42 -142q0 -87 -35 -175.5t-99 -132.5q-56 -39 -138 -39q-55 0 -101 25l-75 -107h-76zM142 185q0 -36 7 -67l246 345q-34 13 -66 13q-59 0 -103.5 -51 t-64 -115.5t-19.5 -124.5zM188 70q29 -20 70 -20q47 0 85 30t59 75.5t32 94t11 91.5q0 36 -12 72z" />
<glyph unicode="&#xf9;" horiz-adv-x="542" d="M67 456l12 65h162l-66 -342q-7 -33 -7 -57q0 -33 20 -50t54 -17q38 0 66 16.5t45 47t26.5 59.5t16.5 67l40 211h-77l12 65h162l-73 -381q-5 -23 -5 -47q0 -34 37 -34q8 0 35 5l-13 -66q-32 -5 -57 -5q-43 0 -64 18t-22 59q-58 -82 -154 -82q-58 0 -98 28t-40 83 q0 14 13 87l50 270h-75zM269 760h100l17 -154h-59z" />
<glyph unicode="&#xfa;" horiz-adv-x="542" d="M67 456l12 65h162l-66 -342q-7 -33 -7 -57q0 -33 20 -50t54 -17q38 0 66 16.5t45 47t26.5 59.5t16.5 67l40 211h-77l12 65h162l-73 -381q-5 -23 -5 -47q0 -34 37 -34q8 0 35 5l-13 -66q-32 -5 -57 -5q-43 0 -64 18t-22 59q-58 -82 -154 -82q-58 0 -98 28t-40 83 q0 14 13 87l50 270h-75zM320 606l65 136h107l-109 -136h-63z" />
<glyph unicode="&#xfb;" horiz-adv-x="542" d="M67 456l12 65h162l-66 -342q-7 -33 -7 -57q0 -33 20 -50t54 -17q38 0 66 16.5t45 47t26.5 59.5t16.5 67l40 211h-77l12 65h162l-73 -381q-5 -23 -5 -47q0 -34 37 -34q8 0 35 5l-13 -66q-32 -5 -57 -5q-43 0 -64 18t-22 59q-58 -82 -154 -82q-58 0 -98 28t-40 83 q0 14 13 87l50 270h-75zM228 606l104 142h90l54 -142h-55l-51 91l-81 -91h-61z" />
<glyph unicode="&#xfc;" horiz-adv-x="542" d="M67 456l12 65h162l-66 -342q-7 -33 -7 -57q0 -33 20 -50t54 -17q38 0 66 16.5t45 47t26.5 59.5t16.5 67l40 211h-77l12 65h162l-73 -381q-5 -23 -5 -47q0 -34 37 -34q8 0 35 5l-13 -66q-32 -5 -57 -5q-43 0 -64 18t-22 59q-58 -82 -154 -82q-58 0 -98 28t-40 83 q0 14 13 87l50 270h-75zM213 634l15 81h90l-15 -81h-90zM354 634l15 81h90l-15 -81h-90z" />
<glyph unicode="&#xfd;" d="M-19 -206l12 67q41 -16 65 -16q23 0 41 12t27 25t22 37l42 77l-67 460h-54l12 65h204l-12 -65h-67l43 -360l201 360h-66l12 65h200l-12 -65h-54l-290 -521q-52 -93 -84.5 -125t-94.5 -32q-41 0 -80 16zM319 582l63 136h109l-107 -136h-65z" />
<glyph unicode="&#xfe;" horiz-adv-x="562" d="M-42 -209l13 66h75l150 785h-76l12 64h161l-47 -241q57 70 150 70q83 0 125.5 -56t42.5 -142t-35 -177.5t-98 -136.5q-50 -36 -122 -36q-104 0 -138 83l-40 -213h78l-13 -66h-238zM197 178q0 -56 24.5 -91t78.5 -35q46 0 82.5 30.5t56.5 76.5t30.5 94t10.5 90 q0 54 -24.5 90.5t-75.5 36.5q-60 0 -104 -53.5t-61.5 -117.5t-17.5 -121z" />
<glyph unicode="&#xff;" d="M-19 -206l12 67q41 -16 65 -16q23 0 41 12t27 25t22 37l42 77l-67 460h-54l12 65h204l-12 -65h-67l43 -360l201 360h-66l12 65h200l-12 -65h-54l-290 -521q-52 -93 -84.5 -125t-94.5 -32q-41 0 -80 16zM243 634l15 81h90l-15 -81h-90zM384 634l15 81h90l-15 -81h-90z" />
<glyph unicode="&#x100;" horiz-adv-x="625" d="M-18 0l13 65h59l298 577h-56l12 64h267l-13 -64h-57l55 -577h59l-12 -65h-216l12 65h72l-14 161h-238l-81 -161h68l-13 -65h-215zM252 288h204l-30 354zM311 805l14 67h269l-14 -67h-269z" />
<glyph unicode="&#x101;" horiz-adv-x="562" d="M66 191q0 56 16.5 114.5t46.5 110.5t79.5 85.5t109.5 33.5q104 0 143 -87l14 73h78l-74 -391q-5 -28 -5 -34q0 -36 37 -36q16 0 37 7l-11 -64q-25 -8 -60 -8q-42 0 -61.5 16.5t-26.5 56.5q-56 -79 -156 -79q-84 0 -125.5 57.5t-41.5 144.5zM150 188q0 -56 24.5 -94.5 t78.5 -38.5q47 0 83.5 30.5t56 78t29 95t9.5 90.5q0 55 -25 88t-78 33q-44 0 -79.5 -29.5t-56 -74.5t-31.5 -91.5t-11 -86.5zM243 632l14 64h242l-14 -64h-242z" />
<glyph unicode="&#x102;" horiz-adv-x="625" d="M-18 0l13 65h59l298 577h-56l12 64h267l-13 -64h-57l55 -577h59l-12 -65h-216l12 65h72l-14 161h-238l-81 -161h68l-13 -65h-215zM252 288h204l-30 354zM326 881q0 12 2 24h53v-6q0 -61 70 -61q35 0 54.5 16.5t30.5 49.5h54q-7 -53 -43.5 -87t-102.5 -34q-58 0 -88 27.5 t-30 70.5z" />
<glyph unicode="&#x103;" horiz-adv-x="562" d="M66 191q0 56 16.5 114.5t46.5 110.5t79.5 85.5t109.5 33.5q104 0 143 -87l14 73h78l-74 -391q-5 -28 -5 -34q0 -36 37 -36q16 0 37 7l-11 -64q-25 -8 -60 -8q-42 0 -61.5 16.5t-26.5 56.5q-56 -79 -156 -79q-84 0 -125.5 57.5t-41.5 144.5zM150 188q0 -56 24.5 -94.5 t78.5 -38.5q47 0 83.5 30.5t56 78t29 95t9.5 90.5q0 55 -25 88t-78 33q-44 0 -79.5 -29.5t-56 -74.5t-31.5 -91.5t-11 -86.5zM240 710q0 21 4 36h49q-1 -7 -1 -13q0 -59 61 -59q59 0 84 72h51q-10 -57 -46 -94.5t-95 -37.5q-53 0 -80 26t-27 70z" />
<glyph unicode="&#x104;" horiz-adv-x="625" d="M-18 0l13 65h59l298 577h-56l12 64h267l-13 -64h-57l55 -577h59l-12 -65h-54q-69 -51 -69 -92q0 -16 11 -25t29 -9q20 0 43 10l11 -48q-33 -15 -72 -15q-33 0 -55.5 19.5t-22.5 50.5q0 60 68 109h-105l12 65h72l-14 161h-238l-81 -161h68l-13 -65h-215zM252 288h204 l-30 354z" />
<glyph unicode="&#x105;" horiz-adv-x="562" d="M66 191q0 56 16.5 114.5t46.5 110.5t79.5 85.5t109.5 33.5q104 0 143 -87l14 73h78l-74 -391q-5 -28 -5 -34q0 -36 37 -36q16 0 37 7l-11 -64q-25 -8 -59 -8q-62 -48 -62 -87q0 -16 11 -25t29 -9q20 0 43 10l11 -48q-33 -15 -72 -15q-33 0 -55.5 19.5t-22.5 50.5 q0 61 71 111q-33 12 -42 66q-56 -79 -156 -79q-84 0 -125.5 57.5t-41.5 144.5zM150 188q0 -56 24.5 -94.5t78.5 -38.5q47 0 83.5 30.5t56 78t29 95t9.5 90.5q0 55 -25 88t-78 33q-44 0 -79.5 -29.5t-56 -74.5t-31.5 -91.5t-11 -86.5z" />
<glyph unicode="&#x106;" horiz-adv-x="583" d="M81 240q0 119 44 244t125 190q62 49 153 49q132 0 167 -95l19 82h67l-42 -226h-76q1 10 1 31q0 67 -33.5 104.5t-99.5 37.5q-59 0 -102 -35q-65 -52 -101.5 -170t-36.5 -219q0 -182 137 -182q79 0 125.5 55.5t62.5 134.5h85q-33 -120 -97 -187.5t-180 -67.5 q-63 0 -107.5 22t-67.5 60t-33 80t-10 92zM320 775l124 120h137l-184 -120h-77z" />
<glyph unicode="&#x107;" horiz-adv-x="458" d="M65 188q0 45 9 92t29 92.5t48.5 81.5t70.5 58t92 22q80 0 115 -60l12 47h65l-34 -180h-68q1 12 1 35q0 42 -24 70t-65 28q-42 0 -75.5 -32t-52 -79.5t-28 -95t-9.5 -85.5q0 -31 6.5 -57.5t27.5 -49.5t55 -23q46 0 80.5 39t45.5 88h87q-22 -85 -75 -138.5t-137 -53.5 q-86 0 -131 56.5t-45 144.5zM263 606l65 136h107l-109 -136h-63z" />
<glyph unicode="&#x108;" horiz-adv-x="583" d="M81 240q0 119 44 244t125 190q62 49 153 49q132 0 167 -95l19 82h67l-42 -226h-76q1 10 1 31q0 67 -33.5 104.5t-99.5 37.5q-59 0 -102 -35q-65 -52 -101.5 -170t-36.5 -219q0 -182 137 -182q79 0 125.5 55.5t62.5 134.5h85q-33 -120 -97 -187.5t-180 -67.5 q-63 0 -107.5 22t-67.5 60t-33 80t-10 92zM292 775l120 111h85l68 -111h-48l-69 57l-98 -57h-58z" />
<glyph unicode="&#x109;" horiz-adv-x="458" d="M65 188q0 45 9 92t29 92.5t48.5 81.5t70.5 58t92 22q80 0 115 -60l12 47h65l-34 -180h-68q1 12 1 35q0 42 -24 70t-65 28q-42 0 -75.5 -32t-52 -79.5t-28 -95t-9.5 -85.5q0 -31 6.5 -57.5t27.5 -49.5t55 -23q46 0 80.5 39t45.5 88h87q-22 -85 -75 -138.5t-137 -53.5 q-86 0 -131 56.5t-45 144.5zM205 606l104 142h90l54 -142h-55l-51 91l-81 -91h-61z" />
<glyph unicode="&#x10a;" horiz-adv-x="583" d="M81 240q0 119 44 244t125 190q62 49 153 49q132 0 167 -95l19 82h67l-42 -226h-76q1 10 1 31q0 67 -33.5 104.5t-99.5 37.5q-59 0 -102 -35q-65 -52 -101.5 -170t-36.5 -219q0 -182 137 -182q79 0 125.5 55.5t62.5 134.5h85q-33 -120 -97 -187.5t-180 -67.5 q-63 0 -107.5 22t-67.5 60t-33 80t-10 92zM370 803l15 83h90l-15 -83h-90z" />
<glyph unicode="&#x10b;" horiz-adv-x="458" d="M65 188q0 45 9 92t29 92.5t48.5 81.5t70.5 58t92 22q80 0 115 -60l12 47h65l-34 -180h-68q1 12 1 35q0 42 -24 70t-65 28q-42 0 -75.5 -32t-52 -79.5t-28 -95t-9.5 -85.5q0 -31 6.5 -57.5t27.5 -49.5t55 -23q46 0 80.5 39t45.5 88h87q-22 -85 -75 -138.5t-137 -53.5 q-86 0 -131 56.5t-45 144.5zM277 634l15 81h90l-15 -81h-90z" />
<glyph unicode="&#x10c;" horiz-adv-x="583" d="M81 240q0 119 44 244t125 190q62 49 153 49q132 0 167 -95l19 82h67l-42 -226h-76q1 10 1 31q0 67 -33.5 104.5t-99.5 37.5q-59 0 -102 -35q-65 -52 -101.5 -170t-36.5 -219q0 -182 137 -182q79 0 125.5 55.5t62.5 134.5h85q-33 -120 -97 -187.5t-180 -67.5 q-63 0 -107.5 22t-67.5 60t-33 80t-10 92zM309 886h48l69 -57l98 57h58l-120 -111h-85z" />
<glyph unicode="&#x10d;" horiz-adv-x="458" d="M65 188q0 45 9 92t29 92.5t48.5 81.5t70.5 58t92 22q80 0 115 -60l12 47h65l-34 -180h-68q1 12 1 35q0 42 -24 70t-65 28q-42 0 -75.5 -32t-52 -79.5t-28 -95t-9.5 -85.5q0 -31 6.5 -57.5t27.5 -49.5t55 -23q46 0 80.5 39t45.5 88h87q-22 -85 -75 -138.5t-137 -53.5 q-86 0 -131 56.5t-45 144.5zM234 748h55l51 -91l81 91h61l-104 -142h-90z" />
<glyph unicode="&#x10e;" horiz-adv-x="625" d="M0 0l12 65h76l109 577h-75l12 64h252q79 0 131.5 -22.5t87.5 -84.5t35 -154q0 -55 -11.5 -115t-34 -118t-60.5 -107t-85 -74q-59 -31 -183 -31h-266zM175 65h115q74 0 114 24q72 42 111.5 149.5t39.5 206.5q0 160 -116 189q-33 8 -88 8h-67zM246 886h48l69 -57l98 57h58 l-120 -111h-85z" />
<glyph unicode="&#x10f;" horiz-adv-x="562" d="M64 182q0 59 16 119.5t46.5 113.5t81.5 86.5t115 33.5q98 0 136 -84l37 191h-79l12 64h159l-110 -579q-5 -25 -5 -40q0 -29 41 -29q17 0 33 7l-12 -64q-42 -6 -64 -6q-76 0 -84 69q-60 -76 -158 -76q-80 0 -122.5 55t-42.5 139zM149 196q0 -57 24.5 -99t77.5 -42 q56 0 99 51t62 113.5t19 116.5t-25.5 94t-76.5 40q-54 0 -97 -49.5t-63 -111t-20 -113.5zM589 587l69 144h92l-106 -144h-55z" />
<glyph unicode="&#x110;" horiz-adv-x="625" d="M0 0l12 65h76l52 274h-76l12 64h76l45 239h-75l12 64h251q82 0 135.5 -24t87.5 -89q32 -61 32 -148q0 -55 -11.5 -115t-34 -118t-60.5 -107t-85 -74q-59 -31 -183 -31h-266zM175 65h110q75 0 113 21q74 40 115.5 149.5t41.5 209.5q0 105 -46 151t-148 46h-77l-45 -239 h160l-11 -64h-161z" />
<glyph unicode="&#x111;" horiz-adv-x="562" d="M64 182q0 59 16 119.5t46.5 113.5t81.5 86.5t115 33.5q98 0 136 -84l20 105h-152l12 53h150l7 33h-79l12 64h159l-19 -97h78l-12 -53h-76l-81 -429q-5 -25 -5 -40q0 -29 41 -29q17 0 33 7l-12 -64q-42 -6 -64 -6q-76 0 -84 69q-60 -76 -158 -76q-80 0 -122.5 55 t-42.5 139zM149 196q0 -57 24.5 -99t77.5 -42q56 0 99 51t62 113.5t19 116.5t-25.5 94t-76.5 40q-54 0 -97 -49.5t-63 -111t-20 -113.5z" />
<glyph unicode="&#x112;" horiz-adv-x="562" d="M-1 0l12 65h77l110 577h-77l12 64h488l-43 -224h-76l30 160h-248l-44 -232h236l-12 -66h-236l-53 -279h248l32 173h77l-45 -238h-488zM252 805l14 67h269l-14 -67h-269z" />
<glyph unicode="&#x113;" d="M64 184q0 92 41.5 185t113.5 136q50 30 126 30q90 0 138.5 -48.5t48.5 -139.5q0 -47 -10 -88h-365q-8 -40 -8 -74q0 -134 113 -134q98 0 148 115h84q-33 -90 -89 -134.5t-149 -44.5q-94 0 -143 51.5t-49 145.5zM175 321h275q2 11 2 34q0 55 -29 86t-83 31 q-116 0 -165 -151zM234 632l14 64h242l-14 -64h-242z" />
<glyph unicode="&#x116;" horiz-adv-x="562" d="M-1 0l12 65h77l110 577h-77l12 64h488l-43 -224h-76l30 160h-248l-44 -232h236l-12 -66h-236l-53 -279h248l32 173h77l-45 -238h-488zM329 803l15 83h90l-15 -83h-90z" />
<glyph unicode="&#x117;" d="M64 184q0 92 41.5 185t113.5 136q50 30 126 30q90 0 138.5 -48.5t48.5 -139.5q0 -47 -10 -88h-365q-8 -40 -8 -74q0 -134 113 -134q98 0 148 115h84q-33 -90 -89 -134.5t-149 -44.5q-94 0 -143 51.5t-49 145.5zM175 321h275q2 11 2 34q0 55 -29 86t-83 31 q-116 0 -165 -151zM308 634l15 81h90l-15 -81h-90z" />
<glyph unicode="&#x118;" horiz-adv-x="562" d="M-1 0l12 65h77l110 577h-77l12 64h488l-43 -224h-76l30 160h-248l-44 -232h236l-12 -66h-236l-53 -279h248l32 173h77l-45 -238h-41q-69 -51 -69 -92q0 -16 11 -25t29 -9q20 0 43 10l11 -48q-33 -15 -72 -15q-33 0 -55.5 19.5t-22.5 50.5q0 60 68 109h-390z" />
<glyph unicode="&#x119;" d="M64 184q0 92 41.5 185t113.5 136q50 30 126 30q90 0 138.5 -48.5t48.5 -139.5q0 -47 -10 -88h-365q-8 -40 -8 -74q0 -134 113 -134q98 0 148 115h84q-45 -124 -135 -161q-76 -56 -76 -97q0 -16 11 -25t29 -9q20 0 43 10l11 -48q-33 -15 -72 -15q-33 0 -55.5 19.5 t-22.5 50.5q0 53 53 97q-4 0 -12 -0.5t-12 -0.5q-94 0 -143 51.5t-49 145.5zM175 321h275q2 11 2 34q0 55 -29 86t-83 31q-116 0 -165 -151z" />
<glyph unicode="&#x11a;" horiz-adv-x="562" d="M-1 0l12 65h77l110 577h-77l12 64h488l-43 -224h-76l30 160h-248l-44 -232h236l-12 -66h-236l-53 -279h248l32 173h77l-45 -238h-488zM255 886h48l69 -57l98 57h58l-120 -111h-85z" />
<glyph unicode="&#x11b;" d="M64 184q0 92 41.5 185t113.5 136q50 30 126 30q90 0 138.5 -48.5t48.5 -139.5q0 -47 -10 -88h-365q-8 -40 -8 -74q0 -134 113 -134q98 0 148 115h84q-33 -90 -89 -134.5t-149 -44.5q-94 0 -143 51.5t-49 145.5zM175 321h275q2 11 2 34q0 55 -29 86t-83 31 q-116 0 -165 -151zM248 748h55l51 -91l81 91h61l-104 -142h-90z" />
<glyph unicode="&#x11c;" horiz-adv-x="625" d="M81 239q0 92 34 202q39 124 112 202t189 78t161 -87l16 72h67l-45 -226h-71q3 21 3 42q0 62 -35 97.5t-96 35.5q-77 0 -137 -71q-48 -56 -80.5 -161t-32.5 -186q0 -78 35.5 -132.5t109.5 -54.5q48 0 84 20t58.5 57t34.5 73t22 84h-169l12 67h251l-68 -351h-68l13 72 q-42 -47 -82 -67.5t-100 -20.5q-108 0 -163 71.5t-55 183.5zM296 775l120 111h85l68 -111h-48l-69 57l-98 -57h-58z" />
<glyph unicode="&#x11d;" horiz-adv-x="562" d="M29 -57h86q1 -49 32.5 -74.5t81.5 -25.5q29 0 51.5 7.5t38 26t25.5 33.5t17.5 45t10.5 45t8 49l4 25q-57 -79 -152 -79q-81 0 -124.5 53t-43.5 137q0 55 16 114.5t45.5 113t78.5 88t109 34.5q54 0 89.5 -22t58.5 -70l15 78h155l-13 -65h-75l-90 -462q-12 -65 -30 -106 t-59 -70q-56 -39 -142 -39q-80 0 -136.5 38t-56.5 115v11zM149 185q0 -55 24.5 -92.5t76.5 -37.5q46 0 83 30t58 76t31.5 93.5t10.5 89.5q0 52 -28 90t-78 38q-44 0 -80 -30.5t-56 -76t-31 -93t-11 -87.5zM236 606l104 142h90l54 -142h-55l-51 91l-81 -91h-61z" />
<glyph unicode="&#x11e;" horiz-adv-x="625" d="M81 239q0 92 34 202q39 124 112 202t189 78t161 -87l16 72h67l-45 -226h-71q3 21 3 42q0 62 -35 97.5t-96 35.5q-77 0 -137 -71q-48 -56 -80.5 -161t-32.5 -186q0 -78 35.5 -132.5t109.5 -54.5q48 0 84 20t58.5 57t34.5 73t22 84h-169l12 67h251l-68 -351h-68l13 72 q-42 -47 -82 -67.5t-100 -20.5q-108 0 -163 71.5t-55 183.5zM327 881q0 12 2 24h53v-6q0 -61 70 -61q35 0 54.5 16.5t30.5 49.5h54q-7 -53 -43.5 -87t-102.5 -34q-58 0 -88 27.5t-30 70.5z" />
<glyph unicode="&#x11f;" horiz-adv-x="562" d="M29 -57h86q1 -49 32.5 -74.5t81.5 -25.5q29 0 51.5 7.5t38 26t25.5 33.5t17.5 45t10.5 45t8 49l4 25q-57 -79 -152 -79q-81 0 -124.5 53t-43.5 137q0 55 16 114.5t45.5 113t78.5 88t109 34.5q54 0 89.5 -22t58.5 -70l15 78h155l-13 -65h-75l-90 -462q-12 -65 -30 -106 t-59 -70q-56 -39 -142 -39q-80 0 -136.5 38t-56.5 115v11zM149 185q0 -55 24.5 -92.5t76.5 -37.5q46 0 83 30t58 76t31.5 93.5t10.5 89.5q0 52 -28 90t-78 38q-44 0 -80 -30.5t-56 -76t-31 -93t-11 -87.5zM257 710q0 21 4 36h49q-1 -7 -1 -13q0 -59 61 -59q59 0 84 72h51 q-10 -57 -46 -94.5t-95 -37.5q-53 0 -80 26t-27 70z" />
<glyph unicode="&#x120;" horiz-adv-x="625" d="M81 239q0 92 34 202q39 124 112 202t189 78t161 -87l16 72h67l-45 -226h-71q3 21 3 42q0 62 -35 97.5t-96 35.5q-77 0 -137 -71q-48 -56 -80.5 -161t-32.5 -186q0 -78 35.5 -132.5t109.5 -54.5q48 0 84 20t58.5 57t34.5 73t22 84h-169l12 67h251l-68 -351h-68l13 72 q-42 -47 -82 -67.5t-100 -20.5q-108 0 -163 71.5t-55 183.5zM391 803l15 83h90l-15 -83h-90z" />
<glyph unicode="&#x121;" horiz-adv-x="562" d="M29 -57h86q1 -49 32.5 -74.5t81.5 -25.5q29 0 51.5 7.5t38 26t25.5 33.5t17.5 45t10.5 45t8 49l4 25q-57 -79 -152 -79q-81 0 -124.5 53t-43.5 137q0 55 16 114.5t45.5 113t78.5 88t109 34.5q54 0 89.5 -22t58.5 -70l15 78h155l-13 -65h-75l-90 -462q-12 -65 -30 -106 t-59 -70q-56 -39 -142 -39q-80 0 -136.5 38t-56.5 115v11zM149 185q0 -55 24.5 -92.5t76.5 -37.5q46 0 83 30t58 76t31.5 93.5t10.5 89.5q0 52 -28 90t-78 38q-44 0 -80 -30.5t-56 -76t-31 -93t-11 -87.5zM319 634l15 81h90l-15 -81h-90z" />
<glyph unicode="&#x122;" horiz-adv-x="625" d="M81 239q0 92 34 202q39 124 112 202t189 78t161 -87l16 72h67l-45 -226h-71q3 21 3 42q0 62 -35 97.5t-96 35.5q-77 0 -137 -71q-48 -56 -80.5 -161t-32.5 -186q0 -78 35.5 -132.5t109.5 -54.5q48 0 84 20t58.5 57t34.5 73t22 84h-169l12 67h251l-68 -351h-68l13 72 q-42 -47 -82 -67.5t-100 -20.5q-108 0 -163 71.5t-55 183.5zM222 -198l68 144h92l-105 -144h-55z" />
<glyph unicode="&#x123;" horiz-adv-x="562" d="M29 -57h86q1 -49 32.5 -74.5t81.5 -25.5q29 0 51.5 7.5t38 26t25.5 33.5t17.5 45t10.5 45t8 49l4 25q-57 -79 -152 -79q-81 0 -124.5 53t-43.5 137q0 55 16 114.5t45.5 113t78.5 88t109 34.5q54 0 89.5 -22t58.5 -70l15 78h155l-13 -65h-75l-90 -462q-12 -65 -30 -106 t-59 -70q-56 -39 -142 -39q-80 0 -136.5 38t-56.5 115v11zM149 185q0 -55 24.5 -92.5t76.5 -37.5q46 0 83 30t58 76t31.5 93.5t10.5 89.5q0 52 -28 90t-78 38q-44 0 -80 -30.5t-56 -76t-31 -93t-11 -87.5zM294 598l107 142h67l-70 -142h-104z" />
<glyph unicode="&#x124;" horiz-adv-x="646" d="M-2 0l12 65h77l109 577h-76l12 64h238l-12 -64h-75l-44 -231h287l44 231h-76l12 64h238l-12 -64h-75l-109 -577h75l-13 -65h-238l12 65h76l53 279h-286l-53 -279h74l-12 -65h-238zM305 775l120 111h85l68 -111h-48l-69 57l-98 -57h-58z" />
<glyph unicode="&#x125;" horiz-adv-x="583" d="M0 0l12 65h77l109 577h-76l12 64h161l-49 -257q60 86 165 86q62 0 100.5 -31t38.5 -91q0 -23 -5 -48l-45 -235q-5 -28 -5 -35q0 -17 11 -27t28 -10q10 0 38 7l-12 -65q-48 -5 -56 -5q-42 0 -68.5 19t-26.5 59q0 17 6 49l42 213q6 29 6 57q0 35 -19.5 55t-54.5 20 q-39 0 -69.5 -18t-48.5 -41t-33.5 -64t-21.5 -66.5t-15 -68.5l-28 -144h75l-12 -65h-236zM104 775l120 111h85l68 -111h-48l-69 57l-98 -57h-58z" />
<glyph unicode="&#x126;" horiz-adv-x="646" d="M-2 0l12 65h77l82 435h-69l13 63h68l15 79h-76l12 64h238l-12 -64h-75l-15 -79h287l15 79h-76l12 64h238l-12 -64h-75l-15 -79h69l-13 -63h-68l-82 -435h75l-13 -65h-238l12 65h76l53 279h-286l-53 -279h74l-12 -65h-238zM239 411h287l17 89h-287z" />
<glyph unicode="&#x127;" horiz-adv-x="583" d="M0 0l12 65h77l93 491h-68l12 53h66l6 33h-76l12 64h161l-19 -97h158l-12 -53h-156l-20 -107q60 86 165 86q62 0 100.5 -31t38.5 -91q0 -23 -5 -48l-45 -235q-5 -28 -5 -35q0 -17 11 -27t28 -10q10 0 38 7l-12 -65q-48 -5 -56 -5q-42 0 -68.5 19t-26.5 59q0 17 6 49 l42 213q6 29 6 57q0 35 -19.5 55t-54.5 20q-39 0 -69.5 -18t-48.5 -41t-33.5 -64t-21.5 -66.5t-15 -68.5l-28 -144h75l-12 -65h-236z" />
<glyph unicode="&#x12a;" horiz-adv-x="271" d="M-2 0l13 65h75l109 577h-75l12 64h238l-12 -64h-76l-109 -577h75l-12 -65h-238zM128 805l14 67h269l-14 -67h-269z" />
<glyph unicode="&#x12b;" horiz-adv-x="271" d="M82 632l14 64h242l-14 -64h-242zM89 456l13 65h159l-76 -396q-4 -20 -4 -32q0 -34 35 -34q9 0 42 6l-12 -65q-29 -10 -61 -10q-41 0 -66 21t-25 61q0 19 5 42l66 342h-76z" />
<glyph unicode="&#x12e;" horiz-adv-x="271" d="M-2 0l13 65h75l109 577h-75l12 64h238l-12 -64h-76l-109 -577h75l-12 -65h-80q-69 -51 -69 -92q0 -16 11 -25t29 -9q20 0 43 10l11 -48q-33 -15 -72 -15q-33 0 -55.5 19.5t-22.5 50.5q0 60 68 109h-101z" />
<glyph unicode="&#x12f;" horiz-adv-x="271" d="M71 -109q0 60 67 108q-44 20 -44 73q0 19 5 42l66 342h-76l13 65h159l-76 -396q-4 -20 -4 -32q0 -34 35 -34q9 0 42 6l-12 -65q-29 -10 -63 -10q-56 -44 -56 -82q0 -16 11 -25t29 -9q20 0 43 10l11 -48q-33 -15 -72 -15q-33 0 -55.5 19.5t-22.5 50.5zM185 625l16 81h101 l-15 -81h-102z" />
<glyph unicode="&#x130;" horiz-adv-x="271" d="M-2 0l13 65h75l109 577h-75l12 64h238l-12 -64h-76l-109 -577h75l-12 -65h-238zM219 803l15 83h90l-15 -83h-90z" />
<glyph unicode="&#x131;" horiz-adv-x="271" d="M89 456l13 65h159l-76 -396q-4 -20 -4 -32q0 -34 35 -34q9 0 42 6l-12 -65q-29 -10 -61 -10q-41 0 -66 21t-25 61q0 19 5 42l66 342h-76z" />
<glyph unicode="&#x134;" horiz-adv-x="417" d="M2 13l15 76q80 -35 123 -35q27 0 47.5 11t32 24.5t21.5 39.5t13.5 42.5t9.5 46.5l82 424h-76l12 64h237l-12 -64h-75l-81 -421q-7 -37 -11 -54.5t-12.5 -48t-17 -45t-24 -34.5t-34 -29t-45 -16t-60.5 -7q-70 0 -145 26zM265 775l120 111h85l68 -111h-48l-69 57l-98 -57 h-58z" />
<glyph unicode="&#x135;" horiz-adv-x="271" d="M-101 -200l12 64q49 -17 72 -17q42 0 61 28.5t28 76.5l98 504h-77l12 65h163l-114 -581q-15 -77 -51.5 -118.5t-108.5 -41.5q-35 0 -95 20zM89 606l104 142h90l54 -142h-55l-51 91l-81 -91h-61z" />
<glyph unicode="&#x136;" horiz-adv-x="604" d="M0 0l12 65h75l109 577h-74l12 64h234l-12 -64h-75l-51 -266l302 266h-68l12 64h229l-13 -64h-58l-258 -223l149 -354h69l-13 -65h-239l13 65h76l-119 299l-100 -87l-40 -212h74l-12 -65h-234zM182 -198l68 144h92l-105 -144h-55z" />
<glyph unicode="&#x137;" horiz-adv-x="542" d="M0 0l13 65h75l109 577h-75l13 64h159l-80 -423l214 173h-62l12 65h212l-13 -65h-45l-186 -148l84 -192q8 -19 13.5 -28t17.5 -19t28 -10q12 0 32 6l-12 -65q-26 -7 -46 -7q-51 0 -71.5 21t-42.5 76l-68 168l-85 -68l-24 -125h73l-13 -65h-232zM161 -198l68 144h92 l-105 -144h-55z" />
<glyph unicode="&#x139;" horiz-adv-x="500" d="M1 0l13 65h75l110 577h-76l13 64h237l-12 -64h-75l-110 -577h207l33 174h75l-45 -239h-445zM189 775l124 120h137l-184 -120h-77z" />
<glyph unicode="&#x13a;" horiz-adv-x="250" d="M72 71q0 7 8 58l97 513h-75l12 64h159l-110 -581q-5 -28 -5 -35q0 -34 37 -34q14 0 40 6l-12 -63q-41 -9 -71 -9q-38 0 -59 21.5t-21 59.5zM128 775l124 120h137l-184 -120h-77z" />
<glyph unicode="&#x13b;" horiz-adv-x="500" d="M1 0l13 65h75l110 577h-76l13 64h237l-12 -64h-75l-110 -577h207l33 174h75l-45 -239h-445zM145 -198l68 144h92l-105 -144h-55z" />
<glyph unicode="&#x13c;" horiz-adv-x="250" d="M45 -198l68 144h92l-105 -144h-55zM72 71q0 7 8 58l97 513h-75l12 64h159l-110 -581q-5 -28 -5 -35q0 -34 37 -34q14 0 40 6l-12 -63q-41 -9 -71 -9q-38 0 -59 21.5t-21 59.5z" />
<glyph unicode="&#x13d;" horiz-adv-x="500" d="M1 0l13 65h75l110 577h-76l13 64h237l-12 -64h-75l-110 -577h207l33 174h75l-45 -239h-445zM371 587l69 144h92l-106 -144h-55z" />
<glyph unicode="&#x13e;" horiz-adv-x="250" d="M72 71q0 7 8 58l97 513h-75l12 64h159l-110 -581q-5 -28 -5 -35q0 -34 37 -34q14 0 40 6l-12 -63q-41 -9 -71 -9q-38 0 -59 21.5t-21 59.5zM286 587l69 144h92l-106 -144h-55z" />
<glyph unicode="&#x13f;" horiz-adv-x="500" d="M1 0l13 65h75l110 577h-76l13 64h237l-12 -64h-75l-110 -577h207l33 174h75l-45 -239h-445zM357 318l21 109h110l-21 -109h-110z" />
<glyph unicode="&#x140;" horiz-adv-x="311" d="M72 71q0 7 8 58l97 513h-75l12 64h159l-110 -581q-5 -28 -5 -35q0 -34 37 -34q14 0 40 6l-12 -63q-41 -9 -71 -9q-38 0 -59 21.5t-21 59.5zM261 321l20 104h106l-20 -104h-106z" />
<glyph unicode="&#x141;" horiz-adv-x="500" d="M1 0l13 65h75l51 266l-87 -41l14 76l87 41l45 235h-76l13 64h237l-12 -64h-75l-36 -188l162 80l-14 -77l-163 -79l-59 -313h207l33 174h75l-45 -239h-445z" />
<glyph unicode="&#x142;" horiz-adv-x="250" d="M40 328l13 73l85 38l39 203h-75l12 64h159l-43 -225l85 39l-13 -72l-85 -39l-54 -284q-5 -28 -5 -35q0 -34 37 -34q14 0 40 6l-12 -63q-37 -8 -71 -8q-38 0 -59 21t-21 59q0 16 7 58l46 237z" />
<glyph unicode="&#x143;" horiz-adv-x="646" d="M-1 0l13 65h75l110 577h-76l12 64h212l124 -661l114 597h-76l12 64h229l-12 -64h-76l-122 -642h-139l-124 655l-109 -590h75l-12 -65h-230zM372 775l124 120h137l-184 -120h-77z" />
<glyph unicode="&#x144;" horiz-adv-x="583" d="M4 0l12 65h74l75 391h-74l12 65h153l-16 -81q65 94 168 94q61 0 101 -29.5t40 -88.5q0 -28 -6 -55l-45 -233q-5 -28 -5 -34q0 -16 11.5 -24t27.5 -8q12 0 38 7l-12 -65q-34 -9 -55 -9q-42 0 -70 18.5t-28 58.5q0 18 12 76l35 181q9 47 9 64q0 72 -77 72q-132 0 -170 -197 l-39 -203h76l-12 -65h-235zM306 606l65 136h107l-109 -136h-63z" />
<glyph unicode="&#x145;" horiz-adv-x="646" d="M-1 0l13 65h75l110 577h-76l12 64h212l124 -661l114 597h-76l12 64h229l-12 -64h-76l-122 -642h-139l-124 655l-109 -590h75l-12 -65h-230zM228 -198l68 144h92l-105 -144h-55z" />
<glyph unicode="&#x146;" horiz-adv-x="583" d="M4 0l12 65h74l75 391h-74l12 65h153l-16 -81q65 94 168 94q61 0 101 -29.5t40 -88.5q0 -28 -6 -55l-45 -233q-5 -28 -5 -34q0 -16 11.5 -24t27.5 -8q12 0 38 7l-12 -65q-34 -9 -55 -9q-42 0 -70 18.5t-28 58.5q0 18 12 76l35 181q9 47 9 64q0 72 -77 72q-132 0 -170 -197 l-39 -203h76l-12 -65h-235zM191 -198l68 144h92l-105 -144h-55z" />
<glyph unicode="&#x147;" horiz-adv-x="646" d="M-1 0l13 65h75l110 577h-76l12 64h212l124 -661l114 597h-76l12 64h229l-12 -64h-76l-122 -642h-139l-124 655l-109 -590h75l-12 -65h-230zM320 886h48l69 -57l98 57h58l-120 -111h-85z" />
<glyph unicode="&#x148;" horiz-adv-x="583" d="M4 0l12 65h74l75 391h-74l12 65h153l-16 -81q65 94 168 94q61 0 101 -29.5t40 -88.5q0 -28 -6 -55l-45 -233q-5 -28 -5 -34q0 -16 11.5 -24t27.5 -8q12 0 38 7l-12 -65q-34 -9 -55 -9q-42 0 -70 18.5t-28 58.5q0 18 12 76l35 181q9 47 9 64q0 72 -77 72q-132 0 -170 -197 l-39 -203h76l-12 -65h-235zM247 748h55l51 -91l81 91h61l-104 -142h-90z" />
<glyph unicode="&#x14c;" horiz-adv-x="625" d="M82 239q0 79 21.5 172.5t56.5 157.5q85 153 253 153q120 0 174.5 -72.5t54.5 -194.5q0 -118 -44.5 -242t-127.5 -183q-62 -45 -169 -45q-114 0 -166.5 69t-52.5 185zM167 236q0 -186 138 -186q94 0 156 77q46 57 72 158t26 187q0 82 -35 133.5t-113 51.5 q-62 0 -110.5 -40t-76.5 -104t-42.5 -135t-14.5 -142zM311 805l14 67h269l-14 -67h-269z" />
<glyph unicode="&#x14d;" d="M64 183q0 88 28.5 166t92 132t149.5 54q91 0 138.5 -55t47.5 -147q0 -41 -8 -85.5t-28.5 -92t-50 -84t-76.5 -60.5t-105 -24q-91 0 -139.5 52.5t-48.5 143.5zM149 186q0 -56 25 -94.5t79 -38.5q55 0 98 47.5t63.5 111t20.5 126.5q0 56 -24.5 94.5t-77.5 38.5 q-44 0 -81 -30t-58.5 -75t-33 -92t-11.5 -88zM242 632l14 64h242l-14 -64h-242z" />
<glyph unicode="&#x150;" horiz-adv-x="625" d="M82 239q0 79 21.5 172.5t56.5 157.5q85 153 253 153q120 0 174.5 -72.5t54.5 -194.5q0 -118 -44.5 -242t-127.5 -183q-62 -45 -169 -45q-114 0 -166.5 69t-52.5 185zM167 236q0 -186 138 -186q94 0 156 77q46 57 72 158t26 187q0 82 -35 133.5t-113 51.5 q-62 0 -110.5 -40t-76.5 -104t-42.5 -135t-14.5 -142zM260 775l131 120h125l-192 -120h-64zM427 775l131 120h125l-192 -120h-64z" />
<glyph unicode="&#x151;" d="M64 183q0 88 28.5 166t92 132t149.5 54q91 0 138.5 -55t47.5 -147q0 -41 -8 -85.5t-28.5 -92t-50 -84t-76.5 -60.5t-105 -24q-91 0 -139.5 52.5t-48.5 143.5zM149 186q0 -56 25 -94.5t79 -38.5q55 0 98 47.5t63.5 111t20.5 126.5q0 56 -24.5 94.5t-77.5 38.5 q-44 0 -81 -30t-58.5 -75t-33 -92t-11.5 -88zM241 606l65 136h99l-109 -136h-55zM373 606l65 136h99l-109 -136h-55z" />
<glyph unicode="&#x152;" horiz-adv-x="896" d="M80 234q0 121 47 250.5t132 188.5q62 43 167 43q32 0 94.5 -5t87.5 -5h348l-43 -223h-75l30 159h-243l-43 -231h225l-13 -68h-225l-53 -278h242l33 174h76l-46 -239h-337q-33 0 -87 -3t-81 -3q-72 0 -113 14q-123 43 -123 226zM164 231q0 -173 143 -173q53 0 123 7 l109 577q-76 6 -114 6q-70 0 -115.5 -33t-79.5 -101q-27 -53 -46.5 -137.5t-19.5 -145.5z" />
<glyph unicode="&#x153;" horiz-adv-x="875" d="M66 183q0 61 16 121.5t47 113t83.5 85t118.5 32.5q60 0 99.5 -23.5t68.5 -75.5q76 100 198 100q91 0 140 -48.5t49 -141.5q0 -21 -9 -86h-365q-9 -41 -9 -70q0 -138 112 -138q102 0 149 115h85q-31 -89 -88.5 -134t-149.5 -45q-129 0 -170 97q-42 -54 -83 -75.5 t-109 -21.5q-88 0 -135.5 53t-47.5 142zM150 188q0 -59 26.5 -97.5t81.5 -38.5q45 0 82 30t58 76t32 93t11 88q0 56 -28.5 93.5t-82.5 37.5q-57 0 -100 -51t-61.5 -113.5t-18.5 -117.5zM530 321h274q2 20 2 32q0 120 -112 120q-62 0 -103 -43t-61 -109z" />
<glyph unicode="&#x154;" horiz-adv-x="583" d="M0 0l12 65h75l110 577h-75l12 64h304q31 0 59 -6.5t55.5 -21t44 -45t16.5 -72.5q0 -47 -23.5 -93t-62.5 -70q-28 -18 -85 -29q40 -11 52.5 -42t12.5 -101v-161h66l-12 -65h-137v228q0 57 -17 85.5t-76 28.5h-104l-52 -277h70l-12 -65h-233zM240 410h118q54 0 90 14.5 t58 56.5q20 37 20 81q0 80 -102 80h-140zM290 775l124 120h137l-184 -120h-77z" />
<glyph unicode="&#x155;" horiz-adv-x="375" d="M3 0l12 65h76l74 391h-76l13 65h150l-10 -88q32 50 64.5 76t81.5 26q17 0 47 -6l-16 -85q-15 5 -38 5q-134 0 -173 -213l-32 -171h77l-13 -65h-237zM222 606l65 136h107l-109 -136h-63z" />
<glyph unicode="&#x158;" horiz-adv-x="583" d="M0 0l12 65h75l110 577h-75l12 64h304q31 0 59 -6.5t55.5 -21t44 -45t16.5 -72.5q0 -47 -23.5 -93t-62.5 -70q-28 -18 -85 -29q40 -11 52.5 -42t12.5 -101v-161h66l-12 -65h-137v228q0 57 -17 85.5t-76 28.5h-104l-52 -277h70l-12 -65h-233zM236 886h48l69 -57l98 57h58 l-120 -111h-85zM240 410h118q54 0 90 14.5t58 56.5q20 37 20 81q0 80 -102 80h-140z" />
<glyph unicode="&#x159;" horiz-adv-x="375" d="M3 0l12 65h76l74 391h-76l13 65h150l-10 -88q32 50 64.5 76t81.5 26q17 0 47 -6l-16 -85q-15 5 -38 5q-134 0 -173 -213l-32 -171h77l-13 -65h-237zM164 748h55l51 -91l81 91h61l-104 -142h-90z" />
<glyph unicode="&#x15a;" d="M26 0l46 240h74q-4 -21 -4 -37q0 -81 44 -118t101 -37q59 0 95.5 35.5t36.5 87.5q0 33 -15.5 60t-31 40t-45.5 34l-63 44q-34 24 -50.5 37t-39.5 37t-33 50.5t-10 59.5q0 81 58.5 134.5t145.5 53.5q113 0 158 -90l19 75h68l-42 -221h-73v19q0 79 -38 115t-91 36 q-50 0 -85.5 -30.5t-35.5 -81.5q0 -53 58 -100q18 -14 65.5 -45.5t50.5 -33.5q108 -75 108 -175q0 -82 -52.5 -143t-159.5 -61q-119 0 -171 94l-16 -79h-72zM269 775l124 120h137l-184 -120h-77z" />
<glyph unicode="&#x15b;" horiz-adv-x="437" d="M24 0l33 178h69q-1 -9 -1 -26q0 -42 24.5 -72.5t81.5 -30.5q43 0 69.5 22.5t26.5 59.5q0 32 -18.5 52t-53.5 42l-84 54q-20 13 -32.5 24t-24.5 35t-12 54q0 60 43.5 101.5t120.5 41.5q39 0 68.5 -12t40.5 -22.5t25 -29.5l12 50h65l-32 -169h-68v13q0 49 -26.5 78.5 t-73.5 29.5q-39 0 -64 -21.5t-25 -52.5q0 -37 51 -69l69 -44q51 -32 76.5 -65t25.5 -79q0 -67 -47.5 -110.5t-131.5 -43.5q-87 0 -129 65l-11 -53h-67zM243 606l65 136h107l-109 -136h-63z" />
<glyph unicode="&#x15c;" d="M26 0l46 240h74q-4 -21 -4 -37q0 -81 44 -118t101 -37q59 0 95.5 35.5t36.5 87.5q0 33 -15.5 60t-31 40t-45.5 34l-63 44q-34 24 -50.5 37t-39.5 37t-33 50.5t-10 59.5q0 81 58.5 134.5t145.5 53.5q113 0 158 -90l19 75h68l-42 -221h-73v19q0 79 -38 115t-91 36 q-50 0 -85.5 -30.5t-35.5 -81.5q0 -53 58 -100q18 -14 65.5 -45.5t50.5 -33.5q108 -75 108 -175q0 -82 -52.5 -143t-159.5 -61q-119 0 -171 94l-16 -79h-72zM235 775l120 111h85l68 -111h-48l-69 57l-98 -57h-58z" />
<glyph unicode="&#x15d;" horiz-adv-x="437" d="M24 0l33 178h69q-1 -9 -1 -26q0 -42 24.5 -72.5t81.5 -30.5q43 0 69.5 22.5t26.5 59.5q0 32 -18.5 52t-53.5 42l-84 54q-20 13 -32.5 24t-24.5 35t-12 54q0 60 43.5 101.5t120.5 41.5q39 0 68.5 -12t40.5 -22.5t25 -29.5l12 50h65l-32 -169h-68v13q0 49 -26.5 78.5 t-73.5 29.5q-39 0 -64 -21.5t-25 -52.5q0 -37 51 -69l69 -44q51 -32 76.5 -65t25.5 -79q0 -67 -47.5 -110.5t-131.5 -43.5q-87 0 -129 65l-11 -53h-67zM174 606l104 142h90l54 -142h-55l-51 91l-81 -91h-61z" />
<glyph unicode="&#x15e;" d="M26 0l46 240h74q-4 -21 -4 -37q0 -81 44 -118t101 -37q59 0 95.5 35.5t36.5 87.5q0 33 -15.5 60t-31 40t-45.5 34l-63 44q-34 24 -50.5 37t-39.5 37t-33 50.5t-10 59.5q0 81 58.5 134.5t145.5 53.5q113 0 158 -90l19 75h68l-42 -221h-73v19q0 79 -38 115t-91 36 q-50 0 -85.5 -30.5t-35.5 -81.5q0 -53 58 -100q18 -14 65.5 -45.5t50.5 -33.5q108 -75 108 -175q0 -83 -53 -143.5t-162 -60.5l-28 -56q13 4 25 4q34 0 53 -21.5t19 -53.5q0 -42 -25.5 -66t-73.5 -24q-33 0 -55.5 21t-22.5 57l52 2q0 -19 10 -28t23 -9q37 0 37 41 q0 38 -30 38q-22 0 -33 -16l-44 16l48 99q-81 15 -123 90l-16 -79h-72z" />
<glyph unicode="&#x15f;" horiz-adv-x="437" d="M24 0l33 178h69q-1 -9 -1 -26q0 -42 24.5 -72.5t81.5 -30.5q43 0 69.5 22.5t26.5 59.5q0 32 -18.5 52t-53.5 42l-84 54q-20 13 -32.5 24t-24.5 35t-12 54q0 60 43.5 101.5t120.5 41.5q39 0 68.5 -12t40.5 -22.5t25 -29.5l12 50h65l-32 -169h-68v13q0 49 -26.5 78.5 t-73.5 29.5q-39 0 -64 -21.5t-25 -52.5q0 -37 51 -69l69 -44q51 -32 76.5 -65t25.5 -79q0 -66 -46 -109.5t-128 -44.5l-28 -56q12 4 24 4q32 0 50.5 -21t18.5 -52q0 -41 -25 -64t-70 -23q-32 0 -53.5 20t-21.5 55l50 2q0 -18 9.5 -27t21.5 -9q17 0 26.5 11.5t9.5 28.5 q0 37 -29 37q-21 0 -32 -15l-42 15l47 98q-58 11 -90 61l-11 -53h-67z" />
<glyph unicode="&#x160;" d="M26 0l46 240h74q-4 -21 -4 -37q0 -81 44 -118t101 -37q59 0 95.5 35.5t36.5 87.5q0 33 -15.5 60t-31 40t-45.5 34l-63 44q-34 24 -50.5 37t-39.5 37t-33 50.5t-10 59.5q0 81 58.5 134.5t145.5 53.5q113 0 158 -90l19 75h68l-42 -221h-73v19q0 79 -38 115t-91 36 q-50 0 -85.5 -30.5t-35.5 -81.5q0 -53 58 -100q18 -14 65.5 -45.5t50.5 -33.5q108 -75 108 -175q0 -82 -52.5 -143t-159.5 -61q-119 0 -171 94l-16 -79h-72zM252 886h48l69 -57l98 57h58l-120 -111h-85z" />
<glyph unicode="&#x161;" horiz-adv-x="437" d="M24 0l33 178h69q-1 -9 -1 -26q0 -42 24.5 -72.5t81.5 -30.5q43 0 69.5 22.5t26.5 59.5q0 32 -18.5 52t-53.5 42l-84 54q-20 13 -32.5 24t-24.5 35t-12 54q0 60 43.5 101.5t120.5 41.5q39 0 68.5 -12t40.5 -22.5t25 -29.5l12 50h65l-32 -169h-68v13q0 49 -26.5 78.5 t-73.5 29.5q-39 0 -64 -21.5t-25 -52.5q0 -37 51 -69l69 -44q51 -32 76.5 -65t25.5 -79q0 -67 -47.5 -110.5t-131.5 -43.5q-87 0 -129 65l-11 -53h-67zM190 748h55l51 -91l81 91h61l-104 -142h-90z" />
<glyph unicode="&#x162;" horiz-adv-x="542" d="M85 482l43 224h515l-42 -224h-76l31 160h-139l-109 -577h73l-12 -65h-236l12 65h75l110 577h-138l-30 -160h-77zM141 -198l68 144h92l-105 -144h-55z" />
<glyph unicode="&#x163;" horiz-adv-x="292" d="M66 -198l68 144h92l-105 -144h-55zM77 456l12 65h78l21 112l88 15l-24 -127h116l-13 -65h-116l-59 -301q-8 -48 -8 -56q0 -42 56 -42q25 0 45 4l-13 -64q-30 -5 -55 -5q-119 0 -119 91q0 16 6 48l62 325h-77z" />
<glyph unicode="&#x164;" horiz-adv-x="542" d="M85 482l43 224h515l-42 -224h-76l31 160h-139l-109 -577h73l-12 -65h-236l12 65h75l110 577h-138l-30 -160h-77zM267 886h48l69 -57l98 57h58l-120 -111h-85z" />
<glyph unicode="&#x165;" horiz-adv-x="292" d="M77 456l12 65h78l21 112l88 15l-24 -127h116l-13 -65h-116l-59 -301q-8 -48 -8 -56q0 -42 56 -42q25 0 45 4l-13 -64q-30 -5 -55 -5q-119 0 -119 91q0 16 6 48l62 325h-77zM306 587l69 144h92l-106 -144h-55z" />
<glyph unicode="&#x16a;" horiz-adv-x="604" d="M103 148q0 28 10 82l79 412h-76l12 64h236l-12 -64h-74l-77 -396q-15 -75 -15 -93q0 -50 32.5 -77t83.5 -27q73 0 108 43t50 120l82 430h-75l12 64h232l-12 -64h-73l-83 -428q-23 -120 -77.5 -174t-172.5 -54q-85 0 -137.5 39.5t-52.5 122.5zM271 805l14 67h269l-14 -67 h-269z" />
<glyph unicode="&#x16b;" horiz-adv-x="542" d="M67 456l12 65h162l-66 -342q-7 -33 -7 -57q0 -33 20 -50t54 -17q38 0 66 16.5t45 47t26.5 59.5t16.5 67l40 211h-77l12 65h162l-73 -381q-5 -23 -5 -47q0 -34 37 -34q8 0 35 5l-13 -66q-32 -5 -57 -5q-43 0 -64 18t-22 59q-58 -82 -154 -82q-58 0 -98 28t-40 83 q0 14 13 87l50 270h-75zM213 632l14 64h242l-14 -64h-242z" />
<glyph unicode="&#x16c;" horiz-adv-x="604" d="M103 148q0 28 10 82l79 412h-76l12 64h236l-12 -64h-74l-77 -396q-15 -75 -15 -93q0 -50 32.5 -77t83.5 -27q73 0 108 43t50 120l82 430h-75l12 64h232l-12 -64h-73l-83 -428q-23 -120 -77.5 -174t-172.5 -54q-85 0 -137.5 39.5t-52.5 122.5zM300 881q0 12 2 24h53v-6 q0 -61 70 -61q35 0 54.5 16.5t30.5 49.5h54q-7 -53 -43.5 -87t-102.5 -34q-58 0 -88 27.5t-30 70.5z" />
<glyph unicode="&#x16d;" horiz-adv-x="542" d="M67 456l12 65h162l-66 -342q-7 -33 -7 -57q0 -33 20 -50t54 -17q38 0 66 16.5t45 47t26.5 59.5t16.5 67l40 211h-77l12 65h162l-73 -381q-5 -23 -5 -47q0 -34 37 -34q8 0 35 5l-13 -66q-32 -5 -57 -5q-43 0 -64 18t-22 59q-58 -82 -154 -82q-58 0 -98 28t-40 83 q0 14 13 87l50 270h-75zM217 710q0 21 4 36h49q-1 -7 -1 -13q0 -59 61 -59q59 0 84 72h51q-10 -57 -46 -94.5t-95 -37.5q-53 0 -80 26t-27 70z" />
<glyph unicode="&#x16e;" horiz-adv-x="604" d="M103 148q0 28 10 82l79 412h-76l12 64h236l-12 -64h-74l-77 -396q-15 -75 -15 -93q0 -50 32.5 -77t83.5 -27q73 0 108 43t50 120l82 430h-75l12 64h232l-12 -64h-73l-83 -428q-23 -120 -77.5 -174t-172.5 -54q-85 0 -137.5 39.5t-52.5 122.5zM341 827q0 35 26 59.5 t62 24.5q35 0 56 -22.5t21 -55.5q0 -35 -25 -60t-64 -25q-33 0 -54.5 22.5t-21.5 56.5zM376 829q0 -20 12.5 -33.5t31.5 -13.5q22 0 36.5 14.5t14.5 35.5q0 20 -12 33.5t-32 13.5q-21 0 -36 -14.5t-15 -35.5z" />
<glyph unicode="&#x16f;" horiz-adv-x="542" d="M67 456l12 65h162l-66 -342q-7 -33 -7 -57q0 -33 20 -50t54 -17q38 0 66 16.5t45 47t26.5 59.5t16.5 67l40 211h-77l12 65h162l-73 -381q-5 -23 -5 -47q0 -34 37 -34q8 0 35 5l-13 -66q-32 -5 -57 -5q-43 0 -64 18t-22 59q-58 -82 -154 -82q-58 0 -98 28t-40 83 q0 14 13 87l50 270h-75zM221 669q0 47 30.5 77.5t77.5 30.5q40 0 66 -22.5t26 -62.5q0 -47 -30.5 -78t-77.5 -31q-40 0 -66 22.5t-26 63.5zM262 673q0 -24 14.5 -39t37.5 -15q28 0 46.5 19.5t18.5 47.5q0 25 -14.5 40.5t-38.5 15.5q-28 0 -46 -20.5t-18 -48.5z" />
<glyph unicode="&#x170;" horiz-adv-x="604" d="M103 148q0 28 10 82l79 412h-76l12 64h236l-12 -64h-74l-77 -396q-15 -75 -15 -93q0 -50 32.5 -77t83.5 -27q73 0 108 43t50 120l82 430h-75l12 64h232l-12 -64h-73l-83 -428q-23 -120 -77.5 -174t-172.5 -54q-85 0 -137.5 39.5t-52.5 122.5zM258 775l131 120h125 l-192 -120h-64zM425 775l131 120h125l-192 -120h-64z" />
<glyph unicode="&#x171;" horiz-adv-x="542" d="M67 456l12 65h162l-66 -342q-7 -33 -7 -57q0 -33 20 -50t54 -17q38 0 66 16.5t45 47t26.5 59.5t16.5 67l40 211h-77l12 65h162l-73 -381q-5 -23 -5 -47q0 -34 37 -34q8 0 35 5l-13 -66q-32 -5 -57 -5q-43 0 -64 18t-22 59q-58 -82 -154 -82q-58 0 -98 28t-40 83 q0 14 13 87l50 270h-75zM222 606l65 136h99l-109 -136h-55zM354 606l65 136h99l-109 -136h-55z" />
<glyph unicode="&#x172;" horiz-adv-x="604" d="M103 148q0 28 10 82l79 412h-76l12 64h236l-12 -64h-74l-77 -396q-15 -75 -15 -93q0 -50 32.5 -77t83.5 -27q73 0 108 43t50 120l82 430h-75l12 64h232l-12 -64h-73l-83 -428q-22 -115 -72 -169t-157 -58q-52 -43 -52 -79q0 -16 11 -25t29 -9q20 0 43 10l11 -48 q-33 -15 -72 -15q-33 0 -55.5 19.5t-22.5 50.5q0 51 53 97q-71 7 -113.5 46.5t-42.5 113.5z" />
<glyph unicode="&#x173;" horiz-adv-x="542" d="M67 456l12 65h162l-66 -342q-7 -33 -7 -57q0 -33 20 -50t54 -17q38 0 66 16.5t45 47t26.5 59.5t16.5 67l40 211h-77l12 65h162l-73 -381q-5 -23 -5 -47q0 -34 37 -34q8 0 35 5l-13 -66q-32 -5 -57 -5h-5q-60 -46 -60 -85q0 -16 11 -25t29 -9q20 0 43 10l11 -48 q-33 -15 -72 -15q-33 0 -55.5 19.5t-22.5 50.5q0 61 71 111q-35 17 -36 68q-58 -82 -154 -82q-58 0 -98 28t-40 83q0 14 13 87l50 270h-75z" />
<glyph unicode="&#x178;" horiz-adv-x="542" d="M108 642l12 64h213l-12 -64h-67l65 -297l185 297h-67l13 64h207l-12 -64h-54l-249 -390l-35 -187h76l-12 -65h-239l13 65h77l36 187l-92 390h-58zM279 803l15 83h90l-15 -83h-90zM433 803l15 83h90l-15 -83h-90z" />
<glyph unicode="&#x179;" d="M24 0l12 65l435 577h-241l-31 -160h-76l42 224h425l-10 -50l-443 -591h254l33 177h77l-46 -242h-431zM289 775l124 120h137l-184 -120h-77z" />
<glyph unicode="&#x17a;" horiz-adv-x="458" d="M8 0l11 60l365 396h-197l-21 -106h-77l32 171h378l-12 -65l-355 -391h204l22 115h77l-34 -180h-393zM253 606l65 136h107l-109 -136h-63z" />
<glyph unicode="&#x17b;" d="M24 0l12 65l435 577h-241l-31 -160h-76l42 224h425l-10 -50l-443 -591h254l33 177h77l-46 -242h-431zM322 803l15 83h90l-15 -83h-90z" />
<glyph unicode="&#x17c;" horiz-adv-x="458" d="M8 0l11 60l365 396h-197l-21 -106h-77l32 171h378l-12 -65l-355 -391h204l22 115h77l-34 -180h-393zM259 634l15 81h90l-15 -81h-90z" />
<glyph unicode="&#x17d;" d="M24 0l12 65l435 577h-241l-31 -160h-76l42 224h425l-10 -50l-443 -591h254l33 177h77l-46 -242h-431zM260 886h48l69 -57l98 57h58l-120 -111h-85z" />
<glyph unicode="&#x17e;" horiz-adv-x="458" d="M8 0l11 60l365 396h-197l-21 -106h-77l32 171h378l-12 -65l-355 -391h204l22 115h77l-34 -180h-393zM212 748h55l51 -91l81 91h61l-104 -142h-90z" />
<glyph unicode="&#x218;" d="M26 0l46 240h74q-4 -21 -4 -37q0 -81 44 -118t101 -37q59 0 95.5 35.5t36.5 87.5q0 33 -15.5 60t-31 40t-45.5 34l-63 44q-34 24 -50.5 37t-39.5 37t-33 50.5t-10 59.5q0 81 58.5 134.5t145.5 53.5q113 0 158 -90l19 75h68l-42 -221h-73v19q0 79 -38 115t-91 36 q-50 0 -85.5 -30.5t-35.5 -81.5q0 -53 58 -100q18 -14 65.5 -45.5t50.5 -33.5q108 -75 108 -175q0 -82 -52.5 -143t-159.5 -61q-119 0 -171 94l-16 -79h-72zM170 -198l68 144h92l-105 -144h-55z" />
<glyph unicode="&#x219;" horiz-adv-x="437" d="M24 0l33 178h69q-1 -9 -1 -26q0 -42 24.5 -72.5t81.5 -30.5q43 0 69.5 22.5t26.5 59.5q0 32 -18.5 52t-53.5 42l-84 54q-20 13 -32.5 24t-24.5 35t-12 54q0 60 43.5 101.5t120.5 41.5q39 0 68.5 -12t40.5 -22.5t25 -29.5l12 50h65l-32 -169h-68v13q0 49 -26.5 78.5 t-73.5 29.5q-39 0 -64 -21.5t-25 -52.5q0 -37 51 -69l69 -44q51 -32 76.5 -65t25.5 -79q0 -67 -47.5 -110.5t-131.5 -43.5q-87 0 -129 65l-11 -53h-67zM138 -198l68 144h92l-105 -144h-55z" />
<glyph unicode="&#x21a;" horiz-adv-x="542" d="M85 482l43 224h515l-42 -224h-76l31 160h-139l-109 -577h73l-12 -65h-236l12 65h75l110 577h-138l-30 -160h-77zM151 -198l68 144h92l-105 -144h-55z" />
<glyph unicode="&#x21b;" horiz-adv-x="292" d="M66 -198l68 144h92l-105 -144h-55zM77 456l12 65h78l21 112l88 15l-24 -127h116l-13 -65h-116l-59 -301q-8 -48 -8 -56q0 -42 56 -42q25 0 45 4l-13 -64q-30 -5 -55 -5q-119 0 -119 91q0 16 6 48l62 325h-77z" />
<glyph unicode="&#x2c6;" horiz-adv-x="292" d="M22 606l104 142h90l54 -142h-55l-51 91l-81 -91h-61z" />
<glyph unicode="&#x2da;" horiz-adv-x="292" d="M46 669q0 47 30.5 77.5t77.5 30.5q40 0 66 -22.5t26 -62.5q0 -47 -30.5 -78t-77.5 -31q-40 0 -66 22.5t-26 63.5zM87 673q0 -24 14.5 -39t37.5 -15q28 0 46.5 19.5t18.5 47.5q0 25 -14.5 40.5t-38.5 15.5q-28 0 -46 -20.5t-18 -48.5z" />
<glyph unicode="&#x2dc;" horiz-adv-x="292" d="M-8 615q12 60 36.5 91t56.5 31q21 0 47 -20l49 -36q15 -11 29 -11q23 0 39 64h51q-24 -124 -96 -124q-23 0 -51 20l-46 33q-15 11 -25 11q-14 0 -23 -13t-17 -46h-50z" />
<glyph unicode="&#x37e;" horiz-adv-x="292" d="M38 -99l98 203h132l-159 -203h-71zM181 416l20 105h107l-20 -105h-107z" />
<glyph unicode="&#x394;" horiz-adv-x="627" d="M-11 0l401 706h82l126 -706h-609zM119 69h382l-88 533z" />
<glyph unicode="&#x3a9;" horiz-adv-x="587" d="M2 0l13 65h153q-50 53 -72.5 108t-22.5 129q0 76 22 150t62 134t103.5 97t139.5 37q106 0 165 -62t59 -174q0 -65 -21 -138.5t-56 -131.5q-50 -83 -142 -149h154l-13 -65h-222l12 66q94 62 147.5 174t53.5 231q0 88 -36.5 134t-105.5 46q-100 0 -169 -106.5t-69 -261.5 q0 -72 18 -122.5t63 -94.5l-12 -66h-224z" />
<glyph unicode="&#x3bc;" horiz-adv-x="542" d="M15 -209l127 665h-75l12 65h162l-66 -342q-7 -33 -7 -57q0 -33 20 -50t54 -17q31 0 55.5 12t40 29.5t28 44.5t18.5 50.5t12 53.5l40 211h-77l12 65h162l-73 -381q-5 -23 -5 -44q0 -37 37 -37q8 0 35 5l-12 -65q-29 -6 -58 -6q-42 0 -62.5 18t-23.5 59q-58 -82 -144 -82 q-51 0 -80 37l-47 -234h-85z" />
<glyph unicode="&#x3c0;" horiz-adv-x="519" d="M1 0l12 65h67l74 391h-64l13 64h471l-12 -64h-67l-61 -326q-4 -20 -4 -31q0 -35 51 -35h14l-12 -64h-33q-58 0 -82.5 15t-24.5 51q0 15 8 60l63 330h-177l-74 -391h65l-12 -65h-215z" />
<glyph unicode="&#x2000;" horiz-adv-x="455" />
<glyph unicode="&#x2001;" horiz-adv-x="911" />
<glyph unicode="&#x2002;" horiz-adv-x="455" />
<glyph unicode="&#x2003;" horiz-adv-x="911" />
<glyph unicode="&#x2004;" horiz-adv-x="303" />
<glyph unicode="&#x2005;" horiz-adv-x="227" />
<glyph unicode="&#x2006;" horiz-adv-x="151" />
<glyph unicode="&#x2007;" horiz-adv-x="151" />
<glyph unicode="&#x2008;" horiz-adv-x="113" />
<glyph unicode="&#x2009;" horiz-adv-x="182" />
<glyph unicode="&#x200a;" horiz-adv-x="50" />
<glyph unicode="&#x2010;" horiz-adv-x="417" d="M50 242l15 83h376l-16 -83h-375z" />
<glyph unicode="&#x2011;" horiz-adv-x="417" d="M50 242l15 83h376l-16 -83h-375z" />
<glyph unicode="&#x2012;" horiz-adv-x="417" d="M50 242l15 83h376l-16 -83h-375z" />
<glyph unicode="&#x2013;" horiz-adv-x="584" d="M50 242l16 82h542l-15 -82h-543z" />
<glyph unicode="&#x2014;" horiz-adv-x="765" d="M50 242l16 82h723l-15 -82h-724z" />
<glyph unicode="&#x2018;" horiz-adv-x="250" d="M88 488l157 218h66l-108 -218h-115z" />
<glyph unicode="&#x2019;" horiz-adv-x="250" d="M95 488l108 218h115l-156 -218h-67z" />
<glyph unicode="&#x201a;" horiz-adv-x="250" d="M-11 -110l108 215h121l-156 -215h-73z" />
<glyph unicode="&#x201c;" horiz-adv-x="417" d="M88 488l157 218h66l-108 -218h-115zM255 488l157 218h66l-108 -218h-115z" />
<glyph unicode="&#x201d;" horiz-adv-x="417" d="M95 488l108 218h115l-157 -218h-66zM262 488l108 218h115l-157 -218h-66z" />
<glyph unicode="&#x201e;" horiz-adv-x="417" d="M-11 -112l108 218h115l-157 -218h-66zM156 -112l108 218h115l-157 -218h-66z" />
<glyph unicode="&#x2022;" horiz-adv-x="278" d="M78 229l36 188h178l-36 -188h-178z" />
<glyph unicode="&#x2026;" horiz-adv-x="1000" d="M108 0l15 81h83l-15 -81h-83zM441 0l15 81h83l-15 -81h-83zM774 0l16 81h83l-16 -81h-83z" />
<glyph unicode="&#x202f;" horiz-adv-x="182" />
<glyph unicode="&#x2039;" horiz-adv-x="208" d="M55 284l122 166h69l-100 -166l33 -165h-65z" />
<glyph unicode="&#x203a;" horiz-adv-x="208" d="M33 119l100 165l-33 166h67l57 -166l-122 -165h-69z" />
<glyph unicode="&#x205f;" horiz-adv-x="227" />
<glyph unicode="&#x20ac;" horiz-adv-x="624" d="M74 270l14 61h73q2 27 11 72h-78l14 60h81q39 131 106 195.5t155 64.5q64 0 100.5 -21.5t55.5 -73.5l18 82h62l-39 -226h-70q1 15 1 30q0 69 -31 106t-89 37q-129 0 -185 -187l-2 -7h235l-13 -61h-238q-10 -49 -12 -71h237l-14 -61h-228q-2 -18 -2 -38q0 -181 127 -181 q125 0 172 190h77q-32 -135 -94 -195t-162 -60q-101 0 -151 60.5t-50 190.5q0 13 2 33h-83z" />
<glyph unicode="&#x2122;" horiz-adv-x="727" d="M120 605l19 101h266l-20 -101h-38l11 58h-68l-48 -251h41l-7 -38h-128l7 38h36l48 251h-70l-11 -58h-38zM368 374l8 37h35l49 256h-39l7 39h115l32 -240l124 240h114l-8 -39h-33l-49 -256h37l-7 -37h-115l7 37h31l49 256l-153 -293h-29l-40 292l-48 -255h33l-7 -37h-113z " />
<glyph unicode="&#x25fc;" horiz-adv-x="520" d="M0 0v520h520v-520h-520z" />
</font>
</defs>
</svg>
