<?xml version="1.0" standalone="no"?>
<!DOCTYPE svg PUBLIC "-//W3C//DTD SVG 1.1//EN" "http://www.w3.org/Graphics/SVG/1.1/DTD/svg11.dtd" >
<svg xmlns="http://www.w3.org/2000/svg">
<metadata></metadata>
<defs>
<font id="boton_promedium" horiz-adv-x="583" >
<font-face units-per-em="1000" ascent="750" descent="-250" />
<missing-glyph horiz-adv-x="292" />
<glyph unicode="&#xfb01;" horiz-adv-x="604" d="M26 0v103h68v311h-68v103h68v68q0 129 144 129q25 0 75 -8v-97q-9 1 -23 1q-35 0 -51.5 -14t-16.5 -48v-31h298v-414h66v-103h-245v103h44v311h-161v-311h52v-103h-250zM373 594v112h147v-112h-147z" />
<glyph unicode="&#xfb02;" horiz-adv-x="625" d="M26 0v103h68v311h-68v103h68v54q0 72 31 104q39 39 121 39q27 0 79 -6v-102q-21 3 -35 3q-39 0 -53.5 -16t-14.5 -49v-27h95v-103h-93v-311h71v-103h-269zM332 0v103h68v500h-44v103h177v-603h63v-103h-264z" />
<glyph horiz-adv-x="1000" />
<glyph horiz-adv-x="1000" />
<glyph unicode="&#xd;" horiz-adv-x="1000" />
<glyph unicode=" "  horiz-adv-x="292" />
<glyph unicode="&#x09;" horiz-adv-x="292" />
<glyph unicode="&#xa0;" horiz-adv-x="292" />
<glyph unicode="!" horiz-adv-x="333" d="M114 0v148h148v-148h-148zM114 706h154l-20 -500h-121q-10 402 -13 500z" />
<glyph unicode="&#x22;" horiz-adv-x="300" d="M27 741h99l-27 -297h-44zM174 741h100l-27 -297h-44z" />
<glyph unicode="#" horiz-adv-x="626" d="M33 212v98h123l14 99h-114v97h127l28 200h98l-28 -200h107l27 200h98l-27 -200h106v-97h-120l-13 -99h112v-98h-126l-30 -212h-98l30 213h-106l-30 -213h-98l29 212h-109zM254 310h106l14 99h-107z" />
<glyph unicode="$" d="M55 0v248h109q6 -66 41.5 -111t98.5 -45q39 0 69 23.5t30 66.5q0 21 -8 38t-17.5 28t-34.5 23.5t-40.5 18.5t-54.5 20q-34 12 -54 21t-49.5 27t-46 37t-29 50t-12.5 68q0 89 55.5 140t133.5 58v102h104v-110q40 -16 64 -47l2 49h107v-242h-109q-21 142 -134 142 q-42 0 -65 -23.5t-23 -53.5q0 -26 19 -46.5t40.5 -31.5t63.5 -27q62 -24 95 -40t66.5 -42.5t47.5 -62t14 -86.5q0 -81 -52 -136t-136 -64v-106h-104v116q-48 17 -81 61l-2 -63h-108z" />
<glyph unicode="%" horiz-adv-x="917" d="M20 484q0 96 45.5 164t139.5 68q50 0 88 -20.5t58 -55t29.5 -73t9.5 -80.5q0 -99 -47 -165t-140 -66q-92 0 -137.5 67t-45.5 161zM118 486q0 -153 86 -153q89 0 89 163q0 25 -3.5 47.5t-12.5 45.5t-27 37t-44 14q-88 0 -88 -154zM286 0l273 706h70l-271 -706h-72z M527 217q0 96 45.5 164t139.5 68q50 0 88 -20.5t58 -55t29.5 -73t9.5 -80.5q0 -99 -47 -165t-140 -66q-92 0 -137.5 67t-45.5 161zM625 219q0 -153 86 -153q89 0 89 163q0 25 -3.5 47.5t-12.5 45.5t-27 37t-44 14q-88 0 -88 -154z" />
<glyph unicode="&#x26;" horiz-adv-x="750" d="M55 210q0 65 33.5 111t95.5 87q-47 80 -47 142q0 84 62.5 126t150.5 42q49 0 91.5 -13t74 -47t31.5 -84q0 -23 -7 -44.5t-16 -36.5t-27.5 -30.5t-30.5 -24.5t-37 -21t-35.5 -16.5t-36.5 -15.5q94 -105 156 -159q10 30 14 92h128q-7 -104 -47 -184l142 -134h-179l-44 44 q-91 -59 -193 -59q-110 0 -194.5 60t-84.5 165zM190 218q0 -58 44.5 -95.5t103.5 -37.5q49 0 103 39q-102 96 -196 202q-55 -48 -55 -108zM267 544q0 -31 27 -78q122 46 122 98q0 24 -22.5 37t-48.5 13q-35 0 -56.5 -17.5t-21.5 -52.5z" />
<glyph unicode="'" horiz-adv-x="153" d="M27 741h99l-27 -297h-44z" />
<glyph unicode="(" horiz-adv-x="333" d="M71 270q0 223 56 381q9 24 29 72h120q-61 -220 -61 -454q0 -245 61 -458h-120q-22 54 -31 82q-54 163 -54 377z" />
<glyph unicode=")" horiz-adv-x="333" d="M56 -188q61 220 61 442q0 247 -61 470h120q84 -204 84 -459q0 -252 -84 -453h-120z" />
<glyph unicode="*" horiz-adv-x="417" d="M28 581l51 81l89 -59l-6 103h93l-5 -103l87 59l49 -81l-99 -50l99 -50l-49 -81l-87 57l5 -106h-93l6 106l-89 -57l-46 81l93 50z" />
<glyph unicode="+" horiz-adv-x="724" d="M93 264v105h203v214h132v-214h204v-105h-204v-217h-132v217h-203z" />
<glyph unicode="," horiz-adv-x="292" d="M30 -104l66 229h162l-127 -229h-101z" />
<glyph unicode="-" horiz-adv-x="437" d="M35 220v123h367v-123h-367z" />
<glyph unicode="." horiz-adv-x="292" d="M70 0v149h150v-149h-150z" />
<glyph unicode="/" horiz-adv-x="417" d="M-6 -103l305 912h120l-309 -912h-116z" />
<glyph unicode="0" horiz-adv-x="604" d="M35 353q0 56 7 106t26 99t48 84t76 57t108 22q62 0 110.5 -21.5t78 -56.5t48.5 -84.5t26.5 -99.5t7.5 -108q0 -72 -13.5 -133.5t-43 -115.5t-84.5 -85t-131 -31q-74 0 -128 32.5t-82.5 87.5t-41 116t-12.5 131zM169 354q0 -265 136 -265q66 0 99 62.5t33 206.5 q0 260 -134 260q-73 0 -103.5 -65.5t-30.5 -198.5z" />
<glyph unicode="1" horiz-adv-x="604" d="M161 547v113l130 46h93v-603h65v-103h-260v103h61v480z" />
<glyph unicode="2" horiz-adv-x="604" d="M44 0v116q109 107 193 194l32.5 32.5t36 37t29.5 34.5t28 39.5t15.5 37t7.5 41.5q0 41 -27 62.5t-69 21.5q-91 0 -99 -98h-129q0 94 66.5 148.5t165.5 54.5q94 0 159.5 -49t65.5 -140q0 -36 -13.5 -72.5t-41 -72t-42 -52.5t-42.5 -45l-182 -187h221v99h106v-202h-481z " />
<glyph unicode="3" horiz-adv-x="604" d="M27 203h133q15 -118 120 -118q53 0 89 30.5t36 82.5q0 61 -38.5 90t-100.5 29q-24 0 -46 -3v101q28 -2 43 -2q54 0 89.5 26t35.5 78q0 46 -30.5 75t-76.5 29q-48 0 -78 -28t-38 -75h-128q8 52 22 85.5t46 62.5q62 55 173 55q62 0 115.5 -18t92 -62t38.5 -108 q0 -70 -30.5 -107t-97.5 -63q142 -42 142 -168q0 -102 -75 -155.5t-181 -53.5q-114 0 -179.5 54.5t-75.5 162.5z" />
<glyph unicode="4" horiz-adv-x="604" d="M33 206v94l231 406h193v-406h119v-94h-119v-103h64v-103h-265v103h70v103h-293zM161 300h170v313z" />
<glyph unicode="5" horiz-adv-x="604" d="M53 202h130q6 -50 34.5 -81.5t77.5 -31.5q55 0 86 36.5t31 91.5q0 59 -29.5 99.5t-85.5 40.5q-52 0 -96 -49l-128 16l33 382h406v-188h-108v85h-187l-16 -189q61 46 134 46q99 0 154 -67t55 -168q0 -119 -71 -179.5t-176 -60.5q-73 0 -136.5 32.5t-88.5 94.5 q-14 34 -19 90z" />
<glyph unicode="6" horiz-adv-x="604" d="M52 329q0 59 6.5 111t25 105t47.5 90.5t78 61.5t113 24q110 0 165 -58.5t55 -144.5h-129q-7 44 -31.5 71.5t-66.5 27.5q-40 0 -68 -21.5t-41 -58t-18.5 -69t-5.5 -69.5q66 60 155 60q100 0 161.5 -65.5t61.5 -165.5q0 -109 -68.5 -175.5t-178.5 -66.5q-74 0 -126.5 28 t-81 77.5t-41 108t-12.5 129.5zM186 229q0 -58 32 -100.5t88 -42.5q55 0 88 36t33 92q0 62 -31.5 99.5t-92.5 37.5q-54 0 -85.5 -33.5t-31.5 -88.5z" />
<glyph unicode="7" horiz-adv-x="604" d="M48 518v188h466v-95l-163 -508h73v-103h-287v103h73l168 500h-223v-85h-107z" />
<glyph unicode="8" horiz-adv-x="604" d="M42 191q0 71 44.5 117.5t115.5 54.5q-65 15 -102 58.5t-37 110.5q0 65 38 109t91.5 61t117.5 17q62 0 114 -18t88 -61.5t36 -107.5q0 -130 -132 -170q72 -18 109.5 -57.5t37.5 -109.5q0 -101 -76.5 -155.5t-181.5 -54.5q-106 0 -184.5 54t-78.5 152zM176 202 q0 -52 37 -83.5t90 -31.5q52 0 89.5 31.5t37.5 82.5q0 55 -38 85.5t-94 30.5q-53 0 -87.5 -31.5t-34.5 -83.5zM193 521q0 -44 33 -74t77 -30q45 0 77.5 29.5t32.5 73.5q0 47 -32 74.5t-79 27.5q-45 0 -77 -29t-32 -72z" />
<glyph unicode="9" horiz-adv-x="604" d="M39 202h135q0 -50 29 -81.5t79 -31.5q34 0 60 15t40.5 38t24 54t12.5 58t3 55q-35 -33 -70 -46t-84 -13q-104 0 -164.5 61t-60.5 165q0 111 68 178t179 67q265 0 265 -341q0 -62 -6 -113t-23.5 -105.5t-46 -91.5t-78.5 -61t-117 -24q-109 0 -177 54.5t-68 162.5zM176 489 q0 -56 30.5 -94t84.5 -38t88 37t34 92q0 54 -32 92t-85 38q-55 0 -87.5 -35.5t-32.5 -91.5z" />
<glyph unicode=":" horiz-adv-x="333" d="M112 0v150h149v-150h-149zM112 367v151h149v-151h-149z" />
<glyph unicode=";" horiz-adv-x="333" d="M72 -104l67 230h158l-122 -230h-103zM125 370v148h149v-148h-149z" />
<glyph unicode="&#x3c;" horiz-adv-x="724" d="M117 263v120l465 226v-126l-339 -155l339 -160v-133z" />
<glyph unicode="=" horiz-adv-x="724" d="M99 146v111h526v-111h-526zM99 354v110h526v-110h-526z" />
<glyph unicode="&#x3e;" horiz-adv-x="724" d="M142 35v126l339 155l-339 161v132l465 -228v-119z" />
<glyph unicode="?" horiz-adv-x="500" d="M17 481q0 118 65.5 179t175.5 61q88 0 153 -50.5t65 -135.5q0 -57 -23 -99.5t-71 -92.5q-3 -4 -17 -17.5t-16 -16.5t-11 -14t-11 -16.5t-6 -17t-5 -22.5t-1 -26v-6h-129v32q0 38 9 63.5t20.5 39t41.5 43.5q3 3 17.5 16.5t18.5 18.5t15 17t15.5 19.5t10.5 19.5t8 24t2 25 q0 41 -22.5 67t-62.5 26q-61 0 -85.5 -36t-29.5 -101h-127zM174 0v148h150v-148h-150z" />
<glyph unicode="@" horiz-adv-x="816" d="M33 279q0 184 124.5 311.5t303.5 127.5q145 0 236.5 -85t91.5 -220q0 -121 -70 -218.5t-157 -97.5q-37 0 -59.5 20t-24.5 54q-52 -74 -128 -74q-60 0 -97 45t-37 118q0 109 64 192t149 83q75 0 105 -65l11 45h80l-45 -213q-14 -68 -14 -91q0 -35 23 -35q14 0 32 15 q38 34 61 96t23 133q0 99 -67 160.5t-174 61.5q-146 0 -244.5 -104t-98.5 -259q0 -134 83 -213.5t223 -79.5q86 0 156.5 31.5t148.5 94.5l10 9l49 -59q-92 -79 -175 -115.5t-192 -36.5q-176 0 -283.5 101.5t-107.5 267.5zM308 266q0 -43 17.5 -67.5t48.5 -24.5q51 0 91 62 t40 139q0 39 -18.5 61.5t-51.5 22.5q-51 0 -89 -58t-38 -135z" />
<glyph unicode="A" horiz-adv-x="667" d="M4 0v103h58l164 505h-50v98h325v-98h-52l152 -505h59v-103h-258v103h59l-34 120h-206l-38 -120h56v-103h-235zM246 326h156l-76 277z" />
<glyph unicode="B" horiz-adv-x="604" d="M22 0v103h67v500h-67v103h304q66 0 113 -15.5t78 -60.5q32 -47 32 -106q0 -131 -126 -164q70 -6 105.5 -56.5t35.5 -118.5q0 -185 -257 -185h-285zM223 103h88q52 0 83 24t31 74q0 48 -26 75.5t-73 27.5h-103v-201zM223 406h64q54 0 89 23.5t35 75.5q0 48 -30.5 73 t-80.5 25h-77v-197z" />
<glyph unicode="C" horiz-adv-x="604" d="M35 350q0 70 12 130.5t39 117.5t80.5 90.5t127.5 33.5q56 0 92.5 -19t60.5 -66l2 69h104v-237h-111q-4 71 -38.5 110t-90.5 39q-53 0 -92 -42q-27 -30 -39 -96.5t-12 -127.5q0 -32 3 -64.5t12 -70t23.5 -65.5t39.5 -47t58 -19q41 0 69 29.5t39 65.5t12 73h135 q-1 -55 -14 -100t-40.5 -85t-79.5 -62.5t-124 -22.5q-77 0 -131.5 31t-83 85t-41 115.5t-12.5 134.5z" />
<glyph unicode="D" horiz-adv-x="646" d="M24 0v103h64v500h-64v103h239q132 0 193 -27q152 -68 152 -329q0 -245 -141 -316q-67 -34 -206 -34h-237zM221 102h52q50 0 83 9.5t61 40.5t41.5 88.5t13.5 110.5q0 72 -19.5 137.5t-67.5 94.5q-34 20 -103 20h-61v-501z" />
<glyph unicode="E" d="M18 0v103h69v500h-69v103h519v-238h-112v131h-203v-177h179v-104h-179v-215h203v152h112v-255h-519z" />
<glyph unicode="F" horiz-adv-x="542" d="M22 0v103h67v500h-67v103h491v-238h-111v130h-181v-174h161v-106h-161v-215h65v-103h-264z" />
<glyph unicode="G" horiz-adv-x="646" d="M37 348q0 69 14 131.5t43.5 119t84 90t127.5 33.5q118 0 158 -86l1 70h107v-238h-114q-6 63 -40 104.5t-95 41.5q-37 0 -65.5 -19t-44 -46.5t-25 -65.5t-12.5 -69.5t-3 -65.5q0 -40 6.5 -80t21.5 -82t46.5 -68t74.5 -26q117 0 136 166h-125v103h253v-361h-109v82 q-41 -96 -179 -96q-73 0 -126 32t-81 86.5t-41 115t-13 128.5z" />
<glyph unicode="H" horiz-adv-x="688" d="M21 0v103h68v500h-68v103h267v-103h-65v-181h242v181h-67v103h266v-103h-65v-500h65v-103h-266v103h67v215h-242v-215h65v-103h-267z" />
<glyph unicode="I" horiz-adv-x="313" d="M21 0v103h66v500h-66v103h268v-103h-66v-500h66v-103h-268z" />
<glyph unicode="J" horiz-adv-x="417" d="M3 13v118q75 -30 114 -30q83 0 83 93v409h-64v103h265v-103h-66v-409q0 -101 -45.5 -153t-147.5 -52q-65 0 -139 24z" />
<glyph unicode="K" horiz-adv-x="646" d="M24 0v103h66v500h-66v103h253v-103h-54v-206l202 206h-54v103h239v-103h-47l-178 -180l185 -320h52v-103h-259v103h54l-126 230l-68 -66v-164h54v-103h-253z" />
<glyph unicode="L" horiz-adv-x="521" d="M21 0v103h66v500h-66v103h264v-103h-65v-500h159v149h110v-252h-468z" />
<glyph unicode="M" horiz-adv-x="812" d="M23 0v103h64v500h-64v103h267l114 -523l117 523h269v-103h-67v-500h67v-103h-245v103h51v482l-140 -585h-123l-135 592v-489h52v-103h-227z" />
<glyph unicode="N" horiz-adv-x="667" d="M15 0v103h65v500h-65v103h271l189 -603v500h-58v103h236v-103h-68v-603h-202l-189 603v-500h61v-103h-240z" />
<glyph unicode="O" horiz-adv-x="667" d="M35 355q0 77 17 141t51.5 115.5t93.5 80.5t138 29t137.5 -31t91.5 -84.5t49 -117.5t16 -139q0 -161 -74 -262.5t-220 -101.5q-81 0 -140.5 29.5t-93.5 82.5t-50 117t-16 141zM170 359q0 -45 7 -87t23 -85t49.5 -69.5t80.5 -26.5t81 25.5t50.5 67t23.5 82.5t7 84 q0 45 -6 85t-21 83t-48 69t-80 26q-48 0 -83 -23.5t-52 -63.5t-24.5 -80.5t-7.5 -86.5z" />
<glyph unicode="P" horiz-adv-x="562" d="M21 0v103h69v500h-69v103h272q90 0 145 -24.5t83 -97.5q18 -47 18 -102q0 -50 -15 -93q-14 -40 -37 -66t-55 -37.5t-61.5 -15.5t-71.5 -4h-75v-163h62v-103h-265zM224 365h57q61 0 90.5 28.5t29.5 90.5q0 53 -25.5 86.5t-82.5 33.5h-69v-239z" />
<glyph unicode="Q" horiz-adv-x="667" d="M36 347q0 79 15.5 144t49.5 118t94 82.5t142 29.5q78 0 136 -27.5t91.5 -77t49 -111t15.5 -135.5q0 -95 -23.5 -182t-80.5 -134q-32 -26 -82 -45q45 -26 175 -83l-94 -86q-133 76 -274 161q-84 9 -145 93q-69 93 -69 253zM174 356q0 -100 26 -168q22 -58 57 -77.5 t80 -19.5q92 0 130 95q27 69 27 164q0 145 -40.5 203t-123.5 58q-80 0 -118 -63t-38 -192z" />
<glyph unicode="R" horiz-adv-x="646" d="M22 0v103h66v500h-66v103h350q191 0 191 -176q0 -69 -33 -114.5t-99 -54.5q21 -2 36.5 -7.5t26 -17t17 -19.5t11.5 -28.5t7 -31t7 -38.5l19 -116h59v-103h-175l-37 213q-10 55 -28.5 75t-69.5 20h-82v-205h68v-103h-268zM222 413h106q101 0 101 94q0 96 -99 96h-108v-190 z" />
<glyph unicode="S" d="M54 0v251h111q10 -82 47.5 -119.5t90.5 -37.5q42 0 71.5 24.5t29.5 67.5q0 37 -25 61.5t-85 47.5l-60 23q-91 35 -132.5 80t-41.5 119q0 94 61.5 146t147.5 52q35 0 61 -6.5t42.5 -20.5t24 -22.5t17.5 -25.5l2 62h108v-238h-111q-1 16 -6 36t-17.5 46.5t-40.5 43.5 t-67 17q-41 0 -64.5 -22.5t-23.5 -53.5q0 -33 26 -55t74 -41l90 -35q155 -60 155 -203q0 -92 -59 -149t-156 -57q-46 0 -82 14.5t-48.5 26t-28.5 30.5l-2 -62h-109z" />
<glyph unicode="T" horiz-adv-x="604" d="M21 468v238h562v-238h-110v132h-105v-497h63v-103h-261v103h65v497h-105v-132h-109z" />
<glyph unicode="U" horiz-adv-x="625" d="M10 603v103h256v-103h-60v-390q0 -55 26 -86t80 -31q109 0 109 115v392h-63v103h259v-103h-64v-375q0 -241 -233 -241q-66 0 -114.5 18t-73.5 43t-39 62t-17 63.5t-3 60.5v369h-63z" />
<glyph unicode="V" horiz-adv-x="667" d="M8 603v103h261v-103h-64l132 -470l144 470h-64v103h241v-103h-55l-196 -603h-159l-182 603h-58z" />
<glyph unicode="W" horiz-adv-x="938" d="M6 603v103h247v-103h-61l82 -449l113 552h167l114 -552l90 449h-64v103h237v-103h-54l-136 -603h-158l-118 557l-115 -557h-158l-132 603h-54z" />
<glyph unicode="X" horiz-adv-x="625" d="M21 0v103h58l159 257l-148 243h-51v103h247v-103h-52l84 -150l88 150h-52v103h237v-103h-59l-144 -243l159 -257h56v-103h-249v103h52l-100 167l-102 -167h44v-103h-227z" />
<glyph unicode="Y" horiz-adv-x="604" d="M16 603v103h262v-103h-74l108 -244l108 244h-72v103h241v-103h-44l-175 -368v-132h64v-103h-258v103h62v132l-174 368h-48z" />
<glyph unicode="Z" d="M62 0v103l324 500h-203v-136h-112v239h467v-103l-320 -498h210v146h110v-251h-476z" />
<glyph unicode="[" horiz-adv-x="354" d="M93 -189v912h251v-105h-118v-701h118v-106h-251z" />
<glyph unicode="\" horiz-adv-x="417" d="M-6 809h116l309 -912h-120z" />
<glyph unicode="]" horiz-adv-x="354" d="M11 -84h118v702h-118v106h250v-913h-250v105z" />
<glyph unicode="^" horiz-adv-x="724" d="M92 283l210 423h124l206 -423h-132l-133 305l-136 -305h-139z" />
<glyph unicode="_" horiz-adv-x="500" d="M-10 -125h520v-103h-520v103z" />
<glyph unicode="`" horiz-adv-x="292" d="M41 771h147l63 -170h-103z" />
<glyph unicode="a" horiz-adv-x="542" d="M33 143q0 50 23 86t62 53.5t80 25t89 7.5h41v28q0 94 -70 94q-33 0 -52 -21t-19 -54h-133q14 169 206 169q44 0 88.5 -13t67.5 -40q19 -22 28 -53.5t10.5 -53t1.5 -60.5v-208h66v-103h-177q-1 46 -1 67q-50 -82 -151 -82q-74 0 -117 42.5t-43 115.5zM167 156 q0 -30 21 -50.5t51 -20.5q43 0 66.5 28.5t23.5 72.5v53h-33q-129 0 -129 -83z" />
<glyph unicode="b" d="M19 0v103h62v500h-62v103h195v-245q53 71 140 71q54 0 94.5 -25t61.5 -66.5t31 -85.5t10 -92q0 -52 -11.5 -99.5t-34.5 -88.5t-65 -65.5t-97 -24.5q-92 0 -137 82v-67h-187zM210 261q0 -38 8 -74t33.5 -67t63.5 -31q29 0 50 17t31 44.5t14 53.5t4 53q0 28 -3.5 54t-13 55 t-30 46.5t-50.5 17.5q-56 0 -81.5 -53t-25.5 -116z" />
<glyph unicode="c" horiz-adv-x="500" d="M39 254q0 44 5.5 81.5t20 74.5t37 62.5t58.5 41.5t83 16q86 0 135 -66l3 51h94v-185h-113q-7 101 -87 101q-99 0 -99 -172q0 -170 94 -170q36 0 58 28t26 66h127q-5 -94 -61.5 -145.5t-150.5 -51.5q-117 0 -173.5 72.5t-56.5 195.5z" />
<glyph unicode="d" d="M31 258q0 50 10.5 96t33 86.5t63 65t93.5 24.5q85 0 136 -61v134h-67v103h201v-603h64v-103h-189q-1 32 -1 50q-55 -66 -143 -66q-54 0 -94.5 24.5t-63 65.5t-33 87t-10.5 97zM168 254q0 -28 4 -53.5t13.5 -53.5t30 -44.5t49.5 -16.5q42 0 67.5 33t32.5 70t7 79 q0 164 -102 164q-31 0 -53 -17.5t-32 -47t-13.5 -56.5t-3.5 -57z" />
<glyph unicode="e" horiz-adv-x="542" d="M36 259q0 122 58.5 196.5t175.5 74.5q121 0 179.5 -73.5t58.5 -197.5v-19h-338q0 -161 102 -161q86 0 99 89h135q-12 -89 -75 -136t-153 -47q-129 0 -185.5 70t-56.5 204zM175 325h196q0 47 -27.5 78.5t-68.5 31.5q-45 0 -71.5 -32t-28.5 -78z" />
<glyph unicode="f" horiz-adv-x="333" d="M26 0v103h68v312h-68v103h68v49q0 54 11 78q31 69 144 69q41 0 84 -8v-100q-28 4 -43 4q-45 0 -56.5 -19t-11.5 -64v-9h95v-103h-93v-312h71v-103h-269z" />
<glyph unicode="g" d="M34 265q0 66 21.5 124.5t70.5 100t118 41.5q87 0 141 -71v58h181v-103h-62v-439q0 -95 -65 -148.5t-165 -53.5q-200 0 -230 170h141q17 -66 90 -66q27 0 46 9t29 21.5t15.5 33.5t7 38t1.5 43v31q-62 -60 -138 -60q-53 0 -93.5 24.5t-63 64.5t-34 86.5t-11.5 95.5z M172 262q0 -26 4 -52t14 -53t30.5 -43.5t48.5 -16.5q38 0 63.5 29.5t34.5 64.5t9 72q0 29 -5 55.5t-16.5 52.5t-33.5 42t-53 16q-29 0 -49 -17t-29.5 -44.5t-13.5 -53t-4 -52.5z" />
<glyph unicode="h" horiz-adv-x="604" d="M22 0v103h65v500h-65v103h196v-247q44 72 139 72q65 0 105 -33q34 -28 45 -65.5t11 -91.5v-238h65v-103h-251v103h53v213q0 104 -74 104q-93 0 -93 -120v-197h53v-103h-249z" />
<glyph unicode="i" horiz-adv-x="313" d="M27 0v103h67v312h-67v103h201v-415h66v-103h-267zM71 594v112h157v-112h-157z" />
<glyph unicode="j" horiz-adv-x="292" d="M-47 -107q44 -14 67 -14q38 0 50.5 22.5t12.5 64.5v449h-69v103h204v-575q0 -85 -36 -128t-120 -43q-41 0 -109 17v104zM63 593v113h155v-113h-155z" />
<glyph unicode="k" horiz-adv-x="604" d="M25 0v103h63v500h-63v103h193v-415l133 125h-46v102h243v-103h-59l-93 -84l139 -228h44v-103h-244v103h50l-85 150l-82 -76v-74h47v-103h-240z" />
<glyph unicode="l" horiz-adv-x="313" d="M20 0v103h67v500h-67v103h200v-603h64v-103h-264z" />
<glyph unicode="m" horiz-adv-x="875" d="M30 0v103h66v312h-65v103h187l6 -67q49 80 150 80q97 0 130 -80q30 80 148 80q70 0 103 -36t33 -93v-299h64v-103h-249v103h55v224q0 46 -14.5 70t-55.5 24q-42 0 -62 -28t-20 -67v-223h53v-103h-235v103h54v234q0 84 -69 84q-36 0 -59.5 -26t-23.5 -61v-231h52v-103 h-248z" />
<glyph unicode="n" horiz-adv-x="604" d="M26 0v103h68v312h-68v103h185l8 -65q42 78 138 78q85 0 123.5 -42.5t38.5 -126.5v-259h65v-103h-248v103h49v241q0 36 -17.5 57t-52.5 21q-37 0 -63 -24.5t-26 -61.5v-233h53v-103h-253z" />
<glyph unicode="o" horiz-adv-x="562" d="M35 252q0 127 59 203t184 76q127 0 188 -71.5t61 -198.5q0 -124 -62 -200t-182 -76q-125 0 -186.5 70t-61.5 197zM170 256q0 -171 110 -171q111 0 111 168q0 35 -3.5 61.5t-14 56t-34 45.5t-58.5 16q-111 0 -111 -176z" />
<glyph unicode="p" d="M17 -106h65v521h-65v103h181q2 -41 3 -75q20 43 61.5 66t92.5 23q53 0 93 -25t61.5 -67t32 -88t10.5 -96q0 -51 -10 -96t-31 -86t-61 -65t-94 -24q-82 0 -141 70v-161h66v-103h-264v103zM209 263q0 -30 4.5 -57t15 -55t32.5 -45t54 -17q30 0 51 16t31 42.5t14.5 52.5 t4.5 54q0 29 -4 55.5t-13.5 55t-31 46t-52.5 17.5t-53 -16t-33 -43t-15.5 -53t-4.5 -53z" />
<glyph unicode="q" d="M34 250q0 53 10.5 100t33.5 89t64.5 67t97.5 25q90 0 147 -81l6 68h175v-103h-66v-521h66v-103h-265v103h65v156q-52 -66 -133 -66q-53 0 -93 23.5t-63 62.5t-34 84.5t-11 95.5zM168 263q0 -28 4.5 -56.5t15 -58t32.5 -48t52 -18.5q102 0 102 175q0 168 -104 168 q-39 0 -63.5 -28.5t-31.5 -61.5t-7 -72z" />
<glyph unicode="r" horiz-adv-x="417" d="M28 0v103h66v312h-66v103h183l6 -103q35 113 148 113q24 0 36 -1v-126q-30 7 -52 7q-60 0 -90.5 -40t-30.5 -102v-163h67v-103h-267z" />
<glyph unicode="s" horiz-adv-x="479" d="M34 -4v186h100q4 -41 36.5 -74t75.5 -33q29 0 49.5 16t20.5 42q0 22 -16 34.5t-68 31.5l-73 26q-23 8 -37.5 15.5t-37.5 24t-35 43.5t-12 62q0 67 46 113.5t123 46.5q82 0 133 -63l2 46h83v-178h-101q-2 44 -26 73.5t-66 29.5q-26 0 -45.5 -13.5t-19.5 -38.5 q0 -16 9 -27.5t19.5 -17t27.5 -11.5l97 -36q23 -9 40 -18t37 -26.5t31 -45t11 -62.5q0 -77 -52 -117.5t-124 -40.5q-36 0 -66.5 12t-43 22.5t-29.5 27.5l-2 -50h-87z" />
<glyph unicode="t" horiz-adv-x="333" d="M9 415v103h72v121l124 29v-150h102v-103h-102v-250q0 -35 10.5 -50.5t44.5 -15.5q15 0 41 6v-99q-43 -9 -86 -9q-73 0 -107 29t-34 99v290h-65z" />
<glyph unicode="u" d="M10 415v103h199v-342q0 -36 17 -60.5t52 -24.5q42 0 61 29t19 72v223h-65v103h198v-415h63v-103h-185l-4 59q-28 -39 -57.5 -56.5t-74.5 -17.5q-75 0 -117 37t-42 113v280h-64z" />
<glyph unicode="v" horiz-adv-x="521" d="M-1 415v103h237v-103h-51l77 -284l81 284h-55v103h225v-103h-51l-129 -415h-148l-137 415h-49z" />
<glyph unicode="w" horiz-adv-x="812" d="M0 415v103h213v-103h-50l62 -278l104 381h154l106 -381l69 278h-50v103h204v-103h-42l-112 -415h-148l-110 387l-106 -387h-144l-115 415h-35z" />
<glyph unicode="x" horiz-adv-x="542" d="M21 0v103h44l106 165l-96 147h-42v103h216v-103h-38l64 -102l64 102h-39v103h199v-103h-40l-99 -147l113 -165h41v-103h-223v103h40l-74 116l-68 -116h40v-103h-208z" />
<glyph unicode="y" horiz-adv-x="542" d="M12 415v103h232v-103h-53l84 -279l84 279h-54v103h227v-103h-45l-170 -476q-27 -79 -51 -106q-45 -53 -141 -53q-23 0 -79 10v105q36 -13 69 -13q59 0 79 62l12 37l-152 434h-42z" />
<glyph unicode="z" horiz-adv-x="500" d="M32 0v97l273 328h-157v-87h-111v180h421v-105l-268 -323h157v92h111v-182h-426z" />
<glyph unicode="{" horiz-adv-x="318" d="M8 230v75q54 9 69.5 27.5t15.5 81.5v164q0 81 27.5 115.5t105.5 34.5h80v-74h-16q-41 0 -53.5 -20.5t-12.5 -83.5v-149q0 -61 -16.5 -88t-65.5 -46q48 -16 65 -43.5t17 -89.5v-162q0 -29 3.5 -46.5t18 -31t42.5 -13.5h18v-74h-79q-79 0 -106.5 33.5t-27.5 114.5v166 q0 62 -15.5 81.5t-69.5 27.5z" />
<glyph unicode="|" horiz-adv-x="313" d="M92 -189v912h129v-912h-129z" />
<glyph unicode="}" horiz-adv-x="318" d="M12 -119h16q41 0 53.5 20.5t12.5 83.5v149q0 61 16.5 88t65.5 46q-48 16 -65 43.5t-17 89.5v162q0 29 -3.5 46.5t-18 31t-42.5 13.5h-18v74h79q79 0 106.5 -33.5t27.5 -114.5v-166q0 -62 15.5 -81.5t69.5 -27.5v-75q-54 -9 -69.5 -27.5t-15.5 -81.5v-164 q0 -81 -27.5 -115.5t-105.5 -34.5h-80v74z" />
<glyph unicode="~" horiz-adv-x="724" d="M65 315q43 56 81.5 80.5t82.5 24.5q48 0 117 -34l60 -29q54 -26 84 -26q29 0 54 16t60 57l58 -89q-49 -57 -86.5 -81t-83.5 -24q-45 0 -119 37l-44 22q-57 29 -101 29q-30 0 -53.5 -16.5t-51.5 -55.5z" />
<glyph unicode="&#xa1;" horiz-adv-x="333" d="M64 0l22 502h120l14 -502h-156zM71 559v147h149v-147h-149z" />
<glyph unicode="&#xa2;" horiz-adv-x="500" d="M39 255q0 50 8 92.5t26.5 83t54 66t84.5 31.5v100h103v-107q36 -15 62 -52l3 49h95v-188h-113q-2 19 -5.5 34t-12.5 31.5t-26.5 26t-42.5 9.5q-99 0 -99 -176q0 -166 92 -166q38 0 59.5 27t26.5 67h127q-9 -83 -47.5 -131.5t-118.5 -62.5v-103h-103v105q-32 4 -71 28 q-102 64 -102 236z" />
<glyph unicode="&#xa3;" horiz-adv-x="625" d="M36 0v103h66l33 229h-71v101h84l8 44q7 39 12 61t16.5 53t31 52.5t46.5 35.5q51 27 228 27h28v-104h-28q-44 0 -64 -1t-47 -6t-38.5 -14.5t-25 -29t-20.5 -47.5t-13 -71h119v-101h-134l-30 -229h227v165h112v-268h-540z" />
<glyph unicode="&#xa4;" horiz-adv-x="684" d="M40 567l74 74l74 -73q70 48 155 48q86 0 154 -48l73 73l74 -74l-73 -73q48 -70 48 -156q0 -73 -48 -154l73 -73l-74 -74l-73 73q-74 -48 -157 -48q-78 0 -153 48l-72 -72l-74 74l73 72q-49 68 -49 155q0 83 48 155zM176 339q0 -72 48.5 -121t119.5 -49q68 0 116 49 t48 119q0 73 -47.5 122.5t-117.5 49.5q-71 0 -119 -48.5t-48 -121.5z" />
<glyph unicode="&#xa5;" horiz-adv-x="604" d="M16 603v103h263v-103h-75l108 -240l108 240h-73v103h242v-103h-44l-82 -172h99v-87h-140l-33 -68h173v-87h-192v-86h63v-103h-257v103h62v86h-196v87h177l-32 68h-145v87h105l-83 172h-48z" />
<glyph unicode="&#xa6;" horiz-adv-x="313" d="M92 -189v385h129v-385h-129zM92 339v385h129v-385h-129z" />
<glyph unicode="&#xa7;" horiz-adv-x="500" d="M32 286q0 78 84 143q-51 63 -51 126q0 78 55.5 121t134.5 43q84 0 139.5 -46.5t62.5 -141.5h-120q-6 92 -79 92q-32 0 -52 -19t-20 -51q0 -31 29 -62t70 -57.5t82.5 -56t70.5 -70t29 -86.5q0 -80 -83 -142q26 -37 38 -63.5t12 -61.5q0 -77 -57 -120t-138 -43 q-86 0 -142.5 49.5t-57.5 145.5h124v-11q0 -39 18.5 -65t56.5 -26q32 0 52 19t20 50q0 23 -17 46.5t-31.5 34.5t-42.5 31q-6 4 -39.5 26.5t-44.5 31.5t-37 31.5t-36 39t-20 41.5t-10 51zM151 291q0 -33 28.5 -59t124.5 -88q44 31 44 68q0 34 -35 67q-13 12 -115 84 q-47 -30 -47 -72z" />
<glyph unicode="&#xa8;" horiz-adv-x="292" d="M2 622v109h121v-109h-121zM169 622v109h121v-109h-121z" />
<glyph unicode="&#xa9;" horiz-adv-x="801" d="M45 353q0 149 103.5 252.5t252.5 103.5t252.5 -103t103.5 -252q0 -151 -103.5 -254t-253.5 -103q-148 0 -251.5 103.5t-103.5 252.5zM81 352q0 -135 93 -229.5t226 -94.5t226.5 95t93.5 230q0 137 -92.5 231t-227.5 94q-132 0 -225.5 -95.5t-93.5 -230.5zM204 355 q0 102 46 163.5t123 61.5q76 0 114 -63v52h84v-156h-96q-12 84 -76 84q-40 0 -62 -39t-22 -110q0 -137 87 -137q33 0 51 19t23 61h102q-5 -80 -51.5 -123t-128.5 -43q-95 0 -144.5 59t-49.5 171z" />
<glyph unicode="&#xaa;" horiz-adv-x="354" d="M28 478q0 61 58 89q40 19 105 19h20v15q0 58 -42 58q-37 0 -42 -47h-87q7 41 21 62q34 47 108 47q73 0 99 -34t26 -89v-143h41v-68h-114v39q-10 -14 -17 -21.5t-27.5 -17t-48.5 -9.5q-48 0 -74 28.5t-26 71.5zM114 485q0 -18 12.5 -29.5t31.5 -11.5q27 0 40.5 18t13.5 46 v28h-21q-77 0 -77 -51z" />
<glyph unicode="&#xab;" horiz-adv-x="396" d="M26 279l81 166h98l-64 -166l67 -168h-97zM195 279l83 166h98l-68 -166l67 -167h-97z" />
<glyph unicode="&#xac;" horiz-adv-x="724" d="M58 277v105h559v-350h-132v245h-427z" />
<glyph unicode="&#xad;" horiz-adv-x="437" d="M35 220v123h367v-123h-367z" />
<glyph unicode="&#xae;" horiz-adv-x="801" d="M45 353q0 149 103.5 252.5t252.5 103.5t252.5 -103t103.5 -252q0 -151 -103.5 -254t-253.5 -103q-148 0 -251.5 103.5t-103.5 252.5zM81 352q0 -135 93 -229.5t226 -94.5t226.5 95t93.5 230q0 137 -92.5 231t-227.5 94q-132 0 -225.5 -95.5t-93.5 -230.5zM222 141v71h43 v284h-43v71h181q64 0 95 -10q33 -10 52.5 -38.5t19.5 -66.5q0 -86 -93 -106q37 -6 54.5 -23t23.5 -55l9 -56h37v-71h-120l-11 82q-8 62 -21.5 76.5t-56.5 14.5h-33v-102h39v-71h-176zM359 379h42q77 0 77 59q0 58 -68 58h-51v-117z" />
<glyph unicode="&#xaf;" horiz-adv-x="292" d="M2 622v81h288v-81h-288z" />
<glyph unicode="&#xb0;" horiz-adv-x="354" d="M5 582q0 72 50 122.5t122 50.5t122 -50.5t50 -122.5q0 -70 -50.5 -121t-121.5 -51t-121.5 51t-50.5 121zM105 582q0 -29 21.5 -50.5t50.5 -21.5t50.5 21.5t21.5 50.5q0 30 -21 50.5t-51 20.5t-51 -20.5t-21 -50.5z" />
<glyph unicode="&#xb1;" horiz-adv-x="724" d="M92 0v106h539v-106h-539zM92 391v105h203v200h132v-200h204v-105h-204v-205h-132v205h-203z" />
<glyph unicode="&#xb2;" horiz-adv-x="410" d="M31 443v71q106 94 156 146q61 65 61 110q0 20 -15 35t-40 15q-28 0 -43 -17.5t-17 -46.5h-95q5 68 46.5 102t110.5 34q71 0 111 -34t40 -84q0 -58 -47 -113q-43 -50 -149 -146h124v62h79v-134h-322z" />
<glyph unicode="&#xb3;" horiz-adv-x="410" d="M26 575h97q3 -30 21.5 -51t57.5 -21q31 0 51.5 19t20.5 47q0 32 -23 49t-65 17q-20 0 -34 -1v65q9 -1 26 -1q37 0 59.5 16t22.5 47q0 27 -15.5 43.5t-46.5 16.5q-56 0 -64 -61h-97q8 61 50 96.5t114 35.5q67 0 111 -33.5t44 -90.5q0 -75 -77 -98q92 -20 92 -108 q0 -62 -49.5 -96t-121.5 -34q-80 0 -126 40t-48 103z" />
<glyph unicode="&#xb4;" horiz-adv-x="292" d="M41 601l63 170h147l-107 -170h-103z" />
<glyph unicode="&#xb5;" d="M11 414v103h198v-325q0 -101 71 -101q77 0 77 104v219h-64v103h198v-414h63v-103h-185l-5 59q-40 -69 -94 -69q-17 0 -29.5 5.5t-18 10t-13.5 14.5v-229h-134v623h-64z" />
<glyph unicode="&#xb6;" horiz-adv-x="594" d="M54 499q0 98 65 157q57 50 170 50h224v-73h-36v-800h-77v800h-113v-800h-79v473q-74 15 -114 65.5t-40 127.5z" />
<glyph unicode="&#xb7;" horiz-adv-x="292" d="M70 213v148h150v-148h-150z" />
<glyph unicode="&#xb8;" horiz-adv-x="291" d="M55 -147l66 3q0 -29 26 -29q27 0 27 30q0 32 -25 32q-15 0 -19 -12l-65 9l37 134h61l-28 -86q12 6 28 6q34 0 54.5 -21.5t20.5 -58.5q0 -43 -24.5 -65.5t-65.5 -22.5t-65.5 21t-27.5 60z" />
<glyph unicode="&#xb9;" horiz-adv-x="410" d="M104 784v73l82 25h77v-367h49v-72h-192v72h46v290z" />
<glyph unicode="&#xba;" horiz-adv-x="354" d="M24 547q0 80 37 127t114 47q79 0 118 -45.5t39 -126.5q0 -76 -39 -123.5t-113 -47.5q-79 0 -117.5 44.5t-38.5 124.5zM111 548q0 -104 69 -104q64 0 64 106t-63 106q-70 0 -70 -108z" />
<glyph unicode="&#xbb;" horiz-adv-x="396" d="M20 111l67 167l-66 166h96l83 -166l-83 -167h-97zM187 445h98l85 -166l-83 -168h-97l64 168z" />
<glyph unicode="&#xbc;" horiz-adv-x="917" d="M111 608v73l82 25h77v-367h49v-72h-192v72h46v290zM283 0l272 706h70l-270 -706h-72zM511 125v64l150 250h133v-247h84v-67h-84v-53h48v-72h-190v72h47v53h-188zM603 191h103q0 115 1 172z" />
<glyph unicode="&#xbd;" horiz-adv-x="917" d="M104 608v73l82 25h77v-367h49v-72h-192v72h46v290zM270 0l272 706h70l-270 -706h-72zM522 0v71q106 94 156 146q61 65 61 110q0 20 -15 35t-40 15q-28 0 -43 -17.5t-17 -46.5h-95q5 68 46.5 102t110.5 34q71 0 111 -34t40 -84q0 -58 -47 -113q-43 -50 -149 -146h124v62 h79v-134h-322z" />
<glyph unicode="&#xbe;" horiz-adv-x="917" d="M48 399h97q3 -30 21.5 -51t57.5 -21q31 0 51.5 19t20.5 47q0 32 -23 49t-65 17q-20 0 -34 -1v65q9 -1 26 -1q37 0 59.5 16t22.5 47q0 27 -15.5 43.5t-46.5 16.5q-56 0 -64 -61h-97q8 61 50 96.5t114 35.5q67 0 111 -33.5t44 -90.5q0 -75 -77 -98q92 -20 92 -108 q0 -62 -49.5 -96t-121.5 -34q-80 0 -126 40t-48 103zM318 0l272 706h70l-270 -706h-72zM536 125v64l150 250h133v-247h84v-67h-84v-53h48v-72h-190v72h47v53h-188zM628 191h103q0 115 1 172z" />
<glyph unicode="&#xbf;" horiz-adv-x="500" d="M23 171q0 57 23 99.5t71 92.5q3 4 17 17.5t16 16.5t11 14t11 16.5t6 17t5 22.5t1 26v6h129v-32q0 -38 -9 -63.5t-20.5 -39t-41.5 -43.5q-3 -3 -17.5 -16.5t-18.5 -18.5t-15 -17t-15.5 -19.5t-10.5 -19.5t-8 -24t-2 -25q0 -41 22.5 -67t62.5 -26q61 0 85.5 36t29.5 101 h127q0 -118 -65.5 -179t-175.5 -61q-88 0 -153 50.5t-65 135.5zM175 558v148h150v-148h-150z" />
<glyph unicode="&#xc0;" horiz-adv-x="667" d="M4 0v103h58l164 505h-50v98h325v-98h-52l152 -505h59v-103h-258v103h59l-34 120h-206l-38 -120h56v-103h-235zM146 900h177l115 -125h-122zM246 326h156l-76 277z" />
<glyph unicode="&#xc1;" horiz-adv-x="667" d="M4 0v103h58l164 505h-50v98h325v-98h-52l152 -505h59v-103h-258v103h59l-34 120h-206l-38 -120h56v-103h-235zM232 775l115 125h177l-170 -125h-122zM246 326h156l-76 277z" />
<glyph unicode="&#xc2;" horiz-adv-x="667" d="M4 0v103h58l164 505h-50v98h325v-98h-52l152 -505h59v-103h-258v103h59l-34 120h-206l-38 -120h56v-103h-235zM156 775l105 131h145l102 -131h-98l-77 63l-80 -63h-97zM246 326h156l-76 277z" />
<glyph unicode="&#xc3;" horiz-adv-x="667" d="M4 0v103h58l164 505h-50v98h325v-98h-52l152 -505h59v-103h-258v103h59l-34 120h-206l-38 -120h56v-103h-235zM171 774q0 26 2 45t9.5 42.5t26 36.5t46.5 13q34 0 84 -26t58 -26q5 0 9 1.5t6.5 5t4 6t2.5 8.5t1 8.5t0.5 10t0.5 8.5h76q0 -64 -19.5 -98t-67.5 -34 q-33 0 -78 25.5t-59 25.5q-16 0 -20 -12.5t-4 -39.5h-78zM246 326h156l-76 277z" />
<glyph unicode="&#xc4;" horiz-adv-x="667" d="M4 0v103h58l164 505h-50v98h325v-98h-52l152 -505h59v-103h-258v103h59l-34 120h-206l-38 -120h56v-103h-235zM184 782v110h121v-110h-121zM246 326h156l-76 277zM371 782v110h120v-110h-120z" />
<glyph unicode="&#xc5;" horiz-adv-x="667" d="M4 0v103h58l164 505h-50v98h325v-98h-52l152 -505h59v-103h-258v103h59l-34 120h-206l-38 -120h56v-103h-235zM246 326h156l-76 277zM255 830q0 34 23.5 57.5t59.5 23.5q35 0 58.5 -24t23.5 -57q0 -34 -23.5 -58t-58.5 -24q-36 0 -59.5 24t-23.5 58zM302 830 q0 -16 10 -26.5t26 -10.5q15 0 25 11t10 26q0 16 -10 27t-25 11q-16 0 -26 -11t-10 -27z" />
<glyph unicode="&#xc6;" horiz-adv-x="875" d="M10 0v103h60l218 500h-63v103h605v-239h-107v130h-196l20 -176h147v-102h-134l25 -216h138v147h107v-250h-439v103h59l-14 120h-193l-51 -120h57v-103h-239zM282 322h145l-32 277z" />
<glyph unicode="&#xc7;" horiz-adv-x="604" d="M35 345q0 51 6 98t23 99.5t44.5 90.5t74.5 63t109 25q110 0 152 -82l6 67h103v-237h-113q-4 60 -34 104t-94 44q-70 0 -106 -63.5t-36 -203.5q0 -40 5.5 -80t18.5 -84.5t41.5 -72t68.5 -27.5q56 0 88.5 53.5t33.5 114.5h135q0 -116 -55 -187t-175 -82l-17 -53q14 6 30 6 q37 0 58.5 -22t21.5 -60q0 -44 -26 -67t-70 -23q-43 0 -69.5 21.5t-29.5 61.5l70 3q0 -13 7.5 -21.5t20.5 -8.5t21 8.5t8 22.5q0 33 -27 33q-15 0 -20 -12l-69 9l30 103q-55 5 -97 29t-68 58t-42 81t-22 93t-6 98z" />
<glyph unicode="&#xc8;" d="M18 0v103h69v500h-69v103h519v-238h-112v131h-203v-177h179v-104h-179v-215h203v152h112v-255h-519zM104 900h177l115 -125h-122z" />
<glyph unicode="&#xc9;" d="M18 0v103h69v500h-69v103h519v-238h-112v131h-203v-177h179v-104h-179v-215h203v152h112v-255h-519zM189 775l115 125h177l-170 -125h-122z" />
<glyph unicode="&#xca;" d="M18 0v103h69v500h-69v103h519v-238h-112v131h-203v-177h179v-104h-179v-215h203v152h112v-255h-519zM114 775l105 131h145l102 -131h-98l-77 63l-80 -63h-97z" />
<glyph unicode="&#xcb;" d="M18 0v103h69v500h-69v103h519v-238h-112v131h-203v-177h179v-104h-179v-215h203v152h112v-255h-519zM137 782v110h121v-110h-121zM324 782v110h120v-110h-120z" />
<glyph unicode="&#xcc;" horiz-adv-x="313" d="M-30 900h177l115 -125h-122zM21 0v103h66v500h-66v103h268v-103h-66v-500h66v-103h-268z" />
<glyph unicode="&#xcd;" horiz-adv-x="313" d="M21 0v103h66v500h-66v103h268v-103h-66v-500h66v-103h-268zM54 775l115 125h177l-170 -125h-122z" />
<glyph unicode="&#xce;" horiz-adv-x="313" d="M-21 775l105 131h145l102 -131h-98l-77 63l-80 -63h-97zM21 0v103h66v500h-66v103h268v-103h-66v-500h66v-103h-268z" />
<glyph unicode="&#xcf;" horiz-adv-x="313" d="M0 782v110h121v-110h-121zM21 0v103h66v500h-66v103h268v-103h-66v-500h66v-103h-268zM187 782v110h120v-110h-120z" />
<glyph unicode="&#xd0;" horiz-adv-x="646" d="M21 321v94h68v188h-65v103h258q118 0 178 -29q148 -70 148 -332q0 -266 -177 -325q-61 -20 -170 -20h-238v103h65v218h-67zM220 415h165v-94h-164v-218h63q56 0 89.5 15t60.5 60q18 30 28 79t10 91q0 194 -99 241q-27 13 -97 13h-56v-187z" />
<glyph unicode="&#xd1;" horiz-adv-x="667" d="M15 0v103h65v500h-65v103h271l189 -603v500h-58v103h236v-103h-68v-603h-202l-189 603v-500h61v-103h-240zM171 774q0 26 2 45t9.5 42.5t26 36.5t46.5 13q34 0 84 -26t58 -26q5 0 9 1.5t6.5 5t4 6t2.5 8.5t1 8.5t0.5 10t0.5 8.5h76q0 -64 -19.5 -98t-67.5 -34 q-33 0 -78 25.5t-59 25.5q-16 0 -20 -12.5t-4 -39.5h-78z" />
<glyph unicode="&#xd2;" horiz-adv-x="667" d="M35 355q0 77 17 141t51.5 115.5t93.5 80.5t138 29t137.5 -31t91.5 -84.5t49 -117.5t16 -139q0 -161 -74 -262.5t-220 -101.5q-81 0 -140.5 29.5t-93.5 82.5t-50 117t-16 141zM145 900h177l115 -125h-122zM170 359q0 -45 7 -87t23 -85t49.5 -69.5t80.5 -26.5t81 25.5 t50.5 67t23.5 82.5t7 84q0 45 -6 85t-21 83t-48 69t-80 26q-48 0 -83 -23.5t-52 -63.5t-24.5 -80.5t-7.5 -86.5z" />
<glyph unicode="&#xd3;" horiz-adv-x="667" d="M35 355q0 77 17 141t51.5 115.5t93.5 80.5t138 29t137.5 -31t91.5 -84.5t49 -117.5t16 -139q0 -161 -74 -262.5t-220 -101.5q-81 0 -140.5 29.5t-93.5 82.5t-50 117t-16 141zM170 359q0 -45 7 -87t23 -85t49.5 -69.5t80.5 -26.5t81 25.5t50.5 67t23.5 82.5t7 84 q0 45 -6 85t-21 83t-48 69t-80 26q-48 0 -83 -23.5t-52 -63.5t-24.5 -80.5t-7.5 -86.5zM231 775l115 125h177l-170 -125h-122z" />
<glyph unicode="&#xd4;" horiz-adv-x="667" d="M35 355q0 77 17 141t51.5 115.5t93.5 80.5t138 29t137.5 -31t91.5 -84.5t49 -117.5t16 -139q0 -161 -74 -262.5t-220 -101.5q-81 0 -140.5 29.5t-93.5 82.5t-50 117t-16 141zM156 775l105 131h145l102 -131h-98l-77 63l-80 -63h-97zM170 359q0 -45 7 -87t23 -85 t49.5 -69.5t80.5 -26.5t81 25.5t50.5 67t23.5 82.5t7 84q0 45 -6 85t-21 83t-48 69t-80 26q-48 0 -83 -23.5t-52 -63.5t-24.5 -80.5t-7.5 -86.5z" />
<glyph unicode="&#xd5;" horiz-adv-x="667" d="M35 355q0 77 17 141t51.5 115.5t93.5 80.5t138 29t137.5 -31t91.5 -84.5t49 -117.5t16 -139q0 -161 -74 -262.5t-220 -101.5q-81 0 -140.5 29.5t-93.5 82.5t-50 117t-16 141zM170 359q0 -45 7 -87t23 -85t49.5 -69.5t80.5 -26.5t81 25.5t50.5 67t23.5 82.5t7 84 q0 45 -6 85t-21 83t-48 69t-80 26q-48 0 -83 -23.5t-52 -63.5t-24.5 -80.5t-7.5 -86.5zM171 774q0 26 2 45t9.5 42.5t26 36.5t46.5 13q34 0 84 -26t58 -26q5 0 9 1.5t6.5 5t4 6t2.5 8.5t1 8.5t0.5 10t0.5 8.5h76q0 -64 -19.5 -98t-67.5 -34q-33 0 -78 25.5t-59 25.5 q-16 0 -20 -12.5t-4 -39.5h-78z" />
<glyph unicode="&#xd6;" horiz-adv-x="667" d="M35 355q0 77 17 141t51.5 115.5t93.5 80.5t138 29t137.5 -31t91.5 -84.5t49 -117.5t16 -139q0 -161 -74 -262.5t-220 -101.5q-81 0 -140.5 29.5t-93.5 82.5t-50 117t-16 141zM170 359q0 -45 7 -87t23 -85t49.5 -69.5t80.5 -26.5t81 25.5t50.5 67t23.5 82.5t7 84 q0 45 -6 85t-21 83t-48 69t-80 26q-48 0 -83 -23.5t-52 -63.5t-24.5 -80.5t-7.5 -86.5zM179 782v110h121v-110h-121zM366 782v110h120v-110h-120z" />
<glyph unicode="&#xd7;" horiz-adv-x="724" d="M129 453l87 93l150 -143l143 148l81 -77l-143 -149l152 -144l-87 -93l-152 144l-142 -148l-81 78l142 148z" />
<glyph unicode="&#xd8;" horiz-adv-x="667" d="M20 -101l99 175q-81 98 -81 268q0 54 8.5 104.5t30 101.5t54 88.5t84.5 61t118 23.5q62 0 131 -25l55 103h125l-95 -166q82 -102 82 -268q0 -73 -16.5 -138t-50 -120.5t-92 -88.5t-135.5 -33q-71 0 -134 28l-61 -114h-122zM168 346q0 -86 21 -148q143 254 220 399 q-32 18 -69 18q-49 0 -84.5 -26t-53.5 -68.5t-26 -86t-8 -88.5zM256 109q40 -20 77 -20q48 0 82.5 28.5t51 75t23.5 90t7 88.5q0 73 -19 140q-63 -109 -222 -402z" />
<glyph unicode="&#xd9;" horiz-adv-x="625" d="M10 603v103h256v-103h-60v-390q0 -55 26 -86t80 -31q109 0 109 115v392h-63v103h259v-103h-64v-375q0 -241 -233 -241q-66 0 -114.5 18t-73.5 43t-39 62t-17 63.5t-3 60.5v369h-63zM125 900h177l115 -125h-122z" />
<glyph unicode="&#xda;" horiz-adv-x="625" d="M10 603v103h256v-103h-60v-390q0 -55 26 -86t80 -31q109 0 109 115v392h-63v103h259v-103h-64v-375q0 -241 -233 -241q-66 0 -114.5 18t-73.5 43t-39 62t-17 63.5t-3 60.5v369h-63zM210 775l115 125h177l-170 -125h-122z" />
<glyph unicode="&#xdb;" horiz-adv-x="625" d="M10 603v103h256v-103h-60v-390q0 -55 26 -86t80 -31q109 0 109 115v392h-63v103h259v-103h-64v-375q0 -241 -233 -241q-66 0 -114.5 18t-73.5 43t-39 62t-17 63.5t-3 60.5v369h-63zM135 775l105 131h145l102 -131h-98l-77 63l-80 -63h-97z" />
<glyph unicode="&#xdc;" horiz-adv-x="625" d="M10 603v103h256v-103h-60v-390q0 -55 26 -86t80 -31q109 0 109 115v392h-63v103h259v-103h-64v-375q0 -241 -233 -241q-66 0 -114.5 18t-73.5 43t-39 62t-17 63.5t-3 60.5v369h-63zM159 782v110h121v-110h-121zM346 782v110h120v-110h-120z" />
<glyph unicode="&#xdd;" horiz-adv-x="604" d="M16 603v103h262v-103h-74l108 -244l108 244h-72v103h241v-103h-44l-175 -368v-132h64v-103h-258v103h62v132l-174 368h-48zM201 775l115 125h177l-170 -125h-122z" />
<glyph unicode="&#xde;" horiz-adv-x="562" d="M21 0v103h69v500h-69v103h203v-81h30q104 0 149 -12q68 -18 102 -77t34 -136q0 -80 -35 -135q-31 -50 -82 -65t-120 -15h-78v-82h62v-103h-265zM224 288h59q118 0 118 116q0 56 -27.5 89t-78.5 33h-71v-238z" />
<glyph unicode="&#xdf;" d="M15 0v103h66v394q0 109 58.5 164.5t167.5 55.5q87 0 142.5 -44t55.5 -128q0 -127 -116 -159q80 -11 118.5 -64t38.5 -136q0 -67 -31 -116t-92 -66q-31 -8 -85 -8q-28 0 -61 5v110q32 -8 50 -8q43 0 64.5 31t21.5 76q0 90 -55 117q-18 9 -58 9h-12v94q86 0 86 96 q0 39 -19.5 67t-56.5 28q-85 0 -85 -110v-511h-198z" />
<glyph unicode="&#xe0;" horiz-adv-x="542" d="M33 143q0 50 23 86t62 53.5t80 25t89 7.5h41v28q0 94 -70 94q-33 0 -52 -21t-19 -54h-133q14 169 206 169q44 0 88.5 -13t67.5 -40q19 -22 28 -53.5t10.5 -53t1.5 -60.5v-208h66v-103h-177q-1 46 -1 67q-50 -82 -151 -82q-74 0 -117 42.5t-43 115.5zM119 771h147l63 -170 h-103zM167 156q0 -30 21 -50.5t51 -20.5q43 0 66.5 28.5t23.5 72.5v53h-33q-129 0 -129 -83z" />
<glyph unicode="&#xe1;" horiz-adv-x="542" d="M33 143q0 50 23 86t62 53.5t80 25t89 7.5h41v28q0 94 -70 94q-33 0 -52 -21t-19 -54h-133q14 169 206 169q44 0 88.5 -13t67.5 -40q19 -22 28 -53.5t10.5 -53t1.5 -60.5v-208h66v-103h-177q-1 46 -1 67q-50 -82 -151 -82q-74 0 -117 42.5t-43 115.5zM167 156 q0 -30 21 -50.5t51 -20.5q43 0 66.5 28.5t23.5 72.5v53h-33q-129 0 -129 -83zM202 601l63 170h147l-107 -170h-103z" />
<glyph unicode="&#xe2;" horiz-adv-x="542" d="M33 143q0 50 23 86t62 53.5t80 25t89 7.5h41v28q0 94 -70 94q-33 0 -52 -21t-19 -54h-133q14 169 206 169q44 0 88.5 -13t67.5 -40q19 -22 28 -53.5t10.5 -53t1.5 -60.5v-208h66v-103h-177q-1 46 -1 67q-50 -82 -151 -82q-74 0 -117 42.5t-43 115.5zM114 601l85 151h134 l82 -151h-88l-61 75l-63 -75h-89zM167 156q0 -30 21 -50.5t51 -20.5q43 0 66.5 28.5t23.5 72.5v53h-33q-129 0 -129 -83z" />
<glyph unicode="&#xe3;" horiz-adv-x="542" d="M33 143q0 50 23 86t62 53.5t80 25t89 7.5h41v28q0 94 -70 94q-33 0 -52 -21t-19 -54h-133q14 169 206 169q44 0 88.5 -13t67.5 -40q19 -22 28 -53.5t10.5 -53t1.5 -60.5v-208h66v-103h-177q-1 46 -1 67q-50 -82 -151 -82q-74 0 -117 42.5t-43 115.5zM114 606q0 26 2 45 t9 42.5t24.5 36.5t43.5 13q33 0 80 -26t54 -26q5 0 9 1.5t6 5t3.5 6t2.5 8.5t1 8.5t0.5 9.5t0.5 9h72q0 -64 -18.5 -98t-63.5 -34q-32 0 -74.5 25.5t-55.5 25.5q-14 0 -18 -12.5t-4 -39.5h-74zM167 156q0 -30 21 -50.5t51 -20.5q43 0 66.5 28.5t23.5 72.5v53h-33 q-129 0 -129 -83z" />
<glyph unicode="&#xe4;" horiz-adv-x="542" d="M33 143q0 50 23 86t62 53.5t80 25t89 7.5h41v28q0 94 -70 94q-33 0 -52 -21t-19 -54h-133q14 169 206 169q44 0 88.5 -13t67.5 -40q19 -22 28 -53.5t10.5 -53t1.5 -60.5v-208h66v-103h-177q-1 46 -1 67q-50 -82 -151 -82q-74 0 -117 42.5t-43 115.5zM123 622v109h121 v-109h-121zM167 156q0 -30 21 -50.5t51 -20.5q43 0 66.5 28.5t23.5 72.5v53h-33q-129 0 -129 -83zM290 622v109h121v-109h-121z" />
<glyph unicode="&#xe5;" horiz-adv-x="542" d="M33 143q0 50 23 86t62 53.5t80 25t89 7.5h41v28q0 94 -70 94q-33 0 -52 -21t-19 -54h-133q14 169 206 169q44 0 88.5 -13t67.5 -40q19 -22 28 -53.5t10.5 -53t1.5 -60.5v-208h66v-103h-177q-1 46 -1 67q-50 -82 -151 -82q-74 0 -117 42.5t-43 115.5zM167 156 q0 -30 21 -50.5t51 -20.5q43 0 66.5 28.5t23.5 72.5v53h-33q-129 0 -129 -83zM169 687q0 42 28 68.5t70 26.5q44 0 71.5 -26t27.5 -69q0 -42 -28 -68.5t-71 -26.5q-39 0 -68.5 28t-29.5 67zM225 687q0 -17 12.5 -30t29.5 -13q18 0 31 12.5t13 30.5t-12.5 30.5t-30.5 12.5 t-30.5 -12.5t-12.5 -30.5z" />
<glyph unicode="&#xe6;" horiz-adv-x="833" d="M34 143q0 178 280 178h24v7q0 110 -75 110q-33 0 -53 -21.5t-20 -54.5h-137q0 86 58 127.5t136 41.5q115 0 169 -69q45 69 156 69q118 0 175 -77q31 -42 41 -90.5t10 -115.5v-12h-333q1 -31 5 -54.5t14 -49t31 -39.5t53 -14q80 0 95 89h131q-8 -90 -68.5 -137t-153.5 -47 q-62 0 -112 24.5t-76 75.5q-49 -100 -181 -100q-74 0 -121.5 43t-47.5 116zM167 150q0 -31 20 -53t50 -22q50 0 76 42.5t26 96.5v25h-46q-62 0 -94 -24t-32 -65zM469 322h191q0 48 -22.5 82.5t-67.5 34.5q-49 0 -75 -33.5t-26 -83.5z" />
<glyph unicode="&#xe7;" horiz-adv-x="500" d="M39 253q0 55 9.5 101.5t31.5 87.5t63.5 64.5t99.5 23.5q46 0 74.5 -14.5t59.5 -50.5l3 51h95v-186h-113q-3 44 -23.5 72.5t-63.5 28.5q-99 0 -99 -176q0 -166 96 -166q34 0 56 29t26 65h127q-6 -52 -14 -71q-46 -120 -190 -125l-17 -53q12 6 28 6q34 0 54.5 -21.5 t20.5 -58.5q0 -43 -24.5 -65.5t-65.5 -22.5t-65.5 21t-27.5 60l66 3q0 -29 26 -29q27 0 27 30q0 32 -25 32q-14 0 -19 -12l-65 9l28 104q-179 36 -179 263z" />
<glyph unicode="&#xe8;" horiz-adv-x="542" d="M36 259q0 122 58.5 196.5t175.5 74.5q121 0 179.5 -73.5t58.5 -197.5v-19h-338q0 -161 102 -161q86 0 99 89h135q-12 -89 -75 -136t-153 -47q-129 0 -185.5 70t-56.5 204zM130 771h147l63 -170h-103zM175 325h196q0 47 -27.5 78.5t-68.5 31.5q-45 0 -71.5 -32t-28.5 -78z " />
<glyph unicode="&#xe9;" horiz-adv-x="542" d="M36 259q0 122 58.5 196.5t175.5 74.5q121 0 179.5 -73.5t58.5 -197.5v-19h-338q0 -161 102 -161q86 0 99 89h135q-12 -89 -75 -136t-153 -47q-129 0 -185.5 70t-56.5 204zM175 325h196q0 47 -27.5 78.5t-68.5 31.5q-45 0 -71.5 -32t-28.5 -78zM212 601l63 170h147 l-107 -170h-103z" />
<glyph unicode="&#xea;" horiz-adv-x="542" d="M36 259q0 122 58.5 196.5t175.5 74.5q121 0 179.5 -73.5t58.5 -197.5v-19h-338q0 -161 102 -161q86 0 99 89h135q-12 -89 -75 -136t-153 -47q-129 0 -185.5 70t-56.5 204zM125 601l85 151h134l82 -151h-88l-61 75l-63 -75h-89zM175 325h196q0 47 -27.5 78.5t-68.5 31.5 q-45 0 -71.5 -32t-28.5 -78z" />
<glyph unicode="&#xeb;" horiz-adv-x="542" d="M36 259q0 122 58.5 196.5t175.5 74.5q121 0 179.5 -73.5t58.5 -197.5v-19h-338q0 -161 102 -161q86 0 99 89h135q-12 -89 -75 -136t-153 -47q-129 0 -185.5 70t-56.5 204zM131 622v109h121v-109h-121zM175 325h196q0 47 -27.5 78.5t-68.5 31.5q-45 0 -71.5 -32t-28.5 -78 zM298 622v109h121v-109h-121z" />
<glyph unicode="&#xec;" horiz-adv-x="313" d="M10 771h147l63 -170h-103zM27 0v103h67v312h-67v103h201v-415h66v-103h-267z" />
<glyph unicode="&#xed;" horiz-adv-x="313" d="M27 0v103h67v312h-67v103h201v-415h66v-103h-267zM92 601l63 170h147l-107 -170h-103z" />
<glyph unicode="&#xee;" horiz-adv-x="313" d="M5 601l85 151h134l82 -151h-88l-61 75l-63 -75h-89zM27 0v103h67v312h-67v103h201v-415h66v-103h-267z" />
<glyph unicode="&#xef;" horiz-adv-x="313" d="M11 622v109h121v-109h-121zM27 0v103h67v312h-67v103h201v-415h66v-103h-267zM178 622v109h121v-109h-121z" />
<glyph unicode="&#xf0;" horiz-adv-x="562" d="M38 252q0 89 26 152t95 101q48 27 112 27q32 0 58 -13q-28 43 -50 65l-119 -42l-28 61l95 33q-28 32 -51 52l111 45q28 -25 55 -57l82 28l28 -59l-59 -21q71 -92 104 -176.5t33 -190.5q0 -122 -64 -197.5t-184 -75.5q-123 0 -183.5 72t-60.5 196zM173 248 q0 -65 26.5 -114t84.5 -49q61 0 85.5 47t24.5 111q0 189 -108 189q-37 0 -61 -16.5t-34.5 -46.5t-14 -57.5t-3.5 -63.5z" />
<glyph unicode="&#xf1;" horiz-adv-x="604" d="M26 0v103h68v312h-68v103h185l8 -65q42 78 138 78q85 0 123.5 -42.5t38.5 -126.5v-259h65v-103h-248v103h49v241q0 36 -17.5 57t-52.5 21q-37 0 -63 -24.5t-26 -61.5v-233h53v-103h-253zM150 606q0 26 2 45t9 42.5t24.5 36.5t43.5 13q33 0 80 -26t54 -26q5 0 9 1.5t6 5 t3.5 6t2.5 8.5t1 8.5t0.5 9.5t0.5 9h72q0 -64 -18.5 -98t-63.5 -34q-32 0 -74.5 25.5t-55.5 25.5q-14 0 -18 -12.5t-4 -39.5h-74z" />
<glyph unicode="&#xf2;" horiz-adv-x="562" d="M35 252q0 127 59 203t184 76q127 0 188 -71.5t61 -198.5q0 -124 -62 -200t-182 -76q-125 0 -186.5 70t-61.5 197zM135 771h147l63 -170h-103zM170 256q0 -171 110 -171q111 0 111 168q0 35 -3.5 61.5t-14 56t-34 45.5t-58.5 16q-111 0 -111 -176z" />
<glyph unicode="&#xf3;" horiz-adv-x="562" d="M35 252q0 127 59 203t184 76q127 0 188 -71.5t61 -198.5q0 -124 -62 -200t-182 -76q-125 0 -186.5 70t-61.5 197zM170 256q0 -171 110 -171q111 0 111 168q0 35 -3.5 61.5t-14 56t-34 45.5t-58.5 16q-111 0 -111 -176zM217 601l63 170h147l-107 -170h-103z" />
<glyph unicode="&#xf4;" horiz-adv-x="562" d="M35 252q0 127 59 203t184 76q127 0 188 -71.5t61 -198.5q0 -124 -62 -200t-182 -76q-125 0 -186.5 70t-61.5 197zM130 601l85 151h134l82 -151h-88l-61 75l-63 -75h-89zM170 256q0 -171 110 -171q111 0 111 168q0 35 -3.5 61.5t-14 56t-34 45.5t-58.5 16 q-111 0 -111 -176z" />
<glyph unicode="&#xf5;" horiz-adv-x="562" d="M35 252q0 127 59 203t184 76q127 0 188 -71.5t61 -198.5q0 -124 -62 -200t-182 -76q-125 0 -186.5 70t-61.5 197zM129 606q0 26 2 45t9 42.5t24.5 36.5t43.5 13q33 0 80 -26t54 -26q5 0 9 1.5t6 5t3.5 6t2.5 8.5t1 8.5t0.5 9.5t0.5 9h72q0 -64 -18.5 -98t-63.5 -34 q-32 0 -74.5 25.5t-55.5 25.5q-14 0 -18 -12.5t-4 -39.5h-74zM170 256q0 -171 110 -171q111 0 111 168q0 35 -3.5 61.5t-14 56t-34 45.5t-58.5 16q-111 0 -111 -176z" />
<glyph unicode="&#xf6;" horiz-adv-x="562" d="M35 252q0 127 59 203t184 76q127 0 188 -71.5t61 -198.5q0 -124 -62 -200t-182 -76q-125 0 -186.5 70t-61.5 197zM136 622v109h121v-109h-121zM170 256q0 -171 110 -171q111 0 111 168q0 35 -3.5 61.5t-14 56t-34 45.5t-58.5 16q-111 0 -111 -176zM303 622v109h121v-109 h-121z" />
<glyph unicode="&#xf7;" horiz-adv-x="709" d="M71 260v112h566v-112h-566zM291 63v128h125v-128h-125zM291 441v127h125v-127h-125z" />
<glyph unicode="&#xf8;" horiz-adv-x="562" d="M30 -109l83 153q-39 34 -58.5 90t-19.5 115q0 128 59 204.5t184 76.5q41 0 88 -11l51 103h105l-75 -144q79 -70 79 -211q0 -137 -65.5 -208.5t-175.5 -71.5q-36 0 -94 15l-55 -111h-106zM163 257q0 -56 13 -98l151 278q-25 5 -44 5q-35 0 -60 -17t-37.5 -46t-17.5 -58.5 t-5 -63.5zM231 84q21 -10 54 -10q114 0 114 178q0 60 -16 115z" />
<glyph unicode="&#xf9;" d="M10 415v103h199v-342q0 -36 17 -60.5t52 -24.5q42 0 61 29t19 72v223h-65v103h198v-415h63v-103h-185l-4 59q-28 -39 -57.5 -56.5t-74.5 -17.5q-75 0 -117 37t-42 113v280h-64zM145 771h147l63 -170h-103z" />
<glyph unicode="&#xfa;" d="M10 415v103h199v-342q0 -36 17 -60.5t52 -24.5q42 0 61 29t19 72v223h-65v103h198v-415h63v-103h-185l-4 59q-28 -39 -57.5 -56.5t-74.5 -17.5q-75 0 -117 37t-42 113v280h-64zM228 601l63 170h147l-107 -170h-103z" />
<glyph unicode="&#xfb;" d="M10 415v103h199v-342q0 -36 17 -60.5t52 -24.5q42 0 61 29t19 72v223h-65v103h198v-415h63v-103h-185l-4 59q-28 -39 -57.5 -56.5t-74.5 -17.5q-75 0 -117 37t-42 113v280h-64zM140 601l85 151h134l82 -151h-88l-61 75l-63 -75h-89z" />
<glyph unicode="&#xfc;" d="M10 415v103h199v-342q0 -36 17 -60.5t52 -24.5q42 0 61 29t19 72v223h-65v103h198v-415h63v-103h-185l-4 59q-28 -39 -57.5 -56.5t-74.5 -17.5q-75 0 -117 37t-42 113v280h-64zM139 622v109h121v-109h-121zM306 622v109h121v-109h-121z" />
<glyph unicode="&#xfd;" horiz-adv-x="542" d="M12 415v103h232v-103h-53l84 -279l84 279h-54v103h227v-103h-45l-170 -476q-27 -79 -51 -106q-45 -53 -141 -53q-23 0 -79 10v105q36 -13 69 -13q59 0 79 62l12 37l-152 434h-42zM207 601l63 170h147l-107 -170h-103z" />
<glyph unicode="&#xfe;" d="M17 -107h65v710h-65v103h185v-263q16 40 60.5 64.5t94.5 24.5q55 0 95 -27.5t60.5 -71t30 -87t9.5 -87.5q0 -74 -18 -133.5t-63.5 -100t-113.5 -40.5q-94 0 -141 70v-162h65v-102h-264v102zM209 263q0 -81 27 -127.5t79 -46.5q29 0 50.5 16.5t31.5 43t14.5 53t4.5 55.5 q0 75 -25 123t-76 48q-39 0 -64 -27t-33.5 -61.5t-8.5 -76.5z" />
<glyph unicode="&#xff;" horiz-adv-x="542" d="M12 415v103h232v-103h-53l84 -279l84 279h-54v103h227v-103h-45l-170 -476q-27 -79 -51 -106q-45 -53 -141 -53q-23 0 -79 10v105q36 -13 69 -13q59 0 79 62l12 37l-152 434h-42zM126 622v109h121v-109h-121zM293 622v109h121v-109h-121z" />
<glyph unicode="&#x100;" horiz-adv-x="667" d="M4 0v103h58l164 505h-50v98h325v-98h-52l152 -505h59v-103h-258v103h59l-34 120h-206l-38 -120h56v-103h-235zM174 784v84h318v-84h-318zM246 326h156l-76 277z" />
<glyph unicode="&#x101;" horiz-adv-x="542" d="M33 143q0 50 23 86t62 53.5t80 25t89 7.5h41v28q0 94 -70 94q-33 0 -52 -21t-19 -54h-133q14 169 206 169q44 0 88.5 -13t67.5 -40q19 -22 28 -53.5t10.5 -53t1.5 -60.5v-208h66v-103h-177q-1 46 -1 67q-50 -82 -151 -82q-74 0 -117 42.5t-43 115.5zM127 622v81h288v-81 h-288zM167 156q0 -30 21 -50.5t51 -20.5q43 0 66.5 28.5t23.5 72.5v53h-33q-129 0 -129 -83z" />
<glyph unicode="&#x102;" horiz-adv-x="667" d="M4 0v103h58l164 505h-50v98h325v-98h-52l152 -505h59v-103h-258v103h59l-34 120h-206l-38 -120h56v-103h-235zM177 887h85q10 -56 69 -56q58 0 69 56h89q-5 -60 -45 -95.5t-112 -35.5q-143 0 -155 131zM246 326h156l-76 277z" />
<glyph unicode="&#x103;" horiz-adv-x="542" d="M33 143q0 50 23 86t62 53.5t80 25t89 7.5h41v28q0 94 -70 94q-33 0 -52 -21t-19 -54h-133q14 169 206 169q44 0 88.5 -13t67.5 -40q19 -22 28 -53.5t10.5 -53t1.5 -60.5v-208h66v-103h-177q-1 46 -1 67q-50 -82 -151 -82q-74 0 -117 42.5t-43 115.5zM128 731h80 q12 -57 61 -57q29 0 42 15t19 42h84q-5 -60 -42.5 -95.5t-101.5 -35.5t-100.5 35t-41.5 96zM167 156q0 -30 21 -50.5t51 -20.5q43 0 66.5 28.5t23.5 72.5v53h-33q-129 0 -129 -83z" />
<glyph unicode="&#x104;" horiz-adv-x="667" d="M4 0v103h58l164 505h-50v98h325v-98h-52l152 -505h59v-103h-69q-48 -42 -48 -84q0 -29 16.5 -44t44.5 -15q20 0 42 12l21 -64q-42 -22 -82 -22q-48 0 -84 27.5t-36 77.5q0 60 50 112h-113v103h59l-34 120h-206l-38 -120h56v-103h-235zM246 326h156l-76 277z" />
<glyph unicode="&#x105;" horiz-adv-x="542" d="M33 143q0 50 23 86t62 53.5t80 25t89 7.5h41v28q0 94 -70 94q-33 0 -52 -21t-19 -54h-133q14 169 206 169q44 0 88.5 -13t67.5 -40q19 -22 28 -53.5t10.5 -53t1.5 -60.5v-208h66v-103h-61q-48 -42 -48 -84q0 -29 16.5 -44t44.5 -15q20 0 42 12l21 -64q-42 -22 -82 -22 q-48 0 -84 27.5t-36 77.5q0 60 50 112h-40q-1 46 -1 67q-50 -82 -151 -82q-74 0 -117 42.5t-43 115.5zM167 156q0 -30 21 -50.5t51 -20.5q43 0 66.5 28.5t23.5 72.5v53h-33q-129 0 -129 -83z" />
<glyph unicode="&#x106;" horiz-adv-x="604" d="M35 350q0 70 12 130.5t39 117.5t80.5 90.5t127.5 33.5q56 0 92.5 -19t60.5 -66l2 69h104v-237h-111q-4 71 -38.5 110t-90.5 39q-53 0 -92 -42q-27 -30 -39 -96.5t-12 -127.5q0 -32 3 -64.5t12 -70t23.5 -65.5t39.5 -47t58 -19q41 0 69 29.5t39 65.5t12 73h135 q-1 -55 -14 -100t-40.5 -85t-79.5 -62.5t-124 -22.5q-77 0 -131.5 31t-83 85t-41 115.5t-12.5 134.5zM203 775l115 125h177l-170 -125h-122z" />
<glyph unicode="&#x107;" horiz-adv-x="500" d="M39 254q0 44 5.5 81.5t20 74.5t37 62.5t58.5 41.5t83 16q86 0 135 -66l3 51h94v-185h-113q-7 101 -87 101q-99 0 -99 -172q0 -170 94 -170q36 0 58 28t26 66h127q-5 -94 -61.5 -145.5t-150.5 -51.5q-117 0 -173.5 72.5t-56.5 195.5zM175 601l63 170h147l-107 -170h-103z " />
<glyph unicode="&#x108;" horiz-adv-x="604" d="M35 350q0 70 12 130.5t39 117.5t80.5 90.5t127.5 33.5q56 0 92.5 -19t60.5 -66l2 69h104v-237h-111q-4 71 -38.5 110t-90.5 39q-53 0 -92 -42q-27 -30 -39 -96.5t-12 -127.5q0 -32 3 -64.5t12 -70t23.5 -65.5t39.5 -47t58 -19q41 0 69 29.5t39 65.5t12 73h135 q-1 -55 -14 -100t-40.5 -85t-79.5 -62.5t-124 -22.5q-77 0 -131.5 31t-83 85t-41 115.5t-12.5 134.5zM126 775l105 131h145l102 -131h-98l-77 63l-80 -63h-97z" />
<glyph unicode="&#x109;" horiz-adv-x="500" d="M39 254q0 44 5.5 81.5t20 74.5t37 62.5t58.5 41.5t83 16q86 0 135 -66l3 51h94v-185h-113q-7 101 -87 101q-99 0 -99 -172q0 -170 94 -170q36 0 58 28t26 66h127q-5 -94 -61.5 -145.5t-150.5 -51.5q-117 0 -173.5 72.5t-56.5 195.5zM109 601l85 151h134l82 -151h-88 l-61 75l-63 -75h-89z" />
<glyph unicode="&#x10a;" horiz-adv-x="604" d="M35 350q0 70 12 130.5t39 117.5t80.5 90.5t127.5 33.5q56 0 92.5 -19t60.5 -66l2 69h104v-237h-111q-4 71 -38.5 110t-90.5 39q-53 0 -92 -42q-27 -30 -39 -96.5t-12 -127.5q0 -32 3 -64.5t12 -70t23.5 -65.5t39.5 -47t58 -19q41 0 69 29.5t39 65.5t12 73h135 q-1 -55 -14 -100t-40.5 -85t-79.5 -62.5t-124 -22.5q-77 0 -131.5 31t-83 85t-41 115.5t-12.5 134.5zM241 782v110h120v-110h-120z" />
<glyph unicode="&#x10b;" horiz-adv-x="500" d="M39 254q0 44 5.5 81.5t20 74.5t37 62.5t58.5 41.5t83 16q86 0 135 -66l3 51h94v-185h-113q-7 101 -87 101q-99 0 -99 -172q0 -170 94 -170q36 0 58 28t26 66h127q-5 -94 -61.5 -145.5t-150.5 -51.5q-117 0 -173.5 72.5t-56.5 195.5zM189 622v109h121v-109h-121z" />
<glyph unicode="&#x10c;" horiz-adv-x="604" d="M35 350q0 70 12 130.5t39 117.5t80.5 90.5t127.5 33.5q56 0 92.5 -19t60.5 -66l2 69h104v-237h-111q-4 71 -38.5 110t-90.5 39q-53 0 -92 -42q-27 -30 -39 -96.5t-12 -127.5q0 -32 3 -64.5t12 -70t23.5 -65.5t39.5 -47t58 -19q41 0 69 29.5t39 65.5t12 73h135 q-1 -55 -14 -100t-40.5 -85t-79.5 -62.5t-124 -22.5q-77 0 -131.5 31t-83 85t-41 115.5t-12.5 134.5zM126 906h98l77 -63l80 63h97l-105 -131h-145z" />
<glyph unicode="&#x10d;" horiz-adv-x="500" d="M39 254q0 44 5.5 81.5t20 74.5t37 62.5t58.5 41.5t83 16q86 0 135 -66l3 51h94v-185h-113q-7 101 -87 101q-99 0 -99 -172q0 -170 94 -170q36 0 58 28t26 66h127q-5 -94 -61.5 -145.5t-150.5 -51.5q-117 0 -173.5 72.5t-56.5 195.5zM100 752h88l61 -75l63 75h89l-85 -151 h-134z" />
<glyph unicode="&#x10e;" horiz-adv-x="646" d="M24 0v103h64v500h-64v103h239q132 0 193 -27q152 -68 152 -329q0 -245 -141 -316q-67 -34 -206 -34h-237zM107 906h98l77 -63l80 63h97l-105 -131h-145zM221 102h52q50 0 83 9.5t61 40.5t41.5 88.5t13.5 110.5q0 72 -19.5 137.5t-67.5 94.5q-34 20 -103 20h-61v-501z" />
<glyph unicode="&#x10f;" d="M31 258q0 50 10.5 96t33 86.5t63 65t93.5 24.5q85 0 136 -61v134h-67v103h201v-603h64v-103h-189q-1 32 -1 50q-55 -66 -143 -66q-54 0 -94.5 24.5t-63 65.5t-33 87t-10.5 97zM168 254q0 -28 4 -53.5t13.5 -53.5t30 -44.5t49.5 -16.5q42 0 67.5 33t32.5 70t7 79 q0 164 -102 164q-31 0 -53 -17.5t-32 -47t-13.5 -56.5t-3.5 -57zM536 566l46 161h120l-90 -161h-76z" />
<glyph unicode="&#x110;" horiz-adv-x="646" d="M21 321v94h68v188h-65v103h258q118 0 178 -29q148 -70 148 -332q0 -266 -177 -325q-61 -20 -170 -20h-238v103h65v218h-67zM220 415h165v-94h-164v-218h63q56 0 89.5 15t60.5 60q18 30 28 79t10 91q0 194 -99 241q-27 13 -97 13h-56v-187z" />
<glyph unicode="&#x111;" d="M31 258q0 50 10.5 94.5t33 83t62.5 61t94 22.5q85 0 136 -61v86h-137v53h137v27h-67v82h201v-109h65v-53h-65v-441h64v-103h-189q-1 32 -1 50q-55 -66 -143 -66q-54 0 -94.5 24.5t-63 65.5t-33 87t-10.5 97zM168 254q0 -28 4 -53.5t13.5 -53.5t30 -44.5t49.5 -16.5 q42 0 67.5 33t32.5 70t7 79q0 153 -102 153t-102 -167z" />
<glyph unicode="&#x112;" d="M18 0v103h69v500h-69v103h519v-238h-112v131h-203v-177h179v-104h-179v-215h203v152h112v-255h-519zM132 784v84h318v-84h-318z" />
<glyph unicode="&#x113;" horiz-adv-x="542" d="M36 259q0 122 58.5 196.5t175.5 74.5q121 0 179.5 -73.5t58.5 -197.5v-19h-338q0 -161 102 -161q86 0 99 89h135q-12 -89 -75 -136t-153 -47q-129 0 -185.5 70t-56.5 204zM127 622v81h288v-81h-288zM175 325h196q0 47 -27.5 78.5t-68.5 31.5q-45 0 -71.5 -32t-28.5 -78z " />
<glyph unicode="&#x116;" d="M18 0v103h69v500h-69v103h519v-238h-112v131h-203v-177h179v-104h-179v-215h203v152h112v-255h-519zM231 782v110h120v-110h-120z" />
<glyph unicode="&#x117;" horiz-adv-x="542" d="M36 259q0 122 58.5 196.5t175.5 74.5q121 0 179.5 -73.5t58.5 -197.5v-19h-338q0 -161 102 -161q86 0 99 89h135q-12 -89 -75 -136t-153 -47q-129 0 -185.5 70t-56.5 204zM175 325h196q0 47 -27.5 78.5t-68.5 31.5q-45 0 -71.5 -32t-28.5 -78zM210 622v109h121v-109h-121 z" />
<glyph unicode="&#x118;" d="M18 0v103h69v500h-69v103h519v-238h-112v131h-203v-177h179v-104h-179v-215h203v152h112v-255h-56q-48 -42 -48 -84q0 -29 16.5 -44t44.5 -15q20 0 42 12l21 -64q-42 -22 -82 -22q-48 0 -84 27.5t-36 77.5q0 60 50 112h-387z" />
<glyph unicode="&#x119;" horiz-adv-x="542" d="M36 259q0 122 58.5 196.5t175.5 74.5q121 0 179.5 -73.5t58.5 -197.5v-19h-338q0 -161 102 -161q86 0 99 89h135q-14 -112 -111 -159q-60 -47 -60 -93q0 -29 16.5 -44t44.5 -15q20 0 42 12l21 -64q-42 -22 -82 -22q-48 0 -84 27.5t-36 77.5q0 53 37 98q-6 -1 -16 -1 q-129 0 -185.5 70t-56.5 204zM175 325h196q0 47 -27.5 78.5t-68.5 31.5q-45 0 -71.5 -32t-28.5 -78z" />
<glyph unicode="&#x11a;" d="M18 0v103h69v500h-69v103h519v-238h-112v131h-203v-177h179v-104h-179v-215h203v152h112v-255h-519zM116 906h98l77 -63l80 63h97l-105 -131h-145z" />
<glyph unicode="&#x11b;" horiz-adv-x="542" d="M36 259q0 122 58.5 196.5t175.5 74.5q121 0 179.5 -73.5t58.5 -197.5v-19h-338q0 -161 102 -161q86 0 99 89h135q-12 -89 -75 -136t-153 -47q-129 0 -185.5 70t-56.5 204zM121 752h88l61 -75l63 75h89l-85 -151h-134zM175 325h196q0 47 -27.5 78.5t-68.5 31.5 q-45 0 -71.5 -32t-28.5 -78z" />
<glyph unicode="&#x11c;" horiz-adv-x="646" d="M37 348q0 69 14 131.5t43.5 119t84 90t127.5 33.5q118 0 158 -86l1 70h107v-238h-114q-6 63 -40 104.5t-95 41.5q-37 0 -65.5 -19t-44 -46.5t-25 -65.5t-12.5 -69.5t-3 -65.5q0 -40 6.5 -80t21.5 -82t46.5 -68t74.5 -26q117 0 136 166h-125v103h253v-361h-109v82 q-41 -96 -179 -96q-73 0 -126 32t-81 86.5t-41 115t-13 128.5zM147 775l105 131h145l102 -131h-98l-77 63l-80 -63h-97z" />
<glyph unicode="&#x11d;" d="M34 265q0 66 21.5 124.5t70.5 100t118 41.5q87 0 141 -71v58h181v-103h-62v-439q0 -95 -65 -148.5t-165 -53.5q-200 0 -230 170h141q17 -66 90 -66q27 0 46 9t29 21.5t15.5 33.5t7 38t1.5 43v31q-62 -60 -138 -60q-53 0 -93.5 24.5t-63 64.5t-34 86.5t-11.5 95.5z M141 601l85 151h134l82 -151h-88l-61 75l-63 -75h-89zM172 262q0 -26 4 -52t14 -53t30.5 -43.5t48.5 -16.5q38 0 63.5 29.5t34.5 64.5t9 72q0 29 -5 55.5t-16.5 52.5t-33.5 42t-53 16q-29 0 -49 -17t-29.5 -44.5t-13.5 -53t-4 -52.5z" />
<glyph unicode="&#x11e;" horiz-adv-x="646" d="M37 348q0 69 14 131.5t43.5 119t84 90t127.5 33.5q118 0 158 -86l1 70h107v-238h-114q-6 63 -40 104.5t-95 41.5q-37 0 -65.5 -19t-44 -46.5t-25 -65.5t-12.5 -69.5t-3 -65.5q0 -40 6.5 -80t21.5 -82t46.5 -68t74.5 -26q117 0 136 166h-125v103h253v-361h-109v82 q-41 -96 -179 -96q-73 0 -126 32t-81 86.5t-41 115t-13 128.5zM167 887h85q10 -56 69 -56q58 0 69 56h89q-5 -60 -45 -95.5t-112 -35.5q-143 0 -155 131z" />
<glyph unicode="&#x11f;" d="M34 265q0 66 21.5 124.5t70.5 100t118 41.5q87 0 141 -71v58h181v-103h-62v-439q0 -95 -65 -148.5t-165 -53.5q-200 0 -230 170h141q17 -66 90 -66q27 0 46 9t29 21.5t15.5 33.5t7 38t1.5 43v31q-62 -60 -138 -60q-53 0 -93.5 24.5t-63 64.5t-34 86.5t-11.5 95.5z M148 731h80q12 -57 61 -57q29 0 42 15t19 42h84q-5 -60 -42.5 -95.5t-101.5 -35.5t-100.5 35t-41.5 96zM172 262q0 -26 4 -52t14 -53t30.5 -43.5t48.5 -16.5q38 0 63.5 29.5t34.5 64.5t9 72q0 29 -5 55.5t-16.5 52.5t-33.5 42t-53 16q-29 0 -49 -17t-29.5 -44.5t-13.5 -53 t-4 -52.5z" />
<glyph unicode="&#x120;" horiz-adv-x="646" d="M37 348q0 69 14 131.5t43.5 119t84 90t127.5 33.5q118 0 158 -86l1 70h107v-238h-114q-6 63 -40 104.5t-95 41.5q-37 0 -65.5 -19t-44 -46.5t-25 -65.5t-12.5 -69.5t-3 -65.5q0 -40 6.5 -80t21.5 -82t46.5 -68t74.5 -26q117 0 136 166h-125v103h253v-361h-109v82 q-41 -96 -179 -96q-73 0 -126 32t-81 86.5t-41 115t-13 128.5zM262 782v110h120v-110h-120z" />
<glyph unicode="&#x121;" d="M34 265q0 66 21.5 124.5t70.5 100t118 41.5q87 0 141 -71v58h181v-103h-62v-439q0 -95 -65 -148.5t-165 -53.5q-200 0 -230 170h141q17 -66 90 -66q27 0 46 9t29 21.5t15.5 33.5t7 38t1.5 43v31q-62 -60 -138 -60q-53 0 -93.5 24.5t-63 64.5t-34 86.5t-11.5 95.5z M172 262q0 -26 4 -52t14 -53t30.5 -43.5t48.5 -16.5q38 0 63.5 29.5t34.5 64.5t9 72q0 29 -5 55.5t-16.5 52.5t-33.5 42t-53 16q-29 0 -49 -17t-29.5 -44.5t-13.5 -53t-4 -52.5zM231 622v109h121v-109h-121z" />
<glyph unicode="&#x122;" horiz-adv-x="646" d="M37 348q0 69 14 131.5t43.5 119t84 90t127.5 33.5q118 0 158 -86l1 70h107v-238h-114q-6 63 -40 104.5t-95 41.5q-37 0 -65.5 -19t-44 -46.5t-25 -65.5t-12.5 -69.5t-3 -65.5q0 -40 6.5 -80t21.5 -82t46.5 -68t74.5 -26q117 0 136 166h-125v103h253v-361h-109v82 q-41 -96 -179 -96q-73 0 -126 32t-81 86.5t-41 115t-13 128.5zM240 -214l46 161h120l-90 -161h-76z" />
<glyph unicode="&#x123;" d="M34 265q0 66 21.5 124.5t70.5 100t118 41.5q87 0 141 -71v58h181v-103h-62v-439q0 -95 -65 -148.5t-165 -53.5q-200 0 -230 170h141q17 -66 90 -66q27 0 46 9t29 21.5t15.5 33.5t7 38t1.5 43v31q-62 -60 -138 -60q-53 0 -93.5 24.5t-63 64.5t-34 86.5t-11.5 95.5z M172 262q0 -26 4 -52t14 -53t30.5 -43.5t48.5 -16.5q38 0 63.5 29.5t34.5 64.5t9 72q0 29 -5 55.5t-16.5 52.5t-33.5 42t-53 16q-29 0 -49 -17t-29.5 -44.5t-13.5 -53t-4 -52.5zM204 597l90 161h76l-46 -161h-120z" />
<glyph unicode="&#x124;" horiz-adv-x="688" d="M21 0v103h68v500h-68v103h267v-103h-65v-181h242v181h-67v103h266v-103h-65v-500h65v-103h-266v103h67v215h-242v-215h65v-103h-267zM168 775l105 131h145l102 -131h-98l-77 63l-80 -63h-97z" />
<glyph unicode="&#x125;" horiz-adv-x="604" d="M-40 775l105 131h145l102 -131h-98l-77 63l-80 -63h-97zM22 0v103h65v500h-65v103h196v-247q44 72 139 72q65 0 105 -33q34 -28 45 -65.5t11 -91.5v-238h65v-103h-251v103h53v213q0 104 -74 104q-93 0 -93 -120v-197h53v-103h-249z" />
<glyph unicode="&#x126;" horiz-adv-x="688" d="M21 0v103h68v382h-66v63h66v55h-68v103h267v-103h-65v-55h242v55h-67v103h266v-103h-65v-55h63v-63h-63v-382h65v-103h-266v103h67v215h-242v-215h65v-103h-267zM223 422h242v63h-242v-63z" />
<glyph unicode="&#x127;" horiz-adv-x="604" d="M22 0v103h65v441h-63v53h63v27h-65v82h196v-109h142v-53h-142v-97q44 72 139 72q65 0 105 -33q34 -28 45 -65.5t11 -91.5v-226h65v-103h-251v103h53v201q0 104 -74 104q-93 0 -93 -120v-185h53v-103h-249z" />
<glyph unicode="&#x12a;" horiz-adv-x="313" d="M-3 784v84h318v-84h-318zM21 0v103h66v500h-66v103h268v-103h-66v-500h66v-103h-268z" />
<glyph unicode="&#x12b;" horiz-adv-x="313" d="M12 622v81h288v-81h-288zM27 0v103h67v312h-67v103h201v-415h66v-103h-267z" />
<glyph unicode="&#x12e;" horiz-adv-x="313" d="M21 0v103h66v500h-66v103h268v-103h-66v-500h66v-103h-88q-48 -42 -48 -84q0 -29 16.5 -44t44.5 -15q20 0 42 12l21 -64q-42 -22 -82 -22q-48 0 -84 27.5t-36 77.5q0 60 50 112h-104z" />
<glyph unicode="&#x12f;" horiz-adv-x="313" d="M27 0v103h67v312h-67v103h201v-415h66v-103h-93q-48 -42 -48 -84q0 -29 16.5 -44t44.5 -15q20 0 42 12l21 -64q-42 -22 -82 -22q-48 0 -84 27.5t-36 77.5q0 60 50 112h-98zM71 594v112h157v-112h-157z" />
<glyph unicode="&#x130;" horiz-adv-x="313" d="M21 0v103h66v500h-66v103h268v-103h-66v-500h66v-103h-268zM96 782v110h120v-110h-120z" />
<glyph unicode="&#x131;" horiz-adv-x="313" d="M27 0v103h67v312h-67v103h201v-415h66v-103h-267z" />
<glyph unicode="&#x134;" horiz-adv-x="417" d="M3 13v118q75 -30 114 -30q83 0 83 93v409h-64v103h265v-103h-66v-409q0 -101 -45.5 -153t-147.5 -52q-65 0 -139 24zM88 775l105 131h145l102 -131h-98l-77 63l-80 -63h-97z" />
<glyph unicode="&#x135;" horiz-adv-x="292" d="M-47 -107q44 -14 67 -14q38 0 50.5 22.5t12.5 64.5v449h-69v103h204v-575q0 -85 -36 -128t-120 -43q-41 0 -109 17v104zM-33 601l85 151h134l82 -151h-88l-61 75l-63 -75h-89z" />
<glyph unicode="&#x136;" horiz-adv-x="646" d="M24 0v103h66v500h-66v103h253v-103h-54v-206l202 206h-54v103h239v-103h-47l-178 -180l185 -320h52v-103h-259v103h54l-126 230l-68 -66v-164h54v-103h-253zM240 -214l46 161h120l-90 -161h-76z" />
<glyph unicode="&#x137;" horiz-adv-x="604" d="M25 0v103h63v500h-63v103h193v-415l133 125h-46v102h243v-103h-59l-93 -84l139 -228h44v-103h-244v103h50l-85 150l-82 -76v-74h47v-103h-240zM219 -214l46 161h120l-90 -161h-76z" />
<glyph unicode="&#x139;" horiz-adv-x="521" d="M21 0v103h66v500h-66v103h264v-103h-65v-500h159v149h110v-252h-468zM65 775l115 125h177l-170 -125h-122z" />
<glyph unicode="&#x13a;" horiz-adv-x="313" d="M20 0v103h67v500h-67v103h200v-603h64v-103h-264zM41 775l115 125h177l-170 -125h-122z" />
<glyph unicode="&#x13b;" horiz-adv-x="521" d="M21 0v103h66v500h-66v103h264v-103h-65v-500h159v149h110v-252h-468zM177 -214l46 161h120l-90 -161h-76z" />
<glyph unicode="&#x13c;" horiz-adv-x="313" d="M20 0v103h67v500h-67v103h200v-603h64v-103h-264zM73 -214l46 161h120l-90 -161h-76z" />
<glyph unicode="&#x13d;" horiz-adv-x="521" d="M21 0v103h66v500h-66v103h264v-103h-65v-500h159v149h110v-252h-468zM307 566l46 161h120l-90 -161h-76z" />
<glyph unicode="&#x13e;" horiz-adv-x="313" d="M20 0v103h67v500h-67v103h200v-603h64v-103h-264zM248 566l46 161h120l-90 -161h-76z" />
<glyph unicode="&#x13f;" horiz-adv-x="521" d="M21 0v103h66v500h-66v103h264v-103h-65v-500h159v149h110v-252h-468zM325 302v158h161v-158h-161z" />
<glyph unicode="&#x140;" horiz-adv-x="359" d="M20 0v103h67v500h-67v103h200v-603h64v-103h-264zM260 300v149h150v-149h-150z" />
<glyph unicode="&#x141;" horiz-adv-x="521" d="M19 234v109l69 38v222h-67v103h264v-103h-64v-150l157 90v-106l-157 -86v-248h158v149h110v-252h-467v103h65v170z" />
<glyph unicode="&#x142;" horiz-adv-x="313" d="M15 266v103l72 46v188h-68v103h201v-207l68 43v-101l-68 -44v-294h63v-103h-263v103h67v209z" />
<glyph unicode="&#x143;" horiz-adv-x="667" d="M15 0v103h65v500h-65v103h271l189 -603v500h-58v103h236v-103h-68v-603h-202l-189 603v-500h61v-103h-240zM218 775l115 125h177l-170 -125h-122z" />
<glyph unicode="&#x144;" horiz-adv-x="604" d="M26 0v103h68v312h-68v103h185l8 -65q42 78 138 78q85 0 123.5 -42.5t38.5 -126.5v-259h65v-103h-248v103h49v241q0 36 -17.5 57t-52.5 21q-37 0 -63 -24.5t-26 -61.5v-233h53v-103h-253zM217 601l63 170h147l-107 -170h-103z" />
<glyph unicode="&#x145;" horiz-adv-x="667" d="M15 0v103h65v500h-65v103h271l189 -603v500h-58v103h236v-103h-68v-603h-202l-189 603v-500h61v-103h-240zM250 -214l46 161h120l-90 -161h-76z" />
<glyph unicode="&#x146;" horiz-adv-x="604" d="M26 0v103h68v312h-68v103h185l8 -65q42 78 138 78q85 0 123.5 -42.5t38.5 -126.5v-259h65v-103h-248v103h49v241q0 36 -17.5 57t-52.5 21q-37 0 -63 -24.5t-26 -61.5v-233h53v-103h-253zM219 -214l46 161h120l-90 -161h-76z" />
<glyph unicode="&#x147;" horiz-adv-x="667" d="M15 0v103h65v500h-65v103h271l189 -603v500h-58v103h236v-103h-68v-603h-202l-189 603v-500h61v-103h-240zM158 906h98l77 -63l80 63h97l-105 -131h-145z" />
<glyph unicode="&#x148;" horiz-adv-x="604" d="M26 0v103h68v312h-68v103h185l8 -65q42 78 138 78q85 0 123.5 -42.5t38.5 -126.5v-259h65v-103h-248v103h49v241q0 36 -17.5 57t-52.5 21q-37 0 -63 -24.5t-26 -61.5v-233h53v-103h-253zM142 752h88l61 -75l63 75h89l-85 -151h-134z" />
<glyph unicode="&#x14c;" horiz-adv-x="667" d="M35 355q0 77 17 141t51.5 115.5t93.5 80.5t138 29t137.5 -31t91.5 -84.5t49 -117.5t16 -139q0 -161 -74 -262.5t-220 -101.5q-81 0 -140.5 29.5t-93.5 82.5t-50 117t-16 141zM170 359q0 -45 7 -87t23 -85t49.5 -69.5t80.5 -26.5t81 25.5t50.5 67t23.5 82.5t7 84 q0 45 -6 85t-21 83t-48 69t-80 26q-48 0 -83 -23.5t-52 -63.5t-24.5 -80.5t-7.5 -86.5zM174 784v84h318v-84h-318z" />
<glyph unicode="&#x14d;" horiz-adv-x="562" d="M35 252q0 127 59 203t184 76q127 0 188 -71.5t61 -198.5q0 -124 -62 -200t-182 -76q-125 0 -186.5 70t-61.5 197zM137 622v81h288v-81h-288zM170 256q0 -171 110 -171q111 0 111 168q0 35 -3.5 61.5t-14 56t-34 45.5t-58.5 16q-111 0 -111 -176z" />
<glyph unicode="&#x150;" horiz-adv-x="667" d="M35 355q0 77 17 141t51.5 115.5t93.5 80.5t138 29t137.5 -31t91.5 -84.5t49 -117.5t16 -139q0 -161 -74 -262.5t-220 -101.5q-81 0 -140.5 29.5t-93.5 82.5t-50 117t-16 141zM144 775l115 125h163l-170 -125h-108zM170 359q0 -45 7 -87t23 -85t49.5 -69.5t80.5 -26.5 t81 25.5t50.5 67t23.5 82.5t7 84q0 45 -6 85t-21 83t-48 69t-80 26q-48 0 -83 -23.5t-52 -63.5t-24.5 -80.5t-7.5 -86.5zM344 775l115 125h163l-170 -125h-108z" />
<glyph unicode="&#x151;" horiz-adv-x="562" d="M35 252q0 127 59 203t184 76q127 0 188 -71.5t61 -198.5q0 -124 -62 -200t-182 -76q-125 0 -186.5 70t-61.5 197zM142 601l63 170h131l-107 -170h-87zM170 256q0 -171 110 -171q111 0 111 168q0 35 -3.5 61.5t-14 56t-34 45.5t-58.5 16q-111 0 -111 -176zM306 601l63 170 h131l-107 -170h-87z" />
<glyph unicode="&#x152;" horiz-adv-x="917" d="M37 338q0 161 55 256q66 114 234 114q20 0 50.5 -1t42.5 -1h450v-238h-112v130h-192v-176h166v-106h-166v-213h192v148h112v-251h-438q-20 0 -59 -2t-69 -2q-104 0 -164 48q-102 82 -102 294zM172 348q0 -65 17.5 -131t57.5 -96q33 -24 107 -24q27 0 79 4v501l-75 3 q-55 0 -91 -15t-61 -59q-34 -58 -34 -183z" />
<glyph unicode="&#x153;" horiz-adv-x="896" d="M35 254q0 125 58 201t178 76q59 0 101 -23t78 -72q64 96 180 96q110 0 171.5 -73t61.5 -193v-24h-351q2 -31 6.5 -54.5t15.5 -51.5t35 -43.5t59 -15.5q74 0 95 94h132q-10 -92 -69 -139t-155 -47q-120 0 -182 86q-57 -87 -180 -87q-118 0 -176 74.5t-58 195.5zM168 249 q0 -170 110 -170q33 0 56 18t33.5 48.5t15 59t4.5 60.5q0 41 -7.5 75.5t-33 63.5t-66.5 29q-34 0 -57.5 -17.5t-34.5 -47.5t-15.5 -58.5t-4.5 -60.5zM519 327h205q-8 56 -28.5 82.5t-71.5 26.5q-47 0 -73 -30t-32 -79z" />
<glyph unicode="&#x154;" horiz-adv-x="646" d="M22 0v103h66v500h-66v103h350q191 0 191 -176q0 -69 -33 -114.5t-99 -54.5q21 -2 36.5 -7.5t26 -17t17 -19.5t11.5 -28.5t7 -31t7 -38.5l19 -116h59v-103h-175l-37 213q-10 55 -28.5 75t-69.5 20h-82v-205h68v-103h-268zM177 775l115 125h177l-170 -125h-122zM222 413 h106q101 0 101 94q0 96 -99 96h-108v-190z" />
<glyph unicode="&#x155;" horiz-adv-x="417" d="M28 0v103h66v312h-66v103h183l6 -103q35 113 148 113q24 0 36 -1v-126q-30 7 -52 7q-60 0 -90.5 -40t-30.5 -102v-163h67v-103h-267zM104 601l63 170h147l-107 -170h-103z" />
<glyph unicode="&#x158;" horiz-adv-x="646" d="M22 0v103h66v500h-66v103h350q191 0 191 -176q0 -69 -33 -114.5t-99 -54.5q21 -2 36.5 -7.5t26 -17t17 -19.5t11.5 -28.5t7 -31t7 -38.5l19 -116h59v-103h-175l-37 213q-10 55 -28.5 75t-69.5 20h-82v-205h68v-103h-268zM107 906h98l77 -63l80 63h97l-105 -131h-145z M222 413h106q101 0 101 94q0 96 -99 96h-108v-190z" />
<glyph unicode="&#x159;" horiz-adv-x="417" d="M28 0v103h66v312h-66v103h183l6 -103q35 113 148 113q24 0 36 -1v-126q-30 7 -52 7q-60 0 -90.5 -40t-30.5 -102v-163h67v-103h-267zM59 752h88l61 -75l63 75h89l-85 -151h-134z" />
<glyph unicode="&#x15a;" d="M54 0v251h111q10 -82 47.5 -119.5t90.5 -37.5q42 0 71.5 24.5t29.5 67.5q0 37 -25 61.5t-85 47.5l-60 23q-91 35 -132.5 80t-41.5 119q0 94 61.5 146t147.5 52q35 0 61 -6.5t42.5 -20.5t24 -22.5t17.5 -25.5l2 62h108v-238h-111q-1 16 -6 36t-17.5 46.5t-40.5 43.5 t-67 17q-41 0 -64.5 -22.5t-23.5 -53.5q0 -33 26 -55t74 -41l90 -35q155 -60 155 -203q0 -92 -59 -149t-156 -57q-46 0 -82 14.5t-48.5 26t-28.5 30.5l-2 -62h-109zM176 775l115 125h177l-170 -125h-122z" />
<glyph unicode="&#x15b;" horiz-adv-x="479" d="M34 -4v186h100q4 -41 36.5 -74t75.5 -33q29 0 49.5 16t20.5 42q0 22 -16 34.5t-68 31.5l-73 26q-23 8 -37.5 15.5t-37.5 24t-35 43.5t-12 62q0 67 46 113.5t123 46.5q82 0 133 -63l2 46h83v-178h-101q-2 44 -26 73.5t-66 29.5q-26 0 -45.5 -13.5t-19.5 -38.5 q0 -16 9 -27.5t19.5 -17t27.5 -11.5l97 -36q23 -9 40 -18t37 -26.5t31 -45t11 -62.5q0 -77 -52 -117.5t-124 -40.5q-36 0 -66.5 12t-43 22.5t-29.5 27.5l-2 -50h-87zM145 601l63 170h147l-107 -170h-103z" />
<glyph unicode="&#x15c;" d="M54 0v251h111q10 -82 47.5 -119.5t90.5 -37.5q42 0 71.5 24.5t29.5 67.5q0 37 -25 61.5t-85 47.5l-60 23q-91 35 -132.5 80t-41.5 119q0 94 61.5 146t147.5 52q35 0 61 -6.5t42.5 -20.5t24 -22.5t17.5 -25.5l2 62h108v-238h-111q-1 16 -6 36t-17.5 46.5t-40.5 43.5 t-67 17q-41 0 -64.5 -22.5t-23.5 -53.5q0 -33 26 -55t74 -41l90 -35q155 -60 155 -203q0 -92 -59 -149t-156 -57q-46 0 -82 14.5t-48.5 26t-28.5 30.5l-2 -62h-109zM116 775l105 131h145l102 -131h-98l-77 63l-80 -63h-97z" />
<glyph unicode="&#x15d;" horiz-adv-x="479" d="M34 -4v186h100q4 -41 36.5 -74t75.5 -33q29 0 49.5 16t20.5 42q0 22 -16 34.5t-68 31.5l-73 26q-23 8 -37.5 15.5t-37.5 24t-35 43.5t-12 62q0 67 46 113.5t123 46.5q82 0 133 -63l2 46h83v-178h-101q-2 44 -26 73.5t-66 29.5q-26 0 -45.5 -13.5t-19.5 -38.5 q0 -16 9 -27.5t19.5 -17t27.5 -11.5l97 -36q23 -9 40 -18t37 -26.5t31 -45t11 -62.5q0 -77 -52 -117.5t-124 -40.5q-36 0 -66.5 12t-43 22.5t-29.5 27.5l-2 -50h-87zM89 601l85 151h134l82 -151h-88l-61 75l-63 -75h-89z" />
<glyph unicode="&#x15e;" d="M54 0v251h111q10 -82 47.5 -119.5t90.5 -37.5q42 0 71.5 24.5t29.5 67.5q0 37 -25 61.5t-85 47.5l-60 23q-91 35 -132.5 80t-41.5 119q0 94 61.5 146t147.5 52q35 0 61 -6.5t42.5 -20.5t24 -22.5t17.5 -25.5l2 62h108v-238h-111q-1 16 -6 36t-17.5 46.5t-40.5 43.5 t-67 17q-41 0 -64.5 -22.5t-23.5 -53.5q0 -33 26 -55t74 -41l90 -35q155 -60 155 -203q0 -91 -58.5 -148t-154.5 -58l-19 -59q13 6 30 6q37 0 58.5 -22t21.5 -60q0 -44 -26.5 -67t-69.5 -23t-69.5 21.5t-29.5 61.5l70 3q0 -13 7.5 -21.5t20.5 -8.5t21 8.5t8 22.5 q0 33 -27 33q-16 0 -20 -12l-69 9l33 114q-60 13 -101 65l-2 -62h-109z" />
<glyph unicode="&#x15f;" horiz-adv-x="479" d="M34 -4v186h100q4 -41 36.5 -74t75.5 -33q29 0 49.5 16t20.5 42q0 22 -16 34.5t-68 31.5l-73 26q-23 8 -37.5 15.5t-37.5 24t-35 43.5t-12 62q0 67 46 113.5t123 46.5q82 0 133 -63l2 46h83v-178h-101q-2 44 -26 73.5t-66 29.5q-26 0 -45.5 -13.5t-19.5 -38.5 q0 -16 9 -27.5t19.5 -17t27.5 -11.5l97 -36q23 -9 40 -18t37 -26.5t31 -45t11 -62.5q0 -77 -52 -117.5t-124 -40.5h-6l-16 -50q12 6 28 6q34 0 54.5 -21.5t20.5 -58.5q0 -43 -24.5 -65.5t-65.5 -22.5t-65.5 21t-27.5 60l66 3q0 -29 26 -29q27 0 27 30q0 32 -25 32 q-14 0 -19 -12l-65 9l30 108q-39 12 -77 52l-2 -50h-87z" />
<glyph unicode="&#x160;" d="M54 0v251h111q10 -82 47.5 -119.5t90.5 -37.5q42 0 71.5 24.5t29.5 67.5q0 37 -25 61.5t-85 47.5l-60 23q-91 35 -132.5 80t-41.5 119q0 94 61.5 146t147.5 52q35 0 61 -6.5t42.5 -20.5t24 -22.5t17.5 -25.5l2 62h108v-238h-111q-1 16 -6 36t-17.5 46.5t-40.5 43.5 t-67 17q-41 0 -64.5 -22.5t-23.5 -53.5q0 -33 26 -55t74 -41l90 -35q155 -60 155 -203q0 -92 -59 -149t-156 -57q-46 0 -82 14.5t-48.5 26t-28.5 30.5l-2 -62h-109zM127 906h98l77 -63l80 63h97l-105 -131h-145z" />
<glyph unicode="&#x161;" horiz-adv-x="479" d="M34 -4v186h100q4 -41 36.5 -74t75.5 -33q29 0 49.5 16t20.5 42q0 22 -16 34.5t-68 31.5l-73 26q-23 8 -37.5 15.5t-37.5 24t-35 43.5t-12 62q0 67 46 113.5t123 46.5q82 0 133 -63l2 46h83v-178h-101q-2 44 -26 73.5t-66 29.5q-26 0 -45.5 -13.5t-19.5 -38.5 q0 -16 9 -27.5t19.5 -17t27.5 -11.5l97 -36q23 -9 40 -18t37 -26.5t31 -45t11 -62.5q0 -77 -52 -117.5t-124 -40.5q-36 0 -66.5 12t-43 22.5t-29.5 27.5l-2 -50h-87zM95 752h88l61 -75l63 75h89l-85 -151h-134z" />
<glyph unicode="&#x162;" horiz-adv-x="604" d="M21 468v238h562v-238h-110v132h-105v-497h63v-103h-261v103h65v497h-105v-132h-109zM219 -214l46 161h120l-90 -161h-76z" />
<glyph unicode="&#x163;" horiz-adv-x="333" d="M9 415v103h72v121l124 29v-150h102v-103h-102v-250q0 -35 10.5 -50.5t44.5 -15.5q15 0 41 6v-99q-43 -9 -86 -9q-73 0 -107 29t-34 99v290h-65zM93 -214l46 161h120l-90 -161h-76z" />
<glyph unicode="&#x164;" horiz-adv-x="604" d="M21 468v238h562v-238h-110v132h-105v-497h63v-103h-261v103h65v497h-105v-132h-109zM126 906h98l77 -63l80 63h97l-105 -131h-145z" />
<glyph unicode="&#x165;" horiz-adv-x="333" d="M9 415v103h72v121l124 29v-150h102v-103h-102v-250q0 -35 10.5 -50.5t44.5 -15.5q15 0 41 6v-99q-43 -9 -86 -9q-73 0 -107 29t-34 99v290h-65zM237 566l46 161h120l-90 -161h-76z" />
<glyph unicode="&#x16a;" horiz-adv-x="625" d="M10 603v103h256v-103h-60v-390q0 -55 26 -86t80 -31q109 0 109 115v392h-63v103h259v-103h-64v-375q0 -241 -233 -241q-66 0 -114.5 18t-73.5 43t-39 62t-17 63.5t-3 60.5v369h-63zM153 784v84h318v-84h-318z" />
<glyph unicode="&#x16b;" d="M10 415v103h199v-342q0 -36 17 -60.5t52 -24.5q42 0 61 29t19 72v223h-65v103h198v-415h63v-103h-185l-4 59q-28 -39 -57.5 -56.5t-74.5 -17.5q-75 0 -117 37t-42 113v280h-64zM147 622v81h288v-81h-288z" />
<glyph unicode="&#x16c;" horiz-adv-x="625" d="M10 603v103h256v-103h-60v-390q0 -55 26 -86t80 -31q109 0 109 115v392h-63v103h259v-103h-64v-375q0 -241 -233 -241q-66 0 -114.5 18t-73.5 43t-39 62t-17 63.5t-3 60.5v369h-63zM156 887h85q10 -56 69 -56q58 0 69 56h89q-5 -60 -45 -95.5t-112 -35.5q-143 0 -155 131 z" />
<glyph unicode="&#x16d;" d="M10 415v103h199v-342q0 -36 17 -60.5t52 -24.5q42 0 61 29t19 72v223h-65v103h198v-415h63v-103h-185l-4 59q-28 -39 -57.5 -56.5t-74.5 -17.5q-75 0 -117 37t-42 113v280h-64zM148 731h80q12 -57 61 -57q29 0 42 15t19 42h84q-5 -60 -42.5 -95.5t-101.5 -35.5t-100.5 35 t-41.5 96z" />
<glyph unicode="&#x16e;" horiz-adv-x="625" d="M10 603v103h256v-103h-60v-390q0 -55 26 -86t80 -31q109 0 109 115v392h-63v103h259v-103h-64v-375q0 -241 -233 -241q-66 0 -114.5 18t-73.5 43t-39 62t-17 63.5t-3 60.5v369h-63zM229 830q0 34 23.5 57.5t59.5 23.5q35 0 58.5 -24t23.5 -57q0 -34 -23.5 -58t-58.5 -24 q-36 0 -59.5 24t-23.5 58zM276 830q0 -16 10 -26.5t26 -10.5q15 0 25 11t10 26q0 16 -10 27t-25 11q-16 0 -26 -11t-10 -27z" />
<glyph unicode="&#x16f;" d="M10 415v103h199v-342q0 -36 17 -60.5t52 -24.5q42 0 61 29t19 72v223h-65v103h198v-415h63v-103h-185l-4 59q-28 -39 -57.5 -56.5t-74.5 -17.5q-75 0 -117 37t-42 113v280h-64zM193 687q0 42 28 68.5t70 26.5q44 0 71.5 -26t27.5 -69q0 -42 -28 -68.5t-71 -26.5 q-39 0 -68.5 28t-29.5 67zM249 687q0 -17 12.5 -30t29.5 -13q18 0 31 12.5t13 30.5t-12.5 30.5t-30.5 12.5t-30.5 -12.5t-12.5 -30.5z" />
<glyph unicode="&#x170;" horiz-adv-x="625" d="M10 603v103h256v-103h-60v-390q0 -55 26 -86t80 -31q109 0 109 115v392h-63v103h259v-103h-64v-375q0 -241 -233 -241q-66 0 -114.5 18t-73.5 43t-39 62t-17 63.5t-3 60.5v369h-63zM143 775l115 125h163l-170 -125h-108zM343 775l115 125h163l-170 -125h-108z" />
<glyph unicode="&#x171;" d="M10 415v103h199v-342q0 -36 17 -60.5t52 -24.5q42 0 61 29t19 72v223h-65v103h198v-415h63v-103h-185l-4 59q-28 -39 -57.5 -56.5t-74.5 -17.5q-75 0 -117 37t-42 113v280h-64zM112 601l63 170h131l-107 -170h-87zM276 601l63 170h131l-107 -170h-87z" />
<glyph unicode="&#x172;" horiz-adv-x="625" d="M10 603v103h256v-103h-60v-390q0 -55 26 -86t80 -31q109 0 109 115v392h-63v103h259v-103h-64v-375q0 -219 -194 -239q-36 -36 -36 -73q0 -29 16.5 -44t44.5 -15q20 0 42 12l21 -64q-42 -22 -82 -22q-48 0 -84 27.5t-36 77.5q0 54 39 100q-57 4 -98 24t-62.5 44.5 t-33.5 60t-14.5 60.5t-2.5 57v369h-63z" />
<glyph unicode="&#x173;" d="M10 415v103h199v-342q0 -36 17 -60.5t52 -24.5q42 0 61 29t19 72v223h-65v103h198v-415h63v-103h-66q-48 -42 -48 -84q0 -29 16.5 -44t44.5 -15q20 0 42 12l21 -64q-42 -22 -82 -22q-48 0 -84 27.5t-36 77.5q0 60 50 112h-43l-4 59q-28 -39 -57.5 -56.5t-74.5 -17.5 q-75 0 -117 37t-42 113v280h-64z" />
<glyph unicode="&#x178;" horiz-adv-x="604" d="M16 603v103h262v-103h-74l108 -244l108 244h-72v103h241v-103h-44l-175 -368v-132h64v-103h-258v103h62v132l-174 368h-48zM147 782v110h121v-110h-121zM334 782v110h120v-110h-120z" />
<glyph unicode="&#x179;" d="M62 0v103l324 500h-203v-136h-112v239h467v-103l-320 -498h210v146h110v-251h-476zM202 775l115 125h177l-170 -125h-122z" />
<glyph unicode="&#x17a;" horiz-adv-x="500" d="M32 0v97l273 328h-157v-87h-111v180h421v-105l-268 -323h157v92h111v-182h-426zM175 601l63 170h147l-107 -170h-103z" />
<glyph unicode="&#x17b;" d="M62 0v103l324 500h-203v-136h-112v239h467v-103l-320 -498h210v146h110v-251h-476zM231 782v110h120v-110h-120z" />
<glyph unicode="&#x17c;" horiz-adv-x="500" d="M32 0v97l273 328h-157v-87h-111v180h421v-105l-268 -323h157v92h111v-182h-426zM189 622v109h121v-109h-121z" />
<glyph unicode="&#x17d;" d="M62 0v103l324 500h-203v-136h-112v239h467v-103l-320 -498h210v146h110v-251h-476zM117 906h98l77 -63l80 63h97l-105 -131h-145z" />
<glyph unicode="&#x17e;" horiz-adv-x="500" d="M32 0v97l273 328h-157v-87h-111v180h421v-105l-268 -323h157v92h111v-182h-426zM96 752h88l61 -75l63 75h89l-85 -151h-134z" />
<glyph unicode="&#x218;" d="M54 0v251h111q10 -82 47.5 -119.5t90.5 -37.5q42 0 71.5 24.5t29.5 67.5q0 37 -25 61.5t-85 47.5l-60 23q-91 35 -132.5 80t-41.5 119q0 94 61.5 146t147.5 52q35 0 61 -6.5t42.5 -20.5t24 -22.5t17.5 -25.5l2 62h108v-238h-111q-1 16 -6 36t-17.5 46.5t-40.5 43.5 t-67 17q-41 0 -64.5 -22.5t-23.5 -53.5q0 -33 26 -55t74 -41l90 -35q155 -60 155 -203q0 -92 -59 -149t-156 -57q-46 0 -82 14.5t-48.5 26t-28.5 30.5l-2 -62h-109zM208 -214l46 161h120l-90 -161h-76z" />
<glyph unicode="&#x219;" horiz-adv-x="479" d="M34 -4v186h100q4 -41 36.5 -74t75.5 -33q29 0 49.5 16t20.5 42q0 22 -16 34.5t-68 31.5l-73 26q-23 8 -37.5 15.5t-37.5 24t-35 43.5t-12 62q0 67 46 113.5t123 46.5q82 0 133 -63l2 46h83v-178h-101q-2 44 -26 73.5t-66 29.5q-26 0 -45.5 -13.5t-19.5 -38.5 q0 -16 9 -27.5t19.5 -17t27.5 -11.5l97 -36q23 -9 40 -18t37 -26.5t31 -45t11 -62.5q0 -77 -52 -117.5t-124 -40.5q-36 0 -66.5 12t-43 22.5t-29.5 27.5l-2 -50h-87zM156 -214l46 161h120l-90 -161h-76z" />
<glyph unicode="&#x21a;" horiz-adv-x="604" d="M21 468v238h562v-238h-110v132h-105v-497h63v-103h-261v103h65v497h-105v-132h-109zM219 -214l46 161h120l-90 -161h-76z" />
<glyph unicode="&#x21b;" horiz-adv-x="333" d="M9 415v103h72v121l124 29v-150h102v-103h-102v-250q0 -35 10.5 -50.5t44.5 -15.5q15 0 41 6v-99q-43 -9 -86 -9q-73 0 -107 29t-34 99v290h-65zM93 -214l46 161h120l-90 -161h-76z" />
<glyph unicode="&#x2c6;" horiz-adv-x="292" d="M-5 601l85 151h134l82 -151h-88l-61 75l-63 -75h-89z" />
<glyph unicode="&#x2da;" horiz-adv-x="292" d="M47 687q0 42 28 68.5t70 26.5q44 0 71.5 -26t27.5 -69q0 -42 -28 -68.5t-71 -26.5q-39 0 -68.5 28t-29.5 67zM103 687q0 -17 12.5 -30t29.5 -13q18 0 31 12.5t13 30.5t-12.5 30.5t-30.5 12.5t-30.5 -12.5t-12.5 -30.5z" />
<glyph unicode="&#x2dc;" horiz-adv-x="292" d="M-8 606q0 26 2 45t9 42.5t24.5 36.5t43.5 13q33 0 80 -26t54 -26q5 0 9 1.5t6 5t3.5 6t2.5 8.5t1 8.5t0.5 9.5t0.5 9h72q0 -64 -18.5 -98t-63.5 -34q-32 0 -74.5 25.5t-55.5 25.5q-14 0 -18 -12.5t-4 -39.5h-74z" />
<glyph unicode="&#x37e;" horiz-adv-x="333" d="M72 -104l67 230h158l-122 -230h-103zM125 370v148h149v-148h-149z" />
<glyph unicode="&#x394;" horiz-adv-x="666" d="M5 0l259 706h143l254 -706h-656zM184 108h300l-152 455z" />
<glyph unicode="&#x3a9;" horiz-adv-x="660" d="M31 0v103h161q-147 99 -147 293q0 149 79 236.5t214 87.5q130 0 203 -84.5t73 -221.5q0 -195 -150 -310h164v-104h-254v106q104 83 104 272q0 110 -38.5 171.5t-108.5 61.5q-72 0 -111 -62t-39 -177q0 -192 104 -267v-105h-254z" />
<glyph unicode="&#x3bc;" d="M11 414v103h198v-325q0 -101 71 -101q77 0 77 104v219h-64v103h198v-414h63v-103h-185l-5 59q-40 -69 -94 -69q-17 0 -29.5 5.5t-18 10t-13.5 14.5v-229h-134v623h-64z" />
<glyph unicode="&#x3c0;" horiz-adv-x="547" d="M19 0v104h55v310h-53v105h505v-105h-56v-247q0 -41 10.5 -52.5t44.5 -11.5h8v-103q-24 -1 -63 -1q-79 0 -104.5 25.5t-25.5 102.5v287h-136v-310h51v-104h-236z" />
<glyph unicode="&#x2000;" horiz-adv-x="455" />
<glyph unicode="&#x2001;" horiz-adv-x="911" />
<glyph unicode="&#x2002;" horiz-adv-x="455" />
<glyph unicode="&#x2003;" horiz-adv-x="911" />
<glyph unicode="&#x2004;" horiz-adv-x="303" />
<glyph unicode="&#x2005;" horiz-adv-x="227" />
<glyph unicode="&#x2006;" horiz-adv-x="151" />
<glyph unicode="&#x2007;" horiz-adv-x="151" />
<glyph unicode="&#x2008;" horiz-adv-x="113" />
<glyph unicode="&#x2009;" horiz-adv-x="182" />
<glyph unicode="&#x200a;" horiz-adv-x="50" />
<glyph unicode="&#x2010;" horiz-adv-x="437" d="M35 220v123h367v-123h-367z" />
<glyph unicode="&#x2011;" horiz-adv-x="437" d="M35 220v123h367v-123h-367z" />
<glyph unicode="&#x2012;" horiz-adv-x="437" d="M35 220v123h367v-123h-367z" />
<glyph unicode="&#x2013;" horiz-adv-x="604" d="M35 220v123h534v-123h-534z" />
<glyph unicode="&#x2014;" horiz-adv-x="905" d="M35 220v123h835v-123h-835z" />
<glyph unicode="&#x2018;" horiz-adv-x="292" d="M16 462l126 244h97l-75 -244h-148z" />
<glyph unicode="&#x2019;" horiz-adv-x="292" d="M29 461l72 245h149l-126 -245h-95z" />
<glyph unicode="&#x201a;" horiz-adv-x="293" d="M29 -121l73 246h149l-127 -246h-95z" />
<glyph unicode="&#x201c;" horiz-adv-x="487" d="M16 462l126 244h97l-75 -244h-148zM211 462l126 244h97l-75 -244h-148z" />
<glyph unicode="&#x201d;" horiz-adv-x="489" d="M29 462l75 244h148l-126 -244h-97zM224 462l75 244h148l-126 -244h-97z" />
<glyph unicode="&#x201e;" horiz-adv-x="489" d="M29 -119l75 244h148l-126 -244h-97zM224 -119l75 244h148l-126 -244h-97z" />
<glyph unicode="&#x2022;" horiz-adv-x="305" d="M46 228v220h212v-220h-212z" />
<glyph unicode="&#x2026;" horiz-adv-x="1000" d="M112 0v106h109v-106h-109zM446 0v106h108v-106h-108zM779 0v106h109v-106h-109z" />
<glyph unicode="&#x202f;" horiz-adv-x="182" />
<glyph unicode="&#x2039;" horiz-adv-x="229" d="M30 279l83 166h98l-68 -166l67 -167h-97z" />
<glyph unicode="&#x203a;" horiz-adv-x="229" d="M23 111l67 167l-66 166h96l83 -166l-83 -167h-97z" />
<glyph unicode="&#x205f;" horiz-adv-x="227" />
<glyph unicode="&#x20ac;" horiz-adv-x="647" d="M29 239v87h77q0 45 1 68h-78v87h87q19 121 81.5 181t150.5 60q54 0 88.5 -19t56.5 -66v69h100v-207h-100q-6 58 -37 88.5t-84 30.5q-50 0 -82 -29.5t-43 -107.5h181v-87h-189q-2 -38 -2 -68h191v-87h-186q15 -153 129 -153q93 0 107 128h121q-7 -114 -68.5 -172 t-171.5 -58q-107 0 -169 61.5t-79 193.5h-82z" />
<glyph unicode="&#x2122;" horiz-adv-x="720" d="M14 602v104h272v-104h-50v42h-49v-217h34v-53h-137v53h31v217h-50v-42h-51zM309 374v53h32v225h-32v54h136l58 -203l58 203h134v-54h-29v-225h29v-53h-121v53h26v220l-79 -274h-41l-80 275v-221h26v-53h-117z" />
<glyph unicode="&#x25fc;" horiz-adv-x="520" d="M0 0v520h520v-520h-520z" />
</font>
</defs>
</svg>
