<?xml version="1.0" standalone="no"?>
<!DOCTYPE svg PUBLIC "-//W3C//DTD SVG 1.1//EN" "http://www.w3.org/Graphics/SVG/1.1/DTD/svg11.dtd" >
<svg xmlns="http://www.w3.org/2000/svg">
<metadata></metadata>
<defs>
<font id="boton_pro_regularregular" horiz-adv-x="542" >
<font-face units-per-em="1000" ascent="750" descent="-250" />
<missing-glyph horiz-adv-x="292" />
<glyph unicode="&#xfb01;" d="M24 0v63h74v395h-74v63h74v46q0 79 32 116t110 37q21 0 61 -6v-64q-30 6 -46 6q-73 0 -73 -85v-50h270v-458h75v-63h-227v63h69v395h-187v-395h67v-63h-225zM356 625v81h96v-81h-96z" />
<glyph unicode="&#xfb02;" d="M24 0v63h74v395h-74v63h74v48q0 77 31.5 114t110.5 37q16 0 46 -4v-63q-15 3 -32 3q-31 0 -48 -15.5t-20.5 -33.5t-3.5 -48v-38h99v-63h-99v-395h67v-63h-225zM301 0v63h65v580h-47v63h132v-643h73v-63h-223z" />
<glyph horiz-adv-x="1000" />
<glyph horiz-adv-x="1000" />
<glyph unicode="&#xd;" horiz-adv-x="1000" />
<glyph unicode=" "  horiz-adv-x="292" />
<glyph unicode="&#x09;" horiz-adv-x="292" />
<glyph unicode="&#xa0;" horiz-adv-x="292" />
<glyph unicode="!" horiz-adv-x="292" d="M115 0v105h103v-105h-103zM115 706h103l-7 -525h-86q-9 449 -10 525z" />
<glyph unicode="&#x22;" horiz-adv-x="277" d="M36 742h72l-21 -294h-30zM169 742h72l-21 -294h-30z" />
<glyph unicode="#" horiz-adv-x="586" d="M28 242v64h134l15 110h-127v64h136l31 226h64l-31 -226h121l31 226h63l-30 -226h122v-64h-132l-14 -110h126v-64h-135l-33 -242h-64l33 242h-121l-33 -242h-64l33 242h-125zM226 306h121l15 110h-122z" />
<glyph unicode="$" d="M49 0v236h74q6 -64 35.5 -113.5t85.5 -65.5v272q-184 64 -184 202q0 77 51 128.5t133 53.5v97h62v-102q70 -16 108 -78l1 75h68v-222h-74q-11 129 -103 162v-253q46 -18 74.5 -33t58.5 -39t44.5 -58.5t14.5 -80.5q0 -82 -51 -135.5t-141 -57.5v-98h-62v102 q-80 24 -123 85l-3 -77h-69zM136 538q0 -49 26.5 -75t81.5 -49v234q-50 -4 -79 -33t-29 -77zM306 52q51 5 81.5 39t30.5 84q0 52 -28.5 81t-83.5 50v-254z" />
<glyph unicode="%" horiz-adv-x="884" d="M24 487q0 43 9 81.5t28 72.5t54 54.5t83 20.5q50 0 86 -21.5t54 -58t25.5 -72.5t7.5 -76q0 -98 -42 -165t-133 -67q-50 0 -85.5 22t-53.5 58.5t-25.5 73.5t-7.5 77zM88 487q0 -179 109 -179q110 0 110 188q0 42 -8 77t-33.5 63.5t-66.5 28.5q-111 0 -111 -178zM278 0 l273 706h57l-272 -706h-58zM513 220q0 43 9 81.5t28 72.5t54 54.5t83 20.5q50 0 86 -21.5t54 -58t25.5 -72.5t7.5 -76q0 -98 -42 -165t-133 -67q-50 0 -85.5 22t-53.5 58.5t-25.5 73.5t-7.5 77zM577 220q0 -179 109 -179q110 0 110 188q0 42 -8 77t-33.5 63.5t-66.5 28.5 q-111 0 -111 -178z" />
<glyph unicode="&#x26;" horiz-adv-x="688" d="M44 217q0 125 124 193q-54 81 -54 144q0 82 58 124.5t143 42.5q71 0 124 -37t53 -105q0 -24 -6.5 -44.5t-21 -37.5t-28 -29t-37.5 -25t-38.5 -19.5t-42.5 -18.5t-38 -16q101 -106 209 -206q18 43 23 130h80q-3 -63 -11 -101t-32 -85l137 -127h-119l-68 65 q-82 -76 -204 -76q-105 0 -178 62.5t-73 165.5zM127 222q0 -74 51 -121.5t125 -47.5q92 0 146 60q-148 146 -239 243q-83 -44 -83 -134zM195 559q0 -45 44 -114q52 22 78 34q20 9 33 17t28.5 20t23.5 28t8 36q0 38 -28.5 58t-68.5 20q-51 0 -84.5 -25t-33.5 -74z" />
<glyph unicode="'" horiz-adv-x="144" d="M36 742h72l-21 -294h-30z" />
<glyph unicode="(" horiz-adv-x="292" d="M82 265q0 265 82 458h74q-58 -178 -58 -436q0 -254 58 -480h-74q-82 221 -82 458z" />
<glyph unicode=")" horiz-adv-x="292" d="M53 -193q18 65 23 86q35 152 35 352q0 283 -58 477h74q82 -224 82 -457q0 -117 -20.5 -240t-61.5 -218h-74z" />
<glyph unicode="*" horiz-adv-x="396" d="M24 466l111 65l-111 61l31 58l107 -63v119h67v-121l109 66l33 -58l-108 -63l109 -59l-33 -60l-110 65v-124h-67v122l-103 -63z" />
<glyph unicode="+" horiz-adv-x="724" d="M93 270v68h227v233h83v-233h228v-68h-228v-235h-83v235h-227z" />
<glyph unicode="," horiz-adv-x="250" d="M31 -107l55 206h125l-111 -206h-69z" />
<glyph unicode="-" horiz-adv-x="436" d="M34 245v79h368v-79h-368z" />
<glyph unicode="." horiz-adv-x="250" d="M71 0v106h107v-106h-107z" />
<glyph unicode="/" horiz-adv-x="375" d="M-6 -104l307 918h78l-305 -918h-80z" />
<glyph unicode="0" horiz-adv-x="583" d="M29 355q0 172 69.5 269.5t191.5 97.5q59 0 106 -22.5t76 -58t47.5 -85t26 -99t7.5 -103.5q0 -71 -12.5 -132t-41 -117t-83.5 -88.5t-131 -32.5q-126 0 -191 99.5t-65 271.5zM113 360q0 -141 44.5 -225.5t133.5 -84.5q53 0 90 29.5t55 78.5t25 95.5t7 96.5q0 51 -7.5 99 t-25.5 97t-56 79t-91 30q-52 0 -89 -31t-54.5 -80.5t-24.5 -94t-7 -89.5z" />
<glyph unicode="1" horiz-adv-x="583" d="M172 599v68l119 39h56v-643h75v-63h-232v63h73v568z" />
<glyph unicode="2" horiz-adv-x="583" d="M50 0v63q136 152 203 229q3 3 27 31t31 36.5t27 33.5t27.5 38.5t19 34.5t16 38t4.5 34q0 54 -37 86t-92 32q-116 0 -132 -135h-80q8 104 66.5 152.5t147.5 48.5q90 0 148 -46t58 -134q0 -22 -3.5 -43t-14 -43t-16.5 -35.5t-25 -38t-25 -32t-30 -35t-27 -31.5 q-63 -74 -199 -220h273v130h78v-194h-445z" />
<glyph unicode="3" horiz-adv-x="583" d="M33 192h86q4 -68 49.5 -104.5t115.5 -36.5q66 0 105.5 38.5t39.5 103.5q0 72 -46.5 106t-118.5 34h-39v67h36q69 0 111 32.5t42 100.5q0 57 -38.5 89.5t-96.5 32.5q-127 0 -145 -125h-83q8 95 68 143.5t157 48.5t160.5 -46t63.5 -139q0 -67 -38.5 -109.5t-104.5 -57.5 q69 -11 115.5 -59.5t46.5 -116.5q0 -99 -68 -154t-169 -55q-83 0 -145.5 32.5t-88.5 102.5q-9 25 -15 72z" />
<glyph unicode="4" horiz-adv-x="583" d="M35 197v64l253 448h128v-448h139v-64h-139v-134h74v-63h-232v63h77v134h-300zM119 261h216q0 262 2 393z" />
<glyph unicode="5" horiz-adv-x="583" d="M58 193h86q5 -67 44.5 -105.5t105.5 -38.5q68 0 106 44t38 112q0 37 -8 70t-24.5 61.5t-46.5 45.5t-70 17q-72 0 -124 -76l-82 12l30 371h378v-164h-74v101h-233l-20 -236q58 55 145 55q101 0 155.5 -68.5t54.5 -171.5q0 -109 -61.5 -173.5t-169.5 -64.5 q-100 0 -161.5 54.5t-68.5 154.5z" />
<glyph unicode="6" horiz-adv-x="583" d="M56 325q0 57 5.5 107t22 105t43 94.5t73 65t108.5 25.5q177 0 211 -177h-84q-3 50 -40.5 82t-88.5 32q-48 0 -82.5 -28.5t-51.5 -75.5t-25 -89.5t-10 -89.5q62 84 177 84q100 0 163 -64t63 -165q0 -109 -67 -178t-175 -69q-242 0 -242 341zM144 225q0 -73 43.5 -122.5 t115.5 -49.5q70 0 113 49t43 120q0 70 -42.5 121.5t-113.5 51.5t-115 -50t-44 -120z" />
<glyph unicode="7" horiz-adv-x="583" d="M72 528v178h435v-63l-194 -580h75v-63h-234v63h75l194 578h-276v-113h-75z" />
<glyph unicode="8" horiz-adv-x="583" d="M46 185q0 76 47 125.5t122 57.5q-145 36 -145 164q0 94 63 142.5t161 48.5q94 0 158 -49t64 -141q0 -66 -38.5 -108t-105.5 -57q163 -36 163 -180q0 -85 -61.5 -144.5t-180.5 -59.5q-122 0 -184.5 56.5t-62.5 144.5zM134 190q0 -66 44 -104t112 -38q67 0 111 38.5 t44 104.5q0 65 -44.5 102.5t-111.5 37.5t-111 -37.5t-44 -103.5zM153 528q0 -59 39.5 -92.5t100.5 -33.5q62 0 101 32t39 93q0 58 -39.5 95t-98.5 37q-60 0 -101 -35.5t-41 -95.5z" />
<glyph unicode="9" horiz-adv-x="583" d="M40 192h86q9 -65 46 -104.5t100 -39.5q51 0 88 28.5t55 74.5t26 91.5t8 93.5q-69 -90 -181 -90q-102 0 -164.5 65t-62.5 169q0 106 67 174t173 68q72 0 123 -29.5t77 -81t37.5 -108t11.5 -124.5q0 -394 -257 -394q-104 0 -163.5 52t-69.5 155zM122 482q0 -70 43.5 -119 t112.5 -49q72 0 116.5 48.5t44.5 120.5q0 74 -43 123.5t-117 49.5q-71 0 -114 -50.5t-43 -123.5z" />
<glyph unicode=":" horiz-adv-x="292" d="M114 0v105h105v-105h-105zM114 416v105h105v-105h-105z" />
<glyph unicode=";" horiz-adv-x="292" d="M71 -107l55 206h126l-110 -206h-71zM126 416v105h105v-105h-105z" />
<glyph unicode="&#x3c;" horiz-adv-x="724" d="M115 269v75l466 233v-82l-378 -184l378 -187v-87z" />
<glyph unicode="=" horiz-adv-x="724" d="M99 169v72h526v-72h-526zM99 355v72h526v-72h-526z" />
<glyph unicode="&#x3e;" horiz-adv-x="724" d="M143 37v82l378 184l-378 187v87l466 -232v-75z" />
<glyph unicode="?" horiz-adv-x="479" d="M13 481q3 240 227 240q82 0 141 -44.5t59 -123.5q0 -50 -23.5 -90.5t-67.5 -90.5q-11 -13 -27.5 -31t-22.5 -25t-14.5 -18t-11 -18.5t-4.5 -18t-2 -23.5v-63h-83v62q0 43 17 72q15 27 57.5 72t70.5 87t28 84q0 46 -33 73.5t-80 27.5q-76 0 -111.5 -46.5t-35.5 -125.5h-84 zM174 0v103h103v-103h-103z" />
<glyph unicode="@" horiz-adv-x="781" d="M36 304q0 175 117 296.5t287 121.5q137 0 225.5 -84t88.5 -214q0 -113 -65.5 -205.5t-142.5 -92.5q-35 0 -54.5 21t-19.5 59q-51 -79 -131 -79q-55 0 -89 42t-34 111q0 107 61 187t143 80q77 0 103 -71l12 51h57l-49 -229q-11 -53 -11 -78q0 -40 30 -40q17 0 38 16 q44 35 69.5 97t25.5 134q0 107 -71.5 174.5t-184.5 67.5q-148 0 -246 -104.5t-98 -261.5q0 -139 85 -222.5t228 -83.5q86 0 159.5 32t151.5 102l35 -40q-65 -57 -107 -82q-111 -66 -242 -66q-166 0 -268.5 100t-102.5 261zM283 285q0 -49 20 -77t55 -28q56 0 100 69.5 t44 159.5q0 40 -20.5 63t-56.5 23q-58 0 -100 -62.5t-42 -147.5z" />
<glyph unicode="A" horiz-adv-x="625" d="M3 0v63h56l181 580h-53v63h257v-63h-56l176 -580h56v-63h-210v63h68l-48 162h-243l-46 -162h62v-63h-200zM206 285h208l-103 348z" />
<glyph unicode="B" horiz-adv-x="583" d="M19 0v63h74v580h-74v63h297q66 0 109 -18t70 -69q21 -39 21 -91q0 -119 -102 -160q58 -19 87.5 -64.5t29.5 -109.5t-31 -113q-31 -48 -76 -64.5t-111 -16.5h-294zM178 63h134q134 0 134 134q0 66 -40 99.5t-107 33.5h-121v-267zM178 395h89q32 0 57 4.5t51.5 17t41 40 t14.5 68.5q0 121 -143 121h-110v-251z" />
<glyph unicode="C" horiz-adv-x="583" d="M45 343q0 51 5.5 98.5t23 100.5t44.5 91t74.5 63.5t109.5 25.5q118 0 167 -80q1 42 2 64h66v-223h-73q-23 176 -153 176q-44 0 -78 -22t-52.5 -55t-30.5 -78.5t-15.5 -83.5t-3.5 -78q0 -38 4 -74t15.5 -77t29.5 -71t50 -50t74 -20q145 0 160 186h80q-5 -65 -20 -106 q-24 -70 -81 -106.5t-132 -36.5q-61 0 -108.5 20.5t-76.5 53.5t-48 80t-26 96t-7 106z" />
<glyph unicode="D" horiz-adv-x="625" d="M18 0v63h74v580h-74v63h239q111 0 161 -20q87 -35 124.5 -124.5t37.5 -197.5q0 -51 -7.5 -98t-24 -95.5t-49 -87t-76.5 -59.5q-50 -24 -134 -24h-271zM175 63h83q82 0 120 19q64 32 90 108.5t26 165.5q0 88 -26.5 163.5t-91.5 105.5q-40 18 -106 18h-95v-580z" />
<glyph unicode="E" horiz-adv-x="562" d="M21 0v63h73v580h-73v63h484v-221h-75v158h-253v-234h229v-66h-229v-280h253v175h75v-238h-484z" />
<glyph unicode="F" horiz-adv-x="500" d="M22 0v63h71v580h-71v63h451v-221h-77v158h-219v-235h203v-68h-203v-277h74v-63h-229z" />
<glyph unicode="G" horiz-adv-x="646" d="M46 343q0 57 7.5 108t26.5 101.5t48.5 87t78 59t110.5 22.5q103 0 171 -84q2 43 2 69h67v-227h-76q-6 78 -44 126.5t-113 48.5q-46 0 -81.5 -21t-56 -52.5t-33 -74.5t-16.5 -80t-4 -76q0 -49 8 -95.5t27.5 -94t58 -76.5t92.5 -29q169 0 169 232h-168v65h245v-352h-67 l-2 70q-62 -84 -188 -84q-73 0 -127 34t-82 89.5t-40.5 113.5t-12.5 120z" />
<glyph unicode="H" horiz-adv-x="646" d="M18 0v63h75v580h-75v63h233v-63h-74v-236h290v236h-75v63h233v-63h-74v-580h74v-63h-233v63h75v279h-290v-279h74v-63h-233z" />
<glyph unicode="I" horiz-adv-x="271" d="M18 0v63h74v580h-74v63h233v-63h-74v-580h74v-63h-233z" />
<glyph unicode="J" horiz-adv-x="396" d="M0 10v78q83 -36 133 -36q54 0 73.5 30t19.5 88v473h-75v63h233v-63h-74v-478q0 -178 -172 -178q-66 0 -138 23z" />
<glyph unicode="K" horiz-adv-x="604" d="M18 0v63h74v580h-74v63h234v-63h-76v-265l258 265h-70v63h222v-63h-51l-219 -222l219 -358h59v-63h-230v63h70l-176 301l-82 -80v-221h76v-63h-234z" />
<glyph unicode="L" horiz-adv-x="479" d="M20 0v63h74v580h-74v63h232v-63h-75v-580h210v176h75v-239h-442z" />
<glyph unicode="M" horiz-adv-x="792" d="M21 0v63h73v580h-73v63h202l172 -605l169 605h204v-63h-71v-580h71v-63h-217v63h68v580l-180 -643h-89l-187 643v-580h60v-63h-202z" />
<glyph unicode="N" horiz-adv-x="625" d="M20 0v63h73v580h-73v63h209l231 -637v574h-72v63h224v-63h-76v-643h-133l-233 643v-580h72v-63h-222z" />
<glyph unicode="O" horiz-adv-x="625" d="M45 341q0 73 12 135.5t40.5 120t83 91t131.5 33.5q73 0 127 -31t83.5 -84t43 -113.5t13.5 -129.5q0 -57 -7.5 -107.5t-26.5 -101t-48.5 -87t-77.5 -59t-110 -22.5q-72 0 -125 30.5t-82.5 83.5t-43 113t-13.5 128zM129 346q0 -50 8 -96.5t27.5 -93t58 -74.5t92.5 -28 q52 0 89.5 31t56 80.5t26.5 97.5t8 96q0 50 -8.5 97t-28 93.5t-58 75t-91.5 28.5t-90.5 -31t-56 -81t-26 -98t-7.5 -97z" />
<glyph unicode="P" d="M17 0v63h76v580h-76v63h254q41 0 70.5 -4t59.5 -16t52 -35.5t37 -60.5q17 -43 17 -95q0 -104 -56.5 -158t-164.5 -54h-108v-220h73v-63h-234zM178 346h73q87 0 128 31.5t41 116.5q0 77 -37.5 113t-112.5 36h-92v-297z" />
<glyph unicode="Q" horiz-adv-x="625" d="M45 343q0 56 7 106.5t26 101.5t48 88t76.5 60t108.5 23q73 0 127 -30.5t83.5 -83t43.5 -113t14 -130.5q0 -98 -25.5 -188t-86.5 -139q-35 -28 -91 -45q88 -49 180 -93l-68 -59q-167 99 -264 160q-51 17 -88 54.5t-56 87t-27 98.5t-8 102zM129 347q0 -48 8.5 -94.5 t27.5 -93.5t56.5 -76t89.5 -29q54 0 92.5 31t57 81.5t26.5 98.5t8 99q0 47 -8.5 93.5t-27.5 93t-57 75t-89 28.5q-54 0 -92.5 -30.5t-57 -80t-26.5 -97.5t-8 -99z" />
<glyph unicode="R" horiz-adv-x="604" d="M20 0v63h72v580h-72v63h312q192 0 192 -173q0 -132 -130 -166q43 -17 60.5 -41t26.5 -71l36 -192h68v-63h-143l-42 246q-9 52 -35.5 72t-84.5 20h-103v-275h76v-63h-233zM177 403h134q129 0 129 124q0 116 -111 116h-152v-240z" />
<glyph unicode="S" d="M47 0v240h72q8 -82 52 -135.5t121 -53.5q55 0 90.5 36.5t35.5 91.5q0 46 -28 77.5t-62 45t-86.5 32t-79.5 33.5q-105 59 -105 166q0 81 54 134.5t135 53.5q111 0 168 -90q1 47 2 75h66v-223h-73q-7 73 -44 123t-112 50q-51 0 -85 -32t-34 -82q0 -36 14.5 -60t43 -39 t58.5 -25.5t72 -26t73 -33.5q104 -60 104 -175q0 -88 -56 -142t-145 -54q-114 0 -180 90l-2 -77h-69z" />
<glyph unicode="T" horiz-adv-x="562" d="M19 483v223h519v-223h-72v160h-145v-580h74v-63h-229v63h73v580h-146v-160h-74z" />
<glyph unicode="U" horiz-adv-x="604" d="M9 643v63h231v-63h-74v-375q0 -108 21 -150q33 -67 116 -67q89 0 122 75q15 35 15 150v367h-76v63h229v-63h-72v-425q0 -94 -37 -147q-57 -84 -177 -84q-55 0 -102 20.5t-76 57.5q-21 27 -31.5 62.5t-12.5 61.5t-2 72v382h-74z" />
<glyph unicode="V" horiz-adv-x="625" d="M0 643v63h215v-63h-70l167 -565l175 565h-70v63h207v-63h-58l-206 -643h-103l-200 643h-57z" />
<glyph unicode="W" horiz-adv-x="917" d="M-1 643v63h214v-63h-69l124 -556l131 619h118l147 -626l118 563h-68v63h203v-63h-56l-139 -643h-116l-150 632l-134 -632h-116l-146 643h-61z" />
<glyph unicode="X" horiz-adv-x="583" d="M11 0v63h56l184 304l-160 276h-60v63h227v-63h-72l110 -200l117 200h-74v63h221v-63h-60l-161 -271l177 -309h57v-63h-230v63h76l-128 233l-137 -233h75v-63h-218z" />
<glyph unicode="Y" d="M-4 643v63h216v-63h-75l137 -314l140 314h-60v63h194v-63h-51l-186 -394v-186h75v-63h-233v63h75v191l-180 389h-52z" />
<glyph unicode="Z" d="M49 0v63l352 580h-258v-159h-76v222h429v-63l-353 -580h276v178h77v-241h-447z" />
<glyph unicode="[" horiz-adv-x="292" d="M89 -196v919h178v-66h-94v-787h94v-66h-178z" />
<glyph unicode="\" horiz-adv-x="375" d="M-6 814h80l305 -918h-78z" />
<glyph unicode="]" horiz-adv-x="292" d="M23 -130h95v787h-95v66h179v-919h-179v66z" />
<glyph unicode="^" horiz-adv-x="724" d="M119 286l204 420h78l204 -420h-84l-157 340l-157 -340h-88z" />
<glyph unicode="_" horiz-adv-x="500" d="M-10 -147h520v-59h-520v59z" />
<glyph unicode="`" horiz-adv-x="292" d="M64 760h100l65 -154h-64z" />
<glyph unicode="a" horiz-adv-x="521" d="M41 142q0 175 247 175q24 0 60 -2v48q0 104 -94 104q-43 0 -70.5 -23t-31.5 -66h-86q8 56 23 81q45 74 163 74q177 0 177 -181v-289h73v-63h-149l-5 61q-56 -74 -140 -74q-71 0 -119 42.5t-48 112.5zM126 146q0 -43 26 -69t69 -26q54 0 87 35q10 10 17 23t11 21.5t6.5 29 t3 26.5t1.5 34t1 34q-37 5 -73 5q-63 0 -106 -27.5t-43 -85.5z" />
<glyph unicode="b" horiz-adv-x="562" d="M20 0v63h74v580h-74v63h156v-243q21 34 59 52t80 18q55 0 97 -22.5t66 -61.5t35.5 -85t11.5 -99q0 -48 -10 -93.5t-32.5 -88.5t-65 -69t-99.5 -26q-100 0 -151 89l-2 -77h-145zM176 256q0 -34 5.5 -66t19 -63.5t40 -50.5t63.5 -19t64.5 19t42 50t21 64t6.5 68t-6.5 69 t-20.5 67t-42.5 53.5t-67.5 20.5q-37 0 -63 -21t-38.5 -55.5t-18 -67.5t-5.5 -68z" />
<glyph unicode="c" horiz-adv-x="458" d="M39 252q0 51 9.5 97.5t30 89.5t59.5 68.5t93 25.5q44 0 75 -17t59 -53l5 54h63v-179h-71q-5 49 -36 89.5t-77 40.5q-37 0 -63 -21.5t-38.5 -57.5t-18 -69.5t-5.5 -69.5q0 -34 5 -65.5t18 -63t38.5 -50.5t62.5 -19q51 0 79.5 34.5t34.5 88.5h79q-6 -86 -57 -137t-134 -51 q-111 0 -161 73.5t-50 191.5z" />
<glyph unicode="d" horiz-adv-x="562" d="M39 260q0 50 12 97t36 87t66 64.5t95 24.5q45 0 76.5 -17.5t61.5 -54.5v182h-78v63h161v-643h75v-63h-148v71q-54 -83 -153 -83q-53 0 -94 24t-64 64.5t-34.5 87t-11.5 96.5zM126 263q0 -51 11 -95t42 -79t79 -35q36 0 63 21t40.5 54t19.5 66t6 65q0 38 -6 71t-19.5 64 t-40 49t-62.5 18q-38 0 -65.5 -20.5t-41.5 -53t-20 -64t-6 -61.5z" />
<glyph unicode="e" horiz-adv-x="521" d="M37 257q0 119 55.5 197.5t167.5 78.5q117 0 170.5 -76.5t53.5 -199.5h-360v-22q0 -75 35 -128t107 -53q49 0 82 30t42 80h82q-13 -86 -68 -131t-142 -45q-114 0 -169.5 75.5t-55.5 193.5zM126 319h271q-6 64 -40 106.5t-96 42.5t-96 -42.5t-39 -106.5z" />
<glyph unicode="f" horiz-adv-x="292" d="M24 0v63h74v395h-74v63h74v47q0 78 31.5 115t109.5 37q23 0 69 -6v-66q-34 8 -52 8q-74 0 -74 -80v-55h99v-63h-99v-395h76v-63h-234z" />
<glyph unicode="g" d="M38 275q0 67 20 123.5t67.5 95.5t115.5 39q105 0 152 -83l4 71h148v-63h-76v-450q0 -96 -25 -141t-73.5 -67.5t-104.5 -22.5q-85 0 -144.5 41.5t-68.5 122.5h87q4 -46 39.5 -71.5t84.5 -25.5q123 0 123 136v98q-56 -78 -145 -78q-91 0 -147.5 72t-56.5 203zM123 273 q0 -98 38.5 -151t94.5 -53q48 0 79 33.5t42 75t11 88.5q0 96 -36 148t-96 52q-61 0 -97 -55t-36 -138z" />
<glyph unicode="h" horiz-adv-x="583" d="M21 0v63h73v580h-73v63h157v-259q28 46 64 66t91 20q78 0 119 -41t41 -117v-312h71v-63h-227v63h72v288q0 51 -22.5 84t-73.5 33q-52 0 -84 -31.5t-41.5 -71.5t-9.5 -91v-211h74v-63h-231z" />
<glyph unicode="i" horiz-adv-x="271" d="M22 0v63h77v395h-77v63h160v-458h74v-63h-234zM85 625v81h97v-81h-97z" />
<glyph unicode="j" horiz-adv-x="250" d="M-59 -145q36 -12 63 -12q84 0 84 90v525h-77v63h161v-588q0 -156 -148 -156q-36 0 -83 10v68zM74 626v80h97v-80h-97z" />
<glyph unicode="k" horiz-adv-x="521" d="M21 0v63h73v580h-73v63h156v-421l182 173h-69v63h212v-63h-53l-135 -125l157 -270h48v-63h-205v63h60l-120 213l-77 -70v-143h65v-63h-221z" />
<glyph unicode="l" horiz-adv-x="271" d="M22 0v63h74v580h-74v63h158v-643h73v-63h-231z" />
<glyph unicode="m" horiz-adv-x="812" d="M28 0v63h73v395h-73v63h149l3 -72q15 38 51 60.5t78 22.5q110 0 138 -93q30 93 133 93q143 0 143 -166v-303h74v-63h-231v63h73v272q0 23 -0.5 35.5t-4.5 33t-11 31.5t-21.5 20t-35.5 9q-112 0 -112 -198v-203h58v-63h-202v63h63v278q0 23 -0.5 35t-4.5 31.5t-11.5 30 t-22.5 18.5t-37 8q-34 0 -57.5 -18t-34.5 -48t-15.5 -59t-4.5 -62v-214h74v-63h-231z" />
<glyph unicode="n" horiz-adv-x="583" d="M26 0v63h72v395h-72v63h153l3 -82q17 46 59 70.5t94 24.5q46 0 78.5 -15t48.5 -41t22.5 -52.5t6.5 -57.5v-305h76v-63h-233v63h73v285q0 119 -93 119q-40 0 -68 -20t-41 -54t-18 -66t-5 -68v-196h75v-63h-231z" />
<glyph unicode="o" horiz-adv-x="521" d="M38 262q0 68 23 132.5t70 100.5q50 38 132 38q62 0 106.5 -24t68 -64.5t34 -85t10.5 -94.5q0 -68 -22 -135t-68 -103q-51 -40 -131 -40q-61 0 -105.5 21.5t-69.5 61t-36.5 87t-11.5 105.5zM122 260q0 -38 5.5 -70.5t19.5 -65t42 -51.5t68 -19q53 0 86 34.5t43.5 78 t10.5 95.5q0 38 -6 71t-20 65t-41.5 50.5t-66.5 18.5q-40 0 -69 -18.5t-44 -50.5t-21.5 -66t-6.5 -72z" />
<glyph unicode="p" horiz-adv-x="562" d="M20 -140h74v598h-74v63h147l3 -73q34 43 66 64t80 21q56 0 98 -25.5t64.5 -67t33.5 -86.5t11 -92q0 -50 -11.5 -96.5t-34 -87.5t-63 -66t-93.5 -25q-88 0 -143 69v-196h75v-64h-233v64zM176 254q0 -46 11 -88.5t41.5 -76.5t77.5 -34q38 0 65.5 20t41.5 53t20 66.5t6 69.5 q0 85 -34 141t-98 56q-66 0 -98.5 -59t-32.5 -148z" />
<glyph unicode="q" horiz-adv-x="562" d="M39 260q0 48 11 93t33.5 87t65 67.5t98.5 25.5q47 0 79.5 -21t66.5 -64l3 73h147v-63h-74v-598h74v-64h-233v64h75v196q-58 -69 -146 -69q-54 0 -95 26t-62.5 68t-32 87t-10.5 92zM123 264q0 -37 6 -71t20 -66.5t42 -52t66 -19.5q67 0 98 61t31 138q0 89 -32 148t-99 59 q-64 0 -98 -56t-34 -141z" />
<glyph unicode="r" horiz-adv-x="354" d="M25 0v63h74v395h-74v63h147v-85q18 44 52.5 69t80.5 25q16 0 46 -6v-85q-23 5 -41 5q-36 0 -62.5 -15t-40 -39.5t-19.5 -50t-6 -51.5v-225h76v-63h-233z" />
<glyph unicode="s" horiz-adv-x="437" d="M37 0v180h68q5 -46 36 -86.5t87 -40.5q40 0 66 23t26 57q0 14 -3.5 25.5t-12.5 21t-15.5 15.5t-23 13.5t-23.5 10.5t-27.5 10.5t-25.5 9.5q-42 16 -60 24t-43.5 25.5t-35.5 41t-10 56.5q0 68 45 107.5t106 39.5q82 0 132 -68l3 56h64v-175h-67q-6 53 -37 87.5t-82 34.5 q-39 0 -61 -21.5t-22 -51.5q0 -19 6.5 -32.5t24 -23.5t29 -14.5t41.5 -14.5q34 -12 52 -19t46.5 -22t43 -31t26 -42t11.5 -58q0 -65 -43 -108t-120 -43q-37 0 -66.5 13.5t-41.5 26.5t-25 32l-4 -59h-64z" />
<glyph unicode="t" horiz-adv-x="313" d="M14 458v63h76v112l85 18v-130h114v-63h-114v-334q0 -37 14.5 -52t52.5 -15q12 0 54 7v-67q-54 -7 -70 -7q-75 0 -105.5 28.5t-30.5 100.5v339h-76z" />
<glyph unicode="u" d="M5 458v63h157v-351q0 -114 96 -114q26 0 46 11t32 32.5t19.5 42.5t10 52t3.5 49t1 45v170h-74v63h157v-458h73v-63h-145l-5 73q-40 -85 -145 -85q-58 0 -95 29q-34 27 -45.5 62t-11.5 87v292h-74z" />
<glyph unicode="v" horiz-adv-x="500" d="M-1 458v63h209v-63h-69l118 -377l115 377h-73v63h203v-63h-53l-146 -458h-102l-148 458h-54z" />
<glyph unicode="w" horiz-adv-x="833" d="M1 458v63h212v-63h-74l104 -371l126 434h105l124 -434l104 371h-72v63h200v-63h-51l-132 -458h-105l-126 439l-127 -439h-103l-130 458h-55z" />
<glyph unicode="x" horiz-adv-x="479" d="M4 0v63h51l139 205l-125 190h-53v63h196v-63h-47l77 -125l75 125h-48v63h189v-63h-56l-118 -182l139 -213h50v-63h-210v63h65l-93 149l-96 -149h61v-63h-196z" />
<glyph unicode="y" horiz-adv-x="521" d="M2 458v63h209v-63h-67l122 -362l120 362h-68v63h200v-63h-52l-183 -520q-15 -42 -24.5 -63.5t-28.5 -48t-46.5 -38t-65.5 -11.5q-34 0 -84 13v73q40 -19 69 -19q27 0 47 11t33 33t20 39.5t16 46.5l5 17l-169 467h-53z" />
<glyph unicode="z" horiz-adv-x="437" d="M16 0v63l289 394h-205v-109h-75v173h384v-63l-291 -395h217v116h74v-179h-393z" />
<glyph unicode="{" horiz-adv-x="281" d="M8 241v50q52 12 67 31.5t15 81.5v181q0 72 26.5 107t103.5 35h49v-51h-26q-20 0 -33.5 -6t-21 -14t-11 -24.5t-4 -29t-0.5 -37.5v-165q0 -61 -16.5 -88.5t-63.5 -46.5q46 -16 63 -44t17 -89v-180q0 -54 15 -75.5t61 -21.5h20v-51h-50q-75 0 -102 34.5t-27 106.5v184 q0 62 -14.5 80t-67.5 32z" />
<glyph unicode="|" horiz-adv-x="256" d="M89 -196v919h78v-919h-78z" />
<glyph unicode="}" horiz-adv-x="281" d="M11 -145h26q20 0 33.5 6t21 14t11 24.5t4 29t0.5 37.5v165q0 61 16.5 88.5t63.5 46.5q-46 16 -63 44t-17 89v180q0 54 -15 75.5t-61 21.5h-20v51h50q75 0 102 -34.5t27 -106.5v-184q0 -62 14.5 -80t67.5 -32v-50q-52 -12 -67 -31.5t-15 -81.5v-181q0 -72 -26.5 -107 t-103.5 -35h-49v51z" />
<glyph unicode="~" horiz-adv-x="724" d="M74 285q41 53 76 76t79 23q43 0 114 -34l62 -30q56 -27 87 -27q33 0 58.5 17t64.5 64l42 -55q-46 -58 -83 -81t-83 -23q-26 0 -46 7t-70 30l-52 25q-59 29 -97 29q-28 0 -50 -14.5t-50 -49.5l-10 -13z" />
<glyph unicode="&#xa1;" horiz-adv-x="292" d="M72 0l7 525h86q9 -449 10 -525h-103zM72 601v105h103v-105h-103z" />
<glyph unicode="&#xa2;" horiz-adv-x="479" d="M42 246q0 50 8.5 95t27 88.5t55 71.5t86.5 33v103h63v-104q56 -11 86 -66l4 54h64v-179h-70q-7 43 -28.5 80t-55.5 44v-407q37 8 58 41.5t25 76.5h79q-18 -168 -162 -185v-103h-63v103q-64 8 -105.5 50t-56.5 93t-15 111zM127 252q0 -40 6 -76t28 -72t58 -45v405 q-92 -36 -92 -212z" />
<glyph unicode="&#xa3;" horiz-adv-x="562" d="M20 0v63h72l41 287h-76v60h84q2 13 7 49t8 52.5t9.5 46.5t15 46.5t21 37t30.5 33.5t41 20q32 11 97 11h98v-66h-74q-51 0 -72 -7q-20 -7 -35 -23t-24 -30.5t-16.5 -43.5t-9.5 -41.5t-6 -46.5t-5 -38h152v-60h-161l-40 -287h283v189h75v-252h-515z" />
<glyph unicode="&#xa4;" horiz-adv-x="676" d="M59 570l49 50l67 -67q75 56 163 56q92 0 164 -55l66 66l49 -50l-66 -66q55 -73 55 -166q0 -80 -56 -163l67 -67l-50 -49l-66 67q-73 -57 -165 -57q-86 0 -162 57l-64 -65l-50 49l64 65q-56 72 -56 165q0 88 57 164zM142 340q0 -86 57 -144t142 -58q80 0 136 58t56 141 q0 87 -55.5 145t-139.5 58q-83 0 -139.5 -57.5t-56.5 -142.5z" />
<glyph unicode="&#xa5;" horiz-adv-x="567" d="M6 643v63h216v-63h-75l137 -315l140 315h-60v63h194v-63h-51l-125 -264h131v-61h-161l-31 -65v-6h192v-61h-192v-123h75v-63h-233v63h75v123h-190v61h190v7l-29 64h-161v61h132l-122 264h-52z" />
<glyph unicode="&#xa6;" horiz-adv-x="256" d="M89 191h78v-387h-78v387zM89 336v387h78v-387h-78z" />
<glyph unicode="&#xa7;" horiz-adv-x="479" d="M41 284q0 46 26 82t68 51q-39 33 -56.5 64.5t-17.5 78.5q0 78 49.5 120t129.5 42q78 0 130 -47q28 -26 39.5 -59t13.5 -84h-81q-1 55 -30 90.5t-78 35.5q-43 0 -67 -26.5t-24 -69.5q0 -14 2.5 -26.5t9 -24.5t12 -20.5t19 -19.5t21.5 -18t27.5 -18.5t29 -17t34 -19.5 t35.5 -20q57 -33 86.5 -68t29.5 -92q0 -47 -25 -79t-71 -61q33 -35 49.5 -65t16.5 -71q0 -73 -51.5 -116.5t-124.5 -43.5q-95 0 -138.5 52.5t-46.5 132.5h80q2 -50 29.5 -85t76.5 -35q41 0 68.5 27.5t27.5 68.5q0 39 -31 71.5t-75 58t-87.5 53t-74.5 68t-31 90.5zM117 287 q0 -26 13.5 -47t29 -33t46.5 -31l92 -58q72 39 72 99q0 21 -7.5 38.5t-24.5 31.5t-27.5 21.5t-34.5 20.5l-92 54q-67 -38 -67 -96z" />
<glyph unicode="&#xa8;" horiz-adv-x="292" d="M30 634v81h90v-81h-90zM171 634v81h90v-81h-90z" />
<glyph unicode="&#xa9;" horiz-adv-x="801" d="M45 353q0 149 103.5 252.5t252.5 103.5t252.5 -103t103.5 -252q0 -151 -103.5 -254t-253.5 -103q-148 0 -251.5 103.5t-103.5 252.5zM75 352q0 -137 94.5 -233t230.5 -96t231 96t95 233q0 139 -94.5 235t-231.5 96q-134 0 -229.5 -97t-95.5 -234zM209 352q0 102 48 165 t125 63q81 0 121 -70v59h55v-150h-60q-22 106 -103 106q-53 0 -84 -48t-31 -130q0 -80 31.5 -124.5t87.5 -44.5q88 0 101 104h66q-6 -77 -50 -118.5t-119 -41.5q-90 0 -139 60t-49 170z" />
<glyph unicode="&#xaa;" horiz-adv-x="333" d="M29 480q0 108 156 108l34 -1v21q0 35 -11.5 54t-44.5 19q-54 0 -61 -55h-58q3 48 35 72t85 24t81.5 -29t28.5 -82v-180h44v-39h-96l-2 33q-35 -41 -85 -41q-45 0 -75.5 26t-30.5 70zM86 482q0 -25 14.5 -41.5t41.5 -16.5q34 0 54 22q22 24 23 103q-27 3 -43 3 q-42 0 -66 -18.5t-24 -51.5z" />
<glyph unicode="&#xab;" horiz-adv-x="354" d="M20 287l85 171h68l-63 -171l63 -170h-68zM173 287l82 166h68l-63 -166l63 -170h-68z" />
<glyph unicode="&#xac;" horiz-adv-x="724" d="M68 295v69h553v-329h-83v260h-470z" />
<glyph unicode="&#xad;" horiz-adv-x="437" d="M34 245v79h368v-79h-368z" />
<glyph unicode="&#xae;" horiz-adv-x="801" d="M45 353q0 149 103.5 252.5t252.5 103.5t252.5 -103t103.5 -252q0 -151 -103.5 -254t-253.5 -103q-148 0 -251.5 103.5t-103.5 252.5zM75 352q0 -137 94.5 -233t230.5 -96t231 96t95 233q0 139 -94.5 235t-231.5 96q-134 0 -229.5 -97t-95.5 -234zM228 141v49h48v328h-48 v49h199q131 0 131 -110q0 -81 -85 -101q31 -7 45 -24.5t21 -57.5l14 -84h44v-49h-99l-16 100q-10 63 -24.5 76.5t-67.5 13.5h-51v-141h47v-49h-158zM339 378h65q91 0 91 71q0 69 -81 69h-75v-140z" />
<glyph unicode="&#xaf;" horiz-adv-x="292" d="M25 632v65h242v-65h-242z" />
<glyph unicode="&#xb0;" horiz-adv-x="354" d="M30 601q0 61 43 104t104 43t104 -43.5t43 -103.5q0 -61 -43 -104t-104 -43t-104 43t-43 104zM90 601q0 -36 25.5 -61.5t61.5 -25.5t61 25.5t25 61.5t-25 61.5t-61 25.5t-61.5 -25.5t-25.5 -61.5z" />
<glyph unicode="&#xb1;" horiz-adv-x="724" d="M92 0v70h538v-70h-538zM92 403v69h227v223h83v-223h228v-69h-228v-225h-83v225h-227z" />
<glyph unicode="&#xb2;" horiz-adv-x="395" d="M35 443v48q21 21 62 60t64.5 62t40.5 42q61 68 61 121q0 27 -19.5 46.5t-55.5 19.5q-74 0 -81 -80h-63q5 64 43.5 97t102.5 33q62 0 100 -31.5t38 -82.5q0 -58 -43 -112q-40 -50 -172 -174h168v80h53v-129h-299z" />
<glyph unicode="&#xb3;" horiz-adv-x="395" d="M31 569h64q3 -34 25.5 -61.5t74.5 -27.5q40 0 67.5 23.5t27.5 59.5t-27.5 58.5t-76.5 22.5q-17 0 -33 -2v49q10 -1 26 -1q48 0 73 21.5t25 59.5q0 33 -22.5 52.5t-64.5 19.5q-80 0 -90 -80h-58q6 64 46.5 96.5t106.5 32.5q65 0 105.5 -34.5t40.5 -86.5q0 -75 -76 -102 q88 -24 88 -109q0 -58 -46 -93t-116 -35q-71 0 -113.5 37.5t-46.5 99.5z" />
<glyph unicode="&#xb4;" horiz-adv-x="292" d="M64 606l65 154h100l-101 -154h-64z" />
<glyph unicode="&#xb5;" d="M5 458v63h157v-351q0 -114 96 -114q26 0 46 11t32 32.5t19.5 42.5t10 52t3.5 49t1 45v170h-74v63h157v-458h73v-63h-145l-5 73q-42 -85 -131 -85q-48 0 -90 39v-231h-76v662h-74z" />
<glyph unicode="&#xb6;" horiz-adv-x="603" d="M68 507q0 92 57 145.5t165 53.5h212v-51h-36v-822h-54v822h-134v-822h-55v486q-73 12 -114 62t-41 126z" />
<glyph unicode="&#xb7;" horiz-adv-x="250" d="M71 234v106h107v-106h-107z" />
<glyph unicode="&#xb8;" horiz-adv-x="292" d="M63 -150h50q7 -31 32 -31q14 0 23.5 10t9.5 26t-9 26.5t-22 10.5q-17 0 -30 -12l-49 7l37 133h45l-27 -96q16 11 36 11q35 0 53 -22.5t18 -56.5q0 -36 -23.5 -58t-61.5 -22q-79 0 -82 74zM63 -150h50q7 -31 32 -31q14 0 23.5 10t9.5 26t-9 26.5t-22 10.5q-17 0 -30 -12 l-49 7l37 133h45l-27 -96q16 11 36 11q35 0 53 -22.5t18 -56.5q0 -36 -23.5 -58t-61.5 -22q-79 0 -82 74z" />
<glyph unicode="&#xb9;" horiz-adv-x="395" d="M114 811v50l75 21h49v-391h53v-48h-166v48h49v339z" />
<glyph unicode="&#xba;" horiz-adv-x="333" d="M27 550q0 75 33.5 123t107.5 48q70 0 104 -45.5t34 -119.5q0 -75 -34.5 -123.5t-106.5 -48.5t-105 46.5t-33 119.5zM84 549q0 -50 19 -86.5t65 -36.5q30 0 49.5 22.5t25.5 49t6 56.5q0 51 -18.5 88.5t-63.5 37.5q-46 0 -64.5 -39.5t-18.5 -91.5z" />
<glyph unicode="&#xbb;" horiz-adv-x="354" d="M31 116l63 165l-63 171h68l86 -171l-86 -165h-68zM180 116l63 165l-63 171h68l85 -171l-85 -165h-68z" />
<glyph unicode="&#xbc;" horiz-adv-x="884" d="M116 635v50l75 21h49v-391h53v-48h-166v48h49v339zM270 0l273 706h57l-272 -706h-58zM489 118v45l167 276h87v-274h93v-47h-93v-70h51v-48h-164v48h51v70h-192zM550 164h134q0 148 1 222z" />
<glyph unicode="&#xbd;" horiz-adv-x="884" d="M108 635v50l75 21h49v-391h53v-48h-166v48h49v339zM259 0l273 706h57l-272 -706h-58zM507 0v48q21 21 62 60t64.5 62t40.5 42q61 68 61 121q0 27 -19.5 46.5t-55.5 19.5q-74 0 -81 -80h-63q5 64 43.5 97t102.5 33q62 0 100 -31.5t38 -82.5q0 -58 -43 -112 q-40 -50 -172 -174h168v80h53v-129h-299z" />
<glyph unicode="&#xbe;" horiz-adv-x="884" d="M55 393h64q3 -34 25.5 -61.5t74.5 -27.5q40 0 67.5 23.5t27.5 59.5t-27.5 58.5t-76.5 22.5q-17 0 -33 -2v49q10 -1 26 -1q48 0 73 21.5t25 59.5q0 33 -22.5 52.5t-64.5 19.5q-80 0 -90 -80h-58q6 64 46.5 96.5t106.5 32.5q65 0 105.5 -34.5t40.5 -86.5q0 -75 -76 -102 q88 -24 88 -109q0 -58 -46 -93t-116 -35q-71 0 -113.5 37.5t-46.5 99.5zM302 0l273 706h57l-272 -706h-58zM505 118v45l167 276h87v-274h93v-47h-93v-70h51v-48h-164v48h51v70h-192zM566 164h134q0 148 1 222z" />
<glyph unicode="&#xbf;" horiz-adv-x="479" d="M40 153q0 50 23.5 90.5t67.5 90.5q11 13 27.5 31t22.5 25t14.5 18t11 18.5t4.5 18t2 23.5v63h83v-62q0 -43 -17 -72q-15 -27 -57.5 -72t-70.5 -87t-28 -84q0 -46 33 -73.5t80 -27.5q76 0 111.5 46.5t35.5 125.5h84q-3 -240 -227 -240q-82 0 -141 44.5t-59 123.5zM203 603 v103h103v-103h-103z" />
<glyph unicode="&#xc0;" horiz-adv-x="625" d="M3 0v63h56l181 580h-53v63h257v-63h-56l176 -580h56v-63h-210v63h68l-48 162h-243l-46 -162h62v-63h-200zM153 895h139l112 -120h-78zM206 285h208l-103 348z" />
<glyph unicode="&#xc1;" horiz-adv-x="625" d="M3 0v63h56l181 580h-53v63h257v-63h-56l176 -580h56v-63h-210v63h68l-48 162h-243l-46 -162h62v-63h-200zM206 285h208l-103 348zM221 775l112 120h139l-173 -120h-78z" />
<glyph unicode="&#xc2;" horiz-adv-x="625" d="M3 0v63h56l181 580h-53v63h257v-63h-56l176 -580h56v-63h-210v63h68l-48 162h-243l-46 -162h62v-63h-200zM172 775l97 111h85l92 -111h-53l-82 58l-86 -58h-53zM206 285h208l-103 348z" />
<glyph unicode="&#xc3;" horiz-adv-x="625" d="M3 0v63h56l181 580h-53v63h257v-63h-56l176 -580h56v-63h-210v63h68l-48 162h-243l-46 -162h62v-63h-200zM154 788q1 58 21.5 88.5t55.5 30.5q28 0 61 -19l61 -35q20 -11 32 -11q13 0 19.5 13.5t9.5 46.5h52q0 -121 -78 -121q-31 0 -64 19l-55 31q-24 13 -34 13 q-24 0 -27 -56h-54zM206 285h208l-103 348z" />
<glyph unicode="&#xc4;" horiz-adv-x="625" d="M3 0v63h56l181 580h-53v63h257v-63h-56l176 -580h56v-63h-210v63h68l-48 162h-243l-46 -162h62v-63h-200zM188 803v83h90v-83h-90zM206 285h208l-103 348zM342 803v83h90v-83h-90z" />
<glyph unicode="&#xc5;" horiz-adv-x="625" d="M3 0v63h56l181 580h-53v63h257v-63h-56l176 -580h56v-63h-210v63h68l-48 162h-243l-46 -162h62v-63h-200zM206 285h208l-103 348zM229 830q0 34 24 57.5t59 23.5q34 0 58 -24t24 -57q0 -34 -24 -58t-58 -24t-58.5 24t-24.5 58zM264 830q0 -20 13.5 -34t34.5 -14 q19 0 33 14t14 34t-14 34.5t-33 14.5q-20 0 -34 -14.5t-14 -34.5z" />
<glyph unicode="&#xc6;" horiz-adv-x="854" d="M4 0v63h48l239 580h-63v63h566v-219h-74v156h-266l35 -234h204v-66h-194l44 -280h177v175h74v-238h-399v63h67l-25 162h-239l-67 -162h67v-63h-194zM224 287h203l-55 361z" />
<glyph unicode="&#xc7;" horiz-adv-x="583" d="M45 343q0 51 5.5 98.5t23 100.5t44.5 91t74.5 63.5t109.5 25.5q118 0 167 -80q1 42 2 64h66v-223h-73q-23 176 -153 176q-44 0 -78 -22t-52.5 -55t-30.5 -78.5t-15.5 -83.5t-3.5 -78q0 -38 4 -74t15.5 -77t29.5 -71t50 -50t74 -20q145 0 160 186h80q-5 -65 -20 -106 q-24 -69 -79.5 -105t-129.5 -38l-18 -66q16 11 38 11q37 0 56 -23.5t19 -57.5q0 -37 -24.5 -60t-65.5 -23q-84 0 -87 77h53q6 -32 34 -32q15 0 25 10.5t10 26.5t-9.5 27t-23.5 11q-17 0 -32 -12l-51 7l30 107q-224 27 -224 353z" />
<glyph unicode="&#xc8;" horiz-adv-x="562" d="M21 0v63h73v580h-73v63h484v-221h-75v158h-253v-234h229v-66h-229v-280h253v175h75v-238h-484zM121 895h139l112 -120h-78z" />
<glyph unicode="&#xc9;" horiz-adv-x="562" d="M21 0v63h73v580h-73v63h484v-221h-75v158h-253v-234h229v-66h-229v-280h253v175h75v-238h-484zM190 775l112 120h139l-173 -120h-78z" />
<glyph unicode="&#xca;" horiz-adv-x="562" d="M21 0v63h73v580h-73v63h484v-221h-75v158h-253v-234h229v-66h-229v-280h253v175h75v-238h-484zM140 775l97 111h85l92 -111h-53l-82 58l-86 -58h-53z" />
<glyph unicode="&#xcb;" horiz-adv-x="562" d="M21 0v63h73v580h-73v63h484v-221h-75v158h-253v-234h229v-66h-229v-280h253v175h75v-238h-484zM158 803v83h90v-83h-90zM312 803v83h90v-83h-90z" />
<glyph unicode="&#xcc;" horiz-adv-x="271" d="M-24 895h139l112 -120h-78zM18 0v63h74v580h-74v63h233v-63h-74v-580h74v-63h-233z" />
<glyph unicode="&#xcd;" horiz-adv-x="271" d="M18 0v63h74v580h-74v63h233v-63h-74v-580h74v-63h-233zM43 775l112 120h139l-173 -120h-78z" />
<glyph unicode="&#xce;" horiz-adv-x="271" d="M-5 775l97 111h85l92 -111h-53l-82 58l-86 -58h-53zM18 0v63h74v580h-74v63h233v-63h-74v-580h74v-63h-233z" />
<glyph unicode="&#xcf;" horiz-adv-x="271" d="M11 803v83h90v-83h-90zM18 0v63h74v580h-74v63h233v-63h-74v-580h74v-63h-233zM165 803v83h90v-83h-90z" />
<glyph unicode="&#xd0;" horiz-adv-x="625" d="M18 0v63h74v281h-72v63h72v236h-74v63h256q91 0 146 -22q60 -24 97.5 -79t50 -113.5t12.5 -127.5q0 -51 -7.5 -98t-24 -95.5t-49 -87t-76.5 -59.5q-50 -24 -134 -24h-271zM175 63h83q82 0 120 19q64 32 90 108.5t26 165.5q0 88 -26.5 163.5t-91.5 105.5q-40 18 -106 18 h-95v-236h179v-63h-179v-281z" />
<glyph unicode="&#xd1;" horiz-adv-x="625" d="M20 0v63h73v580h-73v63h209l231 -637v574h-72v63h224v-63h-76v-643h-133l-233 643v-580h72v-63h-222zM154 788q1 58 21.5 88.5t55.5 30.5q28 0 61 -19l61 -35q20 -11 32 -11q13 0 19.5 13.5t9.5 46.5h52q0 -121 -78 -121q-31 0 -64 19l-55 31q-24 13 -34 13 q-24 0 -27 -56h-54z" />
<glyph unicode="&#xd2;" horiz-adv-x="625" d="M45 341q0 73 12 135.5t40.5 120t83 91t131.5 33.5q73 0 127 -31t83.5 -84t43 -113.5t13.5 -129.5q0 -57 -7.5 -107.5t-26.5 -101t-48.5 -87t-77.5 -59t-110 -22.5q-72 0 -125 30.5t-82.5 83.5t-43 113t-13.5 128zM129 346q0 -50 8 -96.5t27.5 -93t58 -74.5t92.5 -28 q52 0 89.5 31t56 80.5t26.5 97.5t8 96q0 50 -8.5 97t-28 93.5t-58 75t-91.5 28.5t-90.5 -31t-56 -81t-26 -98t-7.5 -97zM152 895h139l112 -120h-78z" />
<glyph unicode="&#xd3;" horiz-adv-x="625" d="M45 341q0 73 12 135.5t40.5 120t83 91t131.5 33.5q73 0 127 -31t83.5 -84t43 -113.5t13.5 -129.5q0 -57 -7.5 -107.5t-26.5 -101t-48.5 -87t-77.5 -59t-110 -22.5q-72 0 -125 30.5t-82.5 83.5t-43 113t-13.5 128zM129 346q0 -50 8 -96.5t27.5 -93t58 -74.5t92.5 -28 q52 0 89.5 31t56 80.5t26.5 97.5t8 96q0 50 -8.5 97t-28 93.5t-58 75t-91.5 28.5t-90.5 -31t-56 -81t-26 -98t-7.5 -97zM220 775l112 120h139l-173 -120h-78z" />
<glyph unicode="&#xd4;" horiz-adv-x="625" d="M45 341q0 73 12 135.5t40.5 120t83 91t131.5 33.5q73 0 127 -31t83.5 -84t43 -113.5t13.5 -129.5q0 -57 -7.5 -107.5t-26.5 -101t-48.5 -87t-77.5 -59t-110 -22.5q-72 0 -125 30.5t-82.5 83.5t-43 113t-13.5 128zM129 346q0 -50 8 -96.5t27.5 -93t58 -74.5t92.5 -28 q52 0 89.5 31t56 80.5t26.5 97.5t8 96q0 50 -8.5 97t-28 93.5t-58 75t-91.5 28.5t-90.5 -31t-56 -81t-26 -98t-7.5 -97zM172 775l97 111h85l92 -111h-53l-82 58l-86 -58h-53z" />
<glyph unicode="&#xd5;" horiz-adv-x="625" d="M45 341q0 73 12 135.5t40.5 120t83 91t131.5 33.5q73 0 127 -31t83.5 -84t43 -113.5t13.5 -129.5q0 -57 -7.5 -107.5t-26.5 -101t-48.5 -87t-77.5 -59t-110 -22.5q-72 0 -125 30.5t-82.5 83.5t-43 113t-13.5 128zM129 346q0 -50 8 -96.5t27.5 -93t58 -74.5t92.5 -28 q52 0 89.5 31t56 80.5t26.5 97.5t8 96q0 50 -8.5 97t-28 93.5t-58 75t-91.5 28.5t-90.5 -31t-56 -81t-26 -98t-7.5 -97zM165 788q1 58 21.5 88.5t55.5 30.5q28 0 61 -19l61 -35q20 -11 32 -11q13 0 19.5 13.5t9.5 46.5h52q0 -121 -78 -121q-31 0 -64 19l-55 31 q-24 13 -34 13q-24 0 -27 -56h-54z" />
<glyph unicode="&#xd6;" horiz-adv-x="625" d="M45 341q0 73 12 135.5t40.5 120t83 91t131.5 33.5q73 0 127 -31t83.5 -84t43 -113.5t13.5 -129.5q0 -57 -7.5 -107.5t-26.5 -101t-48.5 -87t-77.5 -59t-110 -22.5q-72 0 -125 30.5t-82.5 83.5t-43 113t-13.5 128zM129 346q0 -50 8 -96.5t27.5 -93t58 -74.5t92.5 -28 q52 0 89.5 31t56 80.5t26.5 97.5t8 96q0 50 -8.5 97t-28 93.5t-58 75t-91.5 28.5t-90.5 -31t-56 -81t-26 -98t-7.5 -97zM189 803v83h90v-83h-90zM343 803v83h90v-83h-90z" />
<glyph unicode="&#xd7;" horiz-adv-x="724" d="M145 461l55 59l164 -161l160 163l52 -51l-160 -162l165 -162l-56 -58l-164 161l-161 -162l-52 50l160 163z" />
<glyph unicode="&#xd8;" horiz-adv-x="625" d="M23 -102l97 169q-76 95 -76 261q0 56 7.5 108.5t26.5 105.5t48.5 91.5t78 63t110.5 24.5q76 0 144 -40l57 106h82l-89 -155q70 -94 70 -250q0 -55 -7 -107t-26 -106t-48.5 -93.5t-78 -64.5t-110.5 -25q-83 0 -138 37l-67 -125h-81zM128 327q0 -106 36 -181l258 467 q-27 22 -49 31t-55 9q-55 0 -95 -33t-59 -86t-27.5 -104t-8.5 -103zM206 89q40 -36 100 -36q55 0 94.5 33.5t58.5 87.5t27.5 105t8.5 102q0 103 -33 169z" />
<glyph unicode="&#xd9;" horiz-adv-x="604" d="M9 643v63h231v-63h-74v-375q0 -108 21 -150q33 -67 116 -67q89 0 122 75q15 35 15 150v367h-76v63h229v-63h-72v-425q0 -94 -37 -147q-57 -84 -177 -84q-55 0 -102 20.5t-76 57.5q-21 27 -31.5 62.5t-12.5 61.5t-2 72v382h-74zM142 895h139l112 -120h-78z" />
<glyph unicode="&#xda;" horiz-adv-x="604" d="M9 643v63h231v-63h-74v-375q0 -108 21 -150q33 -67 116 -67q89 0 122 75q15 35 15 150v367h-76v63h229v-63h-72v-425q0 -94 -37 -147q-57 -84 -177 -84q-55 0 -102 20.5t-76 57.5q-21 27 -31.5 62.5t-12.5 61.5t-2 72v382h-74zM210 775l112 120h139l-173 -120h-78z" />
<glyph unicode="&#xdb;" horiz-adv-x="604" d="M9 643v63h231v-63h-74v-375q0 -108 21 -150q33 -67 116 -67q89 0 122 75q15 35 15 150v367h-76v63h229v-63h-72v-425q0 -94 -37 -147q-57 -84 -177 -84q-55 0 -102 20.5t-76 57.5q-21 27 -31.5 62.5t-12.5 61.5t-2 72v382h-74zM162 775l97 111h85l92 -111h-53l-82 58 l-86 -58h-53z" />
<glyph unicode="&#xdc;" horiz-adv-x="604" d="M9 643v63h231v-63h-74v-375q0 -108 21 -150q33 -67 116 -67q89 0 122 75q15 35 15 150v367h-76v63h229v-63h-72v-425q0 -94 -37 -147q-57 -84 -177 -84q-55 0 -102 20.5t-76 57.5q-21 27 -31.5 62.5t-12.5 61.5t-2 72v382h-74zM178 803v83h90v-83h-90zM332 803v83h90v-83 h-90z" />
<glyph unicode="&#xdd;" d="M-4 643v63h216v-63h-75l137 -314l140 314h-60v63h194v-63h-51l-186 -394v-186h75v-63h-233v63h75v191l-180 389h-52zM188 791l65 154h100l-101 -154h-64z" />
<glyph unicode="&#xde;" d="M17 0v63h76v580h-76v63h234v-63h-73v-69h103q226 0 226 -212q0 -61 -20 -105t-52.5 -66t-66.5 -31.5t-70 -9.5h-120v-87h73v-63h-234zM178 213h73q88 0 128.5 31.5t40.5 117.5q0 78 -39 113.5t-117 35.5h-86v-298z" />
<glyph unicode="&#xdf;" d="M18 0v63h75v437q0 105 50 162.5t141 57.5q83 0 132 -47.5t49 -131.5q0 -113 -101 -147q71 -18 104.5 -71.5t33.5 -125.5q0 -92 -54.5 -149t-144.5 -57q-14 0 -63 7v71q18 -6 49 -6q61 0 93 43t32 106q0 60 -27.5 101.5t-93.5 41.5h-24v65q110 5 110 113q0 50 -25 86 t-73 36q-49 0 -76.5 -37t-27.5 -101v-517h-159z" />
<glyph unicode="&#xe0;" horiz-adv-x="521" d="M41 142q0 175 247 175q24 0 60 -2v48q0 104 -94 104q-43 0 -70.5 -23t-31.5 -66h-86q8 56 23 81q45 74 163 74q177 0 177 -181v-289h73v-63h-149l-5 61q-56 -74 -140 -74q-71 0 -119 42.5t-48 112.5zM126 146q0 -43 26 -69t69 -26q54 0 87 35q10 10 17 23t11 21.5t6.5 29 t3 26.5t1.5 34t1 34q-37 5 -73 5q-63 0 -106 -27.5t-43 -85.5zM145 760h100l65 -154h-64z" />
<glyph unicode="&#xe1;" horiz-adv-x="521" d="M41 142q0 175 247 175q24 0 60 -2v48q0 104 -94 104q-43 0 -70.5 -23t-31.5 -66h-86q8 56 23 81q45 74 163 74q177 0 177 -181v-289h73v-63h-149l-5 61q-56 -74 -140 -74q-71 0 -119 42.5t-48 112.5zM126 146q0 -43 26 -69t69 -26q54 0 87 35q10 10 17 23t11 21.5t6.5 29 t3 26.5t1.5 34t1 34q-37 5 -73 5q-63 0 -106 -27.5t-43 -85.5zM213 606l65 154h100l-101 -154h-64z" />
<glyph unicode="&#xe2;" horiz-adv-x="521" d="M41 142q0 175 247 175q24 0 60 -2v48q0 104 -94 104q-43 0 -70.5 -23t-31.5 -66h-86q8 56 23 81q45 74 163 74q177 0 177 -181v-289h73v-63h-149l-5 61q-56 -74 -140 -74q-71 0 -119 42.5t-48 112.5zM126 146q0 -43 26 -69t69 -26q54 0 87 35q10 10 17 23t11 21.5t6.5 29 t3 26.5t1.5 34t1 34q-37 5 -73 5q-63 0 -106 -27.5t-43 -85.5zM134 606l80 142h90l78 -142h-57l-66 91l-66 -91h-59z" />
<glyph unicode="&#xe3;" horiz-adv-x="521" d="M41 142q0 175 247 175q24 0 60 -2v48q0 104 -94 104q-43 0 -70.5 -23t-31.5 -66h-86q8 56 23 81q45 74 163 74q177 0 177 -181v-289h73v-63h-149l-5 61q-56 -74 -140 -74q-71 0 -119 42.5t-48 112.5zM116 615q1 60 19.5 91t50.5 31q28 0 54 -17l57 -37q19 -12 30 -12 q21 0 25 63h50q0 -124 -72 -124q-30 0 -57 17l-52 33q-20 13 -31 13q-22 0 -25 -58h-49zM126 146q0 -43 26 -69t69 -26q54 0 87 35q10 10 17 23t11 21.5t6.5 29t3 26.5t1.5 34t1 34q-37 5 -73 5q-63 0 -106 -27.5t-43 -85.5z" />
<glyph unicode="&#xe4;" horiz-adv-x="521" d="M41 142q0 175 247 175q24 0 60 -2v48q0 104 -94 104q-43 0 -70.5 -23t-31.5 -66h-86q8 56 23 81q45 74 163 74q177 0 177 -181v-289h73v-63h-149l-5 61q-56 -74 -140 -74q-71 0 -119 42.5t-48 112.5zM126 146q0 -43 26 -69t69 -26q54 0 87 35q10 10 17 23t11 21.5t6.5 29 t3 26.5t1.5 34t1 34q-37 5 -73 5q-63 0 -106 -27.5t-43 -85.5zM141 634v81h90v-81h-90zM282 634v81h90v-81h-90z" />
<glyph unicode="&#xe5;" horiz-adv-x="521" d="M41 142q0 175 247 175q24 0 60 -2v48q0 104 -94 104q-43 0 -70.5 -23t-31.5 -66h-86q8 56 23 81q45 74 163 74q177 0 177 -181v-289h73v-63h-149l-5 61q-56 -74 -140 -74q-71 0 -119 42.5t-48 112.5zM126 146q0 -43 26 -69t69 -26q54 0 87 35q10 10 17 23t11 21.5t6.5 29 t3 26.5t1.5 34t1 34q-37 5 -73 5q-63 0 -106 -27.5t-43 -85.5zM154 680q0 41 29.5 69t71.5 28t71.5 -28t29.5 -69t-29.5 -69t-71.5 -28q-43 0 -72 27t-29 70zM196 680q0 -24 17.5 -42t41.5 -18t42 18t18 42t-18 41.5t-42 17.5q-25 0 -42 -17t-17 -42z" />
<glyph unicode="&#xe6;" horiz-adv-x="812" d="M40 143q0 76 56 125.5t189 49.5h61v14q0 62 -20 98.5t-77 36.5q-42 0 -70 -24.5t-28 -63.5h-86q6 45 18 70q44 84 167 84q56 0 101 -23.5t63 -74.5q20 47 63.5 72.5t97.5 25.5t94 -22t63 -59.5t34 -82t11 -95.5v-15h-336v-12q0 -46 12 -87.5t44 -73.5t78 -32 q45 0 77 31.5t37 77.5h82q-10 -85 -60 -130.5t-134 -45.5q-72 0 -121 35.5t-69 103.5q-13 -67 -61 -103t-119 -36q-72 0 -119.5 42t-47.5 114zM125 144q0 -40 26.5 -66.5t66.5 -26.5q65 0 95.5 42.5t30.5 106.5v59h-41q-178 0 -178 -115zM448 318h243q0 59 -31 106t-88 47 q-60 0 -92 -46.5t-32 -106.5z" />
<glyph unicode="&#xe7;" horiz-adv-x="458" d="M39 252q0 51 9.5 97.5t30 89.5t59.5 68.5t93 25.5q44 0 75 -17t59 -53l5 54h63v-179h-71q-5 49 -36 89.5t-77 40.5q-37 0 -63 -21.5t-38.5 -57.5t-18 -69.5t-5.5 -69.5q0 -34 5 -65.5t18 -63t38.5 -50.5t62.5 -19q51 0 79.5 34.5t34.5 88.5h79q-6 -84 -55 -135t-129 -53 l-17 -63q16 11 36 11q35 0 53 -22.5t18 -56.5q0 -36 -23.5 -58t-61.5 -22q-79 0 -82 74h50q7 -31 32 -31q14 0 23.5 10t9.5 26t-9 26.5t-22 10.5q-16 0 -30 -12l-49 7l28 103q-92 12 -133 83t-41 179z" />
<glyph unicode="&#xe8;" horiz-adv-x="521" d="M37 257q0 119 55.5 197.5t167.5 78.5q117 0 170.5 -76.5t53.5 -199.5h-360v-22q0 -75 35 -128t107 -53q49 0 82 30t42 80h82q-13 -86 -68 -131t-142 -45q-114 0 -169.5 75.5t-55.5 193.5zM126 319h271q-6 64 -40 106.5t-96 42.5t-96 -42.5t-39 -106.5zM151 760h100 l65 -154h-64z" />
<glyph unicode="&#xe9;" horiz-adv-x="521" d="M37 257q0 119 55.5 197.5t167.5 78.5q117 0 170.5 -76.5t53.5 -199.5h-360v-22q0 -75 35 -128t107 -53q49 0 82 30t42 80h82q-13 -86 -68 -131t-142 -45q-114 0 -169.5 75.5t-55.5 193.5zM126 319h271q-6 64 -40 106.5t-96 42.5t-96 -42.5t-39 -106.5zM219 606l65 154 h100l-101 -154h-64z" />
<glyph unicode="&#xea;" horiz-adv-x="521" d="M37 257q0 119 55.5 197.5t167.5 78.5q117 0 170.5 -76.5t53.5 -199.5h-360v-22q0 -75 35 -128t107 -53q49 0 82 30t42 80h82q-13 -86 -68 -131t-142 -45q-114 0 -169.5 75.5t-55.5 193.5zM126 319h271q-6 64 -40 106.5t-96 42.5t-96 -42.5t-39 -106.5zM140 606l80 142h90 l78 -142h-57l-66 91l-66 -91h-59z" />
<glyph unicode="&#xeb;" horiz-adv-x="521" d="M37 257q0 119 55.5 197.5t167.5 78.5q117 0 170.5 -76.5t53.5 -199.5h-360v-22q0 -75 35 -128t107 -53q49 0 82 30t42 80h82q-13 -86 -68 -131t-142 -45q-114 0 -169.5 75.5t-55.5 193.5zM126 319h271q-6 64 -40 106.5t-96 42.5t-96 -42.5t-39 -106.5zM152 634v81h90v-81 h-90zM293 634v81h90v-81h-90z" />
<glyph unicode="&#xec;" horiz-adv-x="271" d="M19 760h100l65 -154h-64zM22 0v63h76v395h-76v63h160v-458h74v-63h-234z" />
<glyph unicode="&#xed;" horiz-adv-x="271" d="M22 0v63h76v395h-76v63h160v-458h74v-63h-234zM87 606l65 154h100l-101 -154h-64z" />
<glyph unicode="&#xee;" horiz-adv-x="271" d="M8 606l80 142h90l78 -142h-57l-66 91l-66 -91h-59zM22 0v63h76v395h-76v63h160v-458h74v-63h-234z" />
<glyph unicode="&#xef;" horiz-adv-x="271" d="M20 634v81h90v-81h-90zM22 0v63h76v395h-76v63h160v-458h74v-63h-234zM161 634v81h90v-81h-90z" />
<glyph unicode="&#xf0;" horiz-adv-x="521" d="M38 256q0 75 19.5 134.5t69.5 101t126 41.5q36 0 85 -17q-22 43 -54 76l-126 -39l-23 56l102 33q-2 1 -23 20t-32 29l79 32q51 -48 57 -55l91 29l24 -58l-71 -22q62 -92 91 -167.5t29 -186.5q0 -118 -53.5 -197t-167.5 -79q-51 0 -91 16t-64.5 42t-40 62.5t-21.5 72.5 t-6 76zM122 254q0 -36 6.5 -68.5t20.5 -63.5t42 -49.5t66 -18.5q40 0 69 19t43.5 51t21 66t6.5 72q0 36 -6 69t-20 65t-41.5 51.5t-65.5 19.5q-41 0 -70.5 -19t-44 -52t-21 -67.5t-6.5 -74.5z" />
<glyph unicode="&#xf1;" horiz-adv-x="583" d="M26 0v63h72v395h-72v63h153l3 -82q17 46 59 70.5t94 24.5q46 0 78.5 -15t48.5 -41t22.5 -52.5t6.5 -57.5v-305h76v-63h-233v63h73v285q0 119 -93 119q-40 0 -68 -20t-41 -54t-18 -66t-5 -68v-196h75v-63h-231zM147 615q1 60 19.5 91t50.5 31q28 0 54 -17l57 -37 q19 -12 30 -12q21 0 25 63h50q0 -124 -72 -124q-30 0 -57 17l-52 33q-20 13 -31 13q-22 0 -25 -58h-49z" />
<glyph unicode="&#xf2;" horiz-adv-x="521" d="M38 262q0 68 23 132.5t70 100.5q50 38 132 38q62 0 106.5 -24t68 -64.5t34 -85t10.5 -94.5q0 -68 -22 -135t-68 -103q-51 -40 -131 -40q-61 0 -105.5 21.5t-69.5 61t-36.5 87t-11.5 105.5zM122 260q0 -38 5.5 -70.5t19.5 -65t42 -51.5t68 -19q53 0 86 34.5t43.5 78 t10.5 95.5q0 38 -6 71t-20 65t-41.5 50.5t-66.5 18.5q-40 0 -69 -18.5t-44 -50.5t-21.5 -66t-6.5 -72zM152 760h100l65 -154h-64z" />
<glyph unicode="&#xf3;" horiz-adv-x="521" d="M38 262q0 68 23 132.5t70 100.5q50 38 132 38q62 0 106.5 -24t68 -64.5t34 -85t10.5 -94.5q0 -68 -22 -135t-68 -103q-51 -40 -131 -40q-61 0 -105.5 21.5t-69.5 61t-36.5 87t-11.5 105.5zM122 260q0 -38 5.5 -70.5t19.5 -65t42 -51.5t68 -19q53 0 86 34.5t43.5 78 t10.5 95.5q0 38 -6 71t-20 65t-41.5 50.5t-66.5 18.5q-40 0 -69 -18.5t-44 -50.5t-21.5 -66t-6.5 -72zM219 606l65 154h100l-101 -154h-64z" />
<glyph unicode="&#xf4;" horiz-adv-x="521" d="M38 262q0 68 23 132.5t70 100.5q50 38 132 38q62 0 106.5 -24t68 -64.5t34 -85t10.5 -94.5q0 -68 -22 -135t-68 -103q-51 -40 -131 -40q-61 0 -105.5 21.5t-69.5 61t-36.5 87t-11.5 105.5zM122 260q0 -38 5.5 -70.5t19.5 -65t42 -51.5t68 -19q53 0 86 34.5t43.5 78 t10.5 95.5q0 38 -6 71t-20 65t-41.5 50.5t-66.5 18.5q-40 0 -69 -18.5t-44 -50.5t-21.5 -66t-6.5 -72zM140 606l80 142h90l78 -142h-57l-66 91l-66 -91h-59z" />
<glyph unicode="&#xf5;" horiz-adv-x="521" d="M38 262q0 68 23 132.5t70 100.5q50 38 132 38q62 0 106.5 -24t68 -64.5t34 -85t10.5 -94.5q0 -68 -22 -135t-68 -103q-51 -40 -131 -40q-61 0 -105.5 21.5t-69.5 61t-36.5 87t-11.5 105.5zM122 260q0 -38 5.5 -70.5t19.5 -65t42 -51.5t68 -19q53 0 86 34.5t43.5 78 t10.5 95.5q0 38 -6 71t-20 65t-41.5 50.5t-66.5 18.5q-40 0 -69 -18.5t-44 -50.5t-21.5 -66t-6.5 -72zM122 615q1 60 19.5 91t50.5 31q28 0 54 -17l57 -37q19 -12 30 -12q21 0 25 63h50q0 -124 -72 -124q-30 0 -57 17l-52 33q-20 13 -31 13q-22 0 -25 -58h-49z" />
<glyph unicode="&#xf6;" horiz-adv-x="521" d="M38 262q0 68 23 132.5t70 100.5q50 38 132 38q62 0 106.5 -24t68 -64.5t34 -85t10.5 -94.5q0 -68 -22 -135t-68 -103q-51 -40 -131 -40q-61 0 -105.5 21.5t-69.5 61t-36.5 87t-11.5 105.5zM122 260q0 -38 5.5 -70.5t19.5 -65t42 -51.5t68 -19q53 0 86 34.5t43.5 78 t10.5 95.5q0 38 -6 71t-20 65t-41.5 50.5t-66.5 18.5q-40 0 -69 -18.5t-44 -50.5t-21.5 -66t-6.5 -72zM142 634v81h90v-81h-90zM283 634v81h90v-81h-90z" />
<glyph unicode="&#xf7;" horiz-adv-x="694" d="M64 268v73h566v-73h-566zM302 89v91h88v-91h-88zM303 427v91h88v-91h-88z" />
<glyph unicode="&#xf8;" horiz-adv-x="521" d="M20 -103l85 145q-68 76 -68 198q0 42 6 80.5t21.5 78.5t39.5 68.5t64 47t91 18.5q58 0 103 -21l52 93h79l-74 -133q36 -46 49.5 -91t13.5 -107q0 -74 -24 -145t-74 -108q-47 -35 -126 -35q-39 0 -97 18l-60 -107h-81zM122 246q0 -82 28 -134l183 333q-32 21 -67 21 q-54 0 -88 -37.5t-45 -83.5t-11 -99zM191 69q37 -16 64 -16q41 0 70.5 21t44.5 55.5t21.5 70t6.5 73.5q0 66 -24 125z" />
<glyph unicode="&#xf9;" d="M5 458v63h157v-351q0 -114 96 -114q26 0 46 11t32 32.5t19.5 42.5t10 52t3.5 49t1 45v170h-74v63h157v-458h73v-63h-145l-5 73q-40 -85 -145 -85q-58 0 -95 29q-34 27 -45.5 62t-11.5 87v292h-74zM155 760h100l65 -154h-64z" />
<glyph unicode="&#xfa;" d="M5 458v63h157v-351q0 -114 96 -114q26 0 46 11t32 32.5t19.5 42.5t10 52t3.5 49t1 45v170h-74v63h157v-458h73v-63h-145l-5 73q-40 -85 -145 -85q-58 0 -95 29q-34 27 -45.5 62t-11.5 87v292h-74zM223 606l65 154h100l-101 -154h-64z" />
<glyph unicode="&#xfb;" d="M5 458v63h157v-351q0 -114 96 -114q26 0 46 11t32 32.5t19.5 42.5t10 52t3.5 49t1 45v170h-74v63h157v-458h73v-63h-145l-5 73q-40 -85 -145 -85q-58 0 -95 29q-34 27 -45.5 62t-11.5 87v292h-74zM144 606l80 142h90l78 -142h-57l-66 91l-66 -91h-59z" />
<glyph unicode="&#xfc;" d="M5 458v63h157v-351q0 -114 96 -114q26 0 46 11t32 32.5t19.5 42.5t10 52t3.5 49t1 45v170h-74v63h157v-458h73v-63h-145l-5 73q-40 -85 -145 -85q-58 0 -95 29q-34 27 -45.5 62t-11.5 87v292h-74zM147 634v81h90v-81h-90zM288 634v81h90v-81h-90z" />
<glyph unicode="&#xfd;" horiz-adv-x="521" d="M2 458v63h209v-63h-67l122 -362l120 362h-68v63h200v-63h-52l-183 -520q-15 -42 -24.5 -63.5t-28.5 -48t-46.5 -38t-65.5 -11.5q-34 0 -84 13v73q40 -19 69 -19q27 0 47 11t33 33t20 39.5t16 46.5l5 17l-169 467h-53zM213 606l65 154h100l-101 -154h-64z" />
<glyph unicode="&#xfe;" horiz-adv-x="562" d="M20 -140h74v783h-74v63h153v-255q60 82 143 82q102 0 154.5 -81.5t52.5 -191.5q0 -123 -56 -198t-144 -75q-42 0 -81 18t-64 51v-196h75v-64h-233v64zM176 255q0 -63 15 -106.5t38 -62t41.5 -25t35.5 -6.5q64 0 98.5 58t34.5 151q0 85 -34 141t-98 56q-67 0 -99 -59.5 t-32 -146.5z" />
<glyph unicode="&#xff;" horiz-adv-x="521" d="M2 458v63h209v-63h-67l122 -362l120 362h-68v63h200v-63h-52l-183 -520q-15 -42 -24.5 -63.5t-28.5 -48t-46.5 -38t-65.5 -11.5q-34 0 -84 13v73q40 -19 69 -19q27 0 47 11t33 33t20 39.5t16 46.5l5 17l-169 467h-53zM146 634v81h90v-81h-90zM287 634v81h90v-81h-90z" />
<glyph unicode="&#x100;" horiz-adv-x="625" d="M3 0v63h56l181 580h-53v63h257v-63h-56l176 -580h56v-63h-210v63h68l-48 162h-243l-46 -162h62v-63h-200zM178 805v67h270v-67h-270zM206 285h208l-103 348z" />
<glyph unicode="&#x101;" horiz-adv-x="521" d="M41 142q0 175 247 175q24 0 60 -2v48q0 104 -94 104q-43 0 -70.5 -23t-31.5 -66h-86q8 56 23 81q45 74 163 74q177 0 177 -181v-289h73v-63h-149l-5 61q-56 -74 -140 -74q-71 0 -119 42.5t-48 112.5zM126 146q0 -43 26 -69t69 -26q54 0 87 35q10 10 17 23t11 21.5t6.5 29 t3 26.5t1.5 34t1 34q-37 5 -73 5q-63 0 -106 -27.5t-43 -85.5zM140 632v65h242v-65h-242z" />
<glyph unicode="&#x102;" horiz-adv-x="625" d="M3 0v63h56l181 580h-53v63h257v-63h-56l176 -580h56v-63h-210v63h68l-48 162h-243l-46 -162h62v-63h-200zM182 905h54q7 -66 77 -66q65 0 78 66h53q0 -52 -33.5 -86.5t-96.5 -34.5q-67 0 -99.5 33t-32.5 88zM206 285h208l-103 348z" />
<glyph unicode="&#x103;" horiz-adv-x="521" d="M41 142q0 175 247 175q24 0 60 -2v48q0 104 -94 104q-43 0 -70.5 -23t-31.5 -66h-86q8 56 23 81q45 74 163 74q177 0 177 -181v-289h73v-63h-149l-5 61q-56 -74 -140 -74q-71 0 -119 42.5t-48 112.5zM126 146q0 -43 26 -69t69 -26q54 0 87 35q10 10 17 23t11 21.5t6.5 29 t3 26.5t1.5 34t1 34q-37 5 -73 5q-63 0 -106 -27.5t-43 -85.5zM139 746h50q7 -72 72 -72q60 0 73 72h49q0 -57 -31 -94.5t-90 -37.5q-63 0 -93 36t-30 96z" />
<glyph unicode="&#x104;" horiz-adv-x="625" d="M3 0v63h56l181 580h-53v63h257v-63h-56l176 -580h56v-63h-47q-52 -57 -52 -89q0 -18 12.5 -27.5t30.5 -9.5q19 0 41 10l14 -48q-41 -15 -67 -15q-37 0 -61.5 21t-24.5 57q0 44 57 101h-113v63h68l-48 162h-243l-46 -162h62v-63h-200zM206 285h208l-103 348z" />
<glyph unicode="&#x105;" horiz-adv-x="521" d="M41 142q0 175 247 175q24 0 60 -2v48q0 104 -94 104q-43 0 -70.5 -23t-31.5 -66h-86q8 56 23 81q45 74 163 74q177 0 177 -181v-289h73v-63h-48q-52 -57 -52 -89q0 -18 12.5 -27.5t30.5 -9.5q19 0 41 10l14 -48q-41 -15 -67 -15q-37 0 -61.5 21t-24.5 57q0 44 57 101h-51 l-5 61q-56 -74 -140 -74q-71 0 -119 42.5t-48 112.5zM126 146q0 -43 26 -69t69 -26q54 0 87 35q10 10 17 23t11 21.5t6.5 29t3 26.5t1.5 34t1 34q-37 5 -73 5q-63 0 -106 -27.5t-43 -85.5z" />
<glyph unicode="&#x106;" horiz-adv-x="583" d="M45 343q0 51 5.5 98.5t23 100.5t44.5 91t74.5 63.5t109.5 25.5q118 0 167 -80q1 42 2 64h66v-223h-73q-23 176 -153 176q-44 0 -78 -22t-52.5 -55t-30.5 -78.5t-15.5 -83.5t-3.5 -78q0 -38 4 -74t15.5 -77t29.5 -71t50 -50t74 -20q145 0 160 186h80q-5 -65 -20 -106 q-24 -70 -81 -106.5t-132 -36.5q-61 0 -108.5 20.5t-76.5 53.5t-48 80t-26 96t-7 106zM213 775l112 120h139l-173 -120h-78z" />
<glyph unicode="&#x107;" horiz-adv-x="458" d="M39 252q0 51 9.5 97.5t30 89.5t59.5 68.5t93 25.5q44 0 75 -17t59 -53l5 54h63v-179h-71q-5 49 -36 89.5t-77 40.5q-37 0 -63 -21.5t-38.5 -57.5t-18 -69.5t-5.5 -69.5q0 -34 5 -65.5t18 -63t38.5 -50.5t62.5 -19q51 0 79.5 34.5t34.5 88.5h79q-6 -86 -57 -137t-134 -51 q-111 0 -161 73.5t-50 191.5zM187 606l65 154h100l-101 -154h-64z" />
<glyph unicode="&#x108;" horiz-adv-x="583" d="M45 343q0 51 5.5 98.5t23 100.5t44.5 91t74.5 63.5t109.5 25.5q118 0 167 -80q1 42 2 64h66v-223h-73q-23 176 -153 176q-44 0 -78 -22t-52.5 -55t-30.5 -78.5t-15.5 -83.5t-3.5 -78q0 -38 4 -74t15.5 -77t29.5 -71t50 -50t74 -20q145 0 160 186h80q-5 -65 -20 -106 q-24 -70 -81 -106.5t-132 -36.5q-61 0 -108.5 20.5t-76.5 53.5t-48 80t-26 96t-7 106zM154 775l97 111h85l92 -111h-53l-82 58l-86 -58h-53z" />
<glyph unicode="&#x109;" horiz-adv-x="458" d="M39 252q0 51 9.5 97.5t30 89.5t59.5 68.5t93 25.5q44 0 75 -17t59 -53l5 54h63v-179h-71q-5 49 -36 89.5t-77 40.5q-37 0 -63 -21.5t-38.5 -57.5t-18 -69.5t-5.5 -69.5q0 -34 5 -65.5t18 -63t38.5 -50.5t62.5 -19q51 0 79.5 34.5t34.5 88.5h79q-6 -86 -57 -137t-134 -51 q-111 0 -161 73.5t-50 191.5zM121 606l80 142h90l78 -142h-57l-66 91l-66 -91h-59z" />
<glyph unicode="&#x10a;" horiz-adv-x="583" d="M45 343q0 51 5.5 98.5t23 100.5t44.5 91t74.5 63.5t109.5 25.5q118 0 167 -80q1 42 2 64h66v-223h-73q-23 176 -153 176q-44 0 -78 -22t-52.5 -55t-30.5 -78.5t-15.5 -83.5t-3.5 -78q0 -38 4 -74t15.5 -77t29.5 -71t50 -50t74 -20q145 0 160 186h80q-5 -65 -20 -106 q-24 -70 -81 -106.5t-132 -36.5q-61 0 -108.5 20.5t-76.5 53.5t-48 80t-26 96t-7 106zM246 803v83h90v-83h-90z" />
<glyph unicode="&#x10b;" horiz-adv-x="458" d="M39 252q0 51 9.5 97.5t30 89.5t59.5 68.5t93 25.5q44 0 75 -17t59 -53l5 54h63v-179h-71q-5 49 -36 89.5t-77 40.5q-37 0 -63 -21.5t-38.5 -57.5t-18 -69.5t-5.5 -69.5q0 -34 5 -65.5t18 -63t38.5 -50.5t62.5 -19q51 0 79.5 34.5t34.5 88.5h79q-6 -86 -57 -137t-134 -51 q-111 0 -161 73.5t-50 191.5zM184 634v81h90v-81h-90z" />
<glyph unicode="&#x10c;" horiz-adv-x="583" d="M45 343q0 51 5.5 98.5t23 100.5t44.5 91t74.5 63.5t109.5 25.5q118 0 167 -80q1 42 2 64h66v-223h-73q-23 176 -153 176q-44 0 -78 -22t-52.5 -55t-30.5 -78.5t-15.5 -83.5t-3.5 -78q0 -38 4 -74t15.5 -77t29.5 -71t50 -50t74 -20q145 0 160 186h80q-5 -65 -20 -106 q-24 -70 -81 -106.5t-132 -36.5q-61 0 -108.5 20.5t-76.5 53.5t-48 80t-26 96t-7 106zM154 886h53l82 -58l86 58h53l-97 -111h-85z" />
<glyph unicode="&#x10d;" horiz-adv-x="458" d="M39 252q0 51 9.5 97.5t30 89.5t59.5 68.5t93 25.5q44 0 75 -17t59 -53l5 54h63v-179h-71q-5 49 -36 89.5t-77 40.5q-37 0 -63 -21.5t-38.5 -57.5t-18 -69.5t-5.5 -69.5q0 -34 5 -65.5t18 -63t38.5 -50.5t62.5 -19q51 0 79.5 34.5t34.5 88.5h79q-6 -86 -57 -137t-134 -51 q-111 0 -161 73.5t-50 191.5zM114 748h57l66 -91l66 91h59l-80 -142h-90z" />
<glyph unicode="&#x10e;" horiz-adv-x="625" d="M18 0v63h74v580h-74v63h239q111 0 161 -20q87 -35 124.5 -124.5t37.5 -197.5q0 -51 -7.5 -98t-24 -95.5t-49 -87t-76.5 -59.5q-50 -24 -134 -24h-271zM122 886h53l82 -58l86 58h53l-97 -111h-85zM175 63h83q82 0 120 19q64 32 90 108.5t26 165.5q0 88 -26.5 163.5 t-91.5 105.5q-40 18 -106 18h-95v-580z" />
<glyph unicode="&#x10f;" horiz-adv-x="562" d="M39 260q0 50 12 97t36 87t66 64.5t95 24.5q45 0 76.5 -17.5t61.5 -54.5v182h-78v63h161v-643h75v-63h-148v71q-54 -83 -153 -83q-53 0 -94 24t-64 64.5t-34.5 87t-11.5 96.5zM126 263q0 -51 11 -95t42 -79t79 -35q36 0 63 21t40.5 54t19.5 66t6 65q0 38 -6 71t-19.5 64 t-40 49t-62.5 18q-38 0 -65.5 -20.5t-41.5 -53t-20 -64t-6 -61.5zM506 587l52 144h92l-89 -144h-55z" />
<glyph unicode="&#x110;" horiz-adv-x="625" d="M18 0v63h74v281h-72v63h72v236h-74v63h256q91 0 146 -22q60 -24 97.5 -79t50 -113.5t12.5 -127.5q0 -51 -7.5 -98t-24 -95.5t-49 -87t-76.5 -59.5q-50 -24 -134 -24h-271zM175 63h83q82 0 120 19q64 32 90 108.5t26 165.5q0 88 -26.5 163.5t-91.5 105.5q-40 18 -106 18 h-95v-236h179v-63h-179v-281z" />
<glyph unicode="&#x111;" horiz-adv-x="562" d="M39 260q0 50 12 97t36 87t66 64.5t95 24.5q45 0 76.5 -17.5t61.5 -54.5v95h-175v53h175v34h-78v63h161v-97h70v-53h-70v-493h75v-63h-148v71q-54 -83 -153 -83q-53 0 -94 24t-64 64.5t-34.5 87t-11.5 96.5zM126 263q0 -51 11 -95t42 -79t79 -35q36 0 63 21t40.5 54 t19.5 66t6 65q0 38 -6 71t-19.5 64t-40 49t-62.5 18q-38 0 -65.5 -20.5t-41.5 -53t-20 -64t-6 -61.5z" />
<glyph unicode="&#x112;" horiz-adv-x="562" d="M21 0v63h73v580h-73v63h484v-221h-75v158h-253v-234h229v-66h-229v-280h253v175h75v-238h-484zM146 805v67h270v-67h-270z" />
<glyph unicode="&#x113;" horiz-adv-x="521" d="M37 257q0 119 55.5 197.5t167.5 78.5q117 0 170.5 -76.5t53.5 -199.5h-360v-22q0 -75 35 -128t107 -53q49 0 82 30t42 80h82q-13 -86 -68 -131t-142 -45q-114 0 -169.5 75.5t-55.5 193.5zM126 319h271q-6 64 -40 106.5t-96 42.5t-96 -42.5t-39 -106.5zM140 632v65h242 v-65h-242z" />
<glyph unicode="&#x116;" horiz-adv-x="562" d="M21 0v63h73v580h-73v63h484v-221h-75v158h-253v-234h229v-66h-229v-280h253v175h75v-238h-484zM236 803v83h90v-83h-90z" />
<glyph unicode="&#x117;" horiz-adv-x="521" d="M37 257q0 119 55.5 197.5t167.5 78.5q117 0 170.5 -76.5t53.5 -199.5h-360v-22q0 -75 35 -128t107 -53q49 0 82 30t42 80h82q-13 -86 -68 -131t-142 -45q-114 0 -169.5 75.5t-55.5 193.5zM126 319h271q-6 64 -40 106.5t-96 42.5t-96 -42.5t-39 -106.5zM215 634v81h90v-81 h-90z" />
<glyph unicode="&#x118;" horiz-adv-x="562" d="M21 0v63h73v580h-73v63h484v-221h-75v158h-253v-234h229v-66h-229v-280h253v175h75v-238h-484zM357 -101q0 21 12.5 43.5t23 34.5t31.5 33h49q-4 -5 -18 -21t-21.5 -25t-14.5 -24.5t-7 -28.5q0 -18 12.5 -27.5t30.5 -9.5q19 0 41 10l14 -48q-41 -15 -67 -15 q-37 0 -61.5 21t-24.5 57z" />
<glyph unicode="&#x119;" horiz-adv-x="521" d="M37 257q0 119 55.5 197.5t167.5 78.5q117 0 170.5 -76.5t53.5 -199.5h-360v-22q0 -75 35 -128t107 -53q49 0 82 30t42 80h82q-13 -86 -68 -131t-142 -45q-114 0 -169.5 75.5t-55.5 193.5zM126 319h271q-6 64 -40 106.5t-96 42.5t-96 -42.5t-39 -106.5zM249 -101 q0 21 12.5 43.5t23 34.5t31.5 33h49q-4 -5 -18 -21t-21.5 -25t-14.5 -24.5t-7 -28.5q0 -18 12.5 -27.5t30.5 -9.5q19 0 41 10l14 -48q-41 -15 -67 -15q-37 0 -61.5 21t-24.5 57z" />
<glyph unicode="&#x11a;" horiz-adv-x="562" d="M21 0v63h73v580h-73v63h484v-221h-75v158h-253v-234h229v-66h-229v-280h253v175h75v-238h-484zM131 886h53l82 -58l86 58h53l-97 -111h-85z" />
<glyph unicode="&#x11b;" horiz-adv-x="521" d="M37 257q0 119 55.5 197.5t167.5 78.5q117 0 170.5 -76.5t53.5 -199.5h-360v-22q0 -75 35 -128t107 -53q49 0 82 30t42 80h82q-13 -86 -68 -131t-142 -45q-114 0 -169.5 75.5t-55.5 193.5zM126 319h271q-6 64 -40 106.5t-96 42.5t-96 -42.5t-39 -106.5zM136 748h57l66 -91 l66 91h59l-80 -142h-90z" />
<glyph unicode="&#x11c;" horiz-adv-x="646" d="M46 343q0 57 7.5 108t26.5 101.5t48.5 87t78 59t110.5 22.5q103 0 171 -84q2 43 2 69h67v-227h-76q-6 78 -44 126.5t-113 48.5q-46 0 -81.5 -21t-56 -52.5t-33 -74.5t-16.5 -80t-4 -76q0 -49 8 -95.5t27.5 -94t58 -76.5t92.5 -29q169 0 169 232h-168v65h245v-352h-67 l-2 70q-62 -84 -188 -84q-73 0 -127 34t-82 89.5t-40.5 113.5t-12.5 120zM186 775l97 111h85l92 -111h-53l-82 58l-86 -58h-53z" />
<glyph unicode="&#x11d;" d="M38 275q0 67 20 123.5t67.5 95.5t115.5 39q105 0 152 -83l4 71h148v-63h-76v-450q0 -96 -25 -141t-73.5 -67.5t-104.5 -22.5q-85 0 -144.5 41.5t-68.5 122.5h87q4 -46 39.5 -71.5t84.5 -25.5q123 0 123 136v98q-56 -78 -145 -78q-91 0 -147.5 72t-56.5 203zM123 273 q0 -98 38.5 -151t94.5 -53q48 0 79 33.5t42 75t11 88.5q0 96 -36 148t-96 52q-61 0 -97 -55t-36 -138zM147 606l80 142h90l78 -142h-57l-66 91l-66 -91h-59z" />
<glyph unicode="&#x11e;" horiz-adv-x="646" d="M46 343q0 57 7.5 108t26.5 101.5t48.5 87t78 59t110.5 22.5q103 0 171 -84q2 43 2 69h67v-227h-76q-6 78 -44 126.5t-113 48.5q-46 0 -81.5 -21t-56 -52.5t-33 -74.5t-16.5 -80t-4 -76q0 -49 8 -95.5t27.5 -94t58 -76.5t92.5 -29q169 0 169 232h-168v65h245v-352h-67 l-2 70q-62 -84 -188 -84q-73 0 -127 34t-82 89.5t-40.5 113.5t-12.5 120zM192 905h54q7 -66 77 -66q65 0 78 66h53q0 -52 -33.5 -86.5t-96.5 -34.5q-67 0 -99.5 33t-32.5 88z" />
<glyph unicode="&#x11f;" d="M38 275q0 67 20 123.5t67.5 95.5t115.5 39q105 0 152 -83l4 71h148v-63h-76v-450q0 -96 -25 -141t-73.5 -67.5t-104.5 -22.5q-85 0 -144.5 41.5t-68.5 122.5h87q4 -46 39.5 -71.5t84.5 -25.5q123 0 123 136v98q-56 -78 -145 -78q-91 0 -147.5 72t-56.5 203zM123 273 q0 -98 38.5 -151t94.5 -53q48 0 79 33.5t42 75t11 88.5q0 96 -36 148t-96 52q-61 0 -97 -55t-36 -138zM149 746h50q7 -72 72 -72q60 0 73 72h49q0 -57 -31 -94.5t-90 -37.5q-63 0 -93 36t-30 96z" />
<glyph unicode="&#x120;" horiz-adv-x="646" d="M46 343q0 57 7.5 108t26.5 101.5t48.5 87t78 59t110.5 22.5q103 0 171 -84q2 43 2 69h67v-227h-76q-6 78 -44 126.5t-113 48.5q-46 0 -81.5 -21t-56 -52.5t-33 -74.5t-16.5 -80t-4 -76q0 -49 8 -95.5t27.5 -94t58 -76.5t92.5 -29q169 0 169 232h-168v65h245v-352h-67 l-2 70q-62 -84 -188 -84q-73 0 -127 34t-82 89.5t-40.5 113.5t-12.5 120zM278 803v83h90v-83h-90z" />
<glyph unicode="&#x121;" d="M38 275q0 67 20 123.5t67.5 95.5t115.5 39q105 0 152 -83l4 71h148v-63h-76v-450q0 -96 -25 -141t-73.5 -67.5t-104.5 -22.5q-85 0 -144.5 41.5t-68.5 122.5h87q4 -46 39.5 -71.5t84.5 -25.5q123 0 123 136v98q-56 -78 -145 -78q-91 0 -147.5 72t-56.5 203zM123 273 q0 -98 38.5 -151t94.5 -53q48 0 79 33.5t42 75t11 88.5q0 96 -36 148t-96 52q-61 0 -97 -55t-36 -138zM226 634v81h90v-81h-90z" />
<glyph unicode="&#x122;" horiz-adv-x="646" d="M46 343q0 57 7.5 108t26.5 101.5t48.5 87t78 59t110.5 22.5q103 0 171 -84q2 43 2 69h67v-227h-76q-6 78 -44 126.5t-113 48.5q-46 0 -81.5 -21t-56 -52.5t-33 -74.5t-16.5 -80t-4 -76q0 -49 8 -95.5t27.5 -94t58 -76.5t92.5 -29q169 0 169 232h-168v65h245v-352h-67 l-2 70q-62 -84 -188 -84q-73 0 -127 34t-82 89.5t-40.5 113.5t-12.5 120zM252 -198l48 144h92l-85 -144h-55z" />
<glyph unicode="&#x123;" d="M38 275q0 67 20 123.5t67.5 95.5t115.5 39q105 0 152 -83l4 71h148v-63h-76v-450q0 -96 -25 -141t-73.5 -67.5t-104.5 -22.5q-85 0 -144.5 41.5t-68.5 122.5h87q4 -46 39.5 -71.5t84.5 -25.5q123 0 123 136v98q-56 -78 -145 -78q-91 0 -147.5 72t-56.5 203zM123 273 q0 -98 38.5 -151t94.5 -53q48 0 79 33.5t42 75t11 88.5q0 96 -36 148t-96 52q-61 0 -97 -55t-36 -138zM213 598l89 144h55l-52 -144h-92z" />
<glyph unicode="&#x124;" horiz-adv-x="646" d="M18 0v63h75v580h-75v63h233v-63h-74v-236h290v236h-75v63h233v-63h-74v-580h74v-63h-233v63h75v279h-290v-279h74v-63h-233zM186 775l97 111h85l92 -111h-53l-82 58l-86 -58h-53z" />
<glyph unicode="&#x125;" horiz-adv-x="583" d="M-24 775l97 111h85l92 -111h-53l-82 58l-86 -58h-53zM21 0v63h73v580h-73v63h157v-259q28 46 64 66t91 20q78 0 119 -41t41 -117v-312h71v-63h-227v63h72v288q0 51 -22.5 84t-73.5 33q-52 0 -84 -31.5t-41.5 -71.5t-9.5 -91v-211h74v-63h-231z" />
<glyph unicode="&#x126;" horiz-adv-x="646" d="M18 0v63h75v437h-72v63h72v80h-75v63h233v-63h-74v-80h290v80h-75v63h233v-63h-74v-80h73v-63h-73v-437h74v-63h-233v63h75v279h-290v-279h74v-63h-233zM177 407h290v93h-290v-93z" />
<glyph unicode="&#x127;" horiz-adv-x="583" d="M21 0v63h73v493h-70v53h70v34h-73v63h157v-97h174v-53h-174v-109q28 46 64 66t91 20q78 0 119 -41t41 -117v-312h71v-63h-227v63h72v288q0 51 -22.5 84t-73.5 33q-52 0 -84 -31.5t-41.5 -71.5t-9.5 -91v-211h74v-63h-231z" />
<glyph unicode="&#x12a;" horiz-adv-x="271" d="M1 805v67h270v-67h-270zM18 0v63h74v580h-74v63h233v-63h-74v-580h74v-63h-233z" />
<glyph unicode="&#x12b;" horiz-adv-x="271" d="M15 632v65h242v-65h-242zM22 0v63h76v395h-76v63h160v-458h74v-63h-234z" />
<glyph unicode="&#x12e;" horiz-adv-x="271" d="M18 0v63h74v580h-74v63h233v-63h-74v-580h74v-63h-233zM69 -101q0 21 12.5 43.5t23 34.5t31.5 33h49q-4 -5 -18 -21t-21.5 -25t-14.5 -24.5t-7 -28.5q0 -18 12.5 -27.5t30.5 -9.5q19 0 41 10l14 -48q-41 -15 -67 -15q-37 0 -61.5 21t-24.5 57z" />
<glyph unicode="&#x12f;" horiz-adv-x="271" d="M22 0v63h77v395h-77v63h160v-458h74v-63h-234zM69 -101q0 21 12.5 43.5t23 34.5t31.5 33h49q-4 -5 -18 -21t-21.5 -25t-14.5 -24.5t-7 -28.5q0 -18 12.5 -27.5t30.5 -9.5q19 0 41 10l14 -48q-41 -15 -67 -15q-37 0 -61.5 21t-24.5 57zM85 625v81h97v-81h-97z" />
<glyph unicode="&#x130;" horiz-adv-x="271" d="M18 0v63h74v580h-74v63h233v-63h-74v-580h74v-63h-233zM91 803v83h90v-83h-90z" />
<glyph unicode="&#x131;" horiz-adv-x="271" d="M22 0v63h76v395h-76v63h160v-458h74v-63h-234z" />
<glyph unicode="&#x134;" horiz-adv-x="396" d="M0 10v78q83 -36 133 -36q54 0 73.5 30t19.5 88v473h-75v63h233v-63h-74v-478q0 -178 -172 -178q-66 0 -138 23zM124 775l97 111h85l92 -111h-53l-82 58l-86 -58h-53z" />
<glyph unicode="&#x135;" horiz-adv-x="250" d="M-59 -145q36 -12 63 -12q84 0 84 90v525h-77v63h161v-588q0 -156 -148 -156q-36 0 -83 10v68zM-18 606l80 142h90l78 -142h-57l-66 91l-66 -91h-59z" />
<glyph unicode="&#x136;" horiz-adv-x="604" d="M18 0v63h74v580h-74v63h234v-63h-76v-265l258 265h-70v63h222v-63h-51l-219 -222l219 -358h59v-63h-230v63h70l-176 301l-82 -80v-221h76v-63h-234zM225 -198l48 144h92l-85 -144h-55z" />
<glyph unicode="&#x137;" horiz-adv-x="521" d="M21 0v63h73v580h-73v63h156v-421l182 173h-69v63h212v-63h-53l-135 -125l157 -270h48v-63h-205v63h60l-120 213l-77 -70v-143h65v-63h-221zM189 -198l48 144h92l-85 -144h-55z" />
<glyph unicode="&#x139;" horiz-adv-x="479" d="M20 0v63h74v580h-74v63h232v-63h-75v-580h210v176h75v-239h-442zM87 775l112 120h139l-173 -120h-78z" />
<glyph unicode="&#x13a;" horiz-adv-x="271" d="M22 0v63h74v580h-74v63h158v-643h73v-63h-231zM34 775l112 120h139l-173 -120h-78z" />
<glyph unicode="&#x13b;" horiz-adv-x="479" d="M20 0v63h74v580h-74v63h232v-63h-75v-580h210v176h75v-239h-442zM168 -198l48 144h92l-85 -144h-55z" />
<glyph unicode="&#x13c;" horiz-adv-x="271" d="M22 0v63h74v580h-74v63h158v-643h73v-63h-231zM65 -198l48 144h92l-85 -144h-55z" />
<glyph unicode="&#x13d;" horiz-adv-x="479" d="M20 0v63h74v580h-74v63h232v-63h-75v-580h210v176h75v-239h-442zM276 587l52 144h92l-89 -144h-55z" />
<glyph unicode="&#x13e;" horiz-adv-x="271" d="M22 0v63h74v580h-74v63h158v-643h73v-63h-231zM218 587l52 144h92l-89 -144h-55z" />
<glyph unicode="&#x13f;" horiz-adv-x="479" d="M20 0v63h74v580h-74v63h232v-63h-75v-580h210v176h75v-239h-442zM306 321v114h114v-114h-114z" />
<glyph unicode="&#x140;" horiz-adv-x="311" d="M22 0v63h74v580h-74v63h158v-643h73v-63h-231zM240 321v106h107v-106h-107z" />
<glyph unicode="&#x141;" horiz-adv-x="479" d="M-1 240v74l95 67v262h-74v63h232v-63h-75v-202l123 87v-73l-123 -88v-304h210v176h75v-239h-442v63h74v245z" />
<glyph unicode="&#x142;" horiz-adv-x="271" d="M0 255v73l96 68v247h-74v63h158v-249l89 64v-71l-89 -65v-322h73v-63h-231v63h74v261z" />
<glyph unicode="&#x143;" horiz-adv-x="625" d="M20 0v63h73v580h-73v63h209l231 -637v574h-72v63h224v-63h-76v-643h-133l-233 643v-580h72v-63h-222zM210 775l112 120h139l-173 -120h-78z" />
<glyph unicode="&#x144;" horiz-adv-x="583" d="M26 0v63h72v395h-72v63h153l3 -82q17 46 59 70.5t94 24.5q46 0 78.5 -15t48.5 -41t22.5 -52.5t6.5 -57.5v-305h76v-63h-233v63h73v285q0 119 -93 119q-40 0 -68 -20t-41 -54t-18 -66t-5 -68v-196h75v-63h-231zM209 606l65 154h100l-101 -154h-64z" />
<glyph unicode="&#x145;" horiz-adv-x="625" d="M20 0v63h73v580h-73v63h209l231 -637v574h-72v63h224v-63h-76v-643h-133l-233 643v-580h72v-63h-222zM241 -198l48 144h92l-85 -144h-55z" />
<glyph unicode="&#x146;" horiz-adv-x="583" d="M26 0v63h72v395h-72v63h153l3 -82q17 46 59 70.5t94 24.5q46 0 78.5 -15t48.5 -41t22.5 -52.5t6.5 -57.5v-305h76v-63h-233v63h73v285q0 119 -93 119q-40 0 -68 -20t-41 -54t-18 -66t-5 -68v-196h75v-63h-231zM220 -198l48 144h92l-85 -144h-55z" />
<glyph unicode="&#x147;" horiz-adv-x="625" d="M20 0v63h73v580h-73v63h209l231 -637v574h-72v63h224v-63h-76v-643h-133l-233 643v-580h72v-63h-222zM175 886h53l82 -58l86 58h53l-97 -111h-85z" />
<glyph unicode="&#x148;" horiz-adv-x="583" d="M26 0v63h72v395h-72v63h153l3 -82q17 46 59 70.5t94 24.5q46 0 78.5 -15t48.5 -41t22.5 -52.5t6.5 -57.5v-305h76v-63h-233v63h73v285q0 119 -93 119q-40 0 -68 -20t-41 -54t-18 -66t-5 -68v-196h75v-63h-231zM167 748h57l66 -91l66 91h59l-80 -142h-90z" />
<glyph unicode="&#x14c;" horiz-adv-x="625" d="M45 341q0 73 12 135.5t40.5 120t83 91t131.5 33.5q73 0 127 -31t83.5 -84t43 -113.5t13.5 -129.5q0 -57 -7.5 -107.5t-26.5 -101t-48.5 -87t-77.5 -59t-110 -22.5q-72 0 -125 30.5t-82.5 83.5t-43 113t-13.5 128zM129 346q0 -50 8 -96.5t27.5 -93t58 -74.5t92.5 -28 q52 0 89.5 31t56 80.5t26.5 97.5t8 96q0 50 -8.5 97t-28 93.5t-58 75t-91.5 28.5t-90.5 -31t-56 -81t-26 -98t-7.5 -97zM178 805v67h270v-67h-270z" />
<glyph unicode="&#x14d;" horiz-adv-x="521" d="M38 262q0 68 23 132.5t70 100.5q50 38 132 38q62 0 106.5 -24t68 -64.5t34 -85t10.5 -94.5q0 -68 -22 -135t-68 -103q-51 -40 -131 -40q-61 0 -105.5 21.5t-69.5 61t-36.5 87t-11.5 105.5zM122 260q0 -38 5.5 -70.5t19.5 -65t42 -51.5t68 -19q53 0 86 34.5t43.5 78 t10.5 95.5q0 38 -6 71t-20 65t-41.5 50.5t-66.5 18.5q-40 0 -69 -18.5t-44 -50.5t-21.5 -66t-6.5 -72zM140 632v65h242v-65h-242z" />
<glyph unicode="&#x150;" horiz-adv-x="625" d="M45 341q0 73 12 135.5t40.5 120t83 91t131.5 33.5q73 0 127 -31t83.5 -84t43 -113.5t13.5 -129.5q0 -57 -7.5 -107.5t-26.5 -101t-48.5 -87t-77.5 -59t-110 -22.5q-72 0 -125 30.5t-82.5 83.5t-43 113t-13.5 128zM129 346q0 -50 8 -96.5t27.5 -93t58 -74.5t92.5 -28 q52 0 89.5 31t56 80.5t26.5 97.5t8 96q0 50 -8.5 97t-28 93.5t-58 75t-91.5 28.5t-90.5 -31t-56 -81t-26 -98t-7.5 -97zM170 775l112 120h129l-173 -120h-68zM333 775l112 120h129l-173 -120h-68z" />
<glyph unicode="&#x151;" horiz-adv-x="521" d="M38 262q0 68 23 132.5t70 100.5q50 38 132 38q62 0 106.5 -24t68 -64.5t34 -85t10.5 -94.5q0 -68 -22 -135t-68 -103q-51 -40 -131 -40q-61 0 -105.5 21.5t-69.5 61t-36.5 87t-11.5 105.5zM122 260q0 -38 5.5 -70.5t19.5 -65t42 -51.5t68 -19q53 0 86 34.5t43.5 78 t10.5 95.5q0 38 -6 71t-20 65t-41.5 50.5t-66.5 18.5q-40 0 -69 -18.5t-44 -50.5t-21.5 -66t-6.5 -72zM149 606l65 154h93l-101 -154h-57zM279 606l65 154h93l-101 -154h-57z" />
<glyph unicode="&#x152;" horiz-adv-x="896" d="M44 351q0 276 144 340q53 23 161 23q52 0 111.5 -4t83.5 -4h295v-221h-75v158h-247v-233h234v-66h-234v-281h247v178h75v-241h-348q-26 0 -77.5 -2.5t-84.5 -2.5q-110 0 -159 28q-126 71 -126 328zM129 351q0 -204 86 -264q39 -27 118 -27l99 3v580q-60 2 -91 2 q-94 0 -134 -31q-78 -62 -78 -263z" />
<glyph unicode="&#x153;" horiz-adv-x="875" d="M38 254q0 56 12 104.5t37 88.5t69 63t103 23q123 0 177 -100q66 100 182 100q78 0 129.5 -39.5t72 -99t20.5 -137.5h-355v-20q0 -79 35.5 -131t105.5 -52q48 0 79.5 30.5t40.5 79.5h84q-13 -84 -66.5 -131t-137.5 -47q-125 0 -190 107q-57 -105 -183 -105 q-110 0 -162.5 75t-52.5 191zM122 263q0 -22 1.5 -41.5t9 -52.5t20.5 -56t40.5 -41t65.5 -18q45 0 76 24t45 61.5t19 67.5t5 58q0 85 -38 143.5t-105 58.5q-68 0 -103.5 -59t-35.5 -145zM489 318h264q-5 63 -40 106.5t-95 43.5q-58 0 -91.5 -44.5t-37.5 -105.5z" />
<glyph unicode="&#x154;" horiz-adv-x="604" d="M20 0v63h72v580h-72v63h312q192 0 192 -173q0 -132 -130 -166q43 -17 60.5 -41t26.5 -71l36 -192h68v-63h-143l-42 246q-9 52 -35.5 72t-84.5 20h-103v-275h76v-63h-233zM177 403h134q129 0 129 124q0 116 -111 116h-152v-240zM193 775l112 120h139l-173 -120h-78z" />
<glyph unicode="&#x155;" horiz-adv-x="354" d="M25 0v63h74v395h-74v63h147v-85q18 44 52.5 69t80.5 25q16 0 46 -6v-85q-23 5 -41 5q-36 0 -62.5 -15t-40 -39.5t-19.5 -50t-6 -51.5v-225h76v-63h-233zM125 606l65 154h100l-101 -154h-64z" />
<glyph unicode="&#x158;" horiz-adv-x="604" d="M20 0v63h72v580h-72v63h312q192 0 192 -173q0 -132 -130 -166q43 -17 60.5 -41t26.5 -71l36 -192h68v-63h-143l-42 246q-9 52 -35.5 72t-84.5 20h-103v-275h76v-63h-233zM133 886h53l82 -58l86 58h53l-97 -111h-85zM177 403h134q129 0 129 124q0 116 -111 116h-152v-240z " />
<glyph unicode="&#x159;" horiz-adv-x="354" d="M25 0v63h74v395h-74v63h147v-85q18 44 52.5 69t80.5 25q16 0 46 -6v-85q-23 5 -41 5q-36 0 -62.5 -15t-40 -39.5t-19.5 -50t-6 -51.5v-225h76v-63h-233zM53 748h57l66 -91l66 91h59l-80 -142h-90z" />
<glyph unicode="&#x15a;" d="M47 0v240h72q8 -82 52 -135.5t121 -53.5q55 0 90.5 36.5t35.5 91.5q0 46 -28 77.5t-62 45t-86.5 32t-79.5 33.5q-105 59 -105 166q0 81 54 134.5t135 53.5q111 0 168 -90q1 47 2 75h66v-223h-73q-7 73 -44 123t-112 50q-51 0 -85 -32t-34 -82q0 -36 14.5 -60t43 -39 t58.5 -25.5t72 -26t73 -33.5q104 -60 104 -175q0 -88 -56 -142t-145 -54q-114 0 -180 90l-2 -77h-69zM185 775l112 120h139l-173 -120h-78z" />
<glyph unicode="&#x15b;" horiz-adv-x="437" d="M37 0v180h68q5 -46 36 -86.5t87 -40.5q40 0 66 23t26 57q0 14 -3.5 25.5t-12.5 21t-15.5 15.5t-23 13.5t-23.5 10.5t-27.5 10.5t-25.5 9.5q-42 16 -60 24t-43.5 25.5t-35.5 41t-10 56.5q0 68 45 107.5t106 39.5q82 0 132 -68l3 56h64v-175h-67q-6 53 -37 87.5t-82 34.5 q-39 0 -61 -21.5t-22 -51.5q0 -19 6.5 -32.5t24 -23.5t29 -14.5t41.5 -14.5q34 -12 52 -19t46.5 -22t43 -31t26 -42t11.5 -58q0 -65 -43 -108t-120 -43q-37 0 -66.5 13.5t-41.5 26.5t-25 32l-4 -59h-64zM157 606l65 154h100l-101 -154h-64z" />
<glyph unicode="&#x15c;" d="M47 0v240h72q8 -82 52 -135.5t121 -53.5q55 0 90.5 36.5t35.5 91.5q0 46 -28 77.5t-62 45t-86.5 32t-79.5 33.5q-105 59 -105 166q0 81 54 134.5t135 53.5q111 0 168 -90q1 47 2 75h66v-223h-73q-7 73 -44 123t-112 50q-51 0 -85 -32t-34 -82q0 -36 14.5 -60t43 -39 t58.5 -25.5t72 -26t73 -33.5q104 -60 104 -175q0 -88 -56 -142t-145 -54q-114 0 -180 90l-2 -77h-69zM134 775l97 111h85l92 -111h-53l-82 58l-86 -58h-53z" />
<glyph unicode="&#x15d;" horiz-adv-x="437" d="M37 0v180h68q5 -46 36 -86.5t87 -40.5q40 0 66 23t26 57q0 14 -3.5 25.5t-12.5 21t-15.5 15.5t-23 13.5t-23.5 10.5t-27.5 10.5t-25.5 9.5q-42 16 -60 24t-43.5 25.5t-35.5 41t-10 56.5q0 68 45 107.5t106 39.5q82 0 132 -68l3 56h64v-175h-67q-6 53 -37 87.5t-82 34.5 q-39 0 -61 -21.5t-22 -51.5q0 -19 6.5 -32.5t24 -23.5t29 -14.5t41.5 -14.5q34 -12 52 -19t46.5 -22t43 -31t26 -42t11.5 -58q0 -65 -43 -108t-120 -43q-37 0 -66.5 13.5t-41.5 26.5t-25 32l-4 -59h-64zM94 606l80 142h90l78 -142h-57l-66 91l-66 -91h-59z" />
<glyph unicode="&#x15e;" d="M47 0v240h72q8 -82 52 -135.5t121 -53.5q55 0 90.5 36.5t35.5 91.5q0 46 -28 77.5t-62 45t-86.5 32t-79.5 33.5q-105 59 -105 166q0 81 54 134.5t135 53.5q111 0 168 -90q1 47 2 75h66v-223h-73q-7 73 -44 123t-112 50q-51 0 -85 -32t-34 -82q0 -36 14.5 -60t43 -39 t58.5 -25.5t72 -26t73 -33.5q104 -60 104 -175q0 -88 -56 -142t-145 -54q-10 0 -15 1l-19 -67q16 11 38 11q37 0 56 -23.5t19 -57.5q0 -37 -24.5 -60t-65.5 -23q-84 0 -87 77h53q6 -32 34 -32q15 0 25 10.5t10 26.5t-9.5 27t-23.5 11q-17 0 -32 -12l-51 7l32 112 q-75 19 -120 82l-2 -77h-69z" />
<glyph unicode="&#x15f;" horiz-adv-x="437" d="M37 0v180h68q5 -46 36 -86.5t87 -40.5q40 0 66 23t26 57q0 14 -3.5 25.5t-12.5 21t-15.5 15.5t-23 13.5t-23.5 10.5t-27.5 10.5t-25.5 9.5q-42 16 -60 24t-43.5 25.5t-35.5 41t-10 56.5q0 68 45 107.5t106 39.5q82 0 132 -68l3 56h64v-175h-67q-6 53 -37 87.5t-82 34.5 q-39 0 -61 -21.5t-22 -51.5q0 -19 6.5 -32.5t24 -23.5t29 -14.5t41.5 -14.5q34 -12 52 -19t46.5 -22t43 -31t26 -42t11.5 -58q0 -65 -42.5 -108t-123.5 -43l-17 -63q16 11 36 11q35 0 53 -22.5t18 -56.5q0 -36 -23.5 -58t-61.5 -22q-79 0 -82 74h50q7 -31 32 -31 q14 0 23.5 10t9.5 26t-9 26.5t-22 10.5q-16 0 -30 -12l-49 7l29 106q-50 12 -87 66l-4 -59h-64z" />
<glyph unicode="&#x160;" d="M47 0v240h72q8 -82 52 -135.5t121 -53.5q55 0 90.5 36.5t35.5 91.5q0 46 -28 77.5t-62 45t-86.5 32t-79.5 33.5q-105 59 -105 166q0 81 54 134.5t135 53.5q111 0 168 -90q1 47 2 75h66v-223h-73q-7 73 -44 123t-112 50q-51 0 -85 -32t-34 -82q0 -36 14.5 -60t43 -39 t58.5 -25.5t72 -26t73 -33.5q104 -60 104 -175q0 -88 -56 -142t-145 -54q-114 0 -180 90l-2 -77h-69zM136 886h53l82 -58l86 58h53l-97 -111h-85z" />
<glyph unicode="&#x161;" horiz-adv-x="437" d="M37 0v180h68q5 -46 36 -86.5t87 -40.5q40 0 66 23t26 57q0 14 -3.5 25.5t-12.5 21t-15.5 15.5t-23 13.5t-23.5 10.5t-27.5 10.5t-25.5 9.5q-42 16 -60 24t-43.5 25.5t-35.5 41t-10 56.5q0 68 45 107.5t106 39.5q82 0 132 -68l3 56h64v-175h-67q-6 53 -37 87.5t-82 34.5 q-39 0 -61 -21.5t-22 -51.5q0 -19 6.5 -32.5t24 -23.5t29 -14.5t41.5 -14.5q34 -12 52 -19t46.5 -22t43 -31t26 -42t11.5 -58q0 -65 -43 -108t-120 -43q-37 0 -66.5 13.5t-41.5 26.5t-25 32l-4 -59h-64zM103 748h57l66 -91l66 91h59l-80 -142h-90z" />
<glyph unicode="&#x162;" horiz-adv-x="562" d="M19 483v223h519v-223h-72v160h-145v-580h74v-63h-229v63h73v580h-146v-160h-74zM210 -198l48 144h92l-85 -144h-55z" />
<glyph unicode="&#x163;" horiz-adv-x="313" d="M14 458v63h76v112l85 18v-130h114v-63h-114v-334q0 -37 14.5 -52t52.5 -15q12 0 54 7v-67q-54 -7 -70 -7q-75 0 -105.5 28.5t-30.5 100.5v339h-76zM95 -198l48 144h92l-85 -144h-55z" />
<glyph unicode="&#x164;" horiz-adv-x="562" d="M19 483v223h519v-223h-72v160h-145v-580h74v-63h-229v63h73v580h-146v-160h-74zM144 886h53l82 -58l86 58h53l-97 -111h-85z" />
<glyph unicode="&#x165;" horiz-adv-x="313" d="M14 458v63h76v112l85 18v-130h114v-63h-114v-334q0 -37 14.5 -52t52.5 -15q12 0 54 7v-67q-54 -7 -70 -7q-75 0 -105.5 28.5t-30.5 100.5v339h-76zM203 587l52 144h92l-89 -144h-55z" />
<glyph unicode="&#x16a;" horiz-adv-x="604" d="M9 643v63h231v-63h-74v-375q0 -108 21 -150q33 -67 116 -67q89 0 122 75q15 35 15 150v367h-76v63h229v-63h-72v-425q0 -94 -37 -147q-57 -84 -177 -84q-55 0 -102 20.5t-76 57.5q-21 27 -31.5 62.5t-12.5 61.5t-2 72v382h-74zM167 805v67h270v-67h-270z" />
<glyph unicode="&#x16b;" d="M5 458v63h157v-351q0 -114 96 -114q26 0 46 11t32 32.5t19.5 42.5t10 52t3.5 49t1 45v170h-74v63h157v-458h73v-63h-145l-5 73q-40 -85 -145 -85q-58 0 -95 29q-34 27 -45.5 62t-11.5 87v292h-74zM150 632v65h242v-65h-242z" />
<glyph unicode="&#x16c;" horiz-adv-x="604" d="M9 643v63h231v-63h-74v-375q0 -108 21 -150q33 -67 116 -67q89 0 122 75q15 35 15 150v367h-76v63h229v-63h-72v-425q0 -94 -37 -147q-57 -84 -177 -84q-55 0 -102 20.5t-76 57.5q-21 27 -31.5 62.5t-12.5 61.5t-2 72v382h-74zM171 905h54q7 -66 77 -66q65 0 78 66h53 q0 -52 -33.5 -86.5t-96.5 -34.5q-67 0 -99.5 33t-32.5 88z" />
<glyph unicode="&#x16d;" d="M5 458v63h157v-351q0 -114 96 -114q26 0 46 11t32 32.5t19.5 42.5t10 52t3.5 49t1 45v170h-74v63h157v-458h73v-63h-145l-5 73q-40 -85 -145 -85q-58 0 -95 29q-34 27 -45.5 62t-11.5 87v292h-74zM149 746h50q7 -72 72 -72q60 0 73 72h49q0 -57 -31 -94.5t-90 -37.5 q-63 0 -93 36t-30 96z" />
<glyph unicode="&#x16e;" horiz-adv-x="604" d="M9 643v63h231v-63h-74v-375q0 -108 21 -150q33 -67 116 -67q89 0 122 75q15 35 15 150v367h-76v63h229v-63h-72v-425q0 -94 -37 -147q-57 -84 -177 -84q-55 0 -102 20.5t-76 57.5q-21 27 -31.5 62.5t-12.5 61.5t-2 72v382h-74zM219 830q0 34 24 57.5t59 23.5q34 0 58 -24 t24 -57q0 -34 -24 -58t-58 -24t-58.5 24t-24.5 58zM254 830q0 -20 13.5 -34t34.5 -14q19 0 33 14t14 34t-14 34.5t-33 14.5q-20 0 -34 -14.5t-14 -34.5z" />
<glyph unicode="&#x16f;" d="M5 458v63h157v-351q0 -114 96 -114q26 0 46 11t32 32.5t19.5 42.5t10 52t3.5 49t1 45v170h-74v63h157v-458h73v-63h-145l-5 73q-40 -85 -145 -85q-58 0 -95 29q-34 27 -45.5 62t-11.5 87v292h-74zM170 680q0 41 29.5 69t71.5 28t71.5 -28t29.5 -69t-29.5 -69t-71.5 -28 q-43 0 -72 27t-29 70zM212 680q0 -24 17.5 -42t41.5 -18t42 18t18 42t-18 41.5t-42 17.5q-25 0 -42 -17t-17 -42z" />
<glyph unicode="&#x170;" horiz-adv-x="604" d="M9 643v63h231v-63h-74v-375q0 -108 21 -150q33 -67 116 -67q89 0 122 75q15 35 15 150v367h-76v63h229v-63h-72v-425q0 -94 -37 -147q-57 -84 -177 -84q-55 0 -102 20.5t-76 57.5q-21 27 -31.5 62.5t-12.5 61.5t-2 72v382h-74zM149 775l112 120h129l-173 -120h-68z M312 775l112 120h129l-173 -120h-68z" />
<glyph unicode="&#x171;" d="M5 458v63h157v-351q0 -114 96 -114q26 0 46 11t32 32.5t19.5 42.5t10 52t3.5 49t1 45v170h-74v63h157v-458h73v-63h-145l-5 73q-40 -85 -145 -85q-58 0 -95 29q-34 27 -45.5 62t-11.5 87v292h-74zM136 606l65 154h93l-101 -154h-57zM266 606l65 154h93l-101 -154h-57z " />
<glyph unicode="&#x172;" horiz-adv-x="604" d="M9 643v63h231v-63h-74v-375q0 -108 21 -150q33 -67 116 -67q89 0 122 75q15 35 15 150v367h-76v63h229v-63h-72v-425q0 -94 -37 -147q-57 -84 -177 -84q-55 0 -102 20.5t-76 57.5q-21 27 -31.5 62.5t-12.5 61.5t-2 72v382h-74zM240 -101q0 21 12.5 43.5t23 34.5t31.5 33 h49q-4 -5 -18 -21t-21.5 -25t-14.5 -24.5t-7 -28.5q0 -18 12.5 -27.5t30.5 -9.5q19 0 41 10l14 -48q-41 -15 -67 -15q-37 0 -61.5 21t-24.5 57z" />
<glyph unicode="&#x173;" d="M5 458v63h157v-351q0 -114 96 -114q26 0 46 11t32 32.5t19.5 42.5t10 52t3.5 49t1 45v170h-74v63h157v-458h73v-63h-145l-5 73q-40 -85 -145 -85q-58 0 -95 29q-34 27 -45.5 62t-11.5 87v292h-74zM359 -101q0 21 12.5 43.5t23 34.5t31.5 33h49q-4 -5 -18 -21t-21.5 -25 t-14.5 -24.5t-7 -28.5q0 -18 12.5 -27.5t30.5 -9.5q19 0 41 10l14 -48q-41 -15 -67 -15q-37 0 -61.5 21t-24.5 57z" />
<glyph unicode="&#x178;" d="M-4 643v63h216v-63h-75l137 -314l140 314h-60v63h194v-63h-51l-186 -394v-186h75v-63h-233v63h75v191l-180 389h-52zM147 803v83h90v-83h-90zM301 803v83h90v-83h-90z" />
<glyph unicode="&#x179;" d="M49 0v63l352 580h-258v-159h-76v222h429v-63l-353 -580h276v178h77v-241h-447zM209 775l112 120h139l-173 -120h-78z" />
<glyph unicode="&#x17a;" horiz-adv-x="437" d="M16 0v63l289 394h-205v-109h-75v173h384v-63l-291 -395h217v116h74v-179h-393zM161 606l65 154h100l-101 -154h-64z" />
<glyph unicode="&#x17b;" d="M49 0v63l352 580h-258v-159h-76v222h429v-63l-353 -580h276v178h77v-241h-447zM226 803v83h90v-83h-90z" />
<glyph unicode="&#x17c;" horiz-adv-x="437" d="M16 0v63l289 394h-205v-109h-75v173h384v-63l-291 -395h217v116h74v-179h-393zM173 634v81h90v-81h-90z" />
<glyph unicode="&#x17d;" d="M49 0v63l352 580h-258v-159h-76v222h429v-63l-353 -580h276v178h77v-241h-447zM136 886h53l82 -58l86 58h53l-97 -111h-85z" />
<glyph unicode="&#x17e;" horiz-adv-x="437" d="M16 0v63l289 394h-205v-109h-75v173h384v-63l-291 -395h217v116h74v-179h-393zM98 748h57l66 -91l66 91h59l-80 -142h-90z" />
<glyph unicode="&#x218;" d="M47 0v240h72q8 -82 52 -135.5t121 -53.5q55 0 90.5 36.5t35.5 91.5q0 46 -28 77.5t-62 45t-86.5 32t-79.5 33.5q-105 59 -105 166q0 81 54 134.5t135 53.5q111 0 168 -90q1 47 2 75h66v-223h-73q-7 73 -44 123t-112 50q-51 0 -85 -32t-34 -82q0 -36 14.5 -60t43 -39 t58.5 -25.5t72 -26t73 -33.5q104 -60 104 -175q0 -88 -56 -142t-145 -54q-114 0 -180 90l-2 -77h-69zM200 -198l48 144h92l-85 -144h-55z" />
<glyph unicode="&#x219;" horiz-adv-x="437" d="M37 0v180h68q5 -46 36 -86.5t87 -40.5q40 0 66 23t26 57q0 14 -3.5 25.5t-12.5 21t-15.5 15.5t-23 13.5t-23.5 10.5t-27.5 10.5t-25.5 9.5q-42 16 -60 24t-43.5 25.5t-35.5 41t-10 56.5q0 68 45 107.5t106 39.5q82 0 132 -68l3 56h64v-175h-67q-6 53 -37 87.5t-82 34.5 q-39 0 -61 -21.5t-22 -51.5q0 -19 6.5 -32.5t24 -23.5t29 -14.5t41.5 -14.5q34 -12 52 -19t46.5 -22t43 -31t26 -42t11.5 -58q0 -65 -43 -108t-120 -43q-37 0 -66.5 13.5t-41.5 26.5t-25 32l-4 -59h-64zM147 -198l48 144h92l-85 -144h-55z" />
<glyph unicode="&#x21a;" horiz-adv-x="562" d="M19 483v223h519v-223h-72v160h-145v-580h74v-63h-229v63h73v580h-146v-160h-74zM210 -198l48 144h92l-85 -144h-55z" />
<glyph unicode="&#x21b;" horiz-adv-x="313" d="M14 458v63h76v112l85 18v-130h114v-63h-114v-334q0 -37 14.5 -52t52.5 -15q12 0 54 7v-67q-54 -7 -70 -7q-75 0 -105.5 28.5t-30.5 100.5v339h-76zM95 -198l48 144h92l-85 -144h-55z" />
<glyph unicode="&#x2c6;" horiz-adv-x="292" d="M22 606l80 142h90l78 -142h-57l-66 91l-66 -91h-59z" />
<glyph unicode="&#x2da;" horiz-adv-x="292" d="M45 680q0 41 29.5 69t71.5 28t71.5 -28t29.5 -69t-29.5 -69t-71.5 -28q-43 0 -72 27t-29 70zM87 680q0 -24 17.5 -42t41.5 -18t42 18t18 42t-18 41.5t-42 17.5q-25 0 -42 -17t-17 -42z" />
<glyph unicode="&#x2dc;" horiz-adv-x="292" d="M3 615q1 60 19.5 91t50.5 31q28 0 54 -17l57 -37q19 -12 30 -12q21 0 25 63h50q0 -124 -72 -124q-30 0 -57 17l-52 33q-20 13 -31 13q-22 0 -25 -58h-49z" />
<glyph unicode="&#x37e;" horiz-adv-x="292" d="M71 -107l55 206h126l-110 -206h-71zM126 416v105h105v-105h-105z" />
<glyph unicode="&#x394;" horiz-adv-x="624" d="M9 0l267 706h78l261 -706h-606zM119 66h386l-191 537z" />
<glyph unicode="&#x3a9;" horiz-adv-x="624" d="M40 0v63h152q-144 110 -144 323q0 154 72.5 245t194.5 91t191 -88.5t69 -234.5q0 -201 -150 -336h157v-63h-221v64q131 113 131 315q0 129 -47.5 202t-132.5 73q-86 0 -134 -74t-48 -205q0 -220 132 -311v-64h-222z" />
<glyph unicode="&#x3bc;" d="M5 458v63h157v-351q0 -114 96 -114q26 0 46 11t32 32.5t19.5 42.5t10 52t3.5 49t1 45v170h-74v63h157v-458h73v-63h-145l-5 73q-42 -85 -131 -85q-48 0 -90 39v-231h-76v662h-74z" />
<glyph unicode="&#x3c0;" horiz-adv-x="517" d="M21 0v64h68v391h-65v64h469v-64h-66v-327q0 -41 11.5 -53t48.5 -12h14v-63h-35q-71 0 -94.5 23.5t-23.5 82.5v349h-180v-391h66v-64h-213z" />
<glyph unicode="&#x2000;" horiz-adv-x="472" />
<glyph unicode="&#x2001;" horiz-adv-x="945" />
<glyph unicode="&#x2002;" horiz-adv-x="472" />
<glyph unicode="&#x2003;" horiz-adv-x="945" />
<glyph unicode="&#x2004;" horiz-adv-x="315" />
<glyph unicode="&#x2005;" horiz-adv-x="236" />
<glyph unicode="&#x2006;" horiz-adv-x="157" />
<glyph unicode="&#x2007;" horiz-adv-x="157" />
<glyph unicode="&#x2008;" horiz-adv-x="118" />
<glyph unicode="&#x2009;" horiz-adv-x="189" />
<glyph unicode="&#x200a;" horiz-adv-x="52" />
<glyph unicode="&#x2010;" horiz-adv-x="436" d="M34 245v79h368v-79h-368z" />
<glyph unicode="&#x2011;" horiz-adv-x="436" d="M34 245v79h368v-79h-368z" />
<glyph unicode="&#x2012;" horiz-adv-x="436" d="M34 245v79h368v-79h-368z" />
<glyph unicode="&#x2013;" horiz-adv-x="583" d="M34 245v79h515v-79h-515z" />
<glyph unicode="&#x2014;" horiz-adv-x="758" d="M34 245v79h690v-79h-690z" />
<glyph unicode="&#x2018;" horiz-adv-x="231" d="M10 487l116 219h72l-67 -219h-121z" />
<glyph unicode="&#x2019;" horiz-adv-x="231" d="M16 486l66 220h121l-115 -220h-72z" />
<glyph unicode="&#x201a;" horiz-adv-x="250" d="M26 -118l68 220h119l-116 -220h-71z" />
<glyph unicode="&#x201c;" horiz-adv-x="408" d="M10 487l116 219h72l-67 -219h-121zM187 487l116 219h72l-67 -219h-121z" />
<glyph unicode="&#x201d;" horiz-adv-x="409" d="M16 487l67 219h121l-116 -219h-72zM193 487l67 219h121l-116 -219h-72z" />
<glyph unicode="&#x201e;" horiz-adv-x="409" d="M16 -116l67 219h121l-116 -219h-72zM193 -116l67 219h121l-116 -219h-72z" />
<glyph unicode="&#x2022;" horiz-adv-x="424" d="M123 230v188h178v-188h-178z" />
<glyph unicode="&#x2026;" horiz-adv-x="1000" d="M125 0v81h83v-81h-83zM458 0v81h83v-81h-83zM791 0v81h84v-81h-84z" />
<glyph unicode="&#x202f;" horiz-adv-x="189" />
<glyph unicode="&#x2039;" horiz-adv-x="208" d="M20 287l85 171h68l-63 -171l63 -170h-68z" />
<glyph unicode="&#x203a;" horiz-adv-x="208" d="M31 116l63 165l-63 171h68l86 -171l-86 -165h-68z" />
<glyph unicode="&#x205f;" horiz-adv-x="236" />
<glyph unicode="&#x20ac;" horiz-adv-x="622" d="M36 267v61h69q0 51 1 71h-70v61h77q20 127 80 194.5t154 67.5q112 0 159 -80v64h64v-203h-69q-18 82 -54 119t-91 37q-130 0 -161 -199h239v-61h-245q-1 -20 -1 -71h246v-61h-242q10 -105 51 -161t108 -56q56 0 94.5 37t47.5 99h76q-11 -94 -68 -146.5t-146 -52.5 q-111 0 -171.5 69t-75.5 211h-72z" />
<glyph unicode="&#x2122;" horiz-adv-x="723" d="M17 605v101h266v-101h-38v58h-69v-251h40v-38h-128v38h38v251h-70v-58h-39zM308 374v37h38v256h-38v39h115l78 -241l78 241h114v-39h-35v-256h35v-37h-115v37h32v256l-96 -293h-29l-96 292v-255h32v-37h-113z" />
<glyph unicode="&#x25fc;" horiz-adv-x="520" d="M0 0v520h520v-520h-520z" />
</font>
</defs>
</svg>
